<?xml version="1.0" encoding="utf-8"?>
<!-- Generator: Adobe Illustrator 16.0.0, SVG Export Plug-In . SVG Version: 6.00 Build 0)  -->
<!DOCTYPE svg PUBLIC "-//W3C//DTD SVG 1.1//EN" "http://www.w3.org/Graphics/SVG/1.1/DTD/svg11.dtd">
<svg version="1.1" id="Layer_1" xmlns="http://www.w3.org/2000/svg" xmlns:xlink="http://www.w3.org/1999/xlink" x="0px" y="0px"
	 width="74px" height="56px" viewBox="0 0 74 56" enable-background="new 0 0 74 56" xml:space="preserve">
<g>
	<g>
		<rect x="12.078" y="1.92" fill="#FB8C00" width="16" height="48"/>
		<path fill="#FB7A00" d="M28.078,1.92v46h-14v-46H28.078 M30.078-0.08h-18v50h18V-0.08L30.078-0.08z"/>
	</g>
	<g>
		<rect x="34.078" y="23.92" fill="#6B767E" width="18" height="26"/>
	</g>
	<g>
		<rect x="56.078" y="11.92" fill="#FB8C00" width="16" height="38"/>
		<g>
			<path fill="#FB7A00" d="M72.078,11.92v36h-14v-36H72.078 M74.078,9.92h-18v40h18V9.92L74.078,9.92z"/>
		</g>
	</g>
	<rect x="0.078" y="-0.08" fill="#919191" width="8" height="54"/>
	<rect x="0.078" y="47.92" fill="#919191" width="74" height="8"/>
	<polyline fill="#FB7A00" points="14.078,47.92 28.078,47.92 28.078,1.92 	"/>
	<polyline fill="#FB7A00" points="58.078,47.92 72.078,47.92 72.078,13.92 	"/>
	<polyline fill="#717171" points="36.018,45.92 50.018,45.92 50.018,27.92 	"/>
	<path fill="#919191" d="M36.078,42.92c-0.264-5.371-0.074-10.711,0.234-16.047l0.039-0.684l0.684-0.037
		c4.336-0.238,8.676-0.346,13.045,0.016c-4.299,0.865-8.623,1.254-12.955,1.516l0.721-0.717
		C37.484,32.299,37.01,37.623,36.078,42.92z"/>
	<path fill="#FF9C4E" d="M14.559,20.112c-0.343-3.052-0.484-6.099-0.621-9.149c-0.117-3.047-0.158-6.094-0.14-9.144l0.004-0.769
		l0.755,0.008c2.086,0.022,4.172,0.05,6.26,0.2c2.086,0.114,4.172,0.269,6.261,0.561c-2.086,0.292-4.173,0.445-6.261,0.56
		c-2.086,0.15-4.172,0.178-6.26,0.2l0.76-0.76c0.019,3.048-0.021,6.096-0.139,9.146C15.042,14.012,14.902,17.061,14.559,20.112z"/>
	<path fill="#FF9C4E" d="M58.559,30.112c-0.344-3.052-0.483-6.099-0.621-9.147c-0.117-3.049-0.156-6.095-0.141-9.146l0.004-0.771
		l0.756,0.008c2.086,0.023,4.172,0.051,6.26,0.201c2.086,0.115,4.172,0.268,6.261,0.562c-2.086,0.293-4.173,0.444-6.261,0.559
		c-2.086,0.152-4.172,0.181-6.26,0.201l0.76-0.76c0.019,3.047-0.022,6.096-0.139,9.146C59.043,24.012,58.902,27.061,58.559,30.112z"
		/>
	<path opacity="0.6" fill="#4B4B4B" enable-background="new    " d="M0.078-0.08l0.584,13.746L1.12,27.414
		c0.33,9.164,0.476,18.332,0.702,27.498l-0.727-0.721c12.165,0.078,24.329,0.395,36.495,0.588l18.246,0.486
		c6.082,0.201,12.162,0.389,18.242,0.655c-6.084,0.103-12.168,0.123-18.254,0.158l-18.25-0.013
		c-12.166-0.139-24.334-0.153-36.498-0.407l-0.716-0.015l-0.008-0.709C0.241,45.768,0.052,36.6,0.046,27.43L0,13.676L0.078-0.08z"/>
	<g opacity="0.5">
		<polygon fill="#717171" points="73.674,55.924 0.078,55.01 0.086,-0.08 2.086,-0.08 2.078,53.034 73.699,53.924 		"/>
	</g>
	<polygon fill="#717171" points="8.078,-0.08 6.578,49.92 74.078,47.92 8.078,47.92 	"/>
</g>
</svg>
