<?xml version="1.0" encoding="UTF-8" standalone="no"?>
<!-- Generator: Adobe Illustrator 16.0.0, SVG Export Plug-In . SVG Version: 6.00 Build 0)  -->

<svg
   xmlns:dc="http://purl.org/dc/elements/1.1/"
   xmlns:cc="http://creativecommons.org/ns#"
   xmlns:rdf="http://www.w3.org/1999/02/22-rdf-syntax-ns#"
   xmlns:svg="http://www.w3.org/2000/svg"
   xmlns="http://www.w3.org/2000/svg"
   xmlns:sodipodi="http://sodipodi.sourceforge.net/DTD/sodipodi-0.dtd"
   xmlns:inkscape="http://www.inkscape.org/namespaces/inkscape"
   version="1.1"
   id="Capa_1"
   x="0px"
   y="0px"
   width="612px"
   height="612px"
   viewBox="0 0 612 612"
   style="enable-background:new 0 0 612 612;"
   xml:space="preserve"
   sodipodi:docname="addition-sign-small_green.svg"
   inkscape:version="0.92.5 (2060ec1f9f, 2020-04-08)"><metadata
   id="metadata3853"><rdf:RDF><cc:Work
       rdf:about=""><dc:format>image/svg+xml</dc:format><dc:type
         rdf:resource="http://purl.org/dc/dcmitype/StillImage" /><dc:title /></cc:Work></rdf:RDF></metadata><defs
   id="defs3851">
		
	
			
		</defs><sodipodi:namedview
   pagecolor="#ffffff"
   bordercolor="#666666"
   borderopacity="1"
   objecttolerance="10"
   gridtolerance="10"
   guidetolerance="10"
   inkscape:pageopacity="0"
   inkscape:pageshadow="2"
   inkscape:window-width="2560"
   inkscape:window-height="1374"
   id="namedview3849"
   showgrid="false"
   inkscape:zoom="1.4411765"
   inkscape:cx="147.62393"
   inkscape:cy="322.62545"
   inkscape:window-x="0"
   inkscape:window-y="36"
   inkscape:window-maximized="1"
   inkscape:current-layer="g3816" />
<g
   id="g3816"
   transform="matrix(0.67346938,0,0,0.67346938,99.918372,99.918372)"
   style="display:inline">
	<path
   d="M 529.70455,231.43182 H 380.56818 V 82.295455 C 380.56818,41.115298 347.18016,7.7272728 306,7.7272728 c -41.18016,0 -74.56818,33.3880252 -74.56818,74.5681822 V 231.43182 H 82.295455 c -41.180157,0 -74.5681822,33.38802 -74.5681822,74.56818 0,41.18016 33.3880252,74.56818 74.5681822,74.56818 H 231.43182 v 149.13637 c 0,41.18015 33.38802,74.56818 74.56818,74.56818 41.18016,0 74.56818,-33.38803 74.56818,-74.56818 V 380.56818 h 149.13637 c 41.18015,0 74.56818,-33.38802 74.56818,-74.56818 0,-41.18016 -33.38803,-74.56818 -74.56818,-74.56818 z"
   id="path3811"
   inkscape:connector-curvature="0"
   style="display:inline;stroke-width:0.97474748;fill:#30b743;fill-opacity:1" />
</g>
<g
   id="g3818"
   transform="matrix(0.65646258,0,0,0.65646258,105.12245,105.12245)">
</g>
<g
   id="g3820"
   transform="matrix(0.65646258,0,0,0.65646258,105.12245,105.12245)">
</g>
<g
   id="g3822"
   transform="matrix(0.65646258,0,0,0.65646258,105.12245,105.12245)">
</g>
<g
   id="g3824"
   transform="matrix(0.65646258,0,0,0.65646258,105.12245,105.12245)">
</g>
<g
   id="g3826"
   transform="matrix(0.65646258,0,0,0.65646258,105.12245,105.12245)">
</g>
<g
   id="g3828"
   transform="matrix(0.65646258,0,0,0.65646258,105.12245,105.12245)">
</g>
<g
   id="g3830"
   transform="matrix(0.65646258,0,0,0.65646258,105.12245,105.12245)">
</g>
<g
   id="g3832"
   transform="matrix(0.65646258,0,0,0.65646258,105.12245,105.12245)">
</g>
<g
   id="g3834"
   transform="matrix(0.65646258,0,0,0.65646258,105.12245,105.12245)">
</g>
<g
   id="g3836"
   transform="matrix(0.65646258,0,0,0.65646258,105.12245,105.12245)">
</g>
<g
   id="g3838"
   transform="matrix(0.65646258,0,0,0.65646258,105.12245,105.12245)">
</g>
<g
   id="g3840"
   transform="matrix(0.65646258,0,0,0.65646258,105.12245,105.12245)">
</g>
<g
   id="g3842"
   transform="matrix(0.65646258,0,0,0.65646258,105.12245,105.12245)">
</g>
<g
   id="g3844"
   transform="matrix(0.65646258,0,0,0.65646258,105.12245,105.12245)"
   style="display:inline">
</g>
<g
   id="g3846"
   transform="matrix(0.65646258,0,0,0.65646258,105.12245,105.12245)"
   style="display:inline">
</g>
</svg>