<?xml version="1.0" encoding="UTF-8" standalone="no"?>
<!-- Generator: Adobe Illustrator 16.0.0, SVG Export Plug-In . SVG Version: 6.00 Build 0)  -->

<svg
   xmlns:dc="http://purl.org/dc/elements/1.1/"
   xmlns:cc="http://creativecommons.org/ns#"
   xmlns:rdf="http://www.w3.org/1999/02/22-rdf-syntax-ns#"
   xmlns:svg="http://www.w3.org/2000/svg"
   xmlns="http://www.w3.org/2000/svg"
   xmlns:sodipodi="http://sodipodi.sourceforge.net/DTD/sodipodi-0.dtd"
   xmlns:inkscape="http://www.inkscape.org/namespaces/inkscape"
   version="1.1"
   id="Layer_1"
   x="0px"
   y="0px"
   width="74px"
   height="56px"
   viewBox="0 0 74 56"
   enable-background="new 0 0 74 56"
   xml:space="preserve"
   sodipodi:docname="audit-evaluation.svg"
   inkscape:version="0.92.3 (2405546, 2018-03-11)"><metadata
   id="metadata2713"><rdf:RDF><cc:Work
       rdf:about=""><dc:format>image/svg+xml</dc:format><dc:type
         rdf:resource="http://purl.org/dc/dcmitype/StillImage" /><dc:title /></cc:Work></rdf:RDF></metadata><defs
   id="defs2711"><pattern
     y="0"
     x="0"
     height="6"
     width="6"
     patternUnits="userSpaceOnUse"
     id="EMFhbasepattern" /></defs><sodipodi:namedview
   pagecolor="#ffffff"
   bordercolor="#666666"
   borderopacity="1"
   objecttolerance="10"
   gridtolerance="10"
   guidetolerance="10"
   inkscape:pageopacity="0"
   inkscape:pageshadow="2"
   inkscape:window-width="1920"
   inkscape:window-height="1001"
   id="namedview2709"
   showgrid="false"
   inkscape:zoom="6.32"
   inkscape:cx="-9.1202532"
   inkscape:cy="19.666667"
   inkscape:window-x="-9"
   inkscape:window-y="-9"
   inkscape:window-maximized="1"
   inkscape:current-layer="Layer_1" />









<path
   id="path819"
   d="M 19.10563,46.718352 9.4297834,47.825804 20.425065,31.580086 34.005582,37.88617 22.81721,54.424768 Z"
   style="fill:#fb8c00;fill-opacity:1;fill-rule:nonzero;stroke:none;stroke-width:0.12385821"
   inkscape:connector-curvature="0" /><path
   id="path821"
   d="M 55.089613,46.827712 64.56413,47.919449 53.797637,31.904271 40.499703,38.120866 51.455263,54.424768 Z"
   style="fill:#fb8c00;fill-opacity:1;fill-rule:nonzero;stroke:none;stroke-width:0.12169006"
   inkscape:connector-curvature="0" /><path
   id="path817"
   d="m 58.940465,19.892808 c 0,10.247361 -9.828648,18.560929 -21.943512,18.560929 -12.125066,0 -21.94351,-8.313568 -21.94351,-18.560929 0,-10.2473628 9.818444,-18.5609316 21.94351,-18.5609316 12.114864,0 21.943512,8.3135688 21.943512,18.5609316 z"
   style="fill:#006df0;fill-opacity:1;fill-rule:nonzero;stroke:none;stroke-width:0.11733501"
   inkscape:connector-curvature="0" /><path
   id="path823"
   d="m 52.306383,19.892808 c 0,7.148115 -6.858626,12.949486 -15.30943,12.949486 -8.461007,0 -15.309428,-5.801371 -15.309428,-12.949486 0,-7.148118 6.848421,-12.9494883 15.309428,-12.9494883 8.450804,0 15.30943,5.8013703 15.30943,12.9494883 z"
   style="fill:#ffffff;fill-opacity:1;fill-rule:nonzero;stroke:none;stroke-width:0.11733501"
   inkscape:connector-curvature="0" /><path
   id="path825"
   d="m 47.522809,17.28758 -5.354226,4.252818 1.274815,5.993501 -6.616901,-2.828618 -6.604756,2.828618 1.250529,-5.993501 -5.342087,-4.252818 7.393936,-0.870347 3.302378,-5.459425 3.302384,5.459425 z"
   style="fill:#fb8c00;fill-opacity:1;fill-rule:nonzero;stroke:none;stroke-width:0.1369766"
   inkscape:connector-curvature="0" /></svg>