<?xml version="1.0" encoding="UTF-8" standalone="no"?>
<!-- Generator: Adobe Illustrator 16.0.0, SVG Export Plug-In . SVG Version: 6.00 Build 0)  -->

<svg
   xmlns:dc="http://purl.org/dc/elements/1.1/"
   xmlns:cc="http://creativecommons.org/ns#"
   xmlns:rdf="http://www.w3.org/1999/02/22-rdf-syntax-ns#"
   xmlns:svg="http://www.w3.org/2000/svg"
   xmlns="http://www.w3.org/2000/svg"
   xmlns:sodipodi="http://sodipodi.sourceforge.net/DTD/sodipodi-0.dtd"
   xmlns:inkscape="http://www.inkscape.org/namespaces/inkscape"
   version="1.1"
   id="Capa_1"
   x="0px"
   y="0px"
   width="612px"
   height="612px"
   viewBox="0 0 612 612"
   style="enable-background:new 0 0 612 612;"
   xml:space="preserve"
   sodipodi:docname="cross-sign-small-red.svg"
   inkscape:version="0.92.2 5c3e80d, 2017-08-06"><metadata
     id="metadata3853"><rdf:RDF><cc:Work
         rdf:about=""><dc:format>image/svg+xml</dc:format><dc:type
           rdf:resource="http://purl.org/dc/dcmitype/StillImage" /><dc:title /></cc:Work></rdf:RDF></metadata><defs
     id="defs3851" /><sodipodi:namedview
     pagecolor="#ffffff"
     bordercolor="#666666"
     borderopacity="1"
     objecttolerance="10"
     gridtolerance="10"
     guidetolerance="10"
     inkscape:pageopacity="0"
     inkscape:pageshadow="2"
     inkscape:window-width="1573"
     inkscape:window-height="846"
     id="namedview3849"
     showgrid="false"
     inkscape:zoom="1.4411765"
     inkscape:cx="13.358627"
     inkscape:cy="322.62545"
     inkscape:window-x="1551"
     inkscape:window-y="76"
     inkscape:window-maximized="0"
     inkscape:current-layer="g3816" /><g
     id="g3816"
     transform="matrix(0.67346938,0,0,0.67346938,99.918372,99.918372)"
     style="display:inline"><path
       d="M 513.09204,379.33649 389.19753,247.27273 513.09204,115.20896 c 34.21028,-36.465986 34.21028,-95.597752 0,-132.063751 -34.21027,-36.466 -89.68424,-36.465995 -123.8945,2e-6 L 265.30303,115.20897 141.40853,-16.854789 c -34.21027,-36.465997 -89.684242,-36.466002 -123.89451,-2e-6 -34.210271,36.465999 -34.210266,95.597765 3e-6,132.063751 L 141.40853,247.27273 17.514018,379.33649 c -34.210263,36.46599 -34.210272,95.59776 0,132.06376 34.21027,36.466 89.684242,36.46599 123.894502,0 L 265.30303,379.33648 389.19754,511.40025 c 34.21026,36.46599 89.68423,36.466 123.8945,0 34.21028,-36.466 34.21026,-95.59777 0,-132.06376 z"
       id="path3811"
       inkscape:connector-curvature="0"
       style="display:inline;fill:#d75a4a;fill-opacity:1;stroke-width:1.1823374" /></g><g
     id="g3818"
     transform="matrix(0.65646258,0,0,0.65646258,105.12245,105.12245)" /><g
     id="g3820"
     transform="matrix(0.65646258,0,0,0.65646258,105.12245,105.12245)" /><g
     id="g3822"
     transform="matrix(0.65646258,0,0,0.65646258,105.12245,105.12245)" /><g
     id="g3824"
     transform="matrix(0.65646258,0,0,0.65646258,105.12245,105.12245)" /><g
     id="g3826"
     transform="matrix(0.65646258,0,0,0.65646258,105.12245,105.12245)" /><g
     id="g3828"
     transform="matrix(0.65646258,0,0,0.65646258,105.12245,105.12245)" /><g
     id="g3830"
     transform="matrix(0.65646258,0,0,0.65646258,105.12245,105.12245)" /><g
     id="g3832"
     transform="matrix(0.65646258,0,0,0.65646258,105.12245,105.12245)" /><g
     id="g3834"
     transform="matrix(0.65646258,0,0,0.65646258,105.12245,105.12245)" /><g
     id="g3836"
     transform="matrix(0.65646258,0,0,0.65646258,105.12245,105.12245)" /><g
     id="g3838"
     transform="matrix(0.65646258,0,0,0.65646258,105.12245,105.12245)" /><g
     id="g3840"
     transform="matrix(0.65646258,0,0,0.65646258,105.12245,105.12245)" /><g
     id="g3842"
     transform="matrix(0.65646258,0,0,0.65646258,105.12245,105.12245)" /><g
     id="g3844"
     transform="matrix(0.65646258,0,0,0.65646258,105.12245,105.12245)"
     style="display:inline" /><g
     id="g3846"
     transform="matrix(0.65646258,0,0,0.65646258,105.12245,105.12245)"
     style="display:inline" /></svg>