<?xml version="1.0" encoding="UTF-8" standalone="no"?>
<!-- Generator: Adobe Illustrator 16.0.0, SVG Export Plug-In . SVG Version: 6.00 Build 0)  -->

<svg
   xmlns:dc="http://purl.org/dc/elements/1.1/"
   xmlns:cc="http://creativecommons.org/ns#"
   xmlns:rdf="http://www.w3.org/1999/02/22-rdf-syntax-ns#"
   xmlns:svg="http://www.w3.org/2000/svg"
   xmlns="http://www.w3.org/2000/svg"
   xmlns:sodipodi="http://sodipodi.sourceforge.net/DTD/sodipodi-0.dtd"
   xmlns:inkscape="http://www.inkscape.org/namespaces/inkscape"
   version="1.1"
   id="Layer_1"
   x="0px"
   y="0px"
   width="74px"
   height="56px"
   viewBox="0 0 74 56"
   enable-background="new 0 0 74 56"
   xml:space="preserve"
   sodipodi:docname="learnStats-discreteDist.svg"
   inkscape:version="0.92.2 5c3e80d, 2017-08-06"><metadata
     id="metadata85"><rdf:RDF><cc:Work
         rdf:about=""><dc:format>image/svg+xml</dc:format><dc:type
           rdf:resource="http://purl.org/dc/dcmitype/StillImage" /><dc:title></dc:title></cc:Work></rdf:RDF></metadata><defs
     id="defs83" /><sodipodi:namedview
     pagecolor="#ffffff"
     bordercolor="#666666"
     borderopacity="1"
     objecttolerance="10"
     gridtolerance="10"
     guidetolerance="10"
     inkscape:pageopacity="0"
     inkscape:pageshadow="2"
     inkscape:window-width="1405"
     inkscape:window-height="942"
     id="namedview81"
     showgrid="false"
     inkscape:zoom="4.2142857"
     inkscape:cx="2.8052498"
     inkscape:cy="9.0169492"
     inkscape:window-x="224"
     inkscape:window-y="31"
     inkscape:window-maximized="0"
     inkscape:current-layer="Layer_1" /><rect
     style="fill:#919191"
     x="0"
     id="rect2"
     height="54"
     width="8"
     y="-0.118" /><rect
     style="fill:#919191"
     x="0"
     id="rect4"
     height="8"
     width="74"
     y="47.882" /><g
     style="opacity:0.5"
     id="g8"><polygon
       style="fill:#717171"
       id="polygon6"
       points="0.293,-0.118 2.293,-0.118 2.285,52.976 73.907,53.857 73.882,55.847 0.285,54.951 " /></g><polygon
     style="fill:#717171"
     id="polygon10"
     points="74.285,47.843 8.285,47.843 8.285,-0.158 6.785,49.843 " /><path
     style="opacity:0.6;fill:#4b4b4b"
     inkscape:connector-curvature="0"
     id="path76"
     d="M 0.285,-0.158 0.87,13.587 1.327,27.334 c 0.329,9.165 0.477,18.333 0.7,27.499 L 1.301,54.111 c 12.167,0.078 24.33,0.396 36.495,0.588 l 18.245,0.486 c 6.081,0.199 12.162,0.389 18.242,0.656 C 68.199,55.943 62.115,55.967 56.029,56 L 37.779,55.988 C 25.614,55.849 13.447,55.835 1.283,55.581 L 0.566,55.566 0.557,54.859 C 0.446,45.691 0.257,36.523 0.25,27.353 L 0.203,13.599 Z"
     enable-background="new    " /><rect
     id="rect930"
     width="17.084745"
     height="39.627117"
     x="11.864407"
     y="-47.694912"
     style="fill:#fb8c00;fill-opacity:1"
     transform="scale(1,-1)" /><rect
     transform="scale(1,-1)"
     style="fill:#c65000;fill-opacity:1;stroke-width:0.71342975"
     y="-47.694912"
     x="32.271187"
     height="20.169491"
     width="17.084745"
     id="rect932" /><rect
     id="rect934"
     width="17.084745"
     height="9.9661007"
     x="52.915257"
     y="-47.932201"
     style="fill:#9d160c;fill-opacity:1;stroke-width:0.50149477"
     transform="scale(1,-1)" /></svg>