<?xml version="1.0" encoding="UTF-8" standalone="no"?>
<!-- Generator: Adobe Illustrator 16.0.0, SVG Export Plug-In . SVG Version: 6.00 Build 0)  -->

<svg
   xmlns:dc="http://purl.org/dc/elements/1.1/"
   xmlns:cc="http://creativecommons.org/ns#"
   xmlns:rdf="http://www.w3.org/1999/02/22-rdf-syntax-ns#"
   xmlns:svg="http://www.w3.org/2000/svg"
   xmlns="http://www.w3.org/2000/svg"
   xmlns:sodipodi="http://sodipodi.sourceforge.net/DTD/sodipodi-0.dtd"
   xmlns:inkscape="http://www.inkscape.org/namespaces/inkscape"
   version="1.1"
   id="Layer_1"
   x="0px"
   y="0px"
   width="74px"
   height="56px"
   viewBox="0 0 74 56"
   enable-background="new 0 0 74 56"
   xml:space="preserve"
   sodipodi:docname="learnStats-distributions.svg"
   inkscape:version="0.92.2 5c3e80d, 2017-08-06"><sodipodi:namedview
     pagecolor="#ffffff"
     bordercolor="#666666"
     borderopacity="1"
     objecttolerance="10"
     gridtolerance="10"
     guidetolerance="10"
     inkscape:pageopacity="0"
     inkscape:pageshadow="2"
     inkscape:window-width="1915"
     inkscape:window-height="991"
     id="namedview81"
     showgrid="false"
     inkscape:zoom="8.4285714"
     inkscape:cx="10.986758"
     inkscape:cy="21.452641"
     inkscape:window-x="0"
     inkscape:window-y="0"
     inkscape:window-maximized="0"
     inkscape:current-layer="Layer_1" /><metadata
     id="metadata85"><rdf:RDF><cc:Work
         rdf:about=""><dc:format>image/svg+xml</dc:format><dc:type
           rdf:resource="http://purl.org/dc/dcmitype/StillImage" /><dc:title /></cc:Work></rdf:RDF></metadata><defs
     id="defs83" /><path
     style="opacity:0.8;fill:#ff6600;stroke-width:1.04909742"
     d="M 39.492188 3.7519531 C 38.579632 3.7517749 37.666462 3.9347028 36.753906 4.3007812 C 34.928796 5.032938 33.104408 6.489974 31.279297 8.4746094 C 29.454186 10.459244 27.627845 12.960211 25.802734 15.664062 C 23.977623 18.367914 22.153236 21.266349 20.328125 24.064453 C 18.503014 26.862557 16.676672 29.556359 14.851562 31.960938 C 13.026452 34.365516 11.202064 36.483568 9.3769531 38.259766 C 7.5518423 40.035963 5.7274544 41.475915 3.9023438 42.623047 C 2.077233 43.770179 0.25089195 44.629168 -1.5742188 45.283203 C -3.3993294 45.937238 -5.2237174 46.389522 -7.0488281 46.720703 C -8.8739389 47.051885 -10.698327 47.262573 -12.523438 47.412109 C -14.348548 47.561644 -16.174889 47.650557 -18 47.710938 C -19.825111 47.771309 -21.649499 47.804332 -23.474609 47.826172 C -25.29972 47.848012 -27.124109 47.858134 -28.949219 47.865234 C -30.77433 47.872274 -32.60067 47.874853 -34.425781 47.876953 C -36.250891 47.879053 -38.07528 47.880316 -39.900391 47.880859 C -41.725501 47.881401 -43.551842 47.880731 -45.376953 47.880859 C -47.202063 47.880987 -49.026452 47.882785 -50.851562 47.882812 L -0.93554688 47.882812 C 0.67669504 47.261818 2.2901018 46.484041 3.9023438 45.470703 C 5.7274544 44.323571 7.5518423 42.883619 9.3769531 41.107422 C 11.202064 39.331224 13.026452 37.213172 14.851562 34.808594 C 16.676672 32.404016 18.503014 29.710213 20.328125 26.912109 C 22.153236 24.114005 23.977623 21.21557 25.802734 18.511719 C 27.627845 15.807867 29.454186 13.306901 31.279297 11.322266 C 33.104408 9.3376297 34.928796 7.8805943 36.753906 7.1484375 C 38.579017 6.4162807 40.403406 6.4177067 42.228516 7.1484375 C 44.053627 7.8791683 45.879967 9.3386527 47.705078 11.322266 C 49.530188 13.305878 51.354577 15.808268 53.179688 18.511719 C 55.004798 21.21517 56.829186 24.113818 58.654297 26.912109 C 60.479407 29.7104 62.305748 32.403461 64.130859 34.808594 C 65.95597 37.213728 67.780358 39.330563 69.605469 41.107422 C 71.43058 42.88428 73.25692 44.322997 75.082031 45.470703 C 76.694273 46.484548 78.305727 47.261709 79.917969 47.882812 L 129.83398 47.882812 C 128.00887 47.882785 126.18448 47.880987 124.35938 47.880859 C 122.53426 47.88073 120.70988 47.881402 118.88477 47.880859 C 117.05966 47.880259 115.23331 47.879053 113.4082 47.876953 C 111.58309 47.874883 109.7587 47.872334 107.93359 47.865234 C 106.10848 47.858134 104.28214 47.848032 102.45703 47.826172 C 100.63192 47.804311 98.807532 47.771367 96.982422 47.710938 C 95.157311 47.650505 93.332922 47.561772 91.507812 47.412109 C 89.682701 47.262446 87.856361 47.052129 86.03125 46.720703 C 84.20614 46.389278 82.381752 45.937645 80.556641 45.283203 C 78.731531 44.628761 76.907142 43.770753 75.082031 42.623047 C 73.25692 41.475341 71.43058 40.036624 69.605469 38.259766 C 67.780358 36.482907 65.95597 34.366071 64.130859 31.960938 C 62.305748 29.555805 60.479407 26.862744 58.654297 24.064453 C 56.829186 21.266162 55.004798 18.367514 53.179688 15.664062 C 51.354577 12.960612 49.530188 10.458221 47.705078 8.4746094 C 45.879967 6.490997 44.053627 5.031512 42.228516 4.3007812 C 41.315961 3.9354159 40.404743 3.7521314 39.492188 3.7519531 z "
     id="path4671" /><rect
     style="fill:#919191"
     x="0"
     id="rect2"
     height="54"
     width="8"
     y="-0.118" /><rect
     style="fill:#919191"
     x="0"
     id="rect4"
     height="8"
     width="74"
     y="47.882" /><g
     style="opacity:0.5"
     id="g8"><polygon
       style="fill:#717171"
       id="polygon6"
       points="0.293,-0.118 2.293,-0.118 2.285,52.976 73.907,53.857 73.882,55.847 0.285,54.951 " /></g><polygon
     style="fill:#717171"
     id="polygon10"
     points="74.285,47.843 8.285,47.843 8.285,-0.158 6.785,49.843 " /><path
     style="opacity:0.6;fill:#4b4b4b"
     inkscape:connector-curvature="0"
     id="path76"
     d="M 0.285,-0.158 0.87,13.587 1.327,27.334 c 0.329,9.165 0.477,18.333 0.7,27.499 L 1.301,54.111 c 12.167,0.078 24.33,0.396 36.495,0.588 l 18.245,0.486 c 6.081,0.199 12.162,0.389 18.242,0.656 C 68.199,55.943 62.115,55.967 56.029,56 L 37.779,55.988 C 25.614,55.849 13.447,55.835 1.283,55.581 L 0.566,55.566 0.557,54.859 C 0.446,45.691 0.257,36.523 0.25,27.353 L 0.203,13.599 Z"
     enable-background="new    " /><path
     style="fill:none;stroke:#000000;stroke-width:0.69999999;stroke-linecap:butt;stroke-linejoin:miter;stroke-miterlimit:4;stroke-dasharray:1.39999998,1.39999998;stroke-dashoffset:0;stroke-opacity:1"
     d="M 51.966102,14.711865 8.5423729,15.186441"
     id="path830"
     inkscape:connector-curvature="0" /><path
     style="fill:none;stroke:#000000;stroke-width:0.69999999;stroke-linecap:butt;stroke-linejoin:miter;stroke-miterlimit:4;stroke-dasharray:1.39999998,1.39999998;stroke-dashoffset:0;stroke-opacity:1"
     d="M 17.79661,28.711864 H 8.5423729"
     id="path832"
     inkscape:connector-curvature="0" /><path
     style="fill:none;stroke:#000000;stroke-width:0.69999999;stroke-linecap:butt;stroke-linejoin:miter;stroke-miterlimit:4;stroke-dasharray:1.39999998,1.39999998;stroke-dashoffset:0;stroke-opacity:1"
     d="M 51.966103,14.949153 V 47.457627"
     id="path834"
     inkscape:connector-curvature="0" /><circle
     r="1.8983051"
     cy="14.949153"
     cx="51.966103"
     id="circle828"
     style="opacity:1;fill:#919191;fill-opacity:1" /><path
     style="fill:none;stroke:#000000;stroke-width:0.69999999;stroke-linecap:butt;stroke-linejoin:miter;stroke-miterlimit:4;stroke-dasharray:1.39999998,1.39999998;stroke-dashoffset:0;stroke-opacity:1"
     d="M 18.033897,28.474576 V 47.457627"
     id="path836"
     inkscape:connector-curvature="0" /><circle
     style="opacity:1;fill:#919191;fill-opacity:1"
     id="path826"
     cx="18.033897"
     cy="28.711864"
     r="1.8983051" /></svg>