<?xml version="1.0" encoding="UTF-8" standalone="no"?>
<!-- Generator: Adobe Illustrator 16.0.0, SVG Export Plug-In . SVG Version: 6.00 Build 0)  -->

<svg
   xmlns:dc="http://purl.org/dc/elements/1.1/"
   xmlns:cc="http://creativecommons.org/ns#"
   xmlns:rdf="http://www.w3.org/1999/02/22-rdf-syntax-ns#"
   xmlns:svg="http://www.w3.org/2000/svg"
   xmlns="http://www.w3.org/2000/svg"
   xmlns:sodipodi="http://sodipodi.sourceforge.net/DTD/sodipodi-0.dtd"
   xmlns:inkscape="http://www.inkscape.org/namespaces/inkscape"
   version="1.1"
   id="Layer_1"
   x="0px"
   y="0px"
   width="74px"
   height="56px"
   viewBox="0 0 74 56"
   enable-background="new 0 0 74 56"
   xml:space="preserve"
   sodipodi:docname="learnStats-continuousDist.svg"
   inkscape:version="0.92.2 5c3e80d, 2017-08-06"><sodipodi:namedview
     pagecolor="#ffffff"
     bordercolor="#666666"
     borderopacity="1"
     objecttolerance="10"
     gridtolerance="10"
     guidetolerance="10"
     inkscape:pageopacity="0"
     inkscape:pageshadow="2"
     inkscape:window-width="1140"
     inkscape:window-height="758"
     id="namedview81"
     showgrid="false"
     inkscape:zoom="4.2142857"
     inkscape:cx="41.983051"
     inkscape:cy="46.983051"
     inkscape:window-x="0"
     inkscape:window-y="0"
     inkscape:window-maximized="0"
     inkscape:current-layer="Layer_1" /><metadata
     id="metadata85"><rdf:RDF><cc:Work
         rdf:about=""><dc:format>image/svg+xml</dc:format><dc:type
           rdf:resource="http://purl.org/dc/dcmitype/StillImage" /></cc:Work></rdf:RDF></metadata><defs
     id="defs83" /><path
     style="opacity:0.8;fill:#ff6600;stroke-width:1.04909742"
     d="m -231.53741,47.882001 c 1.82511,0 3.65022,0 5.47533,0 1.82511,0 3.65022,0 5.47533,0 1.82511,0 3.65022,0 5.47533,0 1.82511,0 3.65022,0 5.47534,0 1.82511,0 3.65022,0 5.47533,0 1.82511,0 3.65022,0 5.47533,0 1.82511,0 3.65022,0 5.47533,0 1.82511,0 3.65022,0 5.47533,0 1.82511,0 3.65023,0 5.47534,0 1.82511,0 3.65022,0 5.47533,0 1.82511,0 3.65022,0 5.47533,0 1.82511,0 3.65022,0 5.47533,0 1.82511,0 3.65022,0 5.47533,0 1.82512,0 3.65023,0 5.47534,0 1.82511,0 3.65022,0 5.47533,0 1.82511,0 3.65022,0 5.47533,0 1.82511,0 3.65022,0 5.47533,0 1.82511,0 3.65022,0 5.47534,0 1.82511,0 3.65022,0 5.47533,0 1.82511,0 3.65022,0 5.47533,0 1.82511,0 3.65022,0 5.47533,0 1.82511,0 3.65022,0 5.47533,0 1.82511,0 3.65023,0 5.47534,0 1.82511,0 3.65022,0 5.47533,0 1.825109,0 3.650219,0 5.47533,0 1.825111,0 3.650221,0 5.475332,0 1.825111,0 3.650222,0 5.475332,0 1.825111,0 3.650222,0 5.475332,0 1.825111,0 3.650222,0 5.475333,0 1.82511,0 3.650221,0 5.475332,0 1.82511,0 3.650221,-1e-6 5.475332,-2e-6 1.825111,0 3.650221,-2e-6 5.475332,-7e-6 1.825111,-5e-6 3.650221,-1.3e-5 5.475332,-4e-5 1.825111,-2.7e-5 3.650222,-6.9e-5 5.475332,-1.97e-4 1.825111,-1.28e-4 3.650222,-3.27e-4 5.475332,-8.69e-4 1.825111,-5.43e-4 3.650222,-0.0014 5.475332,-0.0035 1.825111,-0.0021 3.650222,-0.0053 5.475333,-0.01234 1.82511,-0.0071 3.650221,-0.01786 5.475332,-0.0397 1.82511,-0.02184 3.650221,-0.0544 5.475332,-0.114771 1.825111,-0.06038 3.650221,-0.148219 5.475332,-0.297754 1.825111,-0.149536 3.6502214,-0.360862 5.4753322,-0.692044 1.8251107,-0.331181 3.6502214,-0.783548 5.4753321,-1.437583 1.8251107,-0.654035 3.6502214,-1.513075 5.4753321,-2.660207 1.8251107,-1.147132 3.6502214,-2.587629 5.4753322,-4.363826 1.8251104,-1.776198 3.6502214,-3.893558 5.4753324,-6.298136 1.82511,-2.404578 3.650221,-5.098797 5.475332,-7.896901 1.825111,-2.798104 3.650221,-5.696612 5.475332,-8.400463 1.825111,-2.703852 3.650221,-5.203713 5.475332,-7.1883481 1.825111,-1.9846354 3.650222,-3.4427713 5.475332,-4.1749281 1.825111,-0.7321568 3.650222,-0.7307308 5.475332,0 1.825111,0.7307308 3.650222,2.1913157 5.475333,4.1749281 1.82511,1.9836121 3.650221,4.4848971 5.475332,7.1883481 1.82511,2.703451 3.650221,5.602172 5.475332,8.400463 1.82511,2.798291 3.650221,5.491768 5.475332,7.896901 1.825111,2.405134 3.650221,4.521277 5.475332,6.298136 1.825111,1.776858 3.650221,3.21612 5.475332,4.363826 1.825111,1.147706 3.650222,2.005765 5.475332,2.660207 1.825111,0.654442 3.650222,1.106158 5.475332,1.437583 1.825111,0.331426 3.650222,0.542381 5.475333,0.692044 1.82511,0.149663 3.650221,0.237321 5.475332,0.297754 1.82511,0.06043 3.650225,0.09291 5.475335,0.114771 1.82511,0.02186 3.65022,0.0326 5.47533,0.0397 1.82511,0.0071 3.65022,0.01027 5.47533,0.01234 1.82511,0.0021 3.65022,0.0029 5.47533,0.0035 1.82511,5.43e-4 3.65022,7.4e-4 5.47534,8.69e-4 1.82511,1.28e-4 3.65022,1.69e-4 5.47533,1.97e-4 1.82511,2.7e-5 3.65022,3.5e-5 5.47533,4e-5 1.82511,5e-6 3.65022,7e-6 5.47533,7e-6 1.82511,10e-7 3.65022,2e-6 5.47533,2e-6 1.82511,0 3.65023,0 5.47534,0 1.82511,0 3.65022,0 5.47533,0 1.82511,0 3.65022,0 5.47533,0 1.82511,0 3.65022,0 5.47533,0 1.82511,0 3.65022,0 5.47533,0 1.82512,0 3.65023,0 5.47534,0 1.82511,0 3.65022,0 5.47533,0 1.82511,0 3.65022,0 5.47533,0 1.82511,0 3.65022,0 5.47533,0 1.82511,0 3.65022,0 5.47534,0 1.82511,0 3.65022,0 5.47533,0 1.82511,0 3.65022,0 5.47533,0 1.82511,0 3.65022,0 5.47533,0 1.82511,0 3.65022,0 5.47533,0 1.82511,0 3.65023,0 5.47534,0 1.82511,0 3.65022,0 5.47533,0 1.82511,0 3.65022,0 5.47533,0 1.82511,0 3.65022,0 5.47533,0 1.82511,0 3.65022,0 5.47533,0 1.82512,0 3.65023,0 5.47534,0 1.82511,0 3.65022,0 5.47533,0 1.82511,0 3.65022,0 5.47533,0 1.82511,0 3.65022,0 5.47533,0 1.82511,0 3.65022,0 5.47534,0 1.82511,0 3.65022,0 5.47533,0 1.82511,0 3.65022,0 5.47533,0 1.82511,0 3.65022,0 5.47533,0 1.82511,0 3.65022,0 5.47533,0 1.82511,0 3.65023,0 5.47534,0 1.82511,0 3.65022,0 5.47533,0"
     title="t exp(-pow(t, 2)/2)"
     id="path4671"
     inkscape:connector-curvature="0" /><rect
     style="fill:#919191"
     x="0"
     id="rect2"
     height="54"
     width="8"
     y="-0.118" /><rect
     style="fill:#919191"
     x="0"
     id="rect4"
     height="8"
     width="74"
     y="47.882" /><g
     style="opacity:0.5"
     id="g8"><polygon
       style="fill:#717171"
       id="polygon6"
       points="0.293,-0.118 2.293,-0.118 2.285,52.976 73.907,53.857 73.882,55.847 0.285,54.951 " /></g><path
     id="path5553"
     title="exp(-x)"
     d=" M 8.0 47.842999 L 8.0 10.9499214929 C 8.22318183165 11.3225731952 8.4463636633 11.6895848156 8.66954549495 12.0511243805 C 8.8927273266 12.4126639454 9.11590915825 12.7687098652 9.3390909899 13.1194580178 C 9.56227282155 13.4702061703 9.7854546532 13.8156246548 10.0086364848 14.1559035024 C 10.2318183165 14.49618235 10.4550001481 14.8312906122 10.6781819798 15.1614126479 C 10.9013638114 15.4915346835 11.1245456431 15.816640468 11.3477274747 16.1369088573 C 11.5709093064 16.4571772466 11.794091138 16.7725791122 12.0172729697 17.0832879717 C 12.2404548013 17.3939968312 12.463636633 17.6999844254 12.6868184646 18.0014190926 C 12.9100002963 18.3028537599 13.1331821279 18.5997080845 13.3563639596 18.8921453802 C 13.5795457912 19.1845826759 13.8027276229 19.4725763453 14.0259094545 19.7562848274 C 14.2490912862 20.0399933096 14.4722731178 20.319390801 14.6954549495 20.5946310116 C 14.9186367811 20.8698712222 15.1418186128 21.1409291186 15.3650004444 21.4079538228 C 15.5881822761 21.6749785269 15.8113641077 21.9379457527 16.0345459394 22.197000171 C 16.257727771 22.4560545893 16.4809096027 22.7111726388 16.7040914343 22.9624946723 C 16.927273266 23.2138167057 17.1504550976 23.4613198651 17.3736369293 23.7051403137 C 17.5968187609 23.9489607623 17.8200005926 24.1890763246 18.0431824242 24.4256190995 C 18.2663642559 24.6621618744 18.4895460875 24.8951103481 18.7127279192 25.1245926769 C 18.9359097508 25.3540750056 19.1590915825 25.5800703177 19.3822734141 25.802702944 C 19.6054552458 26.0253355703 19.8286370774 26.2445852622 20.0518189091 26.4605726394 C 20.2750007407 26.6765600165 20.4981825724 26.8892654348 20.721364404 27.0988059136 C 20.9445462357 27.3083463923 21.1677280673 27.5147028737 21.390909899 27.7179888842 C 21.6140917306 27.9212748948 21.8372735623 28.1214719455 22.0604553939 28.3186901743 C 22.2836372256 28.5159084031 22.5068190572 28.7101298728 22.7300008889 28.9014614341 C 22.9531827205 29.0927929953 23.1763645522 29.2812172463 23.3995463838 29.4668378481 C 23.6227282155 29.6524584499 23.8459100471 29.8352585203 24.0690918788 30.0153386263 C 24.2922737104 30.1954187323 24.5154555421 30.3727624955 24.7386373737 30.5474674811 C 24.9618192054 30.7221724667 25.185001037 30.8942227852 25.4081828687 31.0637130897 C 25.6313647003 31.2332033942 25.854546532 31.4001182694 26.0777283636 31.5645495431 C 26.3009101953 31.7289808169 26.5240920269 31.8909135341 26.7472738586 32.0504367816 C 26.9704556902 32.2099600291 27.1936375219 32.3670592981 27.4168193535 32.5218210166 C 27.6400011852 32.676582735 27.8631830168 32.8289928271 28.0863648485 32.979135141 C 28.3095466801 33.1292774548 28.5327285118 33.2771383349 28.7559103434 33.4227991264 C 28.9790921751 33.568459918 29.2022740067 33.7119073731 29.4254558384 33.853220409 C 29.64863767 33.994533445 29.8718195017 34.1336992093 30.0950013333 34.2707942636 C 30.318183165 34.4078893179 30.5413649966 34.5429011934 30.7645468283 34.6759041665 C 30.9877286599 34.8089071396 31.2109104916 34.9398891136 31.4340923232 35.068922148 C 31.6572741549 35.1979551823 31.8804559865 35.3250275414 32.1036378182 35.4502091337 C 32.3268196498 35.575390726 32.5500014815 35.6986701662 32.7731833131 35.8201152762 C 32.9963651448 35.9415603862 33.2195469764 36.0611601205 33.4427288081 36.1789802766 C 33.6659106397 36.2968004327 33.8890924714 36.4128302947 34.112274303 36.5271336963 C 34.3354561347 36.6414370979 34.5586379663 36.7540036431 34.781819798 36.86489526 C 35.0050016296 36.9757868769 35.2281834613 37.08499348 35.4513652929 37.1925751489 C 35.6745471246 37.3001568178 35.8977289562 37.406103768 36.1209107879 37.5104742859 C 36.3440926195 37.6148448037 36.5672744512 37.7176293967 36.7904562828 37.8188846116 C 37.0136381145 37.9201398264 37.2368199461 38.0198564539 37.4600017778 38.1180893529 C 37.6831836094 38.2163222518 37.9063654411 38.3130624879 38.1295472727 38.4083632825 C 38.3527291044 38.5036640771 38.575910936 38.5975167626 38.7990927677 38.6899729718 C 39.0222745993 38.7824291811 39.245456431 38.873480505 39.4686382626 38.9631770354 C 39.6918200943 39.0528735658 39.9150019259 39.1412071447 40.1381837576 39.2282263685 C 40.3613655892 39.3152455923 40.5845474209 39.4009425467 40.8077292525 39.4853643775 C 41.0309110842 39.5697862084 41.2540929158 39.6529252375 41.4772747475 39.7348272037 C 41.7004565791 39.8167291698 41.9236384108 39.8973866239 42.1468202424 39.9768439396 C 42.3700020741 40.0563012552 42.5931839057 40.1345512056 42.8163657374 40.2116368398 C 43.039547569 40.288722474 43.2627294007 40.3646367811 43.4859112323 40.439421525 C 43.709093064 40.514206269 43.9322748956 40.5878546481 44.1554567273 40.6604071799 C 44.3786385589 40.7329597117 44.6018203906 40.8044097975 44.8250022222 40.8747967453 C 45.0481840539 40.9451836931 45.2713658855 41.0145011013 45.4945477172 41.0827871046 C 45.7177295488 41.1510731078 45.9409113805 41.2183214956 46.1640932121 41.2845692643 C 46.3872750438 41.3508170331 46.6104568754 41.4160581576 46.8336387071 41.4803285301 C 47.0568205387 41.5445989025 47.2800023704 41.6078926776 47.503184202 41.6702446761 C 47.7263660337 41.7325966746 47.9495478653 41.7940012256 48.172729697 41.8544921107 C 48.3959115286 41.9149829958 48.6190933603 41.9745547133 48.8422751919 42.0332400364 C 49.0654570236 42.0919253596 49.2886388552 42.1497189509 49.5118206869 42.2066526054 C 49.7350025185 42.2635862599 49.9581843502 42.3196547994 50.1813661818 42.3748890699 C 50.4045480135 42.4301233404 50.6277298451 42.4845183183 50.8509116768 42.5381039289 C 51.0740935084 42.5916895395 51.2972753401 42.6444609092 51.5204571717 42.6964470698 C 51.7436390034 42.7484332305 51.966820835 42.7996294541 52.1900026667 42.8500639061 C 52.4131844983 42.9004983581 52.63636633 42.9501664514 52.8595481616 42.9990955108 C 53.0827299933 43.0480245702 53.3059118249 43.0962101456 53.5290936566 43.1436787462 C 53.7522754882 43.1911473468 53.9754573199 43.2378946552 54.1986391515 43.2839463894 C 54.4218209832 43.3299981236 54.6450028148 43.3753500952 54.8681846465 43.4200272544 C 55.0913664781 43.4647044136 55.3145483098 43.508702697 55.5377301414 43.5520463102 C 55.7609119731 43.5953899234 55.9840938047 43.6380749242 56.2072756364 43.6801247957 C 56.430457468 43.7221746672 56.6536392997 43.7635855849 56.8768211313 43.804380331 C 57.100002963 43.8451750771 57.3231847946 43.8853499412 57.5463666263 43.9249270254 C 57.7695484579 43.9645041097 57.9927302896 44.0034798145 58.2159121212 44.0418755823 C 58.4390939529 44.0802713501 58.6622757845 44.1180836887 58.8854576162 44.1553334006 C 59.1086394478 44.1925831124 59.3318212795 44.2292668096 59.5550031111 44.2654046736 C 59.7781849428 44.3015425375 60.0013667744 44.3371312815 60.2245486061 44.3721904846 C 60.4477304377 44.4072496877 60.6709122694 44.4417761612 60.894094101 44.4757888997 C 61.1172759327 44.5098016383 61.3404577643 44.5432975485 61.563639596 44.576295058 C 61.7868214276 44.6092925674 62.0100032593 44.6417886751 62.2331850909 44.6738012585 C 62.4563669226 44.7058138419 62.6795487542 44.7373399896 62.9027305859 44.7683970456 C 63.1259124175 44.7994541015 63.3490942492 44.8300392411 63.5722760808 44.8601692906 C 63.7954579125 44.8902993402 64.0186397441 44.9199715593 64.2418215758 44.9492022722 C 64.4650034074 44.9784329851 64.6881852391 45.0072195331 64.9113670707 45.0355777531 C 65.1345489024 45.0639359732 65.357730734 45.091863286 65.5809125657 45.1193750558 C 65.8040943973 45.1468868257 66.027276229 45.1739805502 66.2504580606 45.2006711351 C 66.4736398923 45.2273617199 66.6968217239 45.2536467375 66.9200035556 45.2795406486 C 67.1431853872 45.3054345596 67.3663672189 45.330935009 67.5895490505 45.3560560257 C 67.8127308822 45.3811770424 68.0359127138 45.4059163417 68.2590945455 45.4302875339 C 68.4822763771 45.454658726 68.7054582088 45.4786595944 68.9286400404 45.5023033432 C 69.1518218721 45.5259470919 69.3750037037 45.5492315705 69.5981855354 45.5721695888 C 69.821367367 45.5951076072 70.0445491987 45.6176970791 70.2677310303 45.6399504321 C 70.490912862 45.6622037851 70.7140946936 45.6841189953 70.9372765253 45.7057081191 C 71.1604583569 45.727297243 71.3836401886 45.7485583171 71.6068220202 45.7695030381 C 71.8300038519 45.7904477591 72.0531856835 45.8110742221 72.2763675152 45.8313937746 C 72.4995493468 45.8517133272 72.7227311785 45.8717241213 72.9459130101 45.8914371658 C 73.1690948417 45.9111502103 73.3922766734 45.9305637122 73.6154585051 45.949688352 C 73.8386403367 45.9688129917 74.0618221684 45.9876470298 74.285004 46.0062008279 L 74.285004 47.842999"
     style="fill:#3771c8;opacity:0.8" /><polygon
     style="fill:#717171"
     id="polygon10"
     points="74.285,47.843 8.285,47.843 8.285,-0.158 6.785,49.843 " /><path
     style="opacity:0.6;fill:#4b4b4b"
     inkscape:connector-curvature="0"
     id="path76"
     d="M 0.285,-0.158 0.87,13.587 1.327,27.334 c 0.329,9.165 0.477,18.333 0.7,27.499 L 1.301,54.111 c 12.167,0.078 24.33,0.396 36.495,0.588 l 18.245,0.486 c 6.081,0.199 12.162,0.389 18.242,0.656 C 68.199,55.943 62.115,55.967 56.029,56 L 37.779,55.988 C 25.614,55.849 13.447,55.835 1.283,55.581 L 0.566,55.566 0.557,54.859 C 0.446,45.691 0.257,36.523 0.25,27.353 L 0.203,13.599 Z"
     enable-background="new    " /></svg>