<svg width="350" height="333" xmlns="http://www.w3.org/2000/svg">
 <!-- Created with Method Draw - http://github.com/duopixel/Method-Draw/ -->
 <g>
  <title>background</title>
  <rect fill="none" id="canvas_background" height="335" width="352" y="-1" x="-1"/>
  <g display="none" overflow="visible" y="0" x="0" height="100%" width="100%" id="canvasGrid">
   
  </g>
 </g>
 <g>
  <title>Layer 1</title>
  <line stroke="#7f7f7f" stroke-dasharray="2,2" stroke-linecap="undefined" stroke-linejoin="undefined" id="svg_1" y2="322.302621" x2="169.579987" y1="23.300018" x1="169.579987" stroke-width="22" fill="none"/>
  <line stroke="#999999" stroke-linecap="undefined" stroke-linejoin="undefined" id="svg_2" y2="315.300007" x2="322.601612" y1="315.300007" x1="19.579976" stroke-width="36" fill="none"/>
  <line stroke="#000000" stroke-linecap="undefined" stroke-linejoin="undefined" id="svg_17" y2="331.737507" x2="321.582406" y1="331.737507" x1="20.579986" stroke-width="3" fill="none"/>
  <path stroke="#ff7c02" id="svg_32" d="m110.749995,239.655024l97.500005,-49.905025l97.500005,49.905025l-97.500005,49.905026l-97.500005,-49.905026z" stroke-width="1.5" fill="#ff7f00"/>
  <path stroke="#ff7c02" id="svg_36" d="m0.749994,126.655024l81.500005,-49.905025l81.500005,49.905025l-81.500005,49.905026l-81.500005,-49.905026z" stroke-width="1.5" fill="#ff7f00"/>
  <ellipse stroke="null" ry="27.541071" rx="26.499999" id="svg_31" cy="126.758935" cx="140.079986" stroke-width="1.5" fill="#008837"/>
  <path stroke="#ff7c02" id="svg_37" d="m185.749994,50.655024l81.500005,-49.905025l81.500005,49.905025l-81.500005,49.905026l-81.500005,-49.905026z" stroke-width="1.5" fill="#ff7f00"/>
  <ellipse stroke="null" ry="27.541071" rx="26.499999" id="svg_34" cy="50.758935" cx="212.079986" stroke-width="1.5" fill="#008837"/>
  <ellipse stroke="null" ry="27.541071" rx="26.499999" id="svg_35" cy="237.758935" cx="206.079986" stroke-width="1.5" fill="#008837"/>
 </g>
</svg>