<?xml version="1.0" encoding="UTF-8" standalone="no"?>
<!-- Generator: Adobe Illustrator 24.0.1, SVG Export Plug-In . SVG Version: 6.00 Build 0)  -->

<svg
   xmlns:dc="http://purl.org/dc/elements/1.1/"
   xmlns:cc="http://creativecommons.org/ns#"
   xmlns:rdf="http://www.w3.org/1999/02/22-rdf-syntax-ns#"
   xmlns:svg="http://www.w3.org/2000/svg"
   xmlns="http://www.w3.org/2000/svg"
   xmlns:sodipodi="http://sodipodi.sourceforge.net/DTD/sodipodi-0.dtd"
   xmlns:inkscape="http://www.inkscape.org/namespaces/inkscape"
   version="1.1"
   id="Layer_1"
   x="0px"
   y="0px"
   viewBox="0 0 74 56"
   style="enable-background:new 0 0 74 56;"
   xml:space="preserve"
   sodipodi:docname="MixedModels_bayesian.svg"
   inkscape:version="0.92.5 (2060ec1f9f, 2020-04-08)"><metadata
   id="metadata143"><rdf:RDF><cc:Work
       rdf:about=""><dc:format>image/svg+xml</dc:format><dc:type
         rdf:resource="http://purl.org/dc/dcmitype/StillImage" /></cc:Work></rdf:RDF></metadata><defs
   id="defs141" /><sodipodi:namedview
   pagecolor="#ffffff"
   bordercolor="#666666"
   borderopacity="1"
   objecttolerance="10"
   gridtolerance="10"
   guidetolerance="10"
   inkscape:pageopacity="0"
   inkscape:pageshadow="2"
   inkscape:window-width="1920"
   inkscape:window-height="1017"
   id="namedview139"
   showgrid="false"
   inkscape:zoom="10.855045"
   inkscape:cx="16.943269"
   inkscape:cy="25.456046"
   inkscape:window-x="-8"
   inkscape:window-y="-8"
   inkscape:window-maximized="1"
   inkscape:current-layer="g8" />
<style
   type="text/css"
   id="style2">
	.st0{fill:#FB8C00;}
	.st1{fill:#C65000;}
	.st2{fill:none;}
	.st3{fill:#9D160C;stroke:#9D160C;stroke-width:1.25;stroke-linejoin:round;stroke-miterlimit:10;}
	.st4{fill:#919191;}
	.st5{opacity:0.6;fill:#4B4B4B;enable-background:new    ;}
	.st6{fill:#717171;}
	.st7{fill:#9D160C;}
</style>
<g
   id="g8">
	
		<rect
   x="19.7"
   y="36.1"
   transform="matrix(0.8274 -0.5616 0.5616 0.8274 -12.8813 33.9905)"
   class="st0"
   width="58.3"
   height="3.6"
   id="rect4"
   style="fill:#fb8c00;fill-opacity:1" />
	
		<rect
   x="20.7"
   y="38.3"
   transform="matrix(0.8274 -0.5616 0.5616 0.8274 -13.2183 34.4104)"
   class="st1"
   width="57.3"
   height="0.9"
   id="rect6"
   style="fill:#c65000;fill-opacity:1" />
</g>
<g
   id="g14">
	
		<rect
   x="-2.7"
   y="25.6"
   transform="matrix(0.8274 -0.5616 0.5616 0.8274 -10.0795 22.1019)"
   class="st0"
   width="67.2"
   height="3.6"
   id="rect10"
   style="fill:#fb8c00;fill-opacity:1" />
	<rect
   x="-1.6"
   y="27.7"
   transform="matrix(0.8274 -0.5616 0.5616 0.8274 -10.4166 22.5219)"
   class="st1"
   width="66"
   height="0.9"
   id="rect12"
   style="fill:#c65000;fill-opacity:1" />
</g>
<g
   id="g20">
	<rect
   x="-2.6"
   y="13"
   transform="matrix(0.8274 -0.5616 0.5616 0.8274 -4.6912 14.3096)"
   class="st0"
   width="47.1"
   height="3.6"
   id="rect16"
   style="fill:#fb8c00;fill-opacity:1" />
	
		<rect
   x="-1.7"
   y="15.1"
   transform="matrix(0.8274 -0.5616 0.5616 0.8274 -5.0282 14.7296)"
   class="st1"
   width="46.4"
   height="0.9"
   id="rect18"
   style="fill:#cf5b00;fill-opacity:1" />
</g>
<line
   class="st2"
   x1="87.6"
   y1="41.6"
   x2="87.1"
   y2="41.6"
   id="line22" />
<g
   id="g28">
	<path
   class="st3"
   d="M89.4,40.3"
   id="path24" />
	<path
   class="st3"
   d="M89.4,40.3"
   id="path26" />
</g>
<rect
   x="0"
   y="0"
   class="st4"
   width="8"
   height="54"
   id="rect30" />
<rect
   x="0"
   y="48"
   class="st4"
   width="74"
   height="8"
   id="rect32" />
<path
   class="st5"
   d="M0.3,0l0.6,13.7l0.5,13.7C1.7,36.6,1.8,45.8,2,54.9l-0.7-0.7c12.2,0.1,24.3,0.4,36.5,0.6L56,55.3  c6.1,0.2,12.2,0.4,18.2,0.7c-6.1,0.1-12.2,0.1-18.3,0.2l-18.3,0C25.6,56,13.4,56,1.3,55.7l-0.7,0l0-0.7c-0.1-9.2-0.3-18.3-0.3-27.5  l0-13.8L0.3,0z"
   id="path34" />
<polygon
   class="st6"
   points="73.9,56 0.3,55.1 0.3,0 2.3,0 2.3,53.1 73.9,54 "
   id="polygon36" />
<polygon
   class="st6"
   points="8.3,0 6.8,50 74.3,48 8.3,48 "
   id="polygon38" />
<g
   id="g52">
	<rect
   x="24.2"
   y="1.6"
   class="st1"
   width="2.7"
   height="8"
   id="rect40"
   style="fill:#00ba63;fill-opacity:1" />
	<rect
   x="21.6"
   y="4.3"
   class="st1"
   width="8"
   height="2.7"
   id="rect42"
   style="fill:#00ba63;fill-opacity:1" />
	<rect
   x="21.6"
   y="6.3"
   class="st7"
   width="2.7"
   height="0.7"
   id="rect44"
   style="fill:#008837;fill-opacity:1" />
	<rect
   x="26.9"
   y="6.3"
   class="st7"
   width="2.7"
   height="0.7"
   id="rect46"
   style="fill:#008837;fill-opacity:1" />
	<rect
   x="26.2"
   y="1.6"
   class="st7"
   width="0.7"
   height="2.7"
   id="rect48"
   style="fill:#008837;fill-opacity:1" />
	<rect
   x="26.2"
   y="6.3"
   class="st7"
   width="0.7"
   height="3.4"
   id="rect50"
   style="fill:#008837;fill-opacity:1" />
</g>
<g
   id="g66">
	<rect
   x="15.4"
   y="13.7"
   class="st1"
   width="2.7"
   height="8"
   id="rect54"
   style="fill:#00ba63;fill-opacity:1" />
	<rect
   x="12.7"
   y="16.4"
   class="st1"
   width="8"
   height="2.7"
   id="rect56"
   style="fill:#00ba63;fill-opacity:1" />
	<rect
   x="12.7"
   y="18.3"
   class="st7"
   width="2.7"
   height="0.7"
   id="rect58"
   style="fill:#008837;fill-opacity:1" />
	<rect
   x="18"
   y="18.3"
   class="st7"
   width="2.7"
   height="0.7"
   id="rect60"
   style="fill:#008837;fill-opacity:1" />
	<rect
   x="17.3"
   y="13.7"
   class="st7"
   width="0.7"
   height="2.7"
   id="rect62"
   style="fill:#008837;fill-opacity:1" />
	<rect
   x="17.3"
   y="18.3"
   class="st7"
   width="0.7"
   height="3.4"
   id="rect64"
   style="fill:#008837;fill-opacity:1" />
</g>
<g
   id="g80">
	<rect
   x="29.1"
   y="17.7"
   class="st1"
   width="2.7"
   height="8"
   id="rect68"
   style="fill:#00ba63;fill-opacity:1" />
	<rect
   x="26.4"
   y="20.4"
   class="st1"
   width="8"
   height="2.7"
   id="rect70"
   style="fill:#00ba63;fill-opacity:1" />
	<rect
   x="26.4"
   y="22.3"
   class="st7"
   width="2.7"
   height="0.7"
   id="rect72"
   style="fill:#008837;fill-opacity:1" />
	<rect
   x="31.7"
   y="22.3"
   class="st7"
   width="2.7"
   height="0.7"
   id="rect74"
   style="fill:#008837;fill-opacity:1" />
	<rect
   x="31"
   y="17.7"
   class="st7"
   width="0.7"
   height="2.7"
   id="rect76"
   style="fill:#008837;fill-opacity:1" />
	<rect
   x="31"
   y="22.3"
   class="st7"
   width="0.7"
   height="3.4"
   id="rect78"
   style="fill:#008837;fill-opacity:1" />
</g>
<g
   id="g94">
	<rect
   x="20.2"
   y="29.8"
   class="st1"
   width="2.7"
   height="8"
   id="rect82"
   style="fill:#00ba63;fill-opacity:1" />
	<rect
   x="17.6"
   y="32.5"
   class="st1"
   width="8"
   height="2.7"
   id="rect84"
   style="fill:#00ba63;fill-opacity:1" />
	<rect
   x="17.6"
   y="34.4"
   class="st7"
   width="2.7"
   height="0.7"
   id="rect86"
   style="fill:#008837;fill-opacity:1" />
	<rect
   x="22.9"
   y="34.4"
   class="st7"
   width="2.7"
   height="0.7"
   id="rect88"
   style="fill:#008837;fill-opacity:1" />
	<rect
   x="22.2"
   y="29.8"
   class="st7"
   width="0.7"
   height="2.7"
   id="rect90"
   style="fill:#008837;fill-opacity:1" />
	<rect
   x="22.2"
   y="34.4"
   class="st7"
   width="0.7"
   height="3.4"
   id="rect92"
   style="fill:#008837;fill-opacity:1" />
</g>
<g
   id="g108">
	<rect
   x="45.6"
   y="14.8"
   class="st1"
   width="2.7"
   height="8"
   id="rect96"
   style="fill:#00ba63;fill-opacity:1" />
	<rect
   x="42.9"
   y="17.5"
   class="st1"
   width="8"
   height="2.7"
   id="rect98"
   style="fill:#00ba63;fill-opacity:1" />
	<rect
   x="42.9"
   y="19.4"
   class="st7"
   width="2.7"
   height="0.7"
   id="rect100"
   style="fill:#008000" />
	<rect
   x="48.2"
   y="19.4"
   class="st7"
   width="2.7"
   height="0.7"
   id="rect102"
   style="fill:#008000" />
	<rect
   x="47.6"
   y="14.8"
   class="st7"
   width="0.7"
   height="2.7"
   id="rect104"
   style="fill:#008000" />
	<rect
   x="47.6"
   y="19.4"
   class="st7"
   width="0.7"
   height="3.4"
   id="rect106"
   style="fill:#008000" />
</g>
<g
   id="g122">
	<rect
   x="44.5"
   y="32.6"
   class="st1"
   width="2.7"
   height="8"
   id="rect110"
   style="fill:#00ba63;fill-opacity:1" />
	<rect
   x="41.9"
   y="35.2"
   class="st1"
   width="8"
   height="2.7"
   id="rect112"
   style="fill:#00ba63;fill-opacity:1" />
	<rect
   x="41.9"
   y="37.2"
   class="st7"
   width="2.7"
   height="0.7"
   id="rect114"
   style="fill:#008837;fill-opacity:1" />
	<rect
   x="47.2"
   y="37.2"
   class="st7"
   width="2.7"
   height="0.7"
   id="rect116"
   style="fill:#008837;fill-opacity:1" />
	<rect
   x="46.5"
   y="32.6"
   class="st7"
   width="0.7"
   height="2.7"
   id="rect118"
   style="fill:#008837;fill-opacity:1" />
	<rect
   x="46.5"
   y="37.2"
   class="st7"
   width="0.7"
   height="3.4"
   id="rect120"
   style="fill:#008837;fill-opacity:1" />
</g>
<g
   id="g136">
	<rect
   x="61.1"
   y="29.6"
   class="st1"
   width="2.7"
   height="8"
   id="rect124"
   style="fill:#00ba63;fill-opacity:1" />
	<rect
   x="58.4"
   y="32.3"
   class="st1"
   width="8"
   height="2.7"
   id="rect126"
   style="fill:#00ba63;fill-opacity:1" />
	<rect
   x="58.4"
   y="34.2"
   class="st7"
   width="2.7"
   height="0.7"
   id="rect128"
   style="fill:#008837;fill-opacity:1" />
	<rect
   x="63.7"
   y="34.2"
   class="st7"
   width="2.7"
   height="0.7"
   id="rect130"
   style="fill:#008837;fill-opacity:1" />
	<rect
   x="63"
   y="29.6"
   class="st7"
   width="0.7"
   height="2.7"
   id="rect132"
   style="fill:#008837;fill-opacity:1" />
	<rect
   x="63"
   y="34.2"
   class="st7"
   width="0.7"
   height="3.4"
   id="rect134"
   style="fill:#008837;fill-opacity:1" />
</g>
</svg>