<?xml version="1.0" encoding="utf-8"?>
<!-- Generator: Adobe Illustrator 24.0.1, SVG Export Plug-In . SVG Version: 6.00 Build 0)  -->
<svg version="1.1" id="Layer_1" xmlns="http://www.w3.org/2000/svg" xmlns:xlink="http://www.w3.org/1999/xlink" x="0px" y="0px"
	 viewBox="0 0 74 56" style="enable-background:new 0 0 74 56;" xml:space="preserve">
<style type="text/css">
	.st0{fill:#FB8C00;}
	.st1{fill:#C65000;}
	.st2{fill:none;}
	.st3{fill:#9D160C;stroke:#9D160C;stroke-width:1.25;stroke-linejoin:round;stroke-miterlimit:10;}
	.st4{fill:#919191;}
	.st5{opacity:0.6;fill:#4B4B4B;enable-background:new    ;}
	.st6{fill:#717171;}
	.st7{fill:#9D160C;}
</style>
<g>
	
		<rect x="19.7" y="36.1" transform="matrix(0.8274 -0.5616 0.5616 0.8274 -12.8813 33.9905)" class="st0" width="58.3" height="3.6"/>
	
		<rect x="20.7" y="38.3" transform="matrix(0.8274 -0.5616 0.5616 0.8274 -13.2183 34.4104)" class="st1" width="57.3" height="0.9"/>
</g>
<g>
	
		<rect x="-2.7" y="25.6" transform="matrix(0.8274 -0.5616 0.5616 0.8274 -10.0795 22.1019)" class="st0" width="67.2" height="3.6"/>
	<rect x="-1.6" y="27.7" transform="matrix(0.8274 -0.5616 0.5616 0.8274 -10.4166 22.5219)" class="st1" width="66" height="0.9"/>
</g>
<g>
	<rect x="-2.6" y="13" transform="matrix(0.8274 -0.5616 0.5616 0.8274 -4.6912 14.3096)" class="st0" width="47.1" height="3.6"/>
	
		<rect x="-1.7" y="15.1" transform="matrix(0.8274 -0.5616 0.5616 0.8274 -5.0282 14.7296)" class="st1" width="46.4" height="0.9"/>
</g>
<line class="st2" x1="87.6" y1="41.6" x2="87.1" y2="41.6"/>
<g>
	<path class="st3" d="M89.4,40.3"/>
	<path class="st3" d="M89.4,40.3"/>
</g>
<rect x="0" y="0" class="st4" width="8" height="54"/>
<rect x="0" y="48" class="st4" width="74" height="8"/>
<path class="st5" d="M0.3,0l0.6,13.7l0.5,13.7C1.7,36.6,1.8,45.8,2,54.9l-0.7-0.7c12.2,0.1,24.3,0.4,36.5,0.6L56,55.3
	c6.1,0.2,12.2,0.4,18.2,0.7c-6.1,0.1-12.2,0.1-18.3,0.2l-18.3,0C25.6,56,13.4,56,1.3,55.7l-0.7,0l0-0.7c-0.1-9.2-0.3-18.3-0.3-27.5
	l0-13.8L0.3,0z"/>
<polygon class="st6" points="73.9,56 0.3,55.1 0.3,0 2.3,0 2.3,53.1 73.9,54 "/>
<polygon class="st6" points="8.3,0 6.8,50 74.3,48 8.3,48 "/>
<g>
	<rect x="24.2" y="1.6" class="st1" width="2.7" height="8"/>
	<rect x="21.6" y="4.3" class="st1" width="8" height="2.7"/>
	<rect x="21.6" y="6.3" class="st7" width="2.7" height="0.7"/>
	<rect x="26.9" y="6.3" class="st7" width="2.7" height="0.7"/>
	<rect x="26.2" y="1.6" class="st7" width="0.7" height="2.7"/>
	<rect x="26.2" y="6.3" class="st7" width="0.7" height="3.4"/>
</g>
<g>
	<rect x="15.4" y="13.7" class="st1" width="2.7" height="8"/>
	<rect x="12.7" y="16.4" class="st1" width="8" height="2.7"/>
	<rect x="12.7" y="18.3" class="st7" width="2.7" height="0.7"/>
	<rect x="18" y="18.3" class="st7" width="2.7" height="0.7"/>
	<rect x="17.3" y="13.7" class="st7" width="0.7" height="2.7"/>
	<rect x="17.3" y="18.3" class="st7" width="0.7" height="3.4"/>
</g>
<g>
	<rect x="29.1" y="17.7" class="st1" width="2.7" height="8"/>
	<rect x="26.4" y="20.4" class="st1" width="8" height="2.7"/>
	<rect x="26.4" y="22.3" class="st7" width="2.7" height="0.7"/>
	<rect x="31.7" y="22.3" class="st7" width="2.7" height="0.7"/>
	<rect x="31" y="17.7" class="st7" width="0.7" height="2.7"/>
	<rect x="31" y="22.3" class="st7" width="0.7" height="3.4"/>
</g>
<g>
	<rect x="20.2" y="29.8" class="st1" width="2.7" height="8"/>
	<rect x="17.6" y="32.5" class="st1" width="8" height="2.7"/>
	<rect x="17.6" y="34.4" class="st7" width="2.7" height="0.7"/>
	<rect x="22.9" y="34.4" class="st7" width="2.7" height="0.7"/>
	<rect x="22.2" y="29.8" class="st7" width="0.7" height="2.7"/>
	<rect x="22.2" y="34.4" class="st7" width="0.7" height="3.4"/>
</g>
<g>
	<rect x="45.6" y="14.8" class="st1" width="2.7" height="8"/>
	<rect x="42.9" y="17.5" class="st1" width="8" height="2.7"/>
	<rect x="42.9" y="19.4" class="st7" width="2.7" height="0.7"/>
	<rect x="48.2" y="19.4" class="st7" width="2.7" height="0.7"/>
	<rect x="47.6" y="14.8" class="st7" width="0.7" height="2.7"/>
	<rect x="47.6" y="19.4" class="st7" width="0.7" height="3.4"/>
</g>
<g>
	<rect x="44.5" y="32.6" class="st1" width="2.7" height="8"/>
	<rect x="41.9" y="35.2" class="st1" width="8" height="2.7"/>
	<rect x="41.9" y="37.2" class="st7" width="2.7" height="0.7"/>
	<rect x="47.2" y="37.2" class="st7" width="2.7" height="0.7"/>
	<rect x="46.5" y="32.6" class="st7" width="0.7" height="2.7"/>
	<rect x="46.5" y="37.2" class="st7" width="0.7" height="3.4"/>
</g>
<g>
	<rect x="61.1" y="29.6" class="st1" width="2.7" height="8"/>
	<rect x="58.4" y="32.3" class="st1" width="8" height="2.7"/>
	<rect x="58.4" y="34.2" class="st7" width="2.7" height="0.7"/>
	<rect x="63.7" y="34.2" class="st7" width="2.7" height="0.7"/>
	<rect x="63" y="29.6" class="st7" width="0.7" height="2.7"/>
	<rect x="63" y="34.2" class="st7" width="0.7" height="3.4"/>
</g>
</svg>
