<svg id="Layer_9" data-name="Layer 9" xmlns="http://www.w3.org/2000/svg" width="1936.01" height="120" viewBox="0 0 1936.01 120"><title>jasp-wave-down-blue-120</title><rect width="1936" height="120" fill="#fff"/><path d="M268.24,78.4a8.12,8.12,0,0,0,1.79.5,5.7,5.7,0,0,1,1.09.28q1.92.92,4,1.72a33.91,33.91,0,0,1,5.62,2.65l.13.07a8,8,0,0,0,1.81.51,5.45,5.45,0,0,1,1.12.29h0a474.08,474.08,0,0,0,119.5,31.32A544.1,544.1,0,0,0,524.11,117q5.62-.55,11.26-1.2,7-.8,14-1.76c39.46-5.4,80.22-14.63,122.92-27.86Q598.38,76.17,526.5,61.57c-1.76-.4-4.11-.4-5.87-.8-6.44-2-12.9-2.77-19.35-4.37-1.76-.4-4.11-.4-5.87-.8C346.44,25.23,190.16,9.75,32.82,9.78h0Q16.4,9.78,0,10V34.66C91.43,28.51,181.94,43.07,268.24,78.4Z" fill="#e3f3fb"/><path d="M1479.22,58.8q-74.11,15.14-150.47,25.75,21.48,6.82,42.36,12.29c41.36,10.84,82,18,120.69,21.15,15.93,1.32,32,2,48.06,2a529.87,529.87,0,0,0,72.24-4.84,485.39,485.39,0,0,0,118-31.68h0c68.22-27.93,137.32-44.2,205.91-48.82V10A2448.49,2448.49,0,0,0,1479.22,58.8Z" fill="#e3f3fb"/><path d="M1251.78,56.56a5.46,5.46,0,0,0-1.13-.29,8,8,0,0,1-1.81-.51l-.13-.07a33.91,33.91,0,0,0-5.62-2.65c-1.3-.52-4.61-1.9-5.06-2a8.13,8.13,0,0,1-1.79-.5C1083.71-11.89,919.75-10.8,762.09,53.77h0q-23.65,9.71-46.47,17.95l-.14.05-.57.2-.21.08-.09,0-.41.14h-.08q-21.24,7.63-41.82,14c218,29.65,440.86,28.2,656.45-1.7q-39.72-12.7-76.92-28Z" fill="#50b0e3"/><path d="M32.82,9.78c157.34,0,313.62,15.46,462.59,45.83,1.76.4,4.11.4,5.87.8,6.45,1.6,12.91,2.4,19.36,4.39,1.76.4,4.11.4,5.87.8Q598.29,76.19,672.3,86.26q20.6-6.38,41.82-14h.08l.41-.14.09,0,.21-.08.57-.2.14-.05q22.84-8.24,46.47-17.95h0c157.66-64.6,321.62-65.69,474.15-3.25a8.13,8.13,0,0,0,1.79.5c.45.09,3.77,1.48,5.06,2a33.91,33.91,0,0,1,5.62,2.65l.13.07a8,8,0,0,0,1.81.51,5.46,5.46,0,0,1,1.13.29h0q37.14,15.26,76.92,28Q1405,73.94,1479.22,58.8A2448.48,2448.48,0,0,1,1936,10V0H0V10Q16.41,9.77,32.82,9.78Z" fill="#14a1e3"/></svg>