<?xml version="1.0" encoding="utf-8"?>
<!-- Generator: Adobe Illustrator 21.0.2, SVG Export Plug-In . SVG Version: 6.00 Build 0)  -->
<svg version="1.1" id="Layer_1" xmlns="http://www.w3.org/2000/svg" xmlns:xlink="http://www.w3.org/1999/xlink" x="0px" y="0px"
	 viewBox="0 0 174 40" style="enable-background:new 0 0 174 40;" xml:space="preserve">
<style type="text/css">
	.st0{fill:#FFFFFF;}
	.st1{fill:#555759;}
</style>
<g>
	<path class="st0" d="M78.2,30.1c-0.2,1.3-0.7,2.5-1.5,3.6c-0.8,1.1-1.9,2.1-3.3,2.9c-1.5,0.8-3.4,1.1-5.9,1.1c-1.4,0-2.8-0.2-4-0.6
		c-1.3-0.4-2.5-1-3.5-1.8c-1-0.8-1.8-1.9-2.5-3.2c-0.6-1.3-1-2.9-1-4.7v-2.9h6.7v1.6c0,0.8,0.1,1.6,0.2,2.2c0.2,0.7,0.3,1.3,0.6,1.7
		s0.7,0.9,1.3,1.1c0.6,0.3,1.3,0.5,2.1,0.5c1,0,1.7-0.2,2.2-0.5c0.6-0.3,1-0.8,1.1-1.3c0.2-0.6,0.4-1.1,0.4-1.7
		c0.1-0.6,0.1-1.3,0.1-1.8V3.6h7.4v22.9C78.5,27.7,78.4,28.9,78.2,30.1L78.2,30.1z M101.6,3.6L114.1,37h-7.6l-2.5-7.4H91.5L88.9,37
		h-7.4L94.1,3.6H101.6L101.6,3.6z M102,24.2l-4.2-12.3h-0.1l-4.4,12.3H102z M122.6,28.8c0.4,0.7,0.9,1.4,1.6,1.9
		c0.6,0.5,1.4,0.9,2.4,1.1c0.9,0.2,1.8,0.3,2.8,0.3c0.6,0,1.3-0.1,2.1-0.2c0.7-0.1,1.4-0.3,2.1-0.6c0.6-0.3,1.2-0.7,1.7-1.3
		c0.5-0.6,0.6-1.3,0.6-2.1c0-0.9-0.3-1.7-0.9-2.2c-0.6-0.6-1.3-1-2.3-1.4c-1-0.4-2.1-0.7-3.2-1c-1.2-0.3-2.4-0.6-3.6-1
		c-1.3-0.3-2.5-0.7-3.6-1.1c-1.2-0.5-2.2-1-3.2-1.7c-1-0.7-1.7-1.6-2.3-2.7c-0.6-1.1-0.9-2.4-0.9-3.9c0-1.7,0.4-3.2,1.1-4.4
		c0.7-1.3,1.7-2.3,2.9-3.2c1.2-0.9,2.5-1.4,4-1.9c1.5-0.4,3-0.6,4.5-0.6c1.7,0,3.4,0.2,5,0.6c1.6,0.4,3,1,4.3,1.9
		c1.3,0.9,2.2,2,2.9,3.3c0.7,1.3,1.1,3,1.1,4.9h-7.1c-0.1-1-0.2-1.8-0.6-2.5c-0.4-0.6-0.9-1.2-1.4-1.5c-0.6-0.4-1.3-0.6-2.1-0.8
		c-0.8-0.2-1.6-0.2-2.5-0.2c-0.6,0-1.2,0.1-1.7,0.2c-0.6,0.2-1.1,0.3-1.6,0.6c-0.5,0.3-0.9,0.7-1.2,1.2c-0.3,0.5-0.5,1-0.5,1.7
		c0,0.6,0.2,1.2,0.4,1.6c0.2,0.4,0.7,0.8,1.5,1.1c0.7,0.3,1.7,0.7,3,1c1.3,0.3,3,0.8,5.1,1.3c0.6,0.2,1.5,0.3,2.6,0.7
		c1.1,0.3,2.2,0.9,3.3,1.6c1.1,0.7,2.1,1.7,2.9,2.9c0.8,1.2,1.2,2.8,1.2,4.6c0,1.5-0.3,2.9-0.9,4.3c-0.6,1.3-1.5,2.5-2.6,3.4
		c-1.1,1-2.6,1.7-4.4,2.2c-1.7,0.6-3.7,0.8-6,0.8c-1.8,0-3.6-0.2-5.4-0.7c-1.7-0.5-3.2-1.2-4.6-2.1c-1.3-1-2.4-2.2-3.2-3.7
		c-0.8-1.5-1.2-3.2-1.1-5.3h7.1C122,27,122.2,27.9,122.6,28.8L122.6,28.8z M162.4,3.6c2.1,0,3.9,0.3,5.3,1c1.4,0.6,2.7,1.4,3.6,2.4
		c1,1,1.6,2.1,2,3.4s0.6,2.6,0.6,4s-0.2,2.7-0.6,4c-0.4,1.3-1.1,2.5-2,3.4c-1,1-2.1,1.8-3.6,2.4c-1.4,0.6-3.2,1-5.3,1h-7.7v12h-7.4
		V3.6H162.4z M160.4,19.4c0.9,0,1.7-0.1,2.5-0.2c0.7-0.1,1.4-0.4,2.1-0.7c0.6-0.4,1.1-0.9,1.4-1.5c0.4-0.6,0.6-1.5,0.6-2.5
		s-0.2-1.9-0.6-2.5c-0.4-0.6-0.9-1.2-1.4-1.5c-0.6-0.4-1.3-0.6-2.1-0.7c-0.8-0.2-1.6-0.2-2.5-0.2h-5.7v10h5.7
		C160.4,19.6,160.4,19.4,160.4,19.4z"/>
</g>
<circle class="st1" cx="19.5" cy="19.9" r="19.5"/>
<path class="st0" d="M49,40c-0.5,0-0.8-0.3-0.8-0.8V0.8C48.2,0.3,48.6,0,49,0c0.5,0,0.8,0.3,0.8,0.8v38.4C49.8,39.6,49.5,40,49,40z
	 M29.3,5.8c-0.2-0.3-0.6-0.6-1-0.6h-0.2c-0.7,0-1.3,0.5-1.4,1.2v0.2l-4.8,1.7c-0.2-0.3-0.6-0.6-1-0.6c-1-0.2-1.8,0.5-2,1.3
	c-0.2,0.7,0.2,1.4,0.9,1.7l-3.6,20.8c-0.6,0-1,0.3-1.3,0.7l-5-2.7v-0.2c0.1-0.3,0-0.7-0.2-1C9.5,28.2,9.3,28,9.1,28l0.7-4
	c0.2,0,0.5-0.2,0.6-0.2l5.9,3.2l0.2-0.9L10.9,23V23v-0.3l2.3-0.7l0.2,0.2c0.1,0.1,0.1,0.1,0.2,0.1l-0.4,2.1l0.6,0.3l0.4-2.3
	c0.6-0.1,1-0.5,1-1.1c0-0.6-0.5-1.1-1.1-1.1c-0.4,0-0.8,0.2-1,0.6L13,21.1v0.2L10.8,22c0,0,0-0.1-0.1-0.1c-0.2-0.3-0.5-0.5-0.9-0.6
	H9.6c-0.6,0-1.2,0.5-1.3,1.1C8.2,23,8.4,23.6,9,23.9l-0.7,4c-0.6,0.1-1,0.5-1.1,1.1c-0.1,0.3,0,0.7,0.2,1c0.2,0.3,0.5,0.5,0.9,0.6
	c0.4,0.1,0.7,0,1-0.2l5.1,2.8c0,0.4,0.1,0.8,0.3,1.1c0.2,0.4,0.6,0.6,1.1,0.7h0.3c0.8,0,1.5-0.6,1.7-1.4v-0.2l4.9-1.7
	c0.2,0.2,0.6,0.4,0.9,0.5h0.2c0.7,0,1.3-0.5,1.4-1.2c0.1-0.4,0-0.8-0.2-1.1c-0.1-0.2-0.2-0.2-0.3-0.3l3.7-21.3C29,8,29.5,7.6,29.5,7
	C29.6,6.6,29.5,6.2,29.3,5.8z M14,20.8c0.2,0,0.4,0.2,0.4,0.4c0,0.2-0.2,0.4-0.4,0.4c-0.2,0-0.4-0.2-0.4-0.4
	C13.7,21,13.9,20.8,14,20.8z M16.9,33.3c-0.1,0.5-0.6,0.8-1,0.7c-0.2,0-0.4-0.2-0.6-0.3c-0.1-0.2-0.2-0.2-0.2-0.4v-0.2
	c0-0.1,0.1-0.2,0.1-0.2c0.2-0.2,0.4-0.4,0.7-0.4h0.2c0.2,0,0.3,0.2,0.5,0.2v0.1c0.1,0.1,0.1,0.2,0.1,0.2
	C16.9,33,16.9,33.2,16.9,33.3z M27.3,7.9l-3.7,21.2c-0.6,0.1-1.1,0.6-1.3,1.2v0.2l-4.9,1.7c-0.1-0.2-0.2-0.2-0.3-0.4l3.7-20.9
	c0.7-0.1,1.3-0.6,1.3-1.3V9.3l4.8-1.7C27.1,7.8,27.2,7.8,27.3,7.9z M20.8,10.1h-0.3c-0.1,0-0.2-0.1-0.3-0.2
	c-0.2-0.2-0.4-0.5-0.4-0.9c0.1-0.5,0.5-0.8,1-0.7c0.2,0,0.4,0.2,0.5,0.3c0.2,0.2,0.2,0.4,0.2,0.6C21.3,9.8,21.1,10.1,20.8,10.1z
	 M23,30.4h0.2c0.1-0.2,0.2-0.4,0.5-0.5h0.2c0.2,0,0.2,0.1,0.4,0.2v0.1c0.1,0.2,0.2,0.3,0.1,0.5c-0.1,0.3-0.4,0.6-0.7,0.5
	c-0.2,0-0.2-0.1-0.3-0.2L23.2,31c-0.1-0.1-0.1-0.2-0.1-0.3v-0.2C23.1,30.5,23,30.4,23,30.4z M27.5,6.6C27.6,6.3,27.8,6,28.1,6h0.1
	c0.1,0,0.2,0.1,0.3,0.2c0.2,0.2,0.2,0.4,0.2,0.6c0,0.2-0.2,0.4-0.4,0.5c-0.1,0-0.2,0.1-0.3,0c-0.2,0-0.3-0.2-0.4-0.2
	C27.5,6.9,27.5,6.7,27.5,6.6z M9,29.3c-0.1,0.2-0.2,0.3-0.3,0.4c-0.1,0.1-0.2,0.1-0.3,0c-0.2,0-0.2-0.1-0.3-0.2
	c-0.1-0.1-0.1-0.2-0.1-0.3c0-0.2,0.2-0.3,0.4-0.4h0.2c0.1,0,0.2,0,0.2,0.1c0.1,0,0.1,0.1,0.2,0.2C8.9,29.1,9,29.1,9,29.3L9,29.3z
	 M9.1,22.7c0.1-0.2,0.2-0.4,0.5-0.4h0.1c0.2,0,0.2,0.1,0.3,0.2c0.1,0.1,0.1,0.2,0.1,0.3v0.1c0,0.2-0.2,0.2-0.2,0.3l-0.1,0.1H9.5
	c-0.1,0-0.2,0-0.2-0.1C9.1,23,9,22.8,9.1,22.7z"/>
</svg>
