<svg id="Layer_1" data-name="Layer 1" xmlns="http://www.w3.org/2000/svg" width="195.61" height="45" viewBox="0 0 195.61 45"><title>jasp-logo-blue</title><path d="M88,33.86a9.18,9.18,0,0,1-1.69,4,11.75,11.75,0,0,1-3.71,3.26,14,14,0,0,1-6.64,1.24,14.51,14.51,0,0,1-4.5-.67,11.88,11.88,0,0,1-3.94-2,11.46,11.46,0,0,1-2.81-3.6,12.63,12.63,0,0,1-1.12-5.29V27.56h7.54v1.8a15.51,15.51,0,0,0,.22,2.47A6.25,6.25,0,0,0,72,33.75,3.21,3.21,0,0,0,73.45,35a5.23,5.23,0,0,0,2.36.56A4.72,4.72,0,0,0,78.29,35a2.25,2.25,0,0,0,1.24-1.46A5.92,5.92,0,0,0,80,31.61a12.91,12.91,0,0,0,.11-2V4.05h8.32V29.81C88.3,31.16,88.19,32.51,88,33.86ZM114.28,4.05l14.06,37.57H119.8L117,33.3H102.92L100,41.62H91.68L105.85,4.05Zm.45,23.17L110,13.39h-.11l-4.95,13.84Zm23.17,5.17a6.54,6.54,0,0,0,1.8,2.14,6,6,0,0,0,2.7,1.24,14.23,14.23,0,0,0,3.15.34,20.61,20.61,0,0,0,2.36-.22,9.34,9.34,0,0,0,2.36-.67,5.79,5.79,0,0,0,1.91-1.46,3.45,3.45,0,0,0,.67-2.36,3.14,3.14,0,0,0-1-2.47,7.22,7.22,0,0,0-2.59-1.57,33.66,33.66,0,0,0-3.6-1.12c-1.35-.34-2.7-.67-4-1.12a34.48,34.48,0,0,1-4-1.24,18.26,18.26,0,0,1-3.6-1.91,8.48,8.48,0,0,1-2.59-3,9,9,0,0,1-1-4.39,9.77,9.77,0,0,1,1.24-4.95A11.08,11.08,0,0,1,134.87,6a15.11,15.11,0,0,1,4.5-2.14,19.57,19.57,0,0,1,5.06-.67,23.33,23.33,0,0,1,5.62.67A14.44,14.44,0,0,1,154.89,6a10.27,10.27,0,0,1,3.26,3.71,11.73,11.73,0,0,1,1.24,5.51h-8a6.9,6.9,0,0,0-.67-2.81,5.73,5.73,0,0,0-1.57-1.69,7.38,7.38,0,0,0-2.36-.9A11.41,11.41,0,0,0,144,9.56a9.91,9.91,0,0,0-1.91.22,8.53,8.53,0,0,0-1.8.67,3.88,3.88,0,0,0-1.35,1.35,3.49,3.49,0,0,0-.56,1.91,4.24,4.24,0,0,0,.45,1.8,3,3,0,0,0,1.69,1.24,19.44,19.44,0,0,0,3.37,1.12c1.46.34,3.37.9,5.74,1.46.67.22,1.69.34,2.92.79a14.07,14.07,0,0,1,3.71,1.8,11.25,11.25,0,0,1,3.26,3.26,9.32,9.32,0,0,1,1.35,5.17,12,12,0,0,1-1,4.84A10.87,10.87,0,0,1,156.92,39,12,12,0,0,1,152,41.51a20.44,20.44,0,0,1-6.75.9,22.5,22.5,0,0,1-6.07-.79A19.73,19.73,0,0,1,134,39.26a12.87,12.87,0,0,1-3.6-4.16,11.12,11.12,0,0,1-1.24-6h8A9.92,9.92,0,0,0,137.91,32.4ZM182.68,4.05a13.43,13.43,0,0,1,6,1.12,11.62,11.62,0,0,1,4,2.7,8.85,8.85,0,0,1,2.25,3.82,15.33,15.33,0,0,1,0,9,9.34,9.34,0,0,1-2.25,3.82,11.62,11.62,0,0,1-4,2.7,15.22,15.22,0,0,1-6,1.12H174v13.5h-8.32V4.05Zm-2.25,17.77a21.91,21.91,0,0,0,2.81-.22,9.72,9.72,0,0,0,2.36-.79,4.5,4.5,0,0,0,1.57-1.69,5.21,5.21,0,0,0,.67-2.81,5.21,5.21,0,0,0-.67-2.81,5.73,5.73,0,0,0-1.57-1.69,5.35,5.35,0,0,0-2.36-.79,11.41,11.41,0,0,0-2.81-.22H174V22.05h6.41Z" fill="#0ea1e4"/><circle cx="21.93" cy="22.39" r="21.93" fill="#000000"/><path d="M55.12,45a.83.83,0,0,1-.9-.9V.9a.89.89,0,0,1,.88-.9h0a.83.83,0,0,1,.9.9V44.1a.89.89,0,0,1-.88.9ZM33,6.53a1.5,1.5,0,0,0-1.12-.67h-.22A1.57,1.57,0,0,0,30,7.2v.22l-5.4,1.91a1.5,1.5,0,0,0-1.12-.67,2,2,0,0,0-2.25,1.46,1.62,1.62,0,0,0,1,1.91l-4,23.4a1.75,1.75,0,0,0-1.46.79l-5.62-3V33a1.38,1.38,0,0,0-.22-1.12c-.22-.11-.45-.34-.67-.34L11,27c.22,0,.56-.22.67-.22l6.64,3.6.22-1-6.3-3.49h0v-.34l2.59-.79.22.22c.11.11.11.11.22.11l-.45,2.36.67.34L16,25.2A1.23,1.23,0,0,0,17.1,24a1.25,1.25,0,0,0-2.36-.56l-.11.34V24l-2.47.79a.11.11,0,0,0-.11-.11h0A1.64,1.64,0,0,0,11,24H10.8A1.55,1.55,0,0,0,9.34,25.2a1.51,1.51,0,0,0,.79,1.69l-.79,4.5A1.43,1.43,0,0,0,8.1,32.62a1.38,1.38,0,0,0,.22,1.12,1.64,1.64,0,0,0,1,.67,1.3,1.3,0,0,0,1.12-.22l5.74,3.15a2.25,2.25,0,0,0,.34,1.24,1.62,1.62,0,0,0,1.24.79h.34A2,2,0,0,0,20,37.8v-.22l5.51-1.91a3,3,0,0,0,1,.56h.22a1.69,1.69,0,0,0,1.35-2.59c-.11-.22-.22-.22-.34-.34l4.16-24c.67-.34,1.24-.79,1.24-1.46A1.93,1.93,0,0,0,33,6.53ZM15.75,23.4a.45.45,0,1,1-.45.45h0C15.41,23.62,15.64,23.4,15.75,23.4ZM19,37.46a1,1,0,0,1-1.12.79c-.22,0-.45-.22-.67-.34s-.22-.22-.22-.45v-.22A.39.39,0,0,1,17.1,37a1.12,1.12,0,0,1,.79-.45h.22c.22,0,.34.22.56.22v.11a.35.35,0,0,1,.11.22C19,37.12,19,37.35,19,37.46ZM30.71,8.89,26.55,32.74a2,2,0,0,0-1.46,1.35v.22l-5.51,1.91c-.11-.22-.22-.22-.34-.45L23.4,12.26a1.57,1.57,0,0,0,1.46-1.46v-.34l5.4-1.91C30.48,8.78,30.6,8.78,30.71,8.89ZM23.4,11.36h-.34c-.11,0-.22-.11-.34-.22a1.43,1.43,0,0,1-.45-1,.92.92,0,0,1,1-.8l.1,0a1,1,0,0,1,.56.34.82.82,0,0,1,.22.67C24,11,23.73,11.36,23.4,11.36ZM25.87,34.2h.22a.92.92,0,0,1,.56-.56h.22c.22,0,.22.11.45.22V34c.11.22.22.34.11.56s-.45.67-.79.56-.22-.11-.34-.22H26.1a.42.42,0,0,1-.11-.34v-.22ZM30.93,7.43c.11-.34.34-.67.67-.67h.11c.11,0,.22.11.34.22a.82.82,0,0,1,.22.67.74.74,0,0,1-.45.56c-.11,0-.22.11-.34,0A.85.85,0,0,0,31,8,1.23,1.23,0,0,1,30.93,7.43ZM10.12,33a1.55,1.55,0,0,1-.34.45.21.21,0,0,1-.3,0l0,0c-.22,0-.22-.11-.34-.22A.42.42,0,0,1,9,32.85c0-.22.22-.34.45-.45h.22c.11,0,.22,0,.22.11s.11.11.22.22C10,32.74,10.12,32.74,10.12,33Zm.11-7.42c.11-.22.22-.45.56-.45h.11c.22,0,.22.11.34.22a.42.42,0,0,1,.11.34v.11c0,.22-.22.22-.22.34l-.11.11h-.34c-.11,0-.22,0-.22-.11C10.24,25.87,10.12,25.65,10.24,25.54Z" fill="#fff"/><path d="M55.12,45a.83.83,0,0,1-.9-.9V.9a.89.89,0,0,1,.88-.9h0a.83.83,0,0,1,.9.9V44.1a.89.89,0,0,1-.88.9Z" fill="#aeaeae"/></svg>
