<svg id="Layer_9" data-name="Layer 9" xmlns="http://www.w3.org/2000/svg" width="1936.01" height="120" viewBox="0 0 1936.01 120"><title>jasp-wave-up-green-120</title><rect width="1936" height="120" fill="#fff"/><path d="M1667.76,41.6a8.12,8.12,0,0,0-1.79-.5,5.7,5.7,0,0,1-1.09-.27q-1.92-.93-4-1.71a33.92,33.92,0,0,1-5.62-2.65l-.13-.07a8,8,0,0,0-1.81-.51,5.45,5.45,0,0,1-1.12-.29h0A474.07,474.07,0,0,0,1532.7,4.29,543.74,543.74,0,0,0,1411.89,3q-5.62.55-11.26,1.2-7,.8-14,1.76c-39.46,5.4-80.22,14.63-122.92,27.86q73.91,10.05,145.79,24.67c1.76.39,4.11.39,5.87.8,6.45,2,12.91,2.79,19.36,4.39,1.76.39,4.11.39,5.87.8,149,30.38,305.25,45.86,462.59,45.83h0q16.42,0,32.82-.19V85.35C1844.57,91.49,1754.06,76.93,1667.76,41.6Z" transform="translate(0 0)" fill="#e2f3cb"/><path d="M456.78,61.2q74.11-15.14,150.47-25.71-21.48-6.86-42.36-12.29c-41.36-10.84-82-18-120.69-21.15-15.93-1.37-32-2-48.06-2A529.88,529.88,0,0,0,323.9,4.84a485.35,485.35,0,0,0-118,31.71h0C137.69,64.45,68.59,80.73,0,85.35V110A2449,2449,0,0,0,456.78,61.2Z" transform="translate(0 0)" fill="#e2f3cb"/><path d="M684.22,63.43a5.47,5.47,0,0,0,1.13.29,8,8,0,0,1,1.81.51l.13.07a33.92,33.92,0,0,0,5.62,2.65c1.3.51,4.61,1.9,5.06,2a8.13,8.13,0,0,1,1.79.5c152.53,62.44,316.49,61.33,474.15-3.22h0q23.65-9.71,46.47-17.95l.14-.05.57-.21.21-.08h.09l.41-.15h.08q21.24-7.63,41.82-14C1045.75,4.12,822.84,5.57,607.25,35.49Q647,48.17,684.17,63.43Z" transform="translate(0 0)" fill="#a7d75d"/><path d="M1903.18,110.22c-157.34,0-313.62-15.43-462.59-45.83-1.76-.39-4.11-.39-5.87-.8-6.45-1.59-12.91-2.4-19.36-4.39-1.76-.39-4.11-.39-5.87-.8q-71.78-14.57-145.79-24.66-20.6,6.38-41.82,14h-.08l-.41.15h-.09l-.21.08-.57.21-.14.05q-22.84,8.25-46.47,17.95h0c-157.66,64.62-321.62,65.71-474.15,3.25a8.13,8.13,0,0,0-1.79-.5c-.45-.09-3.77-1.47-5.06-2a33.9,33.9,0,0,1-5.62-2.66l-.13-.07a8,8,0,0,0-1.81-.51,5.47,5.47,0,0,1-1.13-.29h0q-37.14-15.26-76.92-28Q531,46.05,456.78,61.2A2448.51,2448.51,0,0,1,0,110v10H1936V110Q1919.59,110.24,1903.18,110.22Z" transform="translate(0 0)" fill="#8cc63e"/></svg>