<?xml version="1.0" encoding="UTF-8" standalone="no"?>
<!-- Generator: Adobe Illustrator 16.0.0, SVG Export Plug-In . SVG Version: 6.00 Build 0)  -->

<svg
   xmlns:dc="http://purl.org/dc/elements/1.1/"
   xmlns:cc="http://creativecommons.org/ns#"
   xmlns:rdf="http://www.w3.org/1999/02/22-rdf-syntax-ns#"
   xmlns:svg="http://www.w3.org/2000/svg"
   xmlns="http://www.w3.org/2000/svg"
   xmlns:sodipodi="http://sodipodi.sourceforge.net/DTD/sodipodi-0.dtd"
   xmlns:inkscape="http://www.inkscape.org/namespaces/inkscape"
   version="1.1"
   id="Layer_1"
   x="0px"
   y="0px"
   width="800px"
   height="800px"
   viewBox="0 0 800 800"
   enable-background="new 0 0 800 800"
   xml:space="preserve"
   inkscape:version="0.91 r13725"
   sodipodi:docname="logo.svg"><metadata
     id="metadata3389"><rdf:RDF><cc:Work
         rdf:about=""><dc:format>image/svg+xml</dc:format><dc:type
           rdf:resource="http://purl.org/dc/dcmitype/StillImage" /><dc:title></dc:title></cc:Work></rdf:RDF></metadata><defs
     id="defs3387" /><sodipodi:namedview
     pagecolor="#ffffff"
     bordercolor="#666666"
     borderopacity="1"
     objecttolerance="10"
     gridtolerance="10"
     guidetolerance="10"
     inkscape:pageopacity="0"
     inkscape:pageshadow="2"
     inkscape:window-width="1933"
     inkscape:window-height="1296"
     id="namedview3385"
     showgrid="false"
     inkscape:zoom="0.5"
     inkscape:cx="400"
     inkscape:cy="400"
     inkscape:window-x="0"
     inkscape:window-y="0"
     inkscape:window-maximized="0"
     inkscape:current-layer="Layer_1" /><polygon
     stroke-miterlimit="10"
     points="185.28,458.838 186.011,458.6 185.449,458.282 189.678,450.796 177.21,454.854 248.083,655.981 274.397,508.619 268.597,505.337 246.086,631.396 "
     id="polygon3337"
     transform="matrix(0.4332811,0,0,0.54070666,231.41858,190.7851)"
     style="fill:#ffffff;stroke:#1ca8e1;stroke-width:10;stroke-miterlimit:10" /><polygon
     points="247.085,643.689 181.245,456.846 286.57,422.567 "
     id="polygon3339"
     transform="matrix(0.4332811,0,0,0.54070666,231.41858,190.7851)"
     style="fill:#1ca8e1" /><polygon
     points="333.904,712.194 512.908,647.016 180.612,460.454 153.493,614.559 "
     id="polygon3341"
     transform="matrix(0.4332811,0,0,0.54070666,231.41858,190.7851)"
     style="fill:#1ca8e1" /><polygon
     stroke-miterlimit="10"
     points="268.38,504.148 274.181,507.431 290.587,417.954 204.762,445.887 212.18,450.084 282.553,427.181 "
     id="polygon3343"
     transform="matrix(0.4332811,0,0,0.54070666,231.41858,190.7851)"
     style="fill:#ffffff;stroke:#ffffff;stroke-width:4;stroke-miterlimit:10" /><path
     d="m 292.49649,526.35522 13.55563,-96.12899 83.61978,58.35684 -0.0286,0.20223 75.69161,53.03197 -89.63546,40.72981 -83.20297,-56.19186 z m 83.9898,42.84451 65.48264,-29.754 -58.94702,-41.30134 0.0269,-0.19249 -69.75306,-48.66685 -9.94467,70.52167 73.13525,49.39301 z"
     id="path3345"
     inkscape:connector-curvature="0"
     style="fill:#ffffff" /><path
     d="m 307.65742,434.44374 79.61411,55.56139 -0.0282,0.19898 -0.81933,-0.57423 -0.97445,6.89942 -73.75831,-51.46176 -10.74407,76.1899 75.36492,50.89942 70.83236,-32.18557 -61.7222,-43.24517 0.0277,-0.19574 0.81934,0.57153 0.97445,-6.89672 72.91644,51.08759 -84.28574,38.29825 -80.97374,-54.68599 12.75666,-90.4613 m -3.21018,-8.43557 -1.0572,7.49798 -12.75623,90.46131 -0.54117,3.83793 2.74614,1.85517 80.97287,54.68653 1.71363,1.15765 1.83148,-0.83215 84.28574,-38.29879 8.86839,-4.02935 -8.2293,-5.76609 -70.23704,-49.2108 0.029,-0.206 -2.68634,-1.87463 -79.6154,-55.56248 -5.3246,-3.71628 0,0 z m 1.30851,92.34837 9.1457,-64.85451 65.74738,45.87193 -0.0269,0.19032 2.67941,1.87734 53.49245,37.47746 -60.13335,27.32407 -70.90472,-47.88661 0,0 z"
     id="path3347"
     inkscape:connector-curvature="0"
     style="fill:#1ca8e1" /><polygon
     points="618.524,78.549 519.219,641.698 340.214,706.865 439.436,143.689 "
     id="polygon3349"
     transform="matrix(0.4332811,0,0,0.54070666,231.41858,190.7851)"
     style="fill:#1ca8e1" /><path
     d="m 416.28663,262.68665 91.16494,-41.38082 -45.53481,322.24062 -91.12681,41.39974 45.49668,-322.25954 z m -29.42282,298.35003 63.99172,-29.07271 40.52002,-286.75567 -64.02639,29.06299 -40.48535,286.76539 z"
     id="path3351"
     inkscape:connector-curvature="0"
     style="fill:#ffffff" /><path
     d="m 504.66644,225.44656 -44.66565,316.09332 -86.42614,39.2645 44.62838,-316.11117 86.46341,-39.24665 m -10.5062,15.62101 -68.72791,31.19661 -41.35322,292.91486 68.69282,-31.20851 41.38831,-292.90296 m 16.07647,-23.90302 -7.05036,3.20045 -86.46427,39.24665 -2.35185,1.06789 -0.43458,3.07554 -44.62796,316.11117 -1.30201,9.22284 7.05079,-3.20369 86.42658,-39.2645 2.35055,-1.06789 0.43415,-3.075 44.66565,-316.09279 1.30331,-9.22067 0,0 z m -80.97114,59.11384 59.32484,-26.92881 -39.65128,280.60783 -59.29106,26.93638 39.6175,-280.6154 0,0 z"
     id="path3353"
     inkscape:connector-curvature="0"
     style="fill:#1ca8e1" /><path
     d="m 319.05055,440.58292 c -0.89992,6.35925 -5.76264,10.61299 -10.85759,9.48994 -5.09972,-1.12413 -8.50488,-7.19085 -7.60885,-13.55443 0.90122,-6.36466 5.76264,-10.60921 10.86279,-9.48562 5.09972,1.11818 8.50098,7.18653 7.60365,13.55011 z"
     id="path3355"
     inkscape:connector-curvature="0"
     style="fill:#ffffff" /><path
     d="m 309.83076,453.65234 c -0.70365,0 -1.41423,-0.0789 -2.11181,-0.2325 -6.56811,-1.44801 -10.97241,-9.29367 -9.81815,-17.49078 1.02341,-7.23141 6.02954,-12.47735 11.90353,-12.47735 0.70495,0 1.41726,0.0789 2.11615,0.23305 3.18115,0.69751 5.95501,2.90143 7.80859,6.20677 1.85228,3.30209 2.56416,7.30927 2.00436,11.28022 -1.02298,7.23249 -6.02868,12.48059 -11.90267,12.48059 z m -0.026,-23.40016 c -3.22578,0 -5.97538,2.88413 -6.53778,6.85778 -0.63433,4.50409 1.78771,8.82001 5.39998,9.61539 0.38562,0.0849 0.77687,0.12761 1.16379,0.12761 3.22535,0 5.97495,-2.88521 6.53735,-6.86103 0.30763,-2.18175 -0.0836,-4.38513 -1.10227,-6.20137 -1.01821,-1.81461 -2.54163,-3.02633 -4.29035,-3.40969 -0.38909,-0.0854 -0.78207,-0.12869 -1.17072,-0.12869 z"
     id="path3357"
     inkscape:connector-curvature="0"
     style="fill:#1ca8e1" /><path
     d="m 307.35369,523.36727 c -0.89559,6.36358 -5.75873,10.61299 -10.85845,9.49481 -5.09539,-1.11818 -8.50488,-7.1914 -7.60452,-13.55065 0.89646,-6.36411 5.76307,-10.61461 10.86236,-9.4894 5.09582,1.11818 8.50141,7.18599 7.60061,13.54524 z"
     id="path3359"
     inkscape:connector-curvature="0"
     style="fill:#ffffff" /><path
     d="m 298.13044,536.43994 c -0.70192,0 -1.41076,-0.0779 -2.10661,-0.23034 -3.18159,-0.6986 -5.95545,-2.90306 -7.8099,-6.20677 -1.85531,-3.30534 -2.56762,-7.31198 -2.00522,-11.28239 1.01864,-7.22871 6.02434,-12.47735 11.90266,-12.47735 0.70539,0 1.41727,0.0789 2.11658,0.23251 3.17899,0.69805 5.95199,2.90143 7.806,6.20569 1.85401,3.30263 2.56502,7.30981 2.00305,11.27914 -1.01821,7.22925 -6.02564,12.47951 -11.90656,12.47951 z m -0.0195,-23.39908 c -3.22794,0 -5.97668,2.88467 -6.53691,6.8594 -0.30936,2.18338 0.0823,4.38405 1.10183,6.20137 1.01951,1.81623 2.5438,3.02904 4.29122,3.4124 0.38519,0.0843 0.77644,0.12652 1.16293,0.12652 3.23011,0 5.98058,-2.88575 6.54037,-6.86048 0.30937,-2.18392 -0.0815,-4.38459 -1.1001,-6.19975 -1.01864,-1.81515 -2.54162,-3.02633 -4.28905,-3.40969 -0.38908,-0.0865 -0.78207,-0.12977 -1.17029,-0.12977 z"
     id="path3361"
     inkscape:connector-curvature="0"
     style="fill:#1ca8e1" /><path
     d="m 470.79036,541.1695 c -1.03468,7.33036 -6.6344,12.22267 -12.50189,10.92606 -5.874,-1.28796 -9.79476,-8.27444 -8.75965,-15.60371 1.03684,-7.32388 6.6344,-12.21186 12.50753,-10.92444 5.86966,1.29012 9.78999,8.27281 8.75401,15.60209 z"
     id="path3363"
     inkscape:connector-curvature="0"
     style="fill:#ffffff" /><path
     d="m 460.17974,555.70369 c -0.78814,0 -1.58451,-0.0871 -2.36702,-0.25954 -3.55377,-0.77915 -6.65389,-3.24207 -8.72671,-6.93348 -2.07282,-3.6914 -2.86745,-8.16845 -2.24006,-12.60819 1.14299,-8.07708 6.73925,-13.93942 13.30693,-13.93942 0.78467,0 1.57671,0.0865 2.35488,0.25737 3.55724,0.78241 6.65563,3.24533 8.72715,6.93511 2.07065,3.69086 2.86572,8.16791 2.23876,12.60657 -1.1417,8.07708 -6.73189,13.94158 -13.29393,13.94158 z m -0.0269,-26.94341 c -3.91947,0 -7.2592,3.5 -7.94161,8.32148 -0.37436,2.65 0.10008,5.32379 1.3371,7.52663 1.23659,2.20338 3.08713,3.67302 5.21064,4.13857 0.47271,0.10382 0.94889,0.15681 1.41986,0.15681 3.91296,0 7.2475,-3.50162 7.92775,-8.32472 0.37478,-2.65055 -0.0992,-5.32326 -1.33538,-7.52556 -1.23615,-2.2023 -3.08539,-3.67248 -5.20847,-4.13965 -0.46534,-0.10165 -0.94065,-0.15356 -1.40989,-0.15356 z"
     id="path3365"
     inkscape:connector-curvature="0"
     style="fill:#1ca8e1" /><path
     d="m 510.96505,232.10969 c -1.03554,7.32927 -6.6344,12.21943 -12.50319,10.92714 -5.87443,-1.29229 -9.79389,-8.2766 -8.75835,-15.60642 1.03555,-7.32387 6.6344,-12.21402 12.50796,-10.92498 5.8675,1.29283 9.78869,8.27714 8.75358,15.60426 z"
     id="path3367"
     inkscape:connector-curvature="0"
     style="fill:#ffffff" /><path
     d="m 500.34836,246.64388 c -0.78597,0 -1.58017,-0.0871 -2.35965,-0.259 -7.34194,-1.61563 -12.26272,-10.38319 -10.96764,-19.54438 1.1417,-8.07816 6.73752,-13.9405 13.3052,-13.9405 0.7851,0 1.57931,0.0865 2.35705,0.25738 7.34064,1.61671 12.25925,10.38319 10.96504,19.54276 -1.14213,8.07924 -6.73535,13.94374 -13.3,13.94374 z m -0.023,-26.94449 c -3.91903,0 -7.25833,3.49999 -7.93988,8.32255 -0.77167,5.46871 2.16511,10.70329 6.54861,11.66791 0.46838,0.10328 0.94412,0.15573 1.41423,0.15573 3.91556,0 7.25226,-3.50162 7.93425,-8.32526 0.77254,-5.46763 -2.16338,-10.70113 -6.54471,-11.66575 -0.46665,-0.10328 -0.94239,-0.15518 -1.4125,-0.15518 z"
     id="path3369"
     inkscape:connector-curvature="0"
     style="fill:#1ca8e1" /><path
     d="m 389.26809,575.29133 c -1.23659,8.74215 -7.91648,14.58124 -14.92307,13.0386 -7.00659,-1.53777 -11.68949,-9.88249 -10.45291,-18.62247 1.23659,-8.73891 7.91908,-14.58232 14.92654,-13.0386 7.00312,1.54209 11.68082,9.87762 10.44944,18.62247 z"
     id="path3371"
     inkscape:connector-curvature="0"
     style="fill:#ffffff" /><path
     d="m 376.59765,591.977 c -0.90859,0 -1.82542,-0.10057 -2.72621,-0.29901 -4.10447,-0.90028 -7.6825,-3.74439 -10.07552,-8.00787 -2.39257,-4.26401 -3.31113,-9.43154 -2.58668,-14.55366 1.31934,-9.32611 7.77739,-16.09521 15.35591,-16.09521 0.90859,0 1.82585,0.10111 2.72664,0.29955 8.46891,1.86436 14.14793,11.9853 12.65917,22.55882 -1.3189,9.32827 -7.77566,16.09738 -15.35331,16.09738 z m -0.0321,-32.15582 c -4.92987,0 -9.13183,4.40621 -9.99146,10.47727 -0.47141,3.33291 0.12652,6.69719 1.6846,9.4721 1.55764,2.77544 3.88653,4.62628 6.55771,5.21241 0.59056,0.12977 1.18936,0.19574 1.78122,0.19574 4.92857,0 9.1288,-4.40622 9.98799,-10.47728 0.96882,-6.88211 -2.7275,-13.46954 -8.241,-14.68397 -0.5884,-0.13031 -1.18719,-0.19627 -1.77906,-0.19627 z"
     id="path3373"
     inkscape:connector-curvature="0"
     style="fill:#1ca8e1" /><path
     d="m 434.69024,269.99105 c -1.23658,8.74161 -7.91907,14.57908 -14.9261,13.03698 -7.00225,-1.53993 -11.68125,-9.87817 -10.44857,-18.61977 1.23572,-8.74431 7.91518,-14.58232 14.92133,-13.04239 7.00659,1.54264 11.6882,9.88087 10.45334,18.62518 z"
     id="path3375"
     inkscape:connector-curvature="0"
     style="fill:#ffffff" /><path
     d="m 422.01677,286.67456 c -0.90859,0 -1.82584,-0.10057 -2.72577,-0.29847 -8.47151,-1.86328 -14.14966,-11.98206 -12.65917,-22.55666 1.31804,-9.32881 7.77566,-16.099 15.35461,-16.099 0.90729,0 1.82325,0.10057 2.72274,0.29793 8.47628,1.86598 14.15746,11.988 12.66351,22.56314 -1.31934,9.32503 -7.7774,16.09306 -15.35592,16.09306 z m -0.0303,-32.15529 c -4.92987,0 -9.13096,4.4073 -9.98973,10.47944 -0.96968,6.88265 2.72578,13.469 8.23928,14.68127 0.58969,0.12977 1.18849,0.19573 1.78035,0.19573 4.9303,0 9.1314,-4.40568 9.99103,-10.47565 0.97185,-6.88265 -2.72621,-13.47117 -8.24404,-14.68613 -0.58753,-0.12923 -1.18589,-0.19466 -1.77689,-0.19466 z"
     id="path3377"
     inkscape:connector-curvature="0"
     style="fill:#1ca8e1" /><g
     id="g3379"
     transform="matrix(0.4332811,0,0,0.54070666,231.41858,190.7851)"><path
       d="m 283.158,443.443 c -1.015,0 -2.04,-0.09 -3.046,-0.268 -4.584,-0.806 -8.585,-3.352 -11.26,-7.166 -2.676,-3.816 -3.705,-8.444 -2.896,-13.03 1.471,-8.354 8.691,-14.417 17.167,-14.417 1.016,0 2.04,0.09 3.046,0.267 4.575,0.802 8.569,3.342 11.24,7.152 2.677,3.818 3.706,8.453 2.895,13.05 -1.473,8.352 -8.684,14.412 -17.146,14.412 z"
       id="path3381"
       inkscape:connector-curvature="0"
       style="fill:#ffffff" /><path
       d="m 283.124,414.562 c 0.661,0 1.331,0.057 2.004,0.176 6.225,1.091 10.364,7.032 9.268,13.251 -0.979,5.551 -5.793,9.454 -11.238,9.454 -0.661,0 -1.33,-0.057 -2.003,-0.176 -6.225,-1.095 -10.386,-7.03 -9.29,-13.246 0.979,-5.558 5.81,-9.459 11.259,-9.459 m 0,-12 0,0 c -11.395,0 -21.1,8.149 -23.077,19.378 -1.087,6.163 0.295,12.384 3.892,17.514 3.595,5.127 8.971,8.548 15.137,9.632 1.342,0.237 2.717,0.357 4.082,0.357 11.379,0 21.075,-8.146 23.056,-19.369 1.089,-6.178 -0.293,-12.405 -3.891,-17.537 -3.591,-5.123 -8.962,-8.539 -15.123,-9.619 -1.337,-0.235 -2.712,-0.356 -4.076,-0.356 l 0,0 z"
       id="path3383"
       inkscape:connector-curvature="0"
       style="fill:#1ca8e1" /></g></svg>