<svg id="Layer_9" data-name="Layer 9" xmlns="http://www.w3.org/2000/svg" width="1936.01" height="150" viewBox="0 0 1936.01 150"><title>jasp-wave-down-blue-180</title><rect width="1936" height="150" fill="#fff"/><path d="M268.24,98a6.91,6.91,0,0,0,1.79.62,4.8,4.8,0,0,1,1.09.35q1.92,1.15,4,2.14a31.41,31.41,0,0,1,5.62,3.31l.13.09a6.83,6.83,0,0,0,1.81.64,4.6,4.6,0,0,1,1.12.37h0a400.78,400.78,0,0,0,119.5,39.15c38.53,6.13,79.18,6.68,120.81,1.64q5.62-.68,11.26-1.5,7-1,14-2.2c39.46-6.75,80.22-18.29,122.92-34.82Q598.38,95.22,526.5,77c-1.76-.5-4.11-.5-5.87-1-6.44-2.46-12.9-3.46-19.35-5.46-1.76-.5-4.11-.5-5.87-1-149-38-305.25-57.32-462.59-57.28h0q-16.42,0-32.82.24V43.32C91.43,35.63,181.94,53.84,268.24,98Z" fill="#e3f3fb"/><path d="M1479.22,73.5q-74.11,18.92-150.47,32.19,21.48,8.52,42.36,15.37c41.36,13.55,82,22.45,120.69,26.44a468.44,468.44,0,0,0,48.06,2.5,425.78,425.78,0,0,0,72.24-6.05,411.28,411.28,0,0,0,118-39.6h0c68.22-34.91,137.32-55.25,205.91-61V12.46A1979.9,1979.9,0,0,0,1479.22,73.5Z" fill="#e3f3fb"/><path d="M1251.78,70.69a4.61,4.61,0,0,0-1.13-.37,6.83,6.83,0,0,1-1.81-.64l-.13-.09a31.41,31.41,0,0,0-5.62-3.31c-1.3-.64-4.61-2.38-5.06-2.48a6.92,6.92,0,0,1-1.79-.62c-152.53-78.05-316.49-76.69-474.15,4h0q-23.65,12.13-46.47,22.43l-.14.07-.57.25-.21.1-.09,0-.41.18h-.08q-21.24,9.54-41.82,17.5c218,37.06,440.86,35.25,656.45-2.13q-39.72-15.87-76.92-35Z" fill="#50b0e3"/><path d="M32.82,12.22c157.34,0,313.62,19.32,462.59,57.29,1.76.5,4.11.5,5.87,1,6.45,2,12.91,3,19.36,5.48,1.76.5,4.11.5,5.87,1q71.78,18.24,145.79,30.82,20.6-8,41.82-17.5h.08l.41-.18.09,0,.21-.1.57-.25.14-.07q22.84-10.3,46.47-22.43h0c157.66-80.74,321.62-82.11,474.15-4.07a6.92,6.92,0,0,0,1.79.62c.45.11,3.77,1.84,5.06,2.48a31.41,31.41,0,0,1,5.62,3.31l.13.09a6.83,6.83,0,0,0,1.81.64,4.61,4.61,0,0,1,1.13.37h0q37.14,19.07,76.92,35Q1405,92.43,1479.22,73.5a1979.89,1979.89,0,0,1,456.78-61V0H0V12.46Q16.41,12.21,32.82,12.22Z" fill="#14a1e3"/></svg>