<svg id="Layer_9" data-name="Layer 9" xmlns="http://www.w3.org/2000/svg" width="1936.01" height="100" viewBox="0 0 1936.01 100"><title>jasp-wave-up-green-100</title><rect width="1936" height="100" fill="#fff"/><path d="M1667.76,34.67a9.41,9.41,0,0,0-1.79-.42,6.65,6.65,0,0,1-1.09-.23q-1.92-.78-4-1.42a37.34,37.34,0,0,1-5.62-2.21l-.13-.06a9.27,9.27,0,0,0-1.81-.42,6.35,6.35,0,0,1-1.12-.24h0A551.55,551.55,0,0,0,1532.7,3.57,651.84,651.84,0,0,0,1411.89,2.5q-5.62.46-11.26,1-7,.67-14,1.47a898.21,898.21,0,0,0-122.92,23.22q73.91,8.38,145.79,20.56c1.76.32,4.11.32,5.87.67,6.45,1.67,12.91,2.33,19.36,3.66,1.76.33,4.11.33,5.87.67,149,25.32,305.25,38.22,462.59,38.19h0q16.42,0,32.82-.16V71.12A705.81,705.81,0,0,1,1667.76,34.67Z" fill="#e2f3cb"/><path d="M456.78,51q74.11-12.62,150.47-21.42-21.48-5.72-42.36-10.24A833.41,833.41,0,0,0,444.2,1.71C428.27.57,412.2,0,396.14,0A634.35,634.35,0,0,0,323.9,4a563.9,563.9,0,0,0-118,26.42h0C137.69,53.71,68.59,67.28,0,71.12V91.67A2921.67,2921.67,0,0,0,456.78,51Z" fill="#e2f3cb"/><path d="M684.22,52.86a6.37,6.37,0,0,0,1.13.24,9.27,9.27,0,0,1,1.81.43l.13.06a37.34,37.34,0,0,0,5.62,2.21c1.3.43,4.61,1.58,5.06,1.67a9.42,9.42,0,0,1,1.79.42c152.53,52,316.49,51.11,474.15-2.68h0q23.65-8.09,46.47-15l.14,0,.57-.17.21-.07h.09l.41-.13h.08q21.24-6.36,41.82-11.67C1045.75,3.43,822.84,4.64,607.25,29.58Q647,40.14,684.17,52.86Z" fill="#a7d75d"/><path d="M1903.18,91.85c-157.34,0-313.62-12.86-462.59-38.19-1.76-.32-4.11-.32-5.87-.67-6.45-1.33-12.91-2-19.36-3.66-1.76-.32-4.11-.32-5.87-.67q-71.78-12.14-145.79-20.55-20.6,5.32-41.82,11.67h-.08l-.41.13h-.09l-.21.07-.57.17-.14,0q-22.84,6.87-46.47,15h0C1016.25,109,852.29,109.91,699.76,57.86a9.42,9.42,0,0,0-1.79-.42c-.45-.07-3.77-1.23-5.06-1.67a37.3,37.3,0,0,1-5.62-2.22l-.13-.06a9.27,9.27,0,0,0-1.81-.42,6.37,6.37,0,0,1-1.13-.24h0Q647.08,40.12,607.3,29.5,531,38.37,456.78,51A2921.09,2921.09,0,0,1,0,91.67V100H1936V91.67Q1919.59,91.87,1903.18,91.85Z" fill="#8cc63e"/></svg>