<svg id="Layer_9" data-name="Layer 9" xmlns="http://www.w3.org/2000/svg" width="1300" height="120" viewBox="0 0 1300 120"><title>jasp-wave-down-blue-120-squat</title><rect y="8.86" width="1299.99" height="111.14" fill="#fff"/><path d="M180.12,81.47a4.36,4.36,0,0,0,1.2.46,3,3,0,0,1,.73.26q1.29.85,2.69,1.59a20.75,20.75,0,0,1,3.77,2.45l.09.06a4.3,4.3,0,0,0,1.22.47,2.89,2.89,0,0,1,.75.27h0a251.87,251.87,0,0,0,80.24,29,265.67,265.67,0,0,0,81.12,1.17q3.77-.51,7.56-1.11,4.7-.74,9.4-1.63c26.5-5,53.87-13.55,82.54-25.8q-49.63-9.27-97.9-22.79c-1.18-.37-2.76-.37-3.94-.74-4.32-1.85-8.66-2.57-13-4-1.18-.37-2.76-.37-3.94-.74A1148.63,1148.63,0,0,0,22,17.92h0q-11,0-22,.2V41C61.39,35.27,122.17,48.75,180.12,81.47Z" fill="#e3f3fb"/><path d="M993.27,63.32q-49.76,14-101,23.85,14.42,6.32,28.44,11.38c27.77,10,55.06,16.67,81,19.59A284.43,284.43,0,0,0,1034,120a259.8,259.8,0,0,0,48.51-4.48,258.8,258.8,0,0,0,79.24-29.34h0C1207.54,60.3,1253.94,45.23,1300,41V18.12A1212.57,1212.57,0,0,0,993.27,63.32Z" fill="#e3f3fb"/><path d="M840.55,61.25a2.89,2.89,0,0,0-.76-.27,4.3,4.3,0,0,1-1.22-.47l-.09-.06A20.75,20.75,0,0,0,834.72,58c-.87-.48-3.1-1.76-3.4-1.85a4.36,4.36,0,0,1-1.2-.46C727.69-2.15,617.6-1.14,511.73,58.66h0q-15.88,9-31.2,16.62l-.09,0-.38.19-.14.07h-.06l-.28.13h-.05q-14.26,7.07-28.08,13c146.38,27.46,296,26.12,440.8-1.57a574,574,0,0,1-51.65-25.93Z" fill="#50b0e3"/><path d="M22,17.92A1149.73,1149.73,0,0,1,332.66,60.37c1.18.37,2.76.37,3.94.74,4.33,1.48,8.67,2.22,13,4.07,1.18.37,2.76.37,3.94.74q48.2,13.51,97.9,22.84,13.83-5.91,28.08-13h.05l.28-.13h.06l.14-.07.38-.19.09,0q15.34-7.63,31.2-16.62h0c105.87-59.83,216-60.84,318.38-3a4.36,4.36,0,0,0,1.2.46c.3.08,2.53,1.37,3.4,1.85a20.75,20.75,0,0,1,3.77,2.45l.09.06a4.3,4.3,0,0,0,1.22.47,2.89,2.89,0,0,1,.76.27h0q24.94,14.13,51.65,25.93,51.23-9.88,101.07-23.9A1212.57,1212.57,0,0,1,1300,18.12V0H0V18.12Q11,17.91,22,17.92Z" fill="#14a1e3"/></svg>