<?xml version="1.0" encoding="UTF-8" standalone="no"?>
<!-- Generator: Adobe Illustrator 16.0.0, SVG Export Plug-In . SVG Version: 6.00 Build 0)  -->

<svg
   xmlns:dc="http://purl.org/dc/elements/1.1/"
   xmlns:cc="http://creativecommons.org/ns#"
   xmlns:rdf="http://www.w3.org/1999/02/22-rdf-syntax-ns#"
   xmlns:svg="http://www.w3.org/2000/svg"
   xmlns="http://www.w3.org/2000/svg"
   xmlns:sodipodi="http://sodipodi.sourceforge.net/DTD/sodipodi-0.dtd"
   xmlns:inkscape="http://www.inkscape.org/namespaces/inkscape"
   version="1.1"
   id="Capa_1"
   x="0px"
   y="0px"
   width="498.20407"
   height="429.51019"
   viewBox="0 0 498.20407 429.51019"
   xml:space="preserve"
   sodipodi:docname="addition-sign-small-green.svg"
   inkscape:version="0.92.2 5c3e80d, 2017-08-06"><metadata
     id="metadata3853"><rdf:RDF><cc:Work
         rdf:about=""><dc:format>image/svg+xml</dc:format><dc:type
           rdf:resource="http://purl.org/dc/dcmitype/StillImage" /><dc:title /></cc:Work></rdf:RDF></metadata><defs
     id="defs3851" /><sodipodi:namedview
     pagecolor="#ffffff"
     bordercolor="#666666"
     borderopacity="1"
     objecttolerance="10"
     gridtolerance="10"
     guidetolerance="10"
     inkscape:pageopacity="0"
     inkscape:pageshadow="2"
     inkscape:window-width="1440"
     inkscape:window-height="855"
     id="namedview3849"
     showgrid="false"
     inkscape:zoom="1.4411765"
     inkscape:cx="-34.518928"
     inkscape:cy="217.503"
     inkscape:window-x="1597"
     inkscape:window-y="133"
     inkscape:window-maximized="0"
     inkscape:current-layer="g3816" /><g
     id="g3816"
     transform="matrix(0.67346938,0,0,0.67346938,91.244898,22.55102)"
     style="display:inline"><path
       d="M 511.80304,205.67424 H 326.86363 V 46.234849 c 0,-44.0250726 -41.40345,-79.719697 -92.46969,-79.719697 -51.06624,0 -92.46969,35.6946244 -92.46969,79.719697 V 205.67424 h -184.9394 c -51.066239,0 -92.4697,35.69462 -92.4697,79.7197 0,44.02508 41.403461,79.71969 92.4697,79.71969 h 184.9394 v 159.43941 c 0,44.02506 41.40345,79.71969 92.46969,79.71969 51.06624,0 92.46969,-35.69463 92.46969,-79.71969 V 365.11363 h 184.93941 c 51.06623,0 92.46969,-35.69461 92.46969,-79.71969 0,-44.02508 -41.40346,-79.7197 -92.46969,-79.7197 z"
       id="path3811"
       inkscape:connector-curvature="0"
       style="display:inline;fill:#30b743;fill-opacity:1;stroke-width:1.12233138" /></g><g
     id="g3818"
     transform="matrix(0.65646258,0,0,0.65646258,96.448976,27.755098)" /><g
     id="g3820"
     transform="matrix(0.65646258,0,0,0.65646258,96.448976,27.755098)" /><g
     id="g3822"
     transform="matrix(0.65646258,0,0,0.65646258,96.448976,27.755098)" /><g
     id="g3824"
     transform="matrix(0.65646258,0,0,0.65646258,96.448976,27.755098)" /><g
     id="g3826"
     transform="matrix(0.65646258,0,0,0.65646258,96.448976,27.755098)" /><g
     id="g3828"
     transform="matrix(0.65646258,0,0,0.65646258,96.448976,27.755098)" /><g
     id="g3830"
     transform="matrix(0.65646258,0,0,0.65646258,96.448976,27.755098)" /><g
     id="g3832"
     transform="matrix(0.65646258,0,0,0.65646258,96.448976,27.755098)" /><g
     id="g3834"
     transform="matrix(0.65646258,0,0,0.65646258,96.448976,27.755098)" /><g
     id="g3836"
     transform="matrix(0.65646258,0,0,0.65646258,96.448976,27.755098)" /><g
     id="g3838"
     transform="matrix(0.65646258,0,0,0.65646258,96.448976,27.755098)" /><g
     id="g3840"
     transform="matrix(0.65646258,0,0,0.65646258,96.448976,27.755098)" /><g
     id="g3842"
     transform="matrix(0.65646258,0,0,0.65646258,96.448976,27.755098)" /><g
     id="g3844"
     transform="matrix(0.65646258,0,0,0.65646258,96.448976,27.755098)"
     style="display:inline" /><g
     id="g3846"
     transform="matrix(0.65646258,0,0,0.65646258,96.448976,27.755098)"
     style="display:inline" /></svg>