<?xml version="1.0" encoding="UTF-8" standalone="no"?>
<svg
   xmlns:dc="http://purl.org/dc/elements/1.1/"
   xmlns:cc="http://creativecommons.org/ns#"
   xmlns:rdf="http://www.w3.org/1999/02/22-rdf-syntax-ns#"
   xmlns:svg="http://www.w3.org/2000/svg"
   xmlns="http://www.w3.org/2000/svg"
   xmlns:sodipodi="http://sodipodi.sourceforge.net/DTD/sodipodi-0.dtd"
   xmlns:inkscape="http://www.inkscape.org/namespaces/inkscape"
   version="1.1"
   id="Layer_1"
   x="0px"
   y="0px"
   viewBox="0 0 128 128"
   xml:space="preserve"
   sodipodi:docname="data-button-resize.svg"
   inkscape:version="1.0.2 (e86c870879, 2021-01-15, custom)"
   width="128"
   height="128"><metadata
   id="metadata29"><rdf:RDF><cc:Work
       rdf:about=""><dc:format>image/svg+xml</dc:format><dc:type
         rdf:resource="http://purl.org/dc/dcmitype/StillImage" /><dc:title></dc:title></cc:Work></rdf:RDF></metadata><defs
   id="defs27" /><sodipodi:namedview
   pagecolor="#ffffff"
   bordercolor="#666666"
   borderopacity="1"
   objecttolerance="10"
   gridtolerance="10"
   guidetolerance="10"
   inkscape:pageopacity="0"
   inkscape:pageshadow="2"
   inkscape:window-width="3832"
   inkscape:window-height="2076"
   id="namedview25"
   showgrid="false"
   inkscape:zoom="5.4536208"
   inkscape:cx="37.105816"
   inkscape:cy="136.72631"
   inkscape:window-x="0"
   inkscape:window-y="36"
   inkscape:window-maximized="1"
   inkscape:current-layer="Layer_1"
   inkscape:snap-intersection-paths="true"
   inkscape:document-rotation="0" />
<style
   type="text/css"
   id="style2">
	.st0{fill:none;stroke:#CCCCCC;stroke-width:1.3455;stroke-linejoin:round;stroke-miterlimit:10;}
	.st1{fill:none;stroke:#CCCCCC;stroke-width:1.4178;stroke-miterlimit:10;}
	.st2{fill:#CCCCCC;stroke:#CCCCCC;stroke-width:1.4178;stroke-miterlimit:10;}
	.st3{fill:#FFFFFF;}
	.st4{fill:none;stroke:#231F20;stroke-width:0.0752;stroke-miterlimit:10;}
	.st5{fill:#8CC63E;}
</style>
<g
   id="g22"
   transform="matrix(2.3558125,0,0,2.3504462,-21.3433,-21.509778)">
	<g
   id="g20">
		<g
   id="g14">
			<line
   class="st0"
   x1="23.92"
   y1="10.12"
   x2="23.92"
   y2="53.880001"
   id="line4" />
			<line
   class="st0"
   x1="53.959999"
   y1="35.130001"
   x2="10.04"
   y2="35.130001"
   id="line6" />
			<line
   class="st0"
   x1="53.959999"
   y1="16.370001"
   x2="10.04"
   y2="16.370001"
   id="line8" />
			<line
   class="st0"
   x1="53.959999"
   y1="25.75"
   x2="10.04"
   y2="25.75"
   id="line10" />
			<line
   class="st0"
   x1="53.959999"
   y1="44.5"
   x2="10.04"
   y2="44.5"
   id="line12" />
		</g>
		<path
   class="st1"
   d="M 52.92,53.88 H 11.08 c -0.58,0 -1.05,-0.38 -1.05,-0.85 V 16.37 h 43.92 v 36.65 c 0.01,0.47 -0.46,0.86 -1.03,0.86 z"
   id="path16" />
		<path
   class="st2"
   d="M 53.96,16.37 H 10.04 v -5.4 c 0,-0.47 0.47,-0.85 1.05,-0.85 h 41.83 c 0.58,0 1.05,0.38 1.05,0.85 v 5.4 z"
   id="path18" />
	</g>
</g>
<path
   style="fill:none;fill-opacity:1;stroke:#000000;stroke-width:7.55905512;stroke-linecap:butt;stroke-linejoin:miter;stroke-miterlimit:4;stroke-dasharray:none;stroke-opacity:1"
   d="M 103.0883,115.17251 74.313335,86.931858 63.650854,97.796082 l 1.397754,-31.652524 31.618188,-1.988087 -5.493191,5.59713 -5.087723,5.31534 28.755298,28.221339 10.58756,-10.919284 -0.76908,31.714584 -32.235962,1.9149 z"
   id="path1128"
   sodipodi:nodetypes="cccccccccccc" /></svg>
