<?xml version="1.0" encoding="UTF-8" standalone="no"?>
<svg xmlns:dc="http://purl.org/dc/elements/1.1/" xmlns:cc="http://creativecommons.org/ns#" xmlns:rdf="http://www.w3.org/1999/02/22-rdf-syntax-ns#" xmlns:svg="http://www.w3.org/2000/svg" xmlns="http://www.w3.org/2000/svg" xmlns:sodipodi="http://sodipodi.sourceforge.net/DTD/sodipodi-0.dtd" xmlns:inkscape="http://www.inkscape.org/namespaces/inkscape" viewBox="0 -256 1792 1792" id="svg3013" version="1.1" inkscape:version="0.48.3.1 r9886" width="100%" height="100%" sodipodi:docname="exclamation_sign_font_awesome.svg"><link xmlns="" type="text/css" id="dark-mode" rel="stylesheet" href="moz-extension://ad9c3ec2-8992-4557-8ab7-d7552c8a9047/data/content_script/general/dark_30.css"/><style xmlns="" type="text/css" id="dark-mode-custom-style"/>
  <metadata id="metadata3023">
    <rdf:RDF>
      <cc:Work rdf:about="">
        <dc:format>image/svg+xml</dc:format>
        <dc:type rdf:resource="http://purl.org/dc/dcmitype/StillImage"/>
      </cc:Work>
    </rdf:RDF>
  </metadata>
  <defs id="defs3021"/>
  <sodipodi:namedview pagecolor="#ffffff" bordercolor="#666666" borderopacity="1" objecttolerance="10" gridtolerance="10" guidetolerance="10" inkscape:pageopacity="0" inkscape:pageshadow="2" inkscape:window-width="640" inkscape:window-height="480" id="namedview3019" showgrid="false" inkscape:zoom="0.13169643" inkscape:cx="896" inkscape:cy="896" inkscape:window-x="0" inkscape:window-y="25" inkscape:window-maximized="0" inkscape:current-layer="svg3013"/>
  <g transform="matrix(1,0,0,-1,121.49153,1300.6102)" id="g3015">
    <path d="m 768,1408 q 209,0 385.5,-103 Q 1330,1202 1433,1025.5 1536,849 1536,640 1536,431 1433,254.5 1330,78 1153.5,-25 977,-128 768,-128 559,-128 382.5,-25 206,78 103,254.5 0,431 0,640 0,849 103,1025.5 206,1202 382.5,1305 559,1408 768,1408 z M 896,161 v 190 q 0,14 -9,23.5 -9,9.5 -22,9.5 H 673 q -13,0 -23,-10 -10,-10 -10,-23 V 161 q 0,-13 10,-23 10,-10 23,-10 h 192 q 13,0 22,9.5 9,9.5 9,23.5 z m -2,344 18,621 q 0,12 -10,18 -10,8 -24,8 H 658 q -14,0 -24,-8 -10,-6 -10,-18 l 17,-621 q 0,-10 10,-17.5 10,-7.5 24,-7.5 h 185 q 14,0 23.5,7.5 9.5,7.5 10.5,17.5 z" id="path3017" inkscape:connector-curvature="0" style="fill:currentColor"/>
  </g>
</svg>