<?xml version="1.0" encoding="UTF-8" standalone="no"?>
<svg
   xmlns:dc="http://purl.org/dc/elements/1.1/"
   xmlns:cc="http://creativecommons.org/ns#"
   xmlns:rdf="http://www.w3.org/1999/02/22-rdf-syntax-ns#"
   xmlns:svg="http://www.w3.org/2000/svg"
   xmlns="http://www.w3.org/2000/svg"
   viewBox="0 0 443.444 443.444"
   height="443.444"
   width="443.444"
   xml:space="preserve"
   id="svg2"
   version="1.1"><metadata
     id="metadata8"><rdf:RDF><cc:Work
         rdf:about=""><dc:format>image/svg+xml</dc:format><dc:type
           rdf:resource="http://purl.org/dc/dcmitype/StillImage" /></cc:Work></rdf:RDF></metadata><defs
     id="defs6"><clipPath
       id="clipPath18"
       clipPathUnits="userSpaceOnUse"><path
         id="path16"
         d="M 0,332.583 H 332.583 V 0 H 0 Z" /></clipPath></defs><g
     transform="matrix(1.3333333,0,0,-1.3333333,0,443.444)"
     id="g10"><g
       id="g12"><g
         clip-path="url(#clipPath18)"
         id="g14"><g
           transform="translate(314.7841,166.2916)"
           id="g20"><path
             id="path22"
             style="fill:#ffffff;fill-opacity:1;fill-rule:nonzero;stroke:none"
             d="m 0,0 c 0,-82.01 -66.482,-148.493 -148.493,-148.493 -82.01,0 -148.492,66.483 -148.492,148.493 0,82.01 66.482,148.492 148.492,148.492 C -66.482,148.492 0,82.01 0,0" /></g><g
           transform="translate(314.7841,166.2916)"
           id="g24"><path
             id="path26"
             style="fill:none;stroke:#231f20;stroke-width:1;stroke-linecap:butt;stroke-linejoin:miter;stroke-miterlimit:10;stroke-dasharray:none;stroke-opacity:1"
             d="m 0,0 c 0,-82.01 -66.482,-148.493 -148.493,-148.493 -82.01,0 -148.492,66.483 -148.492,148.493 0,82.01 66.482,148.492 148.492,148.492 C -66.482,148.492 0,82.01 0,0 Z" /></g><g
           transform="translate(196.1152,89.587)"
           id="g28"><path
             id="path30"
             style="fill:#1d99dc;fill-opacity:1;fill-rule:nonzero;stroke:none"
             d="m 0,0 c -1.639,-0.346 -2.907,-1.579 -3.306,-3.22 l -0.06,-0.211 c -0.089,-0.429 -0.094,-0.814 -0.04,-1.351 0.09,-0.729 0.341,-1.415 0.743,-2 0.127,-0.185 0.283,-0.372 0.465,-0.556 L -2.119,-7.4 c 0.693,-0.638 1.451,-1.018 2.271,-1.165 0.241,-0.041 0.506,-0.067 0.771,-0.067 2.113,0 3.918,1.521 4.29,3.617 C 5.417,-3.867 5.16,-2.71 4.489,-1.754 4.35,-1.602 4.272,-1.516 4.202,-1.425 3.551,-0.655 2.662,-0.132 1.666,0.048 1.195,0.123 0.669,0.142 0,0" /></g><g
           transform="translate(242.4042,268.9478)"
           id="g32"><path
             id="path34"
             style="fill:#1d99dc;fill-opacity:1;fill-rule:nonzero;stroke:none"
             d="m 0,0 c -0.828,-4.729 -4.343,-8.425 -8.93,-9.542 l -29.034,-164.633 c 0.916,-0.72 1.727,-1.575 2.416,-2.554 1.843,-2.635 2.55,-5.819 1.995,-8.973 -1.01,-5.749 -5.979,-9.922 -11.813,-9.922 -0.699,0 -1.404,0.06 -2.09,0.178 -2.646,0.469 -5.009,1.785 -6.786,3.747 l -37.199,-13.544 c -0.028,-0.385 -0.074,-0.796 -0.15,-1.213 -1.143,-6.493 -6.765,-11.215 -13.367,-11.215 -0.797,0 -1.574,0.069 -2.375,0.212 -3.567,0.624 -6.682,2.609 -8.768,5.586 -1.748,2.5 -2.584,5.489 -2.409,8.533 l -39.648,21.447 c -2.368,-1.69 -5.441,-2.356 -8.206,-1.862 -2.877,0.508 -5.386,2.105 -7.061,4.497 -1.679,2.393 -2.318,5.295 -1.798,8.168 0.786,4.562 4.31,8.028 8.794,8.823 l 5.308,30.176 c -3.877,2.28 -6.045,6.826 -5.24,11.316 0.914,5.222 5.435,9.019 10.75,9.019 0.664,0 1.308,-0.055 1.914,-0.165 2.868,-0.501 5.375,-2.098 7.048,-4.495 0.091,-0.128 0.181,-0.261 0.268,-0.4 l 16.673,5.42 c -0.002,0.042 -0.005,0.083 -0.007,0.122 l -0.016,0.313 c 0,0.154 0.014,0.301 0.035,0.448 0.029,0.406 0.102,0.991 0.102,0.991 0.748,4.353 4.424,7.455 8.751,7.455 4.901,0 8.888,-3.99 8.888,-8.894 0,-4.529 -3.402,-8.279 -7.785,-8.824 l -3.146,-17.641 20.96,-11.748 -1.402,-7.968 -45.817,25.675 c -1.311,-0.967 -2.832,-1.624 -4.444,-1.925 l -5.32,-30.216 c 1.339,-0.788 2.493,-1.848 3.384,-3.114 1.677,-2.375 2.321,-5.278 1.809,-8.17 -0.035,-0.213 -0.079,-0.429 -0.133,-0.651 l 37.93,-20.52 c 2.384,3.264 6.111,5.312 10.17,5.543 l 28.262,160.374 c -4.784,2.875 -7.393,8.428 -6.413,13.96 1.142,6.507 6.764,11.231 13.368,11.231 0.799,0 1.598,-0.07 2.376,-0.209 3.288,-0.58 6.253,-2.395 8.318,-5.056 l 36.052,13.108 c 0.025,0.431 0.077,0.861 0.152,1.281 1.01,5.748 5.979,9.921 11.813,9.921 0.682,0 1.403,-0.062 2.079,-0.178 L -9.733,13.91 C -3.213,12.757 1.153,6.517 0,0 M 77.014,-38.045 C 68.237,-17.49 56.4,0.208 41.504,15.047 26.606,29.886 8.909,41.694 -11.588,50.47 c -20.498,8.777 -42.006,13.165 -64.525,13.165 -22.518,0 -44.055,-4.388 -64.611,-13.165 -20.555,-8.776 -38.253,-20.584 -53.092,-35.423 -14.839,-14.839 -26.647,-32.537 -35.423,-53.092 -8.777,-20.556 -13.165,-42.093 -13.165,-64.611 0,-22.519 4.388,-44.056 13.165,-64.612 8.776,-20.555 20.584,-38.253 35.423,-53.091 14.839,-14.84 32.537,-26.648 53.092,-35.424 20.556,-8.777 42.093,-13.165 64.611,-13.165 22.519,0 44.027,4.388 64.525,13.165 20.497,8.776 38.194,20.584 53.092,35.424 14.896,14.838 26.733,32.536 35.51,53.091 8.776,20.556 13.165,42.093 13.165,64.612 0,22.518 -4.389,44.055 -13.165,64.611" /></g><g
           transform="translate(79.7939,98.6568)"
           id="g36"><path
             id="path38"
             style="fill:#1d99dc;fill-opacity:1;fill-rule:nonzero;stroke:none"
             d="M 0,0 C -0.405,0.272 -0.847,0.458 -1.289,0.537 -1.483,0.571 -1.68,0.592 -1.864,0.592 -2.018,0.592 -2.24,0.536 -2.496,0.471 -3.947,0.103 -4.887,-0.876 -5.1,-2.124 -5.256,-3 -5.063,-3.869 -4.56,-4.583 c 0.508,-0.733 1.258,-1.212 2.119,-1.359 0.534,-0.084 1.153,-0.063 1.88,0.261 0.882,0.389 1.516,1.13 1.798,2.093 0.037,0.135 0.097,0.288 0.165,0.438 0.118,0.827 -0.08,1.651 -0.561,2.334 C 0.628,-0.513 0.354,-0.247 0,0" /></g><g
           transform="translate(142.1728,68.4288)"
           id="g40"><path
             id="path42"
             style="fill:#1d99dc;fill-opacity:1;fill-rule:nonzero;stroke:none"
             d="m 0,0 -0.281,0.325 c -0.916,1.054 -2.101,1.74 -3.421,1.971 -0.342,0.06 -0.697,0.093 -1.043,0.093 -2.162,-0.007 -4.143,-1.181 -5.186,-3.063 -0.336,-0.602 -0.561,-1.227 -0.672,-1.856 -0.067,-0.389 -0.087,-0.835 -0.06,-1.397 0.059,-1.096 0.421,-2.154 1.048,-3.043 0.915,-1.311 2.275,-2.18 3.836,-2.454 3.245,-0.576 6.247,1.583 6.872,4.709 v 0.457 l 0.096,0.109 C 1.278,-3.205 1.135,-2.267 0.76,-1.352 0.568,-0.871 0.314,-0.421 0,0" /></g><g
           transform="translate(168.5888,245.4664)"
           id="g44"><path
             id="path46"
             style="fill:#1d99dc;fill-opacity:1;fill-rule:nonzero;stroke:none"
             d="m 0,0 c 0.694,-0.467 1.457,-0.777 2.264,-0.921 0.743,-0.133 1.465,-0.14 2.435,0.103 2.261,0.546 3.981,2.334 4.434,4.584 L 9.179,4.053 C 9.416,5.675 8.977,7.289 7.935,8.608 7.017,9.774 5.737,10.55 4.33,10.796 3.984,10.863 3.641,10.894 3.283,10.894 0.403,10.894 -2.055,8.827 -2.563,5.978 -2.967,3.665 -1.961,1.317 0,0" /></g><g
           transform="translate(121.561,155.588)"
           id="g48"><path
             id="path50"
             style="fill:#1d99dc;fill-opacity:1;fill-rule:nonzero;stroke:none"
             d="m 0,0 c 1.321,0 2.395,1.076 2.395,2.399 0,1.317 -1.074,2.39 -2.395,2.39 -1.32,0 -2.395,-1.073 -2.395,-2.39 C -2.395,1.076 -1.32,0 0,0" /></g><g
           transform="translate(116.9965,150.3834)"
           id="g52"><path
             id="path54"
             style="fill:#1d99dc;fill-opacity:1;fill-rule:nonzero;stroke:none"
             d="m 0,0 c -0.348,0.214 -0.691,0.46 -1.033,0.739 -0.444,0.378 -0.795,0.717 -1.091,1.047 l -17.168,-5.588 c 0.033,-0.76 -0.012,-1.495 -0.132,-2.198 -0.032,-0.17 -0.066,-0.337 -0.103,-0.503 l 16.685,-9.353 z" /></g><g
           transform="translate(115.7343,153.8824)"
           id="g56"><path
             id="path58"
             style="fill:#1d99dc;fill-opacity:1;fill-rule:nonzero;stroke:none"
             d="M 0,0 Z" /></g><g
           transform="translate(84.9672,143.5499)"
           id="g60"><path
             id="path62"
             style="fill:#1d99dc;fill-opacity:1;fill-rule:nonzero;stroke:none"
             d="m 0,0 c 0.389,-0.264 0.83,-0.447 1.272,-0.525 0.322,-0.054 0.717,-0.065 1.347,0.111 l 0.755,0.297 c 0.839,0.45 1.414,1.186 1.622,2.079 L 5.104,2.291 C 5.21,3.09 5.009,3.918 4.526,4.607 4.015,5.334 3.279,5.805 2.401,5.961 2.226,5.99 2.022,6.01 1.826,6.01 0.228,6.01 -1.129,4.869 -1.401,3.298 L -1.403,3.288 C -1.63,2.022 -1.079,0.73 0,0" /></g><g
           transform="translate(185.4364,249.4444)"
           id="g64"><path
             id="path66"
             style="fill:#1d99dc;fill-opacity:1;fill-rule:nonzero;stroke:none"
             d="M 0,0 C -0.034,-0.469 -0.093,-0.939 -0.177,-1.405 -1.15,-6.954 -5.5,-11.284 -10.978,-12.334 l -28.486,-161.711 c 0.841,-0.689 1.597,-1.48 2.258,-2.366 l 36.845,13.421 c 0.027,0.315 0.067,0.631 0.119,0.944 0.895,5.071 4.832,8.9 9.806,9.732 L 38.485,11.662 c -0.712,0.476 -1.363,1.02 -1.95,1.629 z" /></g><g
           transform="translate(231.3515,275.3365)"
           id="g68"><path
             id="path70"
             style="fill:#1d99dc;fill-opacity:1;fill-rule:nonzero;stroke:none"
             d="m 0,0 c -0.252,0.044 -0.51,0.068 -0.769,0.068 -2.102,0 -3.904,-1.507 -4.284,-3.582 l -0.056,-0.31 c -0.245,-2.272 1.314,-4.382 3.589,-4.78 0.781,-0.139 1.584,-0.061 2.293,0.207 1.437,0.533 2.498,1.813 2.768,3.336 C 3.807,-3.55 3.252,-2.031 2.06,-0.998 1.384,-0.445 0.715,-0.125 0,0" /></g><g
           transform="translate(200.7294,82.0118)"
           id="g72"><path
             id="path74"
             style="fill:#1d99dc;fill-opacity:1;fill-rule:nonzero;stroke:none"
             d="M 0,0 0.095,0.038 0,0.043 Z" /></g><g
           transform="translate(200.6044,87.8331)"
           id="g76"><path
             id="path78"
             style="fill:#1d99dc;fill-opacity:1;fill-rule:nonzero;stroke:none"
             d="m 0,0 c 0.671,-0.957 0.928,-2.113 0.724,-3.261 -0.372,-2.096 -2.177,-3.617 -4.29,-3.617 -0.265,0 -0.531,0.025 -0.771,0.066 -0.82,0.148 -1.578,0.528 -2.271,1.166 l -0.079,0.062 c -0.182,0.184 -0.338,0.371 -0.465,0.556 -0.403,0.585 -0.654,1.271 -0.744,2 -0.053,0.537 -0.048,0.922 0.041,1.351 l 0.06,0.211 c 0.399,1.641 1.667,2.874 3.306,3.22 0.669,0.142 1.195,0.123 1.666,0.048 0.996,-0.18 1.885,-0.703 2.536,-1.473 C -0.217,0.238 -0.14,0.152 0,0 m -3.516,1.926 c -2.46,0 -4.454,-1.994 -4.454,-4.454 0,-2.459 1.994,-4.453 4.454,-4.453 2.459,0 4.453,1.994 4.453,4.453 0,2.46 -1.994,4.454 -4.453,4.454" /></g></g></g></g></svg>