<?xml version="1.0" encoding="UTF-8" standalone="no"?>
<svg id="svg2" xmlns:rdf="http://www.w3.org/1999/02/22-rdf-syntax-ns#" xmlns="http://www.w3.org/2000/svg" height="1792" width="1792" version="1.1" xmlns:cc="http://creativecommons.org/ns#" xmlns:dc="http://purl.org/dc/elements/1.1/" viewBox="0 0 1792 1792">
 <metadata id="metadata10">
  <rdf:RDF>
   <cc:Work rdf:about="">
    <dc:format>image/svg+xml</dc:format>
    <dc:type rdf:resource="http://purl.org/dc/dcmitype/StillImage"/>
    <dc:title/>
   </cc:Work>
  </rdf:RDF>
 </metadata>
 <path id="path4138" d="m93.49-1.9727c-30.752-0.0326-60.189 16.377-77.801 41.326-14.225 18.997-18.973 43.323-17.689 66.647 0.063914 446.18-0.12781 892.37 0.095821 1338.6 0.66776 44.948 37.277 85.948 81.668 92.233 21.956 2.6 44.176 0.5 66.236 1.2h554c76.84-134.5-35.78-824.95 33.13-1081.2 233.93-14.32 334.67 33.57 548.87-33.91-0.1-110.98 0.2-221.97-0.2-332.95-1.3-45.732-39.9-86.756-85.4-91.247-25.7-1.6491-51.6-0.212-77.4-0.693-341.84 0.0182-683.67-0.0365-1025.5 0.0273zm194.53 131.97c235.67 0.0951 471.35-0.19023 707.01 0.14258 16.313 1.3692 29.065 17.711 26.967 33.881-0.3244 21.717 0.6258 43.507-0.4297 65.184-2.5629 15.345-18.168 26.751-33.594 24.793-234.34-0.0951-468.68 0.19024-703.01-0.14258-16.313-1.3692-29.065-17.711-26.967-33.881 0.32439-21.717-0.62577-43.507 0.42969-65.184 2.35-13.75 15.52-25.16 29.59-24.8z" fill="#ebbc66"/>
 <path id="path4138-7" d="m695.78 1541.1c0.176 55.182-2.2858 195.27-1.6869 250.44 191.75 0.4439 114.67-0.1822 191.75 0.4439l889-0.1129c2.2498-22.85 0.3981-128.96 1-151.89-0.079-208.04 0.1584-416.07-0.1185-624.11-1.9644-41.966-17.349-82.28-37.729-118.61-11.899-21.411-28.593-39.53-46.295-56.254-132.39-132.27-264.54-264.79-397.08-396.9-9.4501-8.7491-19.863-16.419-30.776-23.238-263.42-3.9142-275.76 2.7749-567.97-1.9171 0.5475 229.07 0.9093 1052.2-0.095 1122.1zm480.02-1041.1c0.1136 140.02-0.2267 292.05 0.1692 432.06 1.3736 45.73-4.0417 60.753 41.419 65.244 25.749 1.6494 51.619 0.2124 77.412 0.6934h399v714h-912v-1212zm472.17 418-390.17-2-2-402.17c97.391 97.391 294.78 306.78 392.17 404.17z" fill="#888"/>
</svg>
