<?xml version="1.0" encoding="UTF-8" standalone="no"?>
<svg id="svg2" xmlns:rdf="http://www.w3.org/1999/02/22-rdf-syntax-ns#" xmlns="http://www.w3.org/2000/svg" height="20px" width="23px" version="1.1" xmlns:cc="http://creativecommons.org/ns#" xmlns:dc="http://purl.org/dc/elements/1.1/" viewBox="0 0 23 20">
 <metadata id="metadata16">
  <rdf:RDF>
   <cc:Work rdf:about="">
    <dc:format>image/svg+xml</dc:format>
    <dc:type rdf:resource="http://purl.org/dc/dcmitype/StillImage"/>
    <dc:title/>
   </cc:Work>
  </rdf:RDF>
 </metadata>
 <desc id="desc6"/>
 <g id="Page-1" fill-rule="evenodd" fill="none">
  <g id="Core" transform="translate(-127 -128)">
   <g id="content-cut" fill="#888" transform="translate(127.5 128)">
    <path id="Shape" fill="#888" d="m8 4c0-2.2-1.8-4-4-4s-4 1.8-4 4 1.8 4 4 4c0.6 0 1.1-0.1 1.6-0.4l2.4 2.4-2.4 2.4c-0.5-0.3-1-0.4-1.6-0.4-2.2 0-4 1.8-4 4s1.8 4 4 4 4-1.8 4-4c0-0.6-0.1-1.1-0.4-1.6l2.4-2.4 7 7h4l-13.4-13.4c0.3-0.5 0.4-1 0.4-1.6zm-4 2c-1.1 0-2-0.9-2-2s0.9-2 2-2 2 0.9 2 2-0.9 2-2 2zm0 12c-1.1 0-2-0.9-2-2s0.9-2 2-2 2 0.9 2 2-0.9 2-2 2zm6-8.5c0.3 0 0.5 0.2 0.5 0.5s-0.2 0.5-0.5 0.5-0.5-0.2-0.5-0.5 0.2-0.5 0.5-0.5zm11-8.5h-4l-6 6 2 2 8-8z"/>
   </g>
   <path id="Shape-4" d="m135.5 131.99c0-2.2-1.8-4-4-4s-4 1.8-4 4 1.8 4 4 4c2.2047 0.0189 3.9913-1.7928 4-4zm-4 2c-1.1 0-2-0.9-2-2s0.9-2 2-2 2 0.9 2 2-0.9 2-2 2z" fill="#74a3e9"/>
   <path id="Shape-4-5" d="m135.5 143.99c0-2.2-1.8-4-4-4s-4 1.8-4 4 1.8 4 4 4c2.2047 0.0189 3.9913-1.7928 4-4zm-4 2c-1.1 0-2-0.9-2-2s0.9-2 2-2 2 0.9 2 2-0.9 2-2 2z" fill="#74a3e9"/>
  </g>
 </g>
</svg>
