<?xml version="1.0" encoding="UTF-8" standalone="no"?>
<!-- Generator: Adobe Illustrator 16.0.0, SVG Export Plug-In . SVG Version: 6.00 Build 0)  -->

<svg
   version="1.1"
   id="Layer_1"
   x="0px"
   y="0px"
   width="40px"
   height="40px"
   viewBox="0 0 40 40"
   enable-background="new 0 0 40 40"
   xml:space="preserve"
   sodipodi:docname="variable-scale-disabled.svg"
   inkscape:export-filename="E:\Broncode\jasp-desktop\JASP-Desktop\resources\icons\lightTheme\variable-scale-disabled.png"
   inkscape:export-xdpi="307.20001"
   inkscape:export-ydpi="307.20001"
   inkscape:version="1.2.1 (9c6d41e, 2022-07-14)"
   xmlns:inkscape="http://www.inkscape.org/namespaces/inkscape"
   xmlns:sodipodi="http://sodipodi.sourceforge.net/DTD/sodipodi-0.dtd"
   xmlns="http://www.w3.org/2000/svg"
   xmlns:svg="http://www.w3.org/2000/svg"
   xmlns:rdf="http://www.w3.org/1999/02/22-rdf-syntax-ns#"
   xmlns:cc="http://creativecommons.org/ns#"
   xmlns:dc="http://purl.org/dc/elements/1.1/"><metadata
   id="metadata29"><rdf:RDF><cc:Work
       rdf:about=""><dc:format>image/svg+xml</dc:format><dc:type
         rdf:resource="http://purl.org/dc/dcmitype/StillImage" /></cc:Work></rdf:RDF></metadata><defs
   id="defs27" /><sodipodi:namedview
   pagecolor="#ffffff"
   bordercolor="#666666"
   borderopacity="1"
   objecttolerance="10"
   gridtolerance="10"
   guidetolerance="10"
   inkscape:pageopacity="0"
   inkscape:pageshadow="2"
   inkscape:window-width="1425"
   inkscape:window-height="1048"
   id="namedview25"
   showgrid="false"
   inkscape:zoom="5.9"
   inkscape:cx="20"
   inkscape:cy="20"
   inkscape:window-x="0"
   inkscape:window-y="38"
   inkscape:window-maximized="0"
   inkscape:current-layer="Layer_1"
   inkscape:showpageshadow="2"
   inkscape:pagecheckerboard="0"
   inkscape:deskcolor="#d1d1d1" />
<rect
   x="21.176176"
   y="-21.328957"
   transform="matrix(0.72730983,0.68630927,0.68630927,-0.72730983,0,0)"
   fill="#d0d0d0"
   width="13.675815"
   height="41.340443"
   id="rect2"
   style="stroke-width:0.999986" />
<polyline
   fill="#cecece"
   points="10.598,1.281 37.266,29.543 29.127,37.225 "
   id="polyline4"
   transform="matrix(-1,0,0,1,40.213348,0)" />
<g
   id="g8"
   transform="matrix(-1,0,0,1,40.213348,0)">
	
		<rect
   x="18.264999"
   y="0.59200001"
   transform="matrix(0.7249,-0.6888,0.6888,0.7249,-9.5366,18.6446)"
   fill="#ffffff"
   width="0.62199998"
   height="41.341"
   id="rect6" />
</g>
<rect
   x="-34.8619"
   y="-17.845924"
   transform="matrix(-0.72730983,-0.68630927,-0.68630927,0.72730983,0,0)"
   fill="#ffffff"
   width="13.677815"
   height="0.43099418"
   id="rect10"
   style="stroke-width:0.999986" />
<rect
   x="-34.656769"
   y="-10.778256"
   transform="matrix(-0.72730983,-0.68630927,-0.68630927,0.72730983,0,0)"
   fill="#ffffff"
   width="13.677815"
   height="0.43099418"
   id="rect12"
   style="stroke-width:0.999986" />
<rect
   x="-34.451405"
   y="-3.7108173"
   transform="matrix(-0.72730983,-0.68630927,-0.68630927,0.72730983,0,0)"
   fill="#ffffff"
   width="13.677815"
   height="0.43099418"
   id="rect14"
   style="stroke-width:0.999986" />
<rect
   x="-34.973186"
   y="2.6700139"
   transform="matrix(-0.72730983,-0.68630927,-0.68630927,0.72730983,0,0)"
   fill="#ffffff"
   width="13.677815"
   height="0.43199417"
   id="rect16"
   style="stroke-width:0.999986" />
<rect
   x="-34.766655"
   y="9.7368813"
   transform="matrix(-0.72725991,-0.68636217,-0.68636217,0.72725991,0,0)"
   fill="#ffffff"
   width="13.678755"
   height="0.43202382"
   id="rect18"
   style="stroke-width:1.00006" />
<rect
   x="-34.563118"
   y="16.805849"
   transform="matrix(-0.72730983,-0.68630927,-0.68630927,0.72730983,0,0)"
   fill="#ffffff"
   width="13.677815"
   height="0.43199417"
   id="rect20"
   style="stroke-width:0.999986" />
<polyline
   fill="none"
   stroke="#c1c1c1"
   stroke-miterlimit="10"
   points="11.076,-0.024 1.128,9.363 29.503,39.432 39.449,30.046 "
   id="polyline22"
   transform="matrix(-1,0,0,1,40.213348,0)" />
</svg>
