<?xml version="1.0" encoding="UTF-8" standalone="no"?>
<!-- Generator: Adobe Illustrator 18.0.0, SVG Export Plug-In . SVG Version: 6.00 Build 0)  -->

<svg
   version="1.1"
   id="Layer_1"
   x="0px"
   y="0px"
   viewBox="0 0 64 64"
   enable-background="new 0 0 64 64"
   xml:space="preserve"
   sodipodi:docname="settings-outline-filled.svg"
   inkscape:version="1.2.2 (b0a84865, 2022-12-01)"
   xmlns:inkscape="http://www.inkscape.org/namespaces/inkscape"
   xmlns:sodipodi="http://sodipodi.sourceforge.net/DTD/sodipodi-0.dtd"
   xmlns="http://www.w3.org/2000/svg"
   xmlns:svg="http://www.w3.org/2000/svg"><defs
   id="defs20" /><sodipodi:namedview
   id="namedview18"
   pagecolor="#ffffff"
   bordercolor="#000000"
   borderopacity="0.25"
   inkscape:showpageshadow="2"
   inkscape:pageopacity="0.0"
   inkscape:pagecheckerboard="0"
   inkscape:deskcolor="#d1d1d1"
   showgrid="false"
   inkscape:zoom="3.6875"
   inkscape:cx="32"
   inkscape:cy="32"
   inkscape:window-width="1309"
   inkscape:window-height="456"
   inkscape:window-x="68"
   inkscape:window-y="74"
   inkscape:window-maximized="0"
   inkscape:current-layer="XMLID_15_" />
<g
   id="g15"
   style="fill:#040404">
	<g
   id="XMLID_15_"
   style="fill:#040404"
   inkscape:label="XMLID_15_">
		<g
   id="g6"
   style="fill:#040404"
   inkscape:label="g6">
			<g
   id="g4"
   style="fill:#14a1df;fill-opacity:1"
   inkscape:label="g4">
				<path
   fill="#9FCCE2"
   d="M32,20c-6.6,0-12,5.4-12,12s5.4,12,12,12s12-5.4,12-12S38.6,20,32,20z M62.8,28.4c0.3,2.4,0.3,4.8,0,7.2      l-8.6,1.5c-0.6,2.5-1.5,4.8-2.9,7l5.1,7.2c-1.5,1.9-3.2,3.6-5.1,5.1l-7.2-5c-1.1,0.7-2.2,1.2-3.4,1.7c-1.2,0.5-2.4,0.9-3.6,1.2      l-1.5,8.6c-2.4,0.3-4.8,0.3-7.2,0l-1.5-8.6c-2.5-0.6-4.8-1.5-7-2.9l-7.2,5.1c-1.9-1.5-3.6-3.2-5.1-5.1l5-7.2      c-0.7-1.1-1.2-2.2-1.7-3.4c-0.5-1.2-0.9-2.4-1.1-3.6l-8.6-1.5c-0.3-2.4-0.3-4.8,0-7.2l8.6-1.5c0.6-2.5,1.5-4.8,2.9-7l-5-7.2      c1.5-1.9,3.2-3.6,5.1-5.1l7.2,5c1-0.7,2.2-1.2,3.4-1.7c1.2-0.5,2.4-0.9,3.6-1.1l1.5-8.6c2.4-0.3,4.8-0.3,7.2,0l1.5,8.6      c2.5,0.6,4.8,1.5,7,2.9l7.2-5c1.9,1.5,3.6,3.2,5.1,5.1l-5,7.2c0.7,1,1.2,2.2,1.7,3.4c0.5,1.2,0.9,2.4,1.2,3.6L62.8,28.4z"
   id="path2"
   style="fill:#14a1df;fill-opacity:1"
   inkscape:label="path2" />
			</g>
		</g>
		<g
   id="g12"
   style="fill:#040404">
			
			
		</g>
	</g>
</g>
</svg>
