<?xml version="1.0" encoding="UTF-8" standalone="no"?>
<svg
   xmlns:dc="http://purl.org/dc/elements/1.1/"
   xmlns:cc="http://creativecommons.org/ns#"
   xmlns:rdf="http://www.w3.org/1999/02/22-rdf-syntax-ns#"
   xmlns:svg="http://www.w3.org/2000/svg"
   xmlns="http://www.w3.org/2000/svg"
   xmlns:sodipodi="http://sodipodi.sourceforge.net/DTD/sodipodi-0.dtd"
   xmlns:inkscape="http://www.inkscape.org/namespaces/inkscape"
   id="Layer_9"
   data-name="Layer 9"
   width="1936"
   height="120"
   viewBox="0 0 1936 120"
   version="1.1"
   sodipodi:docname="jasp-wave-up-green-120.svg"
   inkscape:version="0.91 r13725">
  <metadata
     id="metadata3749">
    <rdf:RDF>
      <cc:Work
         rdf:about="">
        <dc:format>image/svg+xml</dc:format>
        <dc:type
           rdf:resource="http://purl.org/dc/dcmitype/StillImage" />
      </cc:Work>
    </rdf:RDF>
  </metadata>
  <defs
     id="defs3747" />
  <sodipodi:namedview
     pagecolor="#ffffff"
     bordercolor="#666666"
     borderopacity="1"
     objecttolerance="10"
     gridtolerance="10"
     guidetolerance="10"
     inkscape:pageopacity="0"
     inkscape:pageshadow="2"
     inkscape:window-width="2560"
     inkscape:window-height="1395"
     id="namedview3745"
     showgrid="false"
     inkscape:zoom="1.4142136"
     inkscape:cx="53.070381"
     inkscape:cy="148.67146"
     inkscape:window-x="1920"
     inkscape:window-y="1"
     inkscape:window-maximized="1"
     inkscape:current-layer="Layer_9" />
  <title
     id="title3732">jasp-wave-up-green-120</title>
  <rect
     width="1936"
     height="120"
     id="rect3734-5"
     x="-1901.0265"
     y="-0.00444747"
     style="fill:#ffffff" />
  <g
     id="g3783"
     transform="translate(-35)">
    <rect
       style="fill:#ffffff"
       y="0"
       x="70"
       id="rect3734"
       height="120"
       width="1936" />
    <path
       style="fill:#e2f3cb"
       inkscape:connector-curvature="0"
       id="path3736"
       d="m 1737.76,41.6 a 8.12,8.12 0 0 0 -1.79,-0.5 5.7,5.7 0 0 1 -1.09,-0.27 q -1.92,-0.93 -4,-1.71 a 33.92,33.92 0 0 1 -5.62,-2.65 l -0.13,-0.07 a 8,8 0 0 0 -1.81,-0.51 5.45,5.45 0 0 1 -1.12,-0.29 v 0 A 474.07,474.07 0 0 0 1602.7,4.29 543.74,543.74 0 0 0 1481.89,3 q -5.62,0.55 -11.26,1.2 -7,0.8 -14,1.76 c -39.46,5.4 -80.22,14.63 -122.92,27.86 q 73.91,10.05 145.79,24.67 c 1.76,0.39 4.11,0.39 5.87,0.8 6.45,2 12.91,2.79 19.36,4.39 1.76,0.39 4.11,0.39 5.87,0.8 149,30.38 305.25,45.86 462.59,45.83 v 0 q 16.42,0 32.82,-0.19 V 85.35 c -91.44,6.14 -181.95,-8.42 -268.25,-43.75 z" />
    <path
       style="fill:#e2f3cb"
       inkscape:connector-curvature="0"
       id="path3738"
       d="M 526.78,61.2 Q 600.89,46.06 677.25,35.49 655.77,28.63 634.89,23.2 c -41.36,-10.84 -82,-18 -120.69,-21.15 -15.93,-1.37 -32,-2 -48.06,-2 a 529.88,529.88 0 0 0 -72.24,4.79 485.35,485.35 0 0 0 -118,31.71 v 0 C 207.69,64.45 138.59,80.73 70,85.35 V 110 A 2449,2449 0 0 0 526.78,61.2 Z" />
    <path
       style="fill:#a7d75d"
       inkscape:connector-curvature="0"
       id="path3740"
       d="m 754.22,63.43 a 5.47,5.47 0 0 0 1.13,0.29 8,8 0 0 1 1.81,0.51 l 0.13,0.07 a 33.92,33.92 0 0 0 5.62,2.65 c 1.3,0.51 4.61,1.9 5.06,2 a 8.13,8.13 0 0 1 1.79,0.5 c 152.53,62.44 316.49,61.33 474.15,-3.22 v 0 q 23.65,-9.71 46.47,-17.95 l 0.14,-0.05 0.57,-0.21 0.21,-0.08 h 0.09 l 0.41,-0.15 h 0.08 q 21.24,-7.63 41.82,-14 C 1115.75,4.12 892.84,5.57 677.25,35.49 Q 717,48.17 754.17,63.43 Z" />
    <path
       style="fill:#8cc63e"
       inkscape:connector-curvature="0"
       id="path3742"
       d="m 1973.18,110.22 c -157.34,0 -313.62,-15.43 -462.59,-45.83 -1.76,-0.39 -4.11,-0.39 -5.87,-0.8 -6.45,-1.59 -12.91,-2.4 -19.36,-4.39 -1.76,-0.39 -4.11,-0.39 -5.87,-0.8 q -71.78,-14.57 -145.79,-24.66 -20.6,6.38 -41.82,14 h -0.08 l -0.41,0.15 h -0.09 l -0.21,0.08 -0.57,0.21 -0.14,0.05 q -22.84,8.25 -46.47,17.95 v 0 c -157.66,64.62 -321.62,65.71 -474.15,3.25 a 8.13,8.13 0 0 0 -1.79,-0.5 c -0.45,-0.09 -3.77,-1.47 -5.06,-2 a 33.9,33.9 0 0 1 -5.62,-2.66 l -0.13,-0.07 a 8,8 0 0 0 -1.81,-0.51 5.47,5.47 0 0 1 -1.13,-0.29 v 0 Q 717.08,48.14 677.3,35.4 601,46.05 526.78,61.2 A 2448.51,2448.51 0 0 1 70,110 v 10 h 1936 v -10 q -16.41,0.24 -32.82,0.22 z" />
  </g>
  <path
     d="m -231.12867,41.595553 a 8.12,8.12 0 0 0 -1.79,-0.5 5.7,5.7 0 0 1 -1.09,-0.27 q -1.92,-0.93 -4,-1.71 a 33.92,33.92 0 0 1 -5.62,-2.65 l -0.13,-0.07 a 8,8 0 0 0 -1.81,-0.51 5.45,5.45 0 0 1 -1.12,-0.29 l 0,0 a 474.07,474.07 0 0 0 -119.5,-31.3100005 543.74,543.74 0 0 0 -120.81,-1.29 q -5.62,0.55 -11.26,1.2 -7,0.8 -14,1.76 c -39.46,5.4000005 -80.22,14.6300005 -122.92,27.8600005 q 73.91,10.05 145.79,24.67 c 1.76,0.39 4.11,0.39 5.87,0.8 6.45,2 12.91,2.79 19.36,4.39 1.76,0.39 4.11,0.39 5.87,0.8 149,30.38 305.25,45.859997 462.5899978,45.829997 l 0,0 q 16.4200002,0 32.8200002,-0.19 l 0,-24.769997 c -91.44,6.14 -181.949998,-8.42 -268.249998,-43.75 z"
     id="path3736-2"
     inkscape:connector-curvature="0"
     style="fill:#e2f3cb" />
  <path
     d="m -1444.2465,61.195553 q 74.11,-15.14 150.47,-25.71 -21.48,-6.86 -42.36,-12.29 c -41.36,-10.84 -82,-18.0000005 -120.69,-21.1500005 -15.93,-1.36999997 -32,-1.99999997 -48.06,-1.99999997 a 529.88,529.88 0 0 0 -72.24,4.78999997 485.35,485.35 0 0 0 -118,31.7100005 l 0,0 c -68.21,27.9 -137.31,44.18 -205.9,48.8 l 0,24.649997 a 2449,2449 0 0 0 456.78,-48.799997 z"
     id="path3738-0"
     inkscape:connector-curvature="0"
     style="fill:#e2f3cb" />
  <path
     d="m -1216.8065,63.425553 a 5.47,5.47 0 0 0 1.13,0.29 8,8 0 0 1 1.81,0.51 l 0.13,0.07 a 33.92,33.92 0 0 0 5.62,2.65 c 1.3,0.51 4.61,1.9 5.06,2 a 8.13,8.13 0 0 1 1.79,0.5 c 152.53,62.439997 316.49,61.329997 474.15,-3.22 l 0,0 q 23.65,-9.71 46.47,-17.95 l 0.14,-0.05 0.57,-0.21 0.21,-0.08 0.09,0 0.41,-0.15 0.08,0 q 21.24,-7.63 41.82,-14 c -217.95,-29.6700005 -440.86,-28.2200005 -656.45,1.7 q 39.75,12.68 76.92,27.94 z"
     id="path3740-8"
     inkscape:connector-curvature="0"
     style="fill:#a7d75d" />
  <path
     d="m 2.9266368,110.21946 c -157.3399968,0 -313.6199968,-15.430001 -462.5899968,-45.830001 -1.76,-0.39 -4.11,-0.39 -5.87,-0.8 -6.45,-1.59 -12.91,-2.4 -19.36,-4.39 -1.76,-0.39 -4.11,-0.39 -5.87,-0.8 q -71.78,-14.57 -145.79,-24.66 -20.6,6.38 -41.82,14 l -0.08,0 -0.41,0.15 -0.09,0 -0.21,0.08 -0.57,0.21 -0.14,0.05 q -22.84,8.25 -46.47,17.95 l 0,0 c -157.66,64.620001 -321.62004,65.710001 -474.15004,3.25 a 8.13,8.13 0 0 0 -1.79,-0.5 c -0.45,-0.09 -3.77,-1.47 -5.06,-2 a 33.9,33.9 0 0 1 -5.62,-2.66 l -0.13,-0.07 a 8,8 0 0 0 -1.81,-0.51 5.47,5.47 0 0 1 -1.13,-0.29 l 0,0 q -37.14,-15.26 -76.92,-28 -76.3,10.65 -150.52,25.8 a 2448.51,2448.51 0 0 1 -456.78,48.800001 l 0,10 1936.000038,0 0,-10 q -16.41,0.24 -32.8200012,0.22 z"
     id="path3742-7"
     inkscape:connector-curvature="0"
     style="fill:#8cc63e" />
</svg>
