<?xml version="1.0" encoding="UTF-8" standalone="no"?>
<!-- Generator: Adobe Illustrator 16.0.0, SVG Export Plug-In . SVG Version: 6.00 Build 0)  -->

<svg
   xmlns:dc="http://purl.org/dc/elements/1.1/"
   xmlns:cc="http://creativecommons.org/ns#"
   xmlns:rdf="http://www.w3.org/1999/02/22-rdf-syntax-ns#"
   xmlns:svg="http://www.w3.org/2000/svg"
   xmlns="http://www.w3.org/2000/svg"
   xmlns:sodipodi="http://sodipodi.sourceforge.net/DTD/sodipodi-0.dtd"
   xmlns:inkscape="http://www.inkscape.org/namespaces/inkscape"
   version="1.1"
   id="Layer_1"
   x="0px"
   y="0px"
   width="40px"
   height="40px"
   viewBox="0 0 40 40"
   enable-background="new 0 0 40 40"
   xml:space="preserve"
   sodipodi:docname="variable-nominal-disabled.svg"
   inkscape:export-filename="E:\Broncode\jasp-desktop\JASP-Desktop\resources\icons\lightTheme\variable-nominal-disabled.png"
   inkscape:export-xdpi="307.20001"
   inkscape:export-ydpi="307.20001"
   inkscape:version="0.92.4 (5da689c313, 2019-01-14)"><metadata
   id="metadata21"><rdf:RDF><cc:Work
       rdf:about=""><dc:format>image/svg+xml</dc:format><dc:type
         rdf:resource="http://purl.org/dc/dcmitype/StillImage" /></cc:Work></rdf:RDF></metadata><defs
   id="defs19" /><sodipodi:namedview
   pagecolor="#ffffff"
   bordercolor="#666666"
   borderopacity="1"
   objecttolerance="10"
   gridtolerance="10"
   guidetolerance="10"
   inkscape:pageopacity="0"
   inkscape:pageshadow="2"
   inkscape:window-width="1855"
   inkscape:window-height="1392"
   id="namedview17"
   showgrid="false"
   inkscape:zoom="5.9"
   inkscape:cx="20"
   inkscape:cy="20"
   inkscape:window-x="0"
   inkscape:window-y="0"
   inkscape:window-maximized="0"
   inkscape:current-layer="Layer_1" />
<path
   fill="#e2e2e2"
   d="M37.342,31.094c1.869-2.976,2.151-6.807,0.502-10.113c-0.114-0.229-0.234-0.457-0.368-0.68  c-0.147-0.25-0.31-0.49-0.476-0.723c-2.125-2.981-5.604-4.528-9.084-4.302c-1.578,0.102-3.156,0.567-4.608,1.431  c-4.905,2.92-6.515,9.264-3.597,14.168c2.922,4.906,9.266,6.516,14.17,3.596C35.336,33.604,36.498,32.436,37.342,31.094z"
   id="path2" />
<path
   fill="#CECECE"
   d="M20.084,31.609c1.871-2.978,2.154-6.809,0.504-10.114c-0.113-0.229-0.234-0.456-0.369-0.681  c-0.147-0.25-0.309-0.489-0.475-0.724c-2.128-2.98-5.604-4.528-9.084-4.302c-1.578,0.102-3.158,0.567-4.607,1.432  c-4.905,2.919-6.516,9.261-3.598,14.167c2.922,4.905,9.266,6.516,14.172,3.596C18.08,34.119,19.242,32.951,20.084,31.609z"
   id="path4" />
<path
   fill="#dbdbdb"
   d="M37.914,20.936c-0.113-0.229-0.232-0.456-0.367-0.68c-0.146-0.25-0.31-0.489-0.476-0.722  c-1.21-1.696-2.874-2.857-4.711-3.562c0.819,0.619,1.574,1.293,2.196,2.166c0.166,0.232,0.324,0.472,0.475,0.722  c0.133,0.225,0.254,0.451,0.367,0.68c1.652,3.308,1.368,7.14-0.502,10.114c-0.842,1.343-2.004,2.511-3.458,3.375  c-2.836,1.688-6.151,1.861-9.011,0.76c3.256,2.461,7.805,2.854,11.522,0.641c1.455-0.867,2.617-2.035,3.462-3.377  C39.281,28.075,39.566,24.243,37.914,20.936z"
   id="path6" />
<path
   fill="#d0d0d0"
   d="M28.764,16.685c1.869-2.976,2.154-6.807,0.502-10.114c-0.114-0.229-0.234-0.457-0.367-0.679  c-0.148-0.251-0.311-0.49-0.477-0.723c-2.125-2.981-5.604-4.528-9.084-4.303c-1.578,0.103-3.155,0.567-4.608,1.431  c-4.905,2.921-6.515,9.264-3.595,14.168c2.92,4.907,9.265,6.516,14.168,3.596C26.758,19.195,27.92,18.026,28.764,16.685z"
   id="path8" />
<path
   fill="#cecece"
   d="M29.266,6.571c-0.114-0.229-0.234-0.457-0.367-0.679c-0.148-0.251-0.311-0.49-0.477-0.723  C27.988,4.563,27.5,4.02,26.969,3.535c0.086,0.131,0.172,0.264,0.252,0.4c0.134,0.224,0.254,0.45,0.367,0.679  c1.651,3.307,1.367,7.139-0.502,10.114c-0.843,1.341-2.004,2.51-3.459,3.376c-4,2.381-8.953,1.75-12.229-1.222  c3.024,4.577,9.144,6.015,13.905,3.178c1.455-0.866,2.617-2.035,3.461-3.376C30.633,13.709,30.918,9.878,29.266,6.571z"
   id="path10" />
<path
   fill="#dbdbdb"
   d="M29.489,15.298c-0.207,0.478-0.446,0.943-0.726,1.387c-0.844,1.341-2.006,2.51-3.461,3.376  c-0.959,0.572-1.976,0.966-3.01,1.2c-0.523,0.118-1.054,0.194-1.58,0.229c-0.043,0.003-0.084,0.008-0.125,0.011  c0.318,0.64,0.562,1.297,0.739,1.965c0.021,0.001,0.214,5.545-1.243,7.863c-0.015,0.021-0.027,0.041-0.041,0.062  c0.562,0.832,1.229,1.558,1.971,2.168c0.207-0.269,0.406-0.545,0.587-0.832c1.735-2.765,2.103-6.267,0.821-9.399  c1.224-0.206,2.43-0.638,3.56-1.312c1.454-0.865,2.616-2.033,3.459-3.375c0.567-0.902,0.985-1.886,1.252-2.908  C30.979,15.508,30.237,15.364,29.489,15.298z"
   id="path12" />
<path
   fill="#c1c1c1"
   d="M21.33,23.466c-0.025-0.002-0.057-0.206-0.082-0.299c-0.031-0.101-0.068-0.188-0.103-0.288  c-0.028-0.089-0.062-0.176-0.095-0.265c-0.041-0.115-0.08-0.229-0.125-0.343c-0.028-0.073-0.055-0.146-0.086-0.22  c-0.08-0.186-0.396-0.368-0.485-0.553c-0.478,0.026-0.707,0.019-1.707-0.021c0-0.002,0-0.002,0-0.004  c-2-0.197-4.117-1.104-5.808-2.636c1.345,2.032,3.414,3.442,5.588,4.138c-0.002,0.006,0.054,0.01,0.052,0.018  c0.132,0.04,0.321,0.074,0.455,0.109c0,0.004,0.028,0.008,0.03,0.012c0.013,0.005,0.039,0.007,0.053,0.011  c0.381,2.465-0.139,4.989-1.455,7.087c-0.844,1.342-2.002,2.51-3.456,3.376c-2.836,1.688-6.147,1.86-9.007,0.759  c3.254,2.461,7.804,2.854,11.525,0.639c1.453-0.864,2.615-2.032,3.459-3.375C21.59,29.21,22.066,26.254,21.33,23.466z"
   id="path14" />
</svg>