<?xml version="1.0" encoding="UTF-8" standalone="no"?>
<!-- Generator: Adobe Illustrator 16.0.0, SVG Export Plug-In . SVG Version: 6.00 Build 0)  -->

<svg
   xmlns:dc="http://purl.org/dc/elements/1.1/"
   xmlns:cc="http://creativecommons.org/ns#"
   xmlns:rdf="http://www.w3.org/1999/02/22-rdf-syntax-ns#"
   xmlns:svg="http://www.w3.org/2000/svg"
   xmlns="http://www.w3.org/2000/svg"
   xmlns:sodipodi="http://sodipodi.sourceforge.net/DTD/sodipodi-0.dtd"
   xmlns:inkscape="http://www.inkscape.org/namespaces/inkscape"
   version="1.1"
   id="Layer_1"
   x="0px"
   y="0px"
   width="40px"
   height="40px"
   viewBox="0 0 40 40"
   enable-background="new 0 0 40 40"
   xml:space="preserve"
   sodipodi:docname="variable-nominal.svg"
   inkscape:export-filename="E:\Broncode\jasp-desktop\JASP-Desktop\resources\icons\darkTheme\variable-nominal.png"
   inkscape:export-xdpi="323.36984"
   inkscape:export-ydpi="323.36984"
   inkscape:version="0.92.4 (5da689c313, 2019-01-14)"><metadata
   id="metadata21"><rdf:RDF><cc:Work
       rdf:about=""><dc:format>image/svg+xml</dc:format><dc:type
         rdf:resource="http://purl.org/dc/dcmitype/StillImage" /></cc:Work></rdf:RDF></metadata><defs
   id="defs19" /><sodipodi:namedview
   pagecolor="#ffffff"
   bordercolor="#666666"
   borderopacity="1"
   objecttolerance="10"
   gridtolerance="10"
   guidetolerance="10"
   inkscape:pageopacity="0"
   inkscape:pageshadow="2"
   inkscape:window-width="1428"
   inkscape:window-height="1281"
   id="namedview17"
   showgrid="false"
   inkscape:zoom="5.9"
   inkscape:cx="20"
   inkscape:cy="20"
   inkscape:window-x="0"
   inkscape:window-y="0"
   inkscape:window-maximized="0"
   inkscape:current-layer="Layer_1" />
<path
   fill="#5DB6D7"
   d="M37.694,31.094c1.869-2.976,2.153-6.807,0.502-10.114c-0.114-0.228-0.234-0.457-0.368-0.679  c-0.148-0.25-0.31-0.49-0.475-0.723c-2.126-2.981-5.604-4.528-9.085-4.302c-1.578,0.102-3.155,0.567-4.608,1.431  c-4.905,2.92-6.515,9.263-3.596,14.168c2.922,4.906,9.265,6.516,14.17,3.595C35.689,33.604,36.851,32.436,37.694,31.094z"
   id="path2" />
<path
   fill="#919191"
   d="M20.437,31.609c1.87-2.976,2.154-6.807,0.503-10.114c-0.114-0.229-0.235-0.456-0.369-0.68  c-0.148-0.25-0.308-0.49-0.475-0.723c-2.127-2.98-5.604-4.528-9.084-4.302c-1.578,0.102-3.157,0.567-4.607,1.432  C1.498,20.142-0.11,26.485,2.808,31.39c2.921,4.906,9.265,6.516,14.171,3.596C18.432,34.119,19.595,32.951,20.437,31.609z"
   id="path4" />
<path
   fill="#3CAAE7"
   d="M38.267,20.936c-0.113-0.229-0.234-0.456-0.367-0.68c-0.148-0.25-0.31-0.489-0.476-0.722  c-1.21-1.696-2.874-2.857-4.711-3.562c0.82,0.619,1.574,1.293,2.196,2.166c0.166,0.232,0.325,0.472,0.475,0.722  c0.133,0.225,0.253,0.451,0.367,0.68c1.652,3.308,1.368,7.139-0.502,10.114c-0.842,1.343-2.004,2.511-3.458,3.376  c-2.836,1.688-6.151,1.86-9.01,0.759c3.255,2.461,7.804,2.854,11.523,0.64c1.455-0.867,2.617-2.035,3.461-3.376  C39.634,28.075,39.919,24.243,38.267,20.936z"
   id="path6" />
<path
   fill="#FB8C00"
   d="M29.116,16.685c1.869-2.976,2.154-6.807,0.502-10.114c-0.114-0.229-0.234-0.457-0.367-0.679  c-0.148-0.251-0.31-0.49-0.476-0.723c-2.126-2.981-5.604-4.528-9.084-4.303c-1.578,0.103-3.156,0.567-4.609,1.431  c-4.905,2.921-6.515,9.264-3.594,14.168c2.92,4.907,9.264,6.515,14.168,3.596C27.111,19.195,28.273,18.026,29.116,16.685z"
   id="path8" />
<path
   fill="#FB7A00"
   d="M29.618,6.571c-0.114-0.229-0.234-0.457-0.367-0.679c-0.148-0.251-0.31-0.49-0.476-0.723  c-0.433-0.606-0.922-1.149-1.454-1.634c0.087,0.131,0.172,0.264,0.253,0.4c0.133,0.224,0.253,0.45,0.367,0.679  c1.652,3.307,1.366,7.139-0.502,10.114c-0.842,1.341-2.005,2.51-3.459,3.376c-4,2.381-8.953,1.75-12.23-1.222  c3.025,4.577,9.144,6.014,13.906,3.178c1.455-0.866,2.617-2.035,3.46-3.376C30.985,13.709,31.271,9.878,29.618,6.571z"
   id="path10" />
<path
   fill="#3CAAE7"
   d="M29.842,15.298c-0.207,0.478-0.446,0.943-0.726,1.387c-0.843,1.341-2.005,2.51-3.46,3.376  c-0.96,0.572-1.976,0.967-3.011,1.2c-0.523,0.118-1.052,0.194-1.58,0.229c-0.042,0.003-0.083,0.008-0.124,0.011  c0.319,0.639,0.563,1.297,0.74,1.965c0.021,0.001,0.212,5.545-1.245,7.863c-0.013,0.021-0.027,0.041-0.04,0.062  c0.562,0.831,1.228,1.556,1.97,2.168c0.208-0.269,0.406-0.546,0.587-0.833c1.735-2.764,2.103-6.266,0.822-9.4  c1.223-0.206,2.429-0.637,3.559-1.31c1.454-0.865,2.616-2.033,3.459-3.376c0.567-0.902,0.986-1.886,1.252-2.908  C31.331,15.508,30.59,15.364,29.842,15.298z"
   id="path12" />
<path
   fill="#6B767E"
   d="M21.682,23.466c-0.026-0.002-0.056-0.206-0.082-0.299c-0.031-0.101-0.068-0.189-0.102-0.288  c-0.028-0.089-0.062-0.176-0.095-0.265c-0.04-0.115-0.079-0.229-0.125-0.343c-0.028-0.073-0.055-0.146-0.085-0.218  c-0.08-0.186-0.395-0.37-0.486-0.553C20.23,21.527,20,21.518,19,21.478c0-0.001,0-0.002,0-0.004c-2-0.196-4.117-1.103-5.807-2.634  c1.344,2.032,3.414,3.442,5.587,4.137c-0.002,0.005,0.054,0.01,0.052,0.017c0.132,0.04,0.321,0.075,0.455,0.11  c0,0.003,0.029,0.007,0.03,0.011c0.013,0.005,0.04,0.007,0.053,0.011c0.381,2.465-0.138,4.989-1.455,7.087  c-0.843,1.342-2.002,2.51-3.456,3.376c-2.836,1.688-6.148,1.86-9.007,0.759c3.254,2.46,7.804,2.854,11.525,0.639  c1.454-0.866,2.617-2.034,3.459-3.376C21.943,29.21,22.419,26.254,21.682,23.466z"
   id="path14" />
</svg>