<?xml version="1.0" encoding="UTF-8" standalone="no"?>
<!-- Generator: Adobe Illustrator 16.0.0, SVG Export Plug-In . SVG Version: 6.00 Build 0)  -->

<svg
   xmlns:dc="http://purl.org/dc/elements/1.1/"
   xmlns:cc="http://creativecommons.org/ns#"
   xmlns:rdf="http://www.w3.org/1999/02/22-rdf-syntax-ns#"
   xmlns:svg="http://www.w3.org/2000/svg"
   xmlns="http://www.w3.org/2000/svg"
   xmlns:sodipodi="http://sodipodi.sourceforge.net/DTD/sodipodi-0.dtd"
   xmlns:inkscape="http://www.inkscape.org/namespaces/inkscape"
   version="1.1"
   id="Capa_1"
   x="0px"
   y="0px"
   width="498.20407"
   height="429.51019"
   viewBox="0 0 498.20407 429.51019"
   xml:space="preserve"
   sodipodi:docname="addition-sign-small-green.svg"
   inkscape:version="0.92.2 5c3e80d, 2017-08-06"><metadata
     id="metadata3853"><rdf:RDF><cc:Work
         rdf:about=""><dc:format>image/svg+xml</dc:format><dc:type
           rdf:resource="http://purl.org/dc/dcmitype/StillImage" /><dc:title /></cc:Work></rdf:RDF></metadata><defs
     id="defs3851" /><sodipodi:namedview
     pagecolor="#ffffff"
     bordercolor="#666666"
     borderopacity="1"
     objecttolerance="10"
     gridtolerance="10"
     guidetolerance="10"
     inkscape:pageopacity="0"
     inkscape:pageshadow="2"
     inkscape:window-width="1440"
     inkscape:window-height="855"
     id="namedview3849"
     showgrid="false"
     inkscape:zoom="1.4411765"
     inkscape:cx="213.78321"
     inkscape:cy="217.503"
     inkscape:window-x="1530"
     inkscape:window-y="112"
     inkscape:window-maximized="0"
     inkscape:current-layer="g3816" /><g
     id="g3816"
     transform="matrix(0.67346938,0,0,0.67346938,91.244898,22.55102)"
     style="display:inline"><path
       d="M 511.80304,205.67424 H 326.86363 V 46.234849 c 0,-44.0250726 -41.40345,-79.719697 -92.46969,-79.719697 -51.06624,0 -92.46969,35.6946244 -92.46969,79.719697 V 205.67424 h -184.9394 c -51.066239,0 -92.4697,35.69462 -92.4697,79.7197 0,44.02508 41.403461,79.71969 92.4697,79.71969 h 184.9394 v 159.43941 c 0,44.02506 41.40345,79.71969 92.46969,79.71969 51.06624,0 92.46969,-35.69463 92.46969,-79.71969 V 365.11363 h 184.93941 c 51.06623,0 92.46969,-35.69461 92.46969,-79.71969 0,-44.02508 -41.40346,-79.7197 -92.46969,-79.7197 z"
       id="path3811"
       inkscape:connector-curvature="0"
       style="display:inline;fill:#30b743;fill-opacity:1;stroke-width:1.12233138" /><path
       style="fill:#008000;stroke-width:0.69387752"
       d="m 240.84443,428.72269 c -20.61186,-2.47606 -40.00635,-14.88602 -47.99436,-30.71018 -5.50147,-10.89835 -5.04179,-4.8994 -5.43221,-70.89103 l -0.34894,-58.97959 -69.04081,-0.34886 -69.040816,-0.34886 -6.098018,-1.91091 C 31.147169,261.85368 21.55158,256.03888 14.13071,248.10595 -6.8079453,225.72246 -3.4506417,193.39414 21.782375,174.42613 27.13982,170.39887 36.95377,165.63916 44.130152,163.58758 l 5.55102,-1.58692 68.693878,-0.35796 68.69387,-0.35796 0.35096,-58.63265 c 0.32765,-54.737729 0.4365,-58.886165 1.63861,-62.448975 6.15064,-18.22924 21.38801,-31.9095616 41.93394,-37.6488789 4.53274,-1.2661783 7.23348,-1.4969531 17.83159,-1.5236913 10.94598,-0.027616 13.2131,0.1661281 18.34139,1.5674241 20.34553,5.5593812 35.32506,18.7895241 41.79192,36.9112681 l 1.60949,4.510204 0.202,58.786759 0.20199,58.78676 68.84498,0.19315 68.84497,0.19314 6.24489,1.94027 c 26.75509,8.31275 42.67347,27.26536 42.67347,50.80753 0,8.3589 -1.15315,13.33339 -4.82228,20.80259 -6.97745,14.20385 -21.3449,25.51375 -38.54506,30.34222 -5.5401,1.55523 -5.68618,1.559 -74.2449,1.91416 l -68.69388,0.35587 -0.35509,58.63265 -0.3551,58.63265 -1.61652,4.5102 c -5.82772,16.25969 -17.69212,28.01841 -35.05409,34.74186 -9.4396,3.65551 -22.78446,5.29634 -33.04777,4.06344 z"
       id="path44"
       inkscape:connector-curvature="0"
       transform="matrix(1.4848485,0,0,1.4848485,-135.48485,-33.484848)" /></g><g
     id="g3818"
     transform="matrix(0.65646258,0,0,0.65646258,96.448976,27.755098)" /><g
     id="g3820"
     transform="matrix(0.65646258,0,0,0.65646258,96.448976,27.755098)" /><g
     id="g3822"
     transform="matrix(0.65646258,0,0,0.65646258,96.448976,27.755098)" /><g
     id="g3824"
     transform="matrix(0.65646258,0,0,0.65646258,96.448976,27.755098)" /><g
     id="g3826"
     transform="matrix(0.65646258,0,0,0.65646258,96.448976,27.755098)" /><g
     id="g3828"
     transform="matrix(0.65646258,0,0,0.65646258,96.448976,27.755098)" /><g
     id="g3830"
     transform="matrix(0.65646258,0,0,0.65646258,96.448976,27.755098)" /><g
     id="g3832"
     transform="matrix(0.65646258,0,0,0.65646258,96.448976,27.755098)" /><g
     id="g3834"
     transform="matrix(0.65646258,0,0,0.65646258,96.448976,27.755098)" /><g
     id="g3836"
     transform="matrix(0.65646258,0,0,0.65646258,96.448976,27.755098)" /><g
     id="g3838"
     transform="matrix(0.65646258,0,0,0.65646258,96.448976,27.755098)" /><g
     id="g3840"
     transform="matrix(0.65646258,0,0,0.65646258,96.448976,27.755098)" /><g
     id="g3842"
     transform="matrix(0.65646258,0,0,0.65646258,96.448976,27.755098)" /><g
     id="g3844"
     transform="matrix(0.65646258,0,0,0.65646258,96.448976,27.755098)"
     style="display:inline" /><g
     id="g3846"
     transform="matrix(0.65646258,0,0,0.65646258,96.448976,27.755098)"
     style="display:inline" /></svg>