<?xml version="1.0" encoding="UTF-8" standalone="no"?>
<svg
   xmlns:dc="http://purl.org/dc/elements/1.1/"
   xmlns:cc="http://creativecommons.org/ns#"
   xmlns:rdf="http://www.w3.org/1999/02/22-rdf-syntax-ns#"
   xmlns:svg="http://www.w3.org/2000/svg"
   xmlns="http://www.w3.org/2000/svg"
   xmlns:sodipodi="http://sodipodi.sourceforge.net/DTD/sodipodi-0.dtd"
   xmlns:inkscape="http://www.inkscape.org/namespaces/inkscape"
   id="Layer_9"
   data-name="Layer 9"
   width="1936"
   height="120"
   viewBox="0 0 1936 120"
   version="1.1"
   sodipodi:docname="jasp-wave-down-blue-120.svg"
   inkscape:version="0.91 r13725">
  <metadata
     id="metadata3973">
    <rdf:RDF>
      <cc:Work
         rdf:about="">
        <dc:format>image/svg+xml</dc:format>
        <dc:type
           rdf:resource="http://purl.org/dc/dcmitype/StillImage" />
      </cc:Work>
    </rdf:RDF>
  </metadata>
  <defs
     id="defs3971" />
  <sodipodi:namedview
     pagecolor="#333"
     bordercolor="#666666"
     borderopacity="1"
     objecttolerance="10"
     gridtolerance="10"
     guidetolerance="10"
     inkscape:pageopacity="0"
     inkscape:pageshadow="2"
     inkscape:window-width="2560"
     inkscape:window-height="1395"
     id="namedview3969"
     showgrid="false"
     inkscape:zoom="0.90509668"
     inkscape:cx="1455.1195"
     inkscape:cy="-269.73979"
     inkscape:window-x="1920"
     inkscape:window-y="1"
     inkscape:window-maximized="1"
     inkscape:current-layer="Layer_9" />
  <title
     id="title3956">jasp-wave-down-blue-120</title>
  <rect
     style="fill:#333"
     y="0"
     x="-35"
     width="1936"
     height="120"
     id="rect3958" /> 
  <rect
     style="fill:#333"
     y="0"
     x="1901.01"
     width="1936"
     height="120"
     id="rect3958-1" />
  <path
     style="fill:#33434b"
     inkscape:connector-curvature="0"
     d="m 233.24,78.4 a 8.12,8.12 0 0 0 1.79,0.5 5.7,5.7 0 0 1 1.09,0.28 q 1.92,0.92 4,1.72 a 33.91,33.91 0 0 1 5.62,2.65 l 0.13,0.07 a 8,8 0 0 0 1.81,0.51 5.45,5.45 0 0 1 1.12,0.29 l 0,0 a 474.08,474.08 0 0 0 119.5,31.32 544.1,544.1 0 0 0 120.81,1.26 q 5.62,-0.55 11.26,-1.2 7,-0.8 14,-1.76 c 39.46,-5.4 80.22,-14.63 122.92,-27.86 Q 563.38,76.17 491.5,61.57 c -1.76,-0.4 -4.11,-0.4 -5.87,-0.8 -6.44,-2 -12.9,-2.77 -19.35,-4.37 C 464.52,56 462.17,56 460.41,55.6 311.44,25.23 155.16,9.75 -2.18,9.78 l 0,0 Q -18.6,9.78 -35,10 l 0,24.66 c 91.43,-6.15 181.94,8.41 268.24,43.74 z"
     id="path3960" />
  <path
     style="fill:#33434b"
     inkscape:connector-curvature="0"
     d="m 1444.22,58.8 q -74.11,15.14 -150.47,25.75 21.48,6.82 42.36,12.29 c 41.36,10.84 82,18 120.69,21.15 15.93,1.32 32,2 48.06,2 a 529.87,529.87 0 0 0 72.24,-4.84 485.39,485.39 0 0 0 118,-31.68 l 0,0 c 68.22,-27.93 137.32,-44.2 205.91,-48.82 l 0,-24.65 a 2448.49,2448.49 0 0 0 -456.79,48.8 z"
     id="path3962" />
  <path
     style="fill:#0070B3"
     inkscape:connector-curvature="0"
     d="m 1216.78,56.56 a 5.46,5.46 0 0 0 -1.13,-0.29 8,8 0 0 1 -1.81,-0.51 l -0.13,-0.07 a 33.91,33.91 0 0 0 -5.62,-2.65 c -1.3,-0.52 -4.61,-1.9 -5.06,-2 a 8.13,8.13 0 0 1 -1.79,-0.5 C 1048.71,-11.89 884.75,-10.8 727.09,53.77 l 0,0 q -23.65,9.71 -46.47,17.95 l -0.14,0.05 -0.57,0.2 -0.21,0.08 -0.09,0 -0.41,0.14 -0.08,0 q -21.24,7.63 -41.82,14 c 218,29.65 440.86,28.2 656.45,-1.7 q -39.72,-12.7 -76.92,-28 z"
     id="path3964" />
  <path
     style="fill:#33434b"
     inkscape:connector-curvature="0"
     d="m 2165.8967,78.676214 a 8.12,8.12 0 0 0 1.79,0.5 5.7,5.7 0 0 1 1.09,0.28 q 1.92,0.92 4,1.72 a 33.91,33.91 0 0 1 5.62,2.65 l 0.13,0.07 a 8,8 0 0 0 1.81,0.51 5.45,5.45 0 0 1 1.12,0.29 l 0,0 a 474.08,474.08 0 0 0 119.5,31.319996 544.1,544.1 0 0 0 120.81,1.26 q 5.62,-0.55 11.26,-1.2 7,-0.8 14,-1.76 c 39.46,-5.4 80.22,-14.629996 122.92,-27.859996 q -73.91,-10.01 -145.79,-24.61 c -1.76,-0.4 -4.11,-0.4 -5.87,-0.8 -6.44,-2 -12.9,-2.77 -19.35,-4.37 -1.76,-0.4 -4.11,-0.4 -5.87,-0.8 -148.97,-30.37 -305.25,-45.85 -462.59,-45.82 l 0,0 q -16.42,0 -32.82,0.22 l 0,24.66 c 91.43,-6.15 181.94,8.41 268.24,43.74 z"
     id="path3960-0" />
  <path
     style="fill:#33434b"
     inkscape:connector-curvature="0"
     d="m 3380.23,58.8 q -74.11,15.14 -150.47,25.75 21.48,6.82 42.36,12.29 c 41.36,10.84 82,18 120.69,21.15 15.93,1.32 32,2 48.06,2 a 529.87,529.87 0 0 0 72.24,-4.84 485.39,485.39 0 0 0 118,-31.68 l 0,0 c 68.22,-27.93 137.32,-44.2 205.91,-48.82 l 0,-24.65 a 2448.49,2448.49 0 0 0 -456.79,48.8 z"
     id="path3962-6" />
  <path
     style="fill:#0070B3"
     inkscape:connector-curvature="0"
     d="m 3152.79,56.56 a 5.46,5.46 0 0 0 -1.13,-0.29 8,8 0 0 1 -1.81,-0.51 l -0.13,-0.07 a 33.91,33.91 0 0 0 -5.62,-2.65 c -1.3,-0.52 -4.61,-1.9 -5.06,-2 a 8.13,8.13 0 0 1 -1.79,-0.5 C 2984.72,-11.89 2820.76,-10.8 2663.1,53.77 l 0,0 q -23.65,9.71 -46.47,17.95 l -0.14,0.05 -0.57,0.2 -0.21,0.08 -0.09,0 -0.41,0.14 -0.08,0 q -21.24,7.63 -41.82,14 c 218,29.65 440.86,28.2 656.45,-1.7 q -39.72,-12.7 -76.92,-28 z"
     id="path3964-6" />
  <path
     style="fill:#0481c3;stroke:none"
     inkscape:connector-curvature="0"
     d="m 1931.8577,9.78 c 157.34,0 313.62,15.46 462.59,45.83 1.76,0.4 4.11,0.4 5.87,0.8 6.45,1.6 12.91,2.4 19.36,4.39 1.76,0.4 4.11,0.4 5.87,0.8 q 71.78,14.59 145.79,24.66 20.6,-6.38 41.82,-14 l 0.08,0 0.41,-0.14 0.09,0 0.21,-0.08 0.57,-0.2 0.14,-0.05 q 22.84,-8.24 46.47,-17.95 l 0,0 c 157.66,-64.6 321.62,-65.69 474.15,-3.25 a 8.13,8.13 0 0 0 1.79,0.5 c 0.45,0.09 3.77,1.48 5.06,2 a 33.91,33.91 0 0 1 5.62,2.65 l 0.13,0.07 a 8,8 0 0 0 1.81,0.51 5.46,5.46 0 0 1 1.13,0.29 l 0,0 q 37.14,15.26 76.92,28 76.3,-10.67 150.52,-25.81 a 2448.48,2448.48 0 0 1 456.78,-48.8 l 0,-10 -1936,0 0,10 q 16.41,-0.23 32.82,-0.22 z"
     id="path3966-8" />
  <path
     style="fill:#0481c3;stroke:none"
     inkscape:connector-curvature="0"
     d="m -2.18,9.78 c 157.34,0 313.62,15.46 462.59,45.83 1.76,0.4 4.11,0.4 5.87,0.8 6.45,1.6 12.91,2.4 19.36,4.39 1.76,0.4 4.11,0.4 5.87,0.8 q 71.78,14.59 145.79,24.66 20.6,-6.38 41.82,-14 l 0.08,0 0.41,-0.14 0.09,0 0.21,-0.08 0.57,-0.2 0.14,-0.05 q 22.84,-8.24 46.47,-17.95 l 0,0 c 157.66,-64.6 321.62,-65.69 474.15,-3.25 a 8.13,8.13 0 0 0 1.79,0.5 c 0.45,0.09 3.77,1.48 5.06,2 a 33.91,33.91 0 0 1 5.62,2.65 l 0.13,0.07 a 8,8 0 0 0 1.81,0.51 5.46,5.46 0 0 1 1.13,0.29 l 0,0 q 37.14,15.26 76.92,28 Q 1370,73.94 1444.22,58.8 A 2448.48,2448.48 0 0 1 1901,10 l 0,-10 -1936,0 0,10 Q -18.59,9.77 -2.18,9.78 Z"
     id="path3966" />
</svg>
