<?xml version="1.0" encoding="UTF-8" standalone="no"?>
<svg
   xmlns:dc="http://purl.org/dc/elements/1.1/"
   xmlns:cc="http://creativecommons.org/ns#"
   xmlns:rdf="http://www.w3.org/1999/02/22-rdf-syntax-ns#"
   xmlns:svg="http://www.w3.org/2000/svg"
   xmlns="http://www.w3.org/2000/svg"
   xmlns:sodipodi="http://sodipodi.sourceforge.net/DTD/sodipodi-0.dtd"
   xmlns:inkscape="http://www.inkscape.org/namespaces/inkscape"
   inkscape:version="1.0beta2 (2b71d25, 2019-12-03)"
   sodipodi:docname="jasp-wave-down-blue-120.svg"
   version="1.1"
   viewBox="0 0 1936 120"
   height="120"
   width="1936"
   data-name="Layer 9"
   id="Layer_9">
  <metadata
     id="metadata3973">
    <rdf:RDF>
      <cc:Work
         rdf:about="">
        <dc:format>image/svg+xml</dc:format>
        <dc:type
           rdf:resource="http://purl.org/dc/dcmitype/StillImage" />
      </cc:Work>
    </rdf:RDF>
  </metadata>
  <defs
     id="defs3971" />
  <sodipodi:namedview
     inkscape:document-rotation="0"
     inkscape:current-layer="Layer_9"
     inkscape:window-maximized="1"
     inkscape:window-y="25"
     inkscape:window-x="2560"
     inkscape:cy="-49.069815"
     inkscape:cx="1809.2478"
     inkscape:zoom="2.56"
     showgrid="false"
     id="namedview3969"
     inkscape:window-height="1387"
     inkscape:window-width="2560"
     inkscape:pageshadow="2"
     inkscape:pageopacity="0"
     guidetolerance="10"
     gridtolerance="10"
     objecttolerance="10"
     borderopacity="1"
     bordercolor="#666666"
     pageopacity="0.0"
     pagecolor="#333" />
  <title
     id="title3956">jasp-wave-down-blue-120</title>
  <rect
     id="rect3958"
     height="120"
     width="1936"
     x="-35"
     y="0"
     opacity="0.0"
     style="fill:#333" />
  <rect
     id="rect3958-1"
     height="120"
     width="1936"
     x="1901.01"
     y="0"
     opacity="0.0"
     style="fill:#333" />
  <path
     id="path3960"
     d="m 233.24,78.4 a 8.12,8.12 0 0 0 1.79,0.5 5.7,5.7 0 0 1 1.09,0.28 q 1.92,0.92 4,1.72 a 33.91,33.91 0 0 1 5.62,2.65 l 0.13,0.07 a 8,8 0 0 0 1.81,0.51 5.45,5.45 0 0 1 1.12,0.29 l 0,0 a 474.08,474.08 0 0 0 119.5,31.32 544.1,544.1 0 0 0 120.81,1.26 q 5.62,-0.55 11.26,-1.2 7,-0.8 14,-1.76 c 39.46,-5.4 80.22,-14.63 122.92,-27.86 Q 563.38,76.17 491.5,61.57 c -1.76,-0.4 -4.11,-0.4 -5.87,-0.8 -6.44,-2 -12.9,-2.77 -19.35,-4.37 C 464.52,56 462.17,56 460.41,55.6 311.44,25.23 155.16,9.75 -2.18,9.78 l 0,0 Q -18.6,9.78 -35,10 l 0,24.66 c 91.43,-6.15 181.94,8.41 268.24,43.74 z"
     inkscape:connector-curvature="0"
     opacity="0.5"
     style="fill:#0481c3" />
  <path
     id="path3962"
     d="m 1444.22,58.8 q -74.11,15.14 -150.47,25.75 21.48,6.82 42.36,12.29 c 41.36,10.84 82,18 120.69,21.15 15.93,1.32 32,2 48.06,2 a 529.87,529.87 0 0 0 72.24,-4.84 485.39,485.39 0 0 0 118,-31.68 l 0,0 c 68.22,-27.93 137.32,-44.2 205.91,-48.82 l 0,-24.65 a 2448.49,2448.49 0 0 0 -456.79,48.8 z"
     inkscape:connector-curvature="0"
     opacity="0.5"
     style="fill:#0481c3" />
  <path
     id="path3964"
     d="m 1216.78,56.56 a 5.46,5.46 0 0 0 -1.13,-0.29 8,8 0 0 1 -1.81,-0.51 l -0.13,-0.07 a 33.91,33.91 0 0 0 -5.62,-2.65 c -1.3,-0.52 -4.61,-1.9 -5.06,-2 a 8.13,8.13 0 0 1 -1.79,-0.5 C 1048.71,-11.89 884.75,-10.8 727.09,53.77 l 0,0 q -23.65,9.71 -46.47,17.95 l -0.14,0.05 -0.57,0.2 -0.21,0.08 -0.09,0 -0.41,0.14 -0.08,0 q -21.24,7.63 -41.82,14 c 218,29.65 440.86,28.2 656.45,-1.7 q -39.72,-12.7 -76.92,-28 z"
     inkscape:connector-curvature="0"
     style="fill:#0070B3" />
  <path
     id="path3960-0"
     d="m 2167.906,78.572125 a 8.0796192,8.1404336 0 0 0 1.7811,0.501259 5.6716539,5.7143438 0 0 1 1.0846,0.280704 q 1.9105,0.922315 3.9801,1.724329 a 33.741365,33.995333 0 0 1 5.5921,2.656668 l 0.1293,0.07018 a 7.960216,8.0201316 0 0 0 1.801,0.511284 5.4228971,5.4637147 0 0 1 1.1145,0.290729 v 0 a 471.7224,475.273 0 0 0 118.9057,31.398812 541.39419,545.4692 0 0 0 120.2092,1.26317 q 5.5921,-0.55139 11.204,-1.20302 6.9652,-0.80202 13.9304,-1.76443 c 39.2637,-5.41359 79.821,-14.66681 122.3087,-27.930103 q -73.5424,-10.035189 -145.065,-24.671929 c -1.7512,-0.401007 -4.0895,-0.401007 -5.8408,-0.802014 -6.408,-2.005033 -12.8358,-2.77697 -19.2538,-4.380997 -1.7512,-0.401006 -4.0895,-0.401006 -5.8408,-0.802013 C 2245.7172,25.268326 2090.2143,9.7493709 1933.6568,9.7794464 v 0 Q 1917.3184,9.7794464 1901,10 v 24.722056 c 90.9753,-6.165476 181.0352,8.431163 266.906,43.850069 z"
     inkscape:connector-curvature="0"
     opacity="0.5"
     style="fill:#0481c3;stroke-width:0.998765" />
  <path
     id="path3962-6"
     d="m 3380.23,58.8 q -74.11,15.14 -150.47,25.75 21.48,6.82 42.36,12.29 c 41.36,10.84 82,18 120.69,21.15 15.93,1.32 32,2 48.06,2 a 529.87,529.87 0 0 0 72.24,-4.84 485.39,485.39 0 0 0 118,-31.68 l 0,0 c 68.22,-27.93 137.32,-44.2 205.91,-48.82 l 0,-24.65 a 2448.49,2448.49 0 0 0 -456.79,48.8 z"
     inkscape:connector-curvature="0"
     opacity="0.5"
     style="fill:#0481c3" />
  <path
     id="path3964-6"
     d="m 3152.79,56.56 a 5.46,5.46 0 0 0 -1.13,-0.29 8,8 0 0 1 -1.81,-0.51 l -0.13,-0.07 a 33.91,33.91 0 0 0 -5.62,-2.65 c -1.3,-0.52 -4.61,-1.9 -5.06,-2 a 8.13,8.13 0 0 1 -1.79,-0.5 C 2984.72,-11.89 2820.76,-10.8 2663.1,53.77 l 0,0 q -23.65,9.71 -46.47,17.95 l -0.14,0.05 -0.57,0.2 -0.21,0.08 -0.09,0 -0.41,0.14 -0.08,0 q -21.24,7.63 -41.82,14 c 218,29.65 440.86,28.2 656.45,-1.7 q -39.72,-12.7 -76.92,-28 z"
     inkscape:connector-curvature="0"
     style="fill:#0070B3" />
  <path
     id="path3966-8"
     d="m 1931.8577,9.78 c 157.34,0 313.62,15.46 462.59,45.83 1.76,0.4 4.11,0.4 5.87,0.8 6.45,1.6 12.91,2.4 19.36,4.39 1.76,0.4 4.11,0.4 5.87,0.8 q 71.78,14.59 145.79,24.66 20.6,-6.38 41.82,-14 l 0.08,0 0.41,-0.14 0.09,0 0.21,-0.08 0.57,-0.2 0.14,-0.05 q 22.84,-8.24 46.47,-17.95 l 0,0 c 157.66,-64.6 321.62,-65.69 474.15,-3.25 a 8.13,8.13 0 0 0 1.79,0.5 c 0.45,0.09 3.77,1.48 5.06,2 a 33.91,33.91 0 0 1 5.62,2.65 l 0.13,0.07 a 8,8 0 0 0 1.81,0.51 5.46,5.46 0 0 1 1.13,0.29 l 0,0 q 37.14,15.26 76.92,28 76.3,-10.67 150.52,-25.81 a 2448.48,2448.48 0 0 1 456.78,-48.8 l 0,-10 -1936,0 0,10 q 16.41,-0.23 32.82,-0.22 z"
     inkscape:connector-curvature="0"
     style="fill:#0481c3;stroke:none" />
  <path
     id="path3966"
     d="m -2.18,9.78 c 157.34,0 313.62,15.46 462.59,45.83 1.76,0.4 4.11,0.4 5.87,0.8 6.45,1.6 12.91,2.4 19.36,4.39 1.76,0.4 4.11,0.4 5.87,0.8 q 71.78,14.59 145.79,24.66 20.6,-6.38 41.82,-14 l 0.08,0 0.41,-0.14 0.09,0 0.21,-0.08 0.57,-0.2 0.14,-0.05 q 22.84,-8.24 46.47,-17.95 l 0,0 c 157.66,-64.6 321.62,-65.69 474.15,-3.25 a 8.13,8.13 0 0 0 1.79,0.5 c 0.45,0.09 3.77,1.48 5.06,2 a 33.91,33.91 0 0 1 5.62,2.65 l 0.13,0.07 a 8,8 0 0 0 1.81,0.51 5.46,5.46 0 0 1 1.13,0.29 l 0,0 q 37.14,15.26 76.92,28 Q 1370,73.94 1444.22,58.8 A 2448.48,2448.48 0 0 1 1901,10 l 0,-10 -1936,0 0,10 Q -18.59,9.77 -2.18,9.78 Z"
     inkscape:connector-curvature="0"
     style="fill:#0481c3;stroke:none" />
</svg>
