<svg
   xmlns:dc="http://purl.org/dc/elements/1.1/"
   xmlns:cc="http://creativecommons.org/ns#"
   xmlns:rdf="http://www.w3.org/1999/02/22-rdf-syntax-ns#"
   xmlns:svg="http://www.w3.org/2000/svg"
   xmlns="http://www.w3.org/2000/svg"
   viewBox="0 0 1358.7067 287.41599"
   height="287.41599"
   width="1358.7067"
   xml:space="preserve"
   id="svg2"
   version="1.1"><metadata
     id="metadata8"><rdf:RDF><cc:Work
         rdf:about=""><dc:format>image/svg+xml</dc:format><dc:type
           rdf:resource="http://purl.org/dc/dcmitype/StillImage" /></cc:Work></rdf:RDF></metadata><defs
     id="defs6"><clipPath
       id="clipPath18"
       clipPathUnits="userSpaceOnUse"><path
         id="path16"
         d="M 0,215.562 H 1019.027 V 0 H 0 Z" /></clipPath><clipPath
       id="clipPath30"
       clipPathUnits="userSpaceOnUse"><path
         id="path28"
         d="M 0,215.562 H 1019.027 V 0 H 0 Z" /></clipPath><clipPath
       id="clipPath106"
       clipPathUnits="userSpaceOnUse"><path
         id="path104"
         d="M 0,215.562 H 1019.027 V 0 H 0 Z" /></clipPath><clipPath
       id="clipPath114"
       clipPathUnits="userSpaceOnUse"><path
         id="path112"
         d="m 271.224,215.533 h 10 V 2.5313 h -10 z" /></clipPath></defs><g
     transform="matrix(1.3333333,0,0,-1.3333333,0,287.416)"
     id="g10"><g
       id="g12"><g
         clip-path="url(#clipPath18)"
         id="g14"><g
           transform="translate(200.8083,107.8904)"
           id="g20"><path
             id="path22"
             style="fill:#ffffff;fill-opacity:1;fill-rule:nonzero;stroke:none"
             d="m 0,0 c 0,-50.779 -41.165,-91.944 -91.944,-91.944 -50.779,0 -91.944,41.165 -91.944,91.944 0,50.779 41.165,91.944 91.944,91.944 C -41.165,91.944 0,50.779 0,0" /></g></g></g><g
       id="g24"><g
         clip-path="url(#clipPath30)"
         id="g26"><g
           transform="translate(466.3791,47.3254)"
           id="g32"><path
             id="path34"
             style="fill:#000000;fill-opacity:1;fill-rule:nonzero;stroke:none"
             d="m 0,0 c -1.261,-8.08 -4.141,-15.632 -8.635,-22.652 -4.499,-7.025 -10.976,-12.891 -19.429,-17.603 -8.459,-4.712 -19.881,-7.07 -34.271,-7.07 -8.096,0 -15.921,1.203 -23.478,3.607 -7.556,2.404 -14.302,6.155 -20.238,11.254 -5.937,5.095 -10.706,11.637 -14.302,19.623 -3.601,7.981 -5.397,17.648 -5.397,29.001 v 17.892 h 38.318 v -9.235 c 0,-5.005 0.359,-9.622 1.079,-13.851 0.717,-4.234 1.978,-7.841 3.779,-10.821 1.796,-2.985 4.271,-5.339 7.421,-7.07 3.145,-1.732 7.239,-2.598 12.278,-2.598 5.574,0 9.892,1.055 12.952,3.174 3.057,2.115 5.263,4.857 6.611,8.225 1.35,3.363 2.159,7.02 2.43,10.966 0.269,3.941 0.404,7.741 0.404,11.398 V 163.331 H 1.889 V 22.22 C 1.889,15.484 1.256,8.081 0,0" /></g><g
           transform="translate(604.0016,84.2624)"
           id="g36"><path
             id="path38"
             style="fill:#000000;fill-opacity:1;fill-rule:nonzero;stroke:none"
             d="m 0,0 -24.285,75.606 h -0.542 L -49.922,0 Z M -2.428,126.394 69.621,-79.645 H 25.637 l -14.572,45.882 h -72.05 l -15.112,-45.882 h -42.636 l 72.859,206.039 z" /></g><g
           transform="translate(722.736,55.406)"
           id="g40"><path
             id="path42"
             style="fill:#000000;fill-opacity:1;fill-rule:nonzero;stroke:none"
             d="m 0,0 c 2.336,-4.812 5.438,-8.707 9.31,-11.688 3.866,-2.984 8.407,-5.193 13.627,-6.637 5.215,-1.442 10.612,-2.164 16.191,-2.164 3.778,0 7.825,0.334 12.143,1.01 4.317,0.672 8.365,1.97 12.143,3.896 3.778,1.921 6.923,4.567 9.445,7.936 2.518,3.363 3.778,7.647 3.778,12.841 0,5.578 -1.665,10.1 -4.992,13.563 -3.332,3.463 -7.692,6.348 -13.087,8.657 -5.398,2.309 -11.516,4.329 -18.351,6.06 -6.84,1.731 -13.763,3.652 -20.778,5.771 -7.199,1.921 -14.213,4.279 -21.049,7.07 -6.839,2.787 -12.953,6.394 -18.349,10.822 -5.397,4.423 -9.761,9.955 -13.089,16.592 -3.331,6.637 -4.992,14.668 -4.992,24.096 0,10.578 2.112,19.767 6.342,27.559 4.225,7.791 9.757,14.283 16.596,19.478 6.835,5.194 14.571,9.04 23.207,11.543 8.634,2.498 17.27,3.751 25.905,3.751 10.074,0 19.741,-1.203 29.009,-3.607 9.263,-2.408 17.494,-6.303 24.692,-11.687 7.193,-5.388 12.906,-12.264 17.135,-20.633 4.226,-8.368 6.342,-18.518 6.342,-30.444 H 70.161 c -0.363,6.155 -1.577,11.255 -3.643,15.294 -2.072,4.04 -4.816,7.214 -8.232,9.523 -3.419,2.309 -7.331,3.94 -11.737,4.906 -4.411,0.96 -9.222,1.443 -14.438,1.443 -3.419,0 -6.839,-0.388 -10.254,-1.155 -3.42,-0.771 -6.523,-2.119 -9.309,-4.04 C 9.756,117.831 7.462,115.428 5.667,112.542 3.866,109.657 2.968,106 2.968,101.576 c 0,-4.039 0.717,-7.313 2.158,-9.811 1.437,-2.502 4.271,-4.811 8.501,-6.926 4.225,-2.119 10.073,-4.234 17.54,-6.348 7.464,-2.119 17.225,-4.811 29.279,-8.08 3.597,-0.771 8.589,-2.164 14.977,-4.184 6.384,-2.02 12.724,-5.244 19.024,-9.667 6.294,-4.428 11.738,-10.344 16.325,-17.747 4.588,-7.409 6.882,-16.882 6.882,-28.425 0,-9.428 -1.712,-18.18 -5.128,-26.26 -3.419,-8.079 -8.5,-15.055 -15.246,-20.921 -6.747,-5.871 -15.112,-10.438 -25.095,-13.707 -9.985,-3.269 -21.546,-4.906 -34.676,-4.906 -10.617,0 -20.913,1.398 -30.898,4.184 -9.985,2.787 -18.801,7.165 -26.446,13.131 -7.648,5.96 -13.72,13.562 -18.215,22.797 -4.499,9.234 -6.657,20.199 -6.475,32.897 H -3.509 C -3.509,10.677 -2.341,4.806 0,0" /></g><g
           transform="translate(940.7712,113.6965)"
           id="g44"><path
             id="path46"
             style="fill:#000000;fill-opacity:1;fill-rule:nonzero;stroke:none"
             d="m 0,0 c 4.857,0 9.533,0.384 14.031,1.154 4.495,0.767 8.455,2.26 11.874,4.473 3.416,2.21 6.16,5.339 8.231,9.379 2.066,4.04 3.103,9.329 3.103,15.871 0,6.539 -1.037,11.832 -3.103,15.872 -2.071,4.04 -4.815,7.165 -8.231,9.378 C 22.486,58.337 18.526,59.83 14.031,60.6 9.533,61.367 4.857,61.754 0,61.754 H -32.922 V 0 Z m 11.604,96.96 c 12.05,0 22.304,-1.876 30.762,-5.627 8.453,-3.751 15.335,-8.707 20.644,-14.861 5.303,-6.159 9.174,-13.18 11.603,-21.066 2.429,-7.891 3.643,-16.065 3.643,-24.529 0,-8.273 -1.214,-16.403 -3.643,-24.384 -2.429,-7.985 -6.3,-15.055 -11.603,-21.21 -5.309,-6.159 -12.191,-11.11 -20.644,-14.861 -8.458,-3.752 -18.712,-5.627 -30.762,-5.627 h -44.526 v -73.874 H -75.288 V 96.96 Z" /></g><g
           transform="translate(128.111,58.0368)"
           id="g48"><path
             id="path50"
             style="fill:#8bc53d;fill-opacity:1;fill-rule:nonzero;stroke:none"
             d="m 0,0 c -1.062,-0.224 -1.884,-1.024 -2.143,-2.087 l -0.039,-0.137 c -0.057,-0.278 -0.06,-0.527 -0.026,-0.876 0.059,-0.472 0.221,-0.917 0.482,-1.296 0.082,-0.12 0.184,-0.241 0.301,-0.36 l 0.051,-0.04 c 0.45,-0.414 0.941,-0.661 1.473,-0.756 0.155,-0.026 0.327,-0.043 0.499,-0.043 1.37,0 2.539,0.986 2.781,2.345 C 3.511,-2.506 3.345,-1.757 2.91,-1.137 2.819,-1.038 2.769,-0.983 2.724,-0.924 2.301,-0.425 1.726,-0.085 1.08,0.031 0.775,0.08 0.434,0.092 0,0" /></g><g
           transform="translate(158.1129,174.2883)"
           id="g52"><path
             id="path54"
             style="fill:#8bc53d;fill-opacity:1;fill-rule:nonzero;stroke:none"
             d="m 0,0 c -0.537,-3.065 -2.814,-5.46 -5.788,-6.185 l -18.817,-106.706 c 0.593,-0.466 1.118,-1.021 1.565,-1.655 1.195,-1.708 1.653,-3.772 1.293,-5.815 -0.655,-3.726 -3.876,-6.431 -7.657,-6.431 -0.453,0 -0.909,0.039 -1.354,0.115 -1.715,0.304 -3.247,1.156 -4.399,2.428 l -24.11,-8.778 c -0.018,-0.249 -0.047,-0.515 -0.097,-0.786 -0.741,-4.209 -4.385,-7.27 -8.664,-7.27 -0.516,0 -1.02,0.046 -1.539,0.138 -2.312,0.405 -4.331,1.691 -5.683,3.621 -1.133,1.62 -1.675,3.557 -1.562,5.53 l -25.697,13.901 c -1.535,-1.096 -3.527,-1.527 -5.319,-1.207 -1.865,0.33 -3.49,1.365 -4.576,2.915 -1.089,1.551 -1.503,3.432 -1.166,5.294 0.509,2.956 2.794,5.203 5.7,5.719 l 3.44,19.558 c -2.512,1.478 -3.918,4.425 -3.396,7.334 0.593,3.385 3.523,5.846 6.967,5.846 0.431,0 0.849,-0.036 1.241,-0.107 1.859,-0.325 3.484,-1.359 4.568,-2.913 0.059,-0.083 0.117,-0.17 0.174,-0.259 l 10.807,3.513 c -0.002,0.027 -0.004,0.053 -0.005,0.078 l -0.01,0.204 c 0,0.099 0.009,0.195 0.022,0.29 0.019,0.263 0.066,0.642 0.066,0.642 0.485,2.821 2.868,4.832 5.672,4.832 3.177,0 5.761,-2.586 5.761,-5.764 0,-2.936 -2.205,-5.367 -5.046,-5.72 l -2.038,-11.434 13.584,-7.614 -0.909,-5.165 -29.695,16.642 c -0.85,-0.627 -1.836,-1.053 -2.881,-1.248 l -3.448,-19.585 c 0.868,-0.511 1.616,-1.197 2.193,-2.018 1.088,-1.539 1.505,-3.421 1.173,-5.295 -0.023,-0.139 -0.052,-0.278 -0.086,-0.422 l 24.584,-13.301 c 1.545,2.117 3.961,3.444 6.591,3.594 l 18.318,103.945 c -3.101,1.863 -4.791,5.463 -4.157,9.048 0.741,4.218 4.385,7.28 8.665,7.28 0.518,0 1.036,-0.046 1.54,-0.136 2.131,-0.376 4.053,-1.552 5.392,-3.277 l 23.366,8.496 c 0.017,0.279 0.05,0.558 0.099,0.831 0.654,3.725 3.875,6.429 7.656,6.429 0.443,0 0.91,-0.039 1.348,-0.115 L -6.309,9.016 C -2.083,8.269 0.748,4.224 0,0 M 49.917,-24.659 C 44.228,-11.335 36.556,0.135 26.901,9.753 17.245,19.371 5.775,27.024 -7.511,32.712 c -13.285,5.689 -27.226,8.533 -41.821,8.533 -14.595,0 -28.554,-2.844 -41.877,-8.533 -13.323,-5.688 -24.794,-13.341 -34.412,-22.959 -9.618,-9.618 -17.271,-21.088 -22.959,-34.412 -5.689,-13.322 -8.533,-27.282 -8.533,-41.877 0,-14.595 2.844,-28.554 8.533,-41.878 5.688,-13.322 13.341,-24.793 22.959,-34.411 9.618,-9.618 21.089,-17.271 34.412,-22.959 13.323,-5.689 27.282,-8.533 41.877,-8.533 14.595,0 28.536,2.844 41.821,8.533 13.286,5.688 24.756,13.341 34.412,22.959 9.655,9.618 17.327,21.089 23.016,34.411 5.688,13.324 8.532,27.283 8.532,41.878 0,14.595 -2.844,28.555 -8.532,41.877" /></g><g
           transform="translate(52.7179,63.9153)"
           id="g56"><path
             id="path58"
             style="fill:#8bc53d;fill-opacity:1;fill-rule:nonzero;stroke:none"
             d="m 0,0 c -0.263,0.176 -0.549,0.297 -0.835,0.348 -0.126,0.023 -0.254,0.036 -0.373,0.036 -0.1,0 -0.244,-0.037 -0.41,-0.079 -0.94,-0.239 -1.549,-0.873 -1.687,-1.681 -0.102,-0.568 0.023,-1.131 0.35,-1.595 0.329,-0.474 0.815,-0.785 1.372,-0.881 0.347,-0.054 0.749,-0.041 1.22,0.17 0.571,0.252 0.982,0.732 1.165,1.356 0.024,0.088 0.063,0.187 0.107,0.284 0.076,0.536 -0.052,1.07 -0.364,1.513 C 0.407,-0.333 0.229,-0.16 0,0" /></g><g
           transform="translate(93.1486,44.323)"
           id="g60"><path
             id="path62"
             style="fill:#8bc53d;fill-opacity:1;fill-rule:nonzero;stroke:none"
             d="m 0,0 -0.182,0.211 c -0.593,0.683 -1.362,1.128 -2.217,1.277 -0.222,0.039 -0.452,0.06 -0.677,0.06 -1.401,-0.004 -2.685,-0.765 -3.361,-1.985 -0.217,-0.39 -0.363,-0.795 -0.435,-1.203 -0.044,-0.252 -0.057,-0.541 -0.039,-0.905 0.038,-0.711 0.273,-1.396 0.679,-1.973 0.593,-0.849 1.475,-1.413 2.486,-1.59 2.104,-0.374 4.049,1.026 4.455,3.052 v 0.296 l 0.062,0.071 C 0.829,-2.077 0.735,-1.469 0.493,-0.876 0.368,-0.564 0.204,-0.272 0,0" /></g><g
           transform="translate(110.2702,159.0691)"
           id="g64"><path
             id="path66"
             style="fill:#8bc53d;fill-opacity:1;fill-rule:nonzero;stroke:none"
             d="m 0,0 c 0.45,-0.303 0.944,-0.503 1.467,-0.597 0.482,-0.086 0.95,-0.09 1.578,0.067 1.466,0.354 2.58,1.512 2.874,2.971 l 0.03,0.186 C 6.103,3.678 5.818,4.724 5.143,5.579 4.548,6.335 3.718,6.838 2.806,6.998 2.582,7.041 2.36,7.061 2.128,7.061 0.261,7.061 -1.332,5.721 -1.661,3.875 -1.923,2.375 -1.271,0.854 0,0" /></g><g
           transform="translate(79.7892,100.8152)"
           id="g68"><path
             id="path70"
             style="fill:#8bc53d;fill-opacity:1;fill-rule:nonzero;stroke:none"
             d="M 0,0 C 0.856,0 1.552,0.697 1.552,1.555 1.552,2.409 0.856,3.104 0,3.104 -0.856,3.104 -1.552,2.409 -1.552,1.555 -1.552,0.697 -0.856,0 0,0" /></g><g
           transform="translate(76.8307,97.4416)"
           id="g72"><path
             id="path74"
             style="fill:#8bc53d;fill-opacity:1;fill-rule:nonzero;stroke:none"
             d="m 0,0 c -0.226,0.139 -0.448,0.298 -0.67,0.479 -0.287,0.245 -0.515,0.465 -0.706,0.679 l -11.128,-3.622 c 0.021,-0.493 -0.008,-0.97 -0.085,-1.425 -0.021,-0.11 -0.043,-0.219 -0.068,-0.326 l 10.815,-6.062 z" /></g><g
           transform="translate(76.0128,99.7097)"
           id="g76"><path
             id="path78"
             style="fill:#8bc53d;fill-opacity:1;fill-rule:nonzero;stroke:none"
             d="M 0,0 Z" /></g><g
           transform="translate(56.071,93.0124)"
           id="g80"><path
             id="path82"
             style="fill:#8bc53d;fill-opacity:1;fill-rule:nonzero;stroke:none"
             d="m 0,0 c 0.252,-0.171 0.538,-0.29 0.825,-0.34 0.208,-0.035 0.464,-0.043 0.873,0.071 l 0.489,0.193 c 0.544,0.292 0.917,0.769 1.051,1.348 l 0.07,0.213 C 3.377,2.003 3.247,2.54 2.934,2.986 2.602,3.458 2.125,3.763 1.557,3.864 1.443,3.882 1.311,3.896 1.183,3.896 0.147,3.896 -0.732,3.156 -0.908,2.138 L -0.909,2.131 C -1.056,1.311 -0.699,0.474 0,0" /></g><g
           transform="translate(121.1896,161.6472)"
           id="g84"><path
             id="path86"
             style="fill:#8bc53d;fill-opacity:1;fill-rule:nonzero;stroke:none"
             d="m 0,0 c -0.022,-0.304 -0.06,-0.609 -0.114,-0.91 -0.631,-3.597 -3.451,-6.403 -7.001,-7.084 l -18.464,-104.812 c 0.546,-0.447 1.036,-0.959 1.464,-1.534 l 23.881,8.699 c 0.018,0.204 0.044,0.409 0.077,0.612 0.58,3.287 3.132,5.769 6.356,6.308 L 24.944,7.559 C 24.483,7.867 24.061,8.22 23.68,8.615 Z" /></g><g
           transform="translate(150.9494,178.4294)"
           id="g88"><path
             id="path90"
             style="fill:#8bc53d;fill-opacity:1;fill-rule:nonzero;stroke:none"
             d="m 0,0 c -0.163,0.029 -0.331,0.044 -0.498,0.044 -1.363,0 -2.531,-0.977 -2.777,-2.322 l -0.037,-0.201 c -0.158,-1.472 0.852,-2.84 2.327,-3.098 0.506,-0.09 1.027,-0.039 1.486,0.134 0.932,0.346 1.619,1.175 1.794,2.163 0.172,0.979 -0.187,1.964 -0.96,2.634 C 0.897,-0.289 0.463,-0.081 0,0" /></g><g
           transform="translate(131.1017,53.1267)"
           id="g92"><path
             id="path94"
             style="fill:#8bc53d;fill-opacity:1;fill-rule:nonzero;stroke:none"
             d="M 0,0 0.062,0.025 0,0.028 Z" /></g><g
           transform="translate(131.0211,56.9001)"
           id="g96"><path
             id="path98"
             style="fill:#8bc53d;fill-opacity:1;fill-rule:nonzero;stroke:none"
             d="m 0,0 c 0.435,-0.62 0.601,-1.37 0.469,-2.114 -0.242,-1.358 -1.411,-2.344 -2.781,-2.344 -0.172,0 -0.344,0.017 -0.5,0.043 -0.531,0.095 -1.022,0.342 -1.472,0.755 l -0.051,0.04 c -0.118,0.12 -0.219,0.241 -0.301,0.361 -0.261,0.379 -0.424,0.823 -0.482,1.296 -0.034,0.348 -0.031,0.598 0.026,0.876 l 0.039,0.136 c 0.259,1.064 1.08,1.864 2.143,2.088 0.433,0.092 0.775,0.079 1.079,0.03 C -1.185,1.051 -0.609,0.712 -0.187,0.213 -0.141,0.154 -0.091,0.099 0,0 m -2.279,1.248 c -1.595,0 -2.887,-1.292 -2.887,-2.887 0,-1.594 1.292,-2.886 2.887,-2.886 1.594,0 2.886,1.292 2.886,2.886 0,1.595 -1.292,2.887 -2.886,2.887" /></g></g></g><g
       id="g100"><g
         clip-path="url(#clipPath106)"
         id="g102"><g
           id="g108"><g
             id="g110" /><g
             id="g120"><g
               id="g118"
               clip-path="url(#clipPath114)"><path
                 id="path116"
                 style="fill:#000000;fill-opacity:1;fill-rule:evenodd;stroke:none"
                 d="m 271.224,2.531 h 10 v 213.002 h -10 z" /></g></g></g></g></g></g></svg>
