<?xml version="1.0" encoding="UTF-8" standalone="no"?>
<svg
   id="svg2"
   viewBox="0 0 1802 1397"
   height="1397"
   width="1802"
   version="1.1"
   sodipodi:docname="menu-clear-cells.svg"
   inkscape:version="1.2.1 (9c6d41e, 2022-07-14)"
   xmlns:inkscape="http://www.inkscape.org/namespaces/inkscape"
   xmlns:sodipodi="http://sodipodi.sourceforge.net/DTD/sodipodi-0.dtd"
   xmlns="http://www.w3.org/2000/svg"
   xmlns:svg="http://www.w3.org/2000/svg"
   xmlns:rdf="http://www.w3.org/1999/02/22-rdf-syntax-ns#"
   xmlns:cc="http://creativecommons.org/ns#"
   xmlns:dc="http://purl.org/dc/elements/1.1/">
  <defs
     id="defs142">
    <rect
       x="139.16922"
       y="123.70598"
       width="426.34381"
       height="315.89205"
       id="rect34459" />
  </defs>
  <sodipodi:namedview
     id="namedview140"
     pagecolor="#ffffff"
     bordercolor="#000000"
     borderopacity="0.25"
     inkscape:showpageshadow="2"
     inkscape:pageopacity="0.0"
     inkscape:pagecheckerboard="0"
     inkscape:deskcolor="#d1d1d1"
     showgrid="false"
     inkscape:zoom="0.45268629"
     inkscape:cx="1150.9074"
     inkscape:cy="714.62292"
     inkscape:window-width="1557"
     inkscape:window-height="939"
     inkscape:window-x="83"
     inkscape:window-y="32"
     inkscape:window-maximized="0"
     inkscape:current-layer="svg2" />
  <metadata
     id="metadata10">
    <rdf:RDF>
      <cc:Work
         rdf:about="">
        <dc:format>image/svg+xml</dc:format>
        <dc:type
           rdf:resource="http://purl.org/dc/dcmitype/StillImage" />
      </cc:Work>
    </rdf:RDF>
  </metadata>
  <rect
     style="fill:#b3b3b3;fill-opacity:1;stroke-width:4.3;stroke-linecap:round;stroke-linejoin:round;stroke-dasharray:none"
     id="rect36538"
     width="589.81238"
     height="1309.9579"
     x="1172.9978"
     y="37.553593" />
  <rect
     style="fill:#b3b3b3;fill-opacity:1;stroke-width:4.3;stroke-linecap:round;stroke-linejoin:round;stroke-dasharray:none"
     id="rect36538-3"
     width="589.81238"
     height="1309.9579"
     x="40.867142"
     y="58.539471" />
  <rect
     style="fill:#b3b3b3;fill-opacity:1;stroke-width:3.22451;stroke-linecap:round;stroke-linejoin:round;stroke-dasharray:none"
     id="rect36538-3-6"
     width="941.04901"
     height="461.68832"
     x="451.74774"
     y="45.285252" />
  <rect
     style="fill:#b3b3b3;fill-opacity:1;stroke-width:3.22451;stroke-linecap:round;stroke-linejoin:round;stroke-dasharray:none"
     id="rect36538-3-6-7"
     width="941.04901"
     height="461.68832"
     x="444.01611"
     y="906.80902" />
  <path
     id="path4"
     d="M 595.56596,1286.7777 V 979.80725 c 0,-10.04671 -3.21848,-18.29921 -9.65553,-24.75752 -6.43695,-6.45841 -14.66189,-9.68757 -24.67481,-9.68757 H 131.9589 c -10.01292,0 -18.23786,3.22916 -24.67481,9.68757 -6.43705,6.45831 -9.655529,14.71081 -9.655529,24.75752 v 306.97045 c 0,10.0467 3.218479,18.2992 9.655529,24.7575 6.43705,6.4584 14.66189,9.6875 24.67481,9.6875 h 429.27672 c 10.01292,0 18.23786,-3.2291 24.67481,-9.6875 6.43705,-6.4584 9.65553,-14.7108 9.65553,-24.7575 z m 0,-437.41105 V 566.4694 c 0,-10.0467 -3.21848,-18.29921 -9.65553,-24.75752 -6.43695,-6.45841 -14.66189,-9.68756 -24.67481,-9.68756 H 131.9589 c -10.01292,0 -18.23786,3.22915 -24.67481,9.68756 -6.43705,6.45831 -9.655529,14.71082 -9.655529,24.75752 v 282.89725 c 0,10.04671 3.218479,18.29921 9.655529,24.75752 6.43705,6.45831 14.66189,9.68747 24.67481,9.68747 h 429.27672 c 10.01292,0 18.23786,-3.22916 24.67481,-9.68747 6.43705,-6.45841 9.65553,-14.71081 9.65553,-24.75752 z M 1144.8618,1286.7777 V 979.80725 c 0,-10.04671 -3.2186,-18.29921 -9.6557,-24.75752 -6.4369,-6.45841 -14.6619,-9.68757 -24.6758,-9.68757 H 691.24353 c -10.01293,0 -18.23787,3.22916 -24.67482,9.68757 -6.43705,6.45831 -9.65552,14.71081 -9.65552,24.75752 v 306.97045 c 0,10.0467 3.21847,18.2992 9.65552,24.7575 6.43695,6.4584 14.66189,9.6875 24.67482,9.6875 h 419.28677 c 10.0129,0 18.2379,-3.2291 24.6758,-9.6875 6.4371,-6.4584 9.6557,-14.7108 9.6557,-24.7575 z M 595.56596,436.03884 V 119.04381 c 0,-10.04671 -3.21848,-18.29922 -9.65553,-24.757528 -6.43695,-6.45831 -14.66189,-9.687565 -24.67481,-9.687565 H 131.9589 c -10.01292,0 -18.23786,3.229155 -24.67481,9.687565 -6.43705,6.458408 -9.655529,14.710818 -9.655529,24.757528 v 316.99503 c 0,10.04671 3.218479,18.29921 9.655529,24.75752 6.43705,6.45831 14.66189,9.68747 24.67481,9.68747 h 429.27672 c 10.01292,0 18.23786,-3.22916 24.67481,-9.68747 6.43705,-6.45841 9.65553,-14.71081 9.65553,-24.75752 z M 1144.8618,849.37669 V 566.47944 c 0,-10.04671 -3.2186,-18.29921 -9.6557,-24.75752 -6.4369,-6.45841 -14.6619,-9.68757 -24.6758,-9.68757 H 691.24353 c -10.01293,0 -18.23787,3.22916 -24.67482,9.68757 -6.43705,6.45831 -9.65552,14.71081 -9.65552,24.75752 v 282.89725 c 0,10.0467 3.21847,18.29921 9.65552,24.75752 6.43695,6.45831 14.66189,9.68746 24.67482,9.68746 h 419.28677 c 10.0129,0 18.2379,-3.22915 24.6758,-9.68746 6.4371,-6.45841 9.6557,-14.71082 9.6557,-24.75752 z m 563.2857,437.41101 V 979.81728 c 0,-10.0467 -3.2185,-18.29921 -9.6555,-24.75752 -6.4371,-6.45841 -14.6619,-9.68756 -24.6758,-9.68756 h -433.2767 c -10.0129,0 -18.2378,3.22915 -24.6748,9.68756 -6.437,6.45831 -9.6555,14.71082 -9.6555,24.75752 v 306.97042 c 0,10.0467 3.2185,18.2992 9.6555,24.7575 6.4371,6.4584 14.6619,9.6876 24.6748,9.6876 h 433.2767 c 10.0129,0 18.2379,-3.2292 24.6758,-9.6876 6.437,-6.4584 9.6555,-14.7108 9.6555,-24.7575 z M 1144.8618,436.04888 V 119.05384 c 0,-10.04671 -3.2186,-18.29921 -9.6557,-24.757523 -6.4369,-6.45831 -14.6619,-9.687565 -24.6758,-9.687565 H 691.24353 c -10.01293,0 -18.23787,3.229155 -24.67482,9.687565 -6.43705,6.458413 -9.65552,14.710813 -9.65552,24.757523 v 316.99504 c 0,10.0467 3.21847,18.29921 9.65552,24.75752 6.43695,6.45831 14.66189,9.68746 24.67482,9.68746 h 419.28677 c 10.0129,0 18.2379,-3.22915 24.6758,-9.68746 6.4371,-6.45841 9.6557,-14.71082 9.6557,-24.75752 z m 563.2857,413.33784 V 566.48947 c 0,-10.0467 -3.2185,-18.29921 -9.6555,-24.75752 -6.4371,-6.45841 -14.6619,-9.68757 -24.6758,-9.68757 h -433.2767 c -10.0129,0 -18.2378,3.22916 -24.6748,9.68757 -6.437,6.45831 -9.6555,14.71082 -9.6555,24.75752 v 282.89725 c 0,10.04671 3.2185,18.29921 9.6555,24.75752 6.4371,6.45831 14.6619,9.68747 24.6748,9.68747 h 433.2767 c 10.0129,0 18.2379,-3.22916 24.6758,-9.68747 6.437,-6.45841 9.6555,-14.71081 9.6555,-24.75752 z m 0,-413.33784 V 119.05384 c 0,-10.04671 -3.2185,-18.29921 -9.6555,-24.757523 -6.4371,-6.45831 -14.6619,-9.687565 -24.6758,-9.687565 h -433.2767 c -10.0129,0 -18.2378,3.229155 -24.6748,9.687565 -6.437,6.458413 -9.6555,14.710813 -9.6555,24.757523 v 316.99504 c 0,10.0467 3.2185,18.29921 9.6555,24.75752 6.4371,6.45831 14.6619,9.68746 24.6748,9.68746 h 433.2767 c 10.0129,0 18.2379,-3.22915 24.6758,-9.68746 6.437,-6.45841 9.6555,-14.71082 9.6555,-24.75752 z m 85.3393,960.77892 c -547.3658,0.5485 -1203.1908,-0.6496 -1785.1863567,0 C 8.0869549,995.33087 6.4430575,462.47015 8.3004433,3.6150652 414.85734,1.5928797 1494.0891,6.9830998 1793.4868,3.6140617 c 0.5884,246.3811083 1.7157,935.0600983 0,1393.2127383 z"
     fill="#6b6b6b"
     style="stroke-width:1.002;stroke-dasharray:none"
     inkscape:label="path4" />
</svg>
