<?xml version="1.0" encoding="UTF-8" standalone="no"?>
<svg
   id="svg2"
   viewBox="0 0 1802 1397"
   height="1397"
   width="1802"
   version="1.1"
   sodipodi:docname="menu-column-insert-before.svg"
   inkscape:version="1.2.2 (b0a84865, 2022-12-01)"
   xmlns:inkscape="http://www.inkscape.org/namespaces/inkscape"
   xmlns:sodipodi="http://sodipodi.sourceforge.net/DTD/sodipodi-0.dtd"
   xmlns="http://www.w3.org/2000/svg"
   xmlns:svg="http://www.w3.org/2000/svg"
   xmlns:rdf="http://www.w3.org/1999/02/22-rdf-syntax-ns#"
   xmlns:cc="http://creativecommons.org/ns#"
   xmlns:dc="http://purl.org/dc/elements/1.1/">
  <defs
     id="defs142" />
  <sodipodi:namedview
     id="namedview140"
     pagecolor="#ffffff"
     bordercolor="#000000"
     borderopacity="0.25"
     inkscape:showpageshadow="2"
     inkscape:pageopacity="0.0"
     inkscape:pagecheckerboard="0"
     inkscape:deskcolor="#d1d1d1"
     showgrid="false"
     inkscape:zoom="0.20807631"
     inkscape:cx="38.447433"
     inkscape:cy="824.21685"
     inkscape:window-width="1309"
     inkscape:window-height="743"
     inkscape:window-x="98"
     inkscape:window-y="64"
     inkscape:window-maximized="0"
     inkscape:current-layer="svg2" />
  <metadata
     id="metadata10">
    <rdf:RDF>
      <cc:Work
         rdf:about="">
        <dc:format>image/svg+xml</dc:format>
        <dc:type
           rdf:resource="http://purl.org/dc/dcmitype/StillImage" />
      </cc:Work>
    </rdf:RDF>
  </metadata>
  <g
     id="g137"
     transform="matrix(0.99999236,0,0,1.0034664,-170.58819,-212.60184)"
     style="stroke-width:1.00027166;stroke-dasharray:none">
    <rect
       id="rect4138"
       height="1313.1241"
       width="545.17426"
       y="267.34113"
       x="242.91199"
       stroke-width="0"
       fill="#399b3f"
       style="display:inline;fill:#7ca61e;fill-opacity:1;stroke-width:1.00497;stroke-dasharray:none"
       inkscape:label="rect4138" />
    <path
       id="path4"
       d="m 766.16,1494.2 v -305.91 c 0,-10.012 -3.2185,-18.236 -9.6556,-24.672 -6.437,-6.4361 -14.662,-9.6541 -24.675,-9.6541 h -429.28 c -10.013,0 -18.238,3.218 -24.675,9.6541 -6.4371,6.436 -9.6556,14.66 -9.6556,24.672 v 305.91 c 0,10.012 3.2185,18.236 9.6556,24.672 6.4371,6.4361 14.662,9.6541 24.675,9.6541 h 429.28 c 10.013,0 18.238,-3.218 24.675,-9.6541 6.4371,-6.4361 9.6556,-14.66 9.6556,-24.672 z m 0,-435.9 V 776.38 c 0,-10.012 -3.2185,-18.236 -9.6556,-24.672 -6.437,-6.4361 -14.662,-9.6541 -24.675,-9.6541 h -429.28 c -10.013,0 -18.238,3.218 -24.675,9.6541 -6.4371,6.436 -9.6556,14.66 -9.6556,24.672 v 281.92 c 0,10.012 3.2185,18.236 9.6556,24.672 6.4371,6.436 14.662,9.654 24.675,9.654 h 429.28 c 10.013,0 18.238,-3.218 24.675,-9.654 6.4371,-6.4361 9.6556,-14.66 9.6556,-24.672 z m 549.3,435.9 v -305.91 c 0,-10.012 -3.2186,-18.236 -9.6557,-24.672 -6.437,-6.4361 -14.662,-9.6541 -24.676,-9.6541 h -419.29 c -10.013,0 -18.238,3.218 -24.675,9.6541 -6.4371,6.436 -9.6556,14.66 -9.6556,24.672 v 305.91 c 0,10.012 3.2185,18.236 9.6556,24.672 6.437,6.4361 14.662,9.6541 24.675,9.6541 h 419.29 c 10.013,0 18.238,-3.218 24.676,-9.6541 6.4371,-6.4361 9.6557,-14.66 9.6557,-24.672 z M 766.16,646.4 V 330.5 c 0,-10.012 -3.2185,-18.236 -9.6556,-24.672 -6.437,-6.436 -14.662,-9.6541 -24.675,-9.6541 h -429.28 c -10.013,0 -18.238,3.218 -24.675,9.6541 -6.4371,6.4361 -9.6556,14.66 -9.6556,24.672 v 315.9 c 0,10.012 3.2185,18.236 9.6556,24.672 6.4371,6.436 14.662,9.654 24.675,9.654 h 429.28 c 10.013,0 18.238,-3.218 24.675,-9.654 6.4371,-6.4361 9.6556,-14.66 9.6556,-24.672 z m 549.3,411.91 V 776.39 c 0,-10.012 -3.2186,-18.236 -9.6557,-24.672 -6.437,-6.4361 -14.662,-9.6541 -24.676,-9.6541 h -419.29 c -10.013,0 -18.238,3.218 -24.675,9.6541 -6.4371,6.436 -9.6556,14.66 -9.6556,24.672 v 281.92 c 0,10.012 3.2185,18.236 9.6556,24.672 6.437,6.436 14.662,9.654 24.675,9.654 h 419.29 c 10.013,0 18.238,-3.218 24.676,-9.654 6.4371,-6.4361 9.6557,-14.66 9.6557,-24.672 z m 563.29,435.9 V 1188.3 c 0,-10.012 -3.2185,-18.236 -9.6555,-24.672 -6.4372,-6.4361 -14.662,-9.6541 -24.676,-9.6541 h -433.28 c -10.013,0 -18.238,3.218 -24.675,9.6541 -6.4371,6.436 -9.6556,14.66 -9.6556,24.672 v 305.91 c 0,10.012 3.2185,18.236 9.6556,24.672 6.4371,6.4361 14.662,9.6541 24.675,9.6541 h 433.28 c 10.013,0 18.238,-3.218 24.676,-9.6541 6.437,-6.4361 9.6555,-14.66 9.6555,-24.672 z m -563.29,-847.8 v -315.9 c 0,-10.012 -3.2186,-18.236 -9.6557,-24.672 -6.437,-6.436 -14.662,-9.6541 -24.676,-9.6541 h -419.29 c -10.013,0 -18.238,3.218 -24.675,9.6541 -6.4371,6.4361 -9.6556,14.66 -9.6556,24.672 v 315.9 c 0,10.012 3.2185,18.236 9.6556,24.672 6.437,6.436 14.662,9.654 24.675,9.654 h 419.29 c 10.013,0 18.238,-3.218 24.676,-9.654 6.4371,-6.4361 9.6557,-14.66 9.6557,-24.672 z m 563.29,411.91 V 776.4 c 0,-10.012 -3.2185,-18.236 -9.6555,-24.672 -6.4372,-6.4361 -14.662,-9.6541 -24.676,-9.6541 h -433.28 c -10.013,0 -18.238,3.218 -24.675,9.6541 -6.4371,6.436 -9.6556,14.66 -9.6556,24.672 v 281.92 c 0,10.012 3.2185,18.236 9.6556,24.672 6.4371,6.436 14.662,9.654 24.675,9.654 h 433.28 c 10.013,0 18.238,-3.218 24.676,-9.654 6.437,-6.4361 9.6555,-14.66 9.6555,-24.672 z m 0,-411.91 v -315.9 c 0,-10.012 -3.2185,-18.236 -9.6555,-24.672 -6.4372,-6.436 -14.662,-9.6541 -24.676,-9.6541 h -433.28 c -10.013,0 -18.238,3.218 -24.675,9.6541 -6.4371,6.4361 -9.6556,14.66 -9.6556,24.672 v 315.9 c 0,10.012 3.2185,18.236 9.6556,24.672 6.4371,6.436 14.662,9.654 24.675,9.654 h 433.28 c 10.013,0 18.238,-3.218 24.676,-9.654 6.437,-6.4361 9.6555,-14.66 9.6555,-24.672 z m 85.34,957.46 c -547.37,0.5466 -1203.2,-0.6474 -1785.2,0 -0.21349,-400.11 -1.8574,-931.13 0,-1388.4 406.56,-2.0152 1485.8,3.3564 1785.2,-0.001 0.5884,245.53 1.7157,931.83 0,1388.4 z"
       fill="#6b6b6b"
       style="stroke-width:1.00027166;stroke-dasharray:none" />
  </g>
</svg>
