<?xml version="1.0" encoding="UTF-8" standalone="no"?>
<svg
   id="svg2"
   viewBox="0 0 1787 1389"
   height="1389"
   width="1787"
   version="1.1"
   sodipodi:docname="menu-column-remove.svg"
   inkscape:version="1.2.2 (b0a84865, 2022-12-01)"
   xmlns:inkscape="http://www.inkscape.org/namespaces/inkscape"
   xmlns:sodipodi="http://sodipodi.sourceforge.net/DTD/sodipodi-0.dtd"
   xmlns="http://www.w3.org/2000/svg"
   xmlns:svg="http://www.w3.org/2000/svg"
   xmlns:rdf="http://www.w3.org/1999/02/22-rdf-syntax-ns#"
   xmlns:cc="http://creativecommons.org/ns#"
   xmlns:dc="http://purl.org/dc/elements/1.1/">
  <defs
     id="defs4002" />
  <sodipodi:namedview
     id="namedview4000"
     pagecolor="#ffffff"
     bordercolor="#000000"
     borderopacity="0.25"
     inkscape:showpageshadow="2"
     inkscape:pageopacity="0.0"
     inkscape:pagecheckerboard="0"
     inkscape:deskcolor="#d1d1d1"
     showgrid="false"
     inkscape:zoom="0.16990641"
     inkscape:cx="894.61017"
     inkscape:cy="694.5"
     inkscape:window-width="1309"
     inkscape:window-height="456"
     inkscape:window-x="1736"
     inkscape:window-y="93"
     inkscape:window-maximized="0"
     inkscape:current-layer="svg2" />
  <metadata
     id="metadata10">
    <rdf:RDF>
      <cc:Work
         rdf:about="">
        <dc:format>image/svg+xml</dc:format>
        <dc:type
           rdf:resource="http://purl.org/dc/dcmitype/StillImage" />
        <dc:title />
      </cc:Work>
    </rdf:RDF>
  </metadata>
  <rect
     id="rect4138"
     height="1330.1"
     width="581.61"
     y="29.646"
     x="608.14"
     stroke-width="0"
     fill="#be564d"
     style="fill:#cd0a0a;fill-opacity:1" />
  <path
     id="path4"
     d="m588.16 1279.2v-305.91c0-10.012-3.2185-18.236-9.6556-24.672-6.437-6.4361-14.662-9.6541-24.675-9.6541h-429.28c-10.013 0-18.238 3.218-24.675 9.6541-6.4371 6.436-9.6556 14.66-9.6556 24.672v305.91c0 10.012 3.2185 18.236 9.6556 24.672 6.4371 6.4361 14.662 9.6541 24.675 9.6541h429.28c10.013 0 18.238-3.218 24.675-9.6541 6.4371-6.4361 9.6556-14.66 9.6556-24.672zm0-435.9v-281.92c0-10.012-3.2185-18.236-9.6556-24.672-6.437-6.4361-14.662-9.6541-24.675-9.6541h-429.28c-10.013 0-18.238 3.218-24.675 9.6541-6.4371 6.436-9.6556 14.66-9.6556 24.672v281.92c0 10.012 3.2185 18.236 9.6556 24.672s14.662 9.654 24.675 9.654h429.28c10.013 0 18.238-3.218 24.675-9.654 6.4371-6.4361 9.6556-14.66 9.6556-24.672zm549.3 435.9v-305.91c0-10.012-3.2186-18.236-9.6557-24.672-6.437-6.4361-14.662-9.6541-24.676-9.6541h-419.29c-10.013 0-18.238 3.218-24.675 9.6541-6.4371 6.436-9.6556 14.66-9.6556 24.672v305.91c0 10.012 3.2185 18.236 9.6556 24.672 6.437 6.4361 14.662 9.6541 24.675 9.6541h419.29c10.013 0 18.238-3.218 24.676-9.6541 6.4371-6.4361 9.6557-14.66 9.6557-24.672zm-549.3-847.8v-315.9c0-10.012-3.2185-18.236-9.6556-24.672-6.437-6.4361-14.662-9.6541-24.675-9.6541h-429.28c-10.013 0-18.238 3.218-24.675 9.6541-6.4371 6.4361-9.6556 14.66-9.6556 24.672v315.9c0 10.012 3.2185 18.236 9.6556 24.672s14.662 9.654 24.675 9.654h429.28c10.013 0 18.238-3.218 24.675-9.654 6.4371-6.4361 9.6556-14.66 9.6556-24.672zm549.3 411.91v-281.92c0-10.012-3.2186-18.236-9.6557-24.672-6.437-6.4361-14.662-9.6541-24.676-9.6541h-419.29c-10.013 0-18.238 3.218-24.675 9.6541-6.4371 6.436-9.6556 14.66-9.6556 24.672v281.92c0 10.012 3.2185 18.236 9.6556 24.672 6.437 6.436 14.662 9.654 24.675 9.654h419.29c10.013 0 18.238-3.218 24.676-9.654 6.4371-6.4361 9.6557-14.66 9.6557-24.672zm563.29 435.9v-305.91c0-10.012-3.2185-18.236-9.6555-24.672-6.4372-6.4361-14.662-9.6541-24.676-9.6541h-433.28c-10.013 0-18.238 3.218-24.675 9.6541-6.4371 6.436-9.6556 14.66-9.6556 24.672v305.91c0 10.012 3.2185 18.236 9.6556 24.672 6.4371 6.4361 14.662 9.6541 24.675 9.6541h433.28c10.013 0 18.238-3.218 24.676-9.6541 6.437-6.4361 9.6555-14.66 9.6555-24.672zm-563.29-847.8v-315.9c0-10.012-3.2186-18.236-9.6557-24.672-6.437-6.4361-14.662-9.6541-24.676-9.6541h-419.29c-10.013 0-18.238 3.218-24.675 9.6541-6.4371 6.4361-9.6556 14.66-9.6556 24.672v315.9c0 10.012 3.2185 18.236 9.6556 24.672 6.437 6.436 14.662 9.654 24.675 9.654h419.29c10.013 0 18.238-3.218 24.676-9.654 6.4371-6.4361 9.6557-14.66 9.6557-24.672zm563.29 411.91v-281.92c0-10.012-3.2185-18.236-9.6555-24.672-6.4372-6.4361-14.662-9.6541-24.676-9.6541h-433.28c-10.013 0-18.238 3.218-24.675 9.6541-6.4371 6.436-9.6556 14.66-9.6556 24.672v281.92c0 10.012 3.2185 18.236 9.6556 24.672s14.662 9.654 24.675 9.654h433.28c10.013 0 18.238-3.218 24.676-9.654 6.437-6.4361 9.6555-14.66 9.6555-24.672zm0-411.91v-315.9c0-10.012-3.2185-18.236-9.6555-24.672-6.4372-6.4361-14.662-9.6541-24.676-9.6541h-433.28c-10.013 0-18.238 3.218-24.675 9.6541-6.4371 6.4361-9.6556 14.66-9.6556 24.672v315.9c0 10.012 3.2185 18.236 9.6556 24.672s14.662 9.654 24.675 9.654h433.28c10.013 0 18.238-3.218 24.676-9.654 6.437-6.4361 9.6555-14.66 9.6555-24.672zm85.34 957.46c-547.37 0.5466-1203.2-0.6474-1785.2 0-0.21349-400.11-1.8574-931.13 0-1388.4 406.54-2.0486 1485.8 3.323 1785.2-0.03438 0.5884 245.53 1.7157 931.83 0 1388.4z"
     fill="#6b6b6b" />
</svg>
