<?xml version="1.0" encoding="utf-8"?>
<!-- Generator: Adobe Illustrator 19.2.1, SVG Export Plug-In . SVG Version: 6.00 Build 0)  -->
<svg version="1.1" id="Layer_1" xmlns="http://www.w3.org/2000/svg" xmlns:xlink="http://www.w3.org/1999/xlink" x="0px" y="0px"
	 viewBox="0 0 232.4 207.7" style="enable-background:new 0 0 232.4 207.7;" xml:space="preserve">
<style type="text/css">
	.st0{fill:#BBBBBB;}
</style>
<g>
	<g>
		<path class="st0" d="M153.8,118.7c-23.1,0-46.3,0-69.4,0c-1.2,0-2.3,0.1-3.5,0c-3.4-0.4-5.2-2-5.4-5.4c-0.2-6.2-0.2-12.3,0-18.5
			c0.1-3.7,2-5.2,5.7-5.6c1-0.1,2,0,3,0c46.5,0,92.9,0,139.4,0c8.3,0,8.8,0.6,8.8,8.7c0,4.8,0,9.7,0,14.5c-0.1,4.9-1.3,6.2-6.2,6.3
			c-8,0.1-16,0-24,0C186.1,118.7,170,118.7,153.8,118.7L153.8,118.7z"/>
		<path class="st0" d="M27.2,0c6.7,0,13.3,0,20,0c5.4,0,7,1.5,7,6.7c0,13.8,0,27.7,0,41.5c0,4.6-1.7,6.5-6.3,6.5
			c-14,0.1-28,0.1-42,0c-4.6,0-5.9-1.5-5.9-6.1C0,34.4,0,20.3,0,6.1C0,1.2,1.2,0,6.2,0C13.2-0.1,20.2,0,27.2,0z"/>
		<path class="st0" d="M-0.1,180.3c0-7,0-14,0-21c0-4.8,1.4-6.2,6.3-6.3c13.7-0.1,27.3-0.1,41,0c5.3,0,6.9,1.7,7,6.8
			c0,13.7,0,27.3,0,41c0,5.3-1.6,6.9-6.8,6.9c-13.7,0-27.3,0-41,0c-5.4,0-6.4-1.1-6.4-6.5C-0.1,194.3-0.1,187.3-0.1,180.3z"/>
		<path class="st0" d="M54.2,103.9c0,6.5,0,13,0,19.5c0,0.8,0,1.7,0,2.5c-0.3,3.6-1.7,5.1-5.3,5.1c-5.2,0.1-10.3,0-15.5,0
			c-9.2,0-18.3,0-27.5,0c-4.7,0-5.9-1.1-5.9-5.9C-0.1,111,0,96.8,0,82.7c0-4.7,1.2-5.9,5.9-5.9c14,0,28,0,41.9,0
			c5,0,6.3,1.4,6.3,6.6C54.2,90.2,54.2,97.1,54.2,103.9z"/>
	</g>
</g>
<path class="st0" d="M153.8,195.1c-23.1,0-46.3,0-69.4,0c-1.2,0-2.3,0.1-3.5,0c-3.4-0.4-5.2-2-5.4-5.4c-0.2-6.2-0.2-12.3,0-18.5
	c0.1-3.7,2-5.2,5.7-5.6c1-0.1,2,0,3,0c46.5,0,92.9,0,139.4,0c8.3,0,8.8,0.6,8.8,8.7c0,4.8,0,9.7,0,14.5c-0.1,4.9-1.3,6.2-6.2,6.3
	c-8,0.1-16,0-24,0C186.1,195.1,170,195.1,153.8,195.1L153.8,195.1z"/>
<path class="st0" d="M153.8,42.2c-23.1,0-46.3,0-69.4,0c-1.2,0-2.3,0.1-3.5,0c-3.4-0.4-5.2-2-5.4-5.4c-0.2-6.2-0.2-12.3,0-18.5
	c0.1-3.7,2-5.2,5.7-5.6c1-0.1,2,0,3,0c46.5,0,92.9,0,139.4,0c8.3,0,8.8,0.6,8.8,8.7c0,4.8,0,9.7,0,14.5c-0.1,4.9-1.3,6.2-6.2,6.3
	c-8,0.1-16,0-24,0C186.1,42.2,170,42.2,153.8,42.2L153.8,42.2z"/>
</svg>
