<?xml version="1.0" encoding="UTF-8" standalone="no"?>
<!-- Generator: Adobe Illustrator 16.0.0, SVG Export Plug-In . SVG Version: 6.00 Build 0)  -->

<svg
   version="1.1"
   id="Layer_1"
   x="0px"
   y="0px"
   width="40px"
   height="40px"
   viewBox="0 0 40 40"
   enable-background="new 0 0 40 40"
   xml:space="preserve"
   sodipodi:docname="variable-scale-transformed.svg"
   inkscape:export-filename="E:\Broncode\jasp-desktop\JASP-Desktop\resources\icons\darkTheme\variable-scale.png"
   inkscape:export-xdpi="312.108"
   inkscape:export-ydpi="312.108"
   inkscape:version="1.2.1 (9c6d41e, 2022-07-14)"
   xmlns:inkscape="http://www.inkscape.org/namespaces/inkscape"
   xmlns:sodipodi="http://sodipodi.sourceforge.net/DTD/sodipodi-0.dtd"
   xmlns="http://www.w3.org/2000/svg"
   xmlns:svg="http://www.w3.org/2000/svg"
   xmlns:rdf="http://www.w3.org/1999/02/22-rdf-syntax-ns#"
   xmlns:cc="http://creativecommons.org/ns#"
   xmlns:dc="http://purl.org/dc/elements/1.1/"><metadata
   id="metadata29"><rdf:RDF><cc:Work
       rdf:about=""><dc:format>image/svg+xml</dc:format><dc:type
         rdf:resource="http://purl.org/dc/dcmitype/StillImage" /></cc:Work></rdf:RDF></metadata><defs
   id="defs27" /><sodipodi:namedview
   pagecolor="#ffffff"
   bordercolor="#666666"
   borderopacity="1"
   objecttolerance="10"
   gridtolerance="10"
   guidetolerance="10"
   inkscape:pageopacity="0"
   inkscape:pageshadow="2"
   inkscape:window-width="1256"
   inkscape:window-height="1116"
   id="namedview25"
   showgrid="false"
   inkscape:zoom="5.9"
   inkscape:cx="20.084746"
   inkscape:cy="20"
   inkscape:window-x="0"
   inkscape:window-y="38"
   inkscape:window-maximized="0"
   inkscape:current-layer="Layer_1"
   inkscape:showpageshadow="2"
   inkscape:pagecheckerboard="0"
   inkscape:deskcolor="#d1d1d1" />
<g
   id="g516"
   transform="matrix(-1,0,0,1,40.469348,0)">
   <rect
   x="13.579"
   y="-0.96799999"
   transform="matrix(-0.7273,0.6863,-0.6863,-0.7273,48.7898,20.0219)"
   fill="#fb8c00"
   width="13.676"
   height="41.342999"
   id="rect2" />
<polyline
   fill="#fb7a00"
   points="10.726,1.281 37.394,29.543 29.255,37.224 "
   id="polyline4" />
<g
   id="g8">
	
		<rect
   x="18.392"
   y="0.59200001"
   transform="matrix(0.7257,-0.688,0.688,0.7257,-9.4997,18.7001)"
   fill="#ffffff"
   width="0.62199998"
   height="41.342999"
   id="rect6" />
</g>
<rect
   x="1.017"
   y="6.1919999"
   transform="matrix(0.7273,-0.6863,0.6863,0.7273,-2.2556,7.1382)"
   fill="#ffffff"
   width="13.678"
   height="0.43099999"
   id="rect10" />
<rect
   x="6.0170002"
   y="11.192"
   transform="matrix(0.7273,-0.6863,0.6863,0.7273,-4.3237,11.9329)"
   fill="#ffffff"
   width="13.678"
   height="0.43099999"
   id="rect12" />
<rect
   x="11.017"
   y="16.191999"
   transform="matrix(0.7273,-0.6863,0.6863,0.7273,-6.3918,16.7277)"
   fill="#ffffff"
   width="13.678"
   height="0.43099999"
   id="rect14" />
<rect
   x="15.017"
   y="21.191999"
   transform="matrix(0.7273,-0.6863,0.6863,0.7273,-8.7325,20.8361)"
   fill="#ffffff"
   width="13.678"
   height="0.43099999"
   id="rect16" />
<rect
   x="20.017"
   y="26.191999"
   transform="matrix(0.7273,-0.6863,0.6863,0.7273,-10.8006,25.6309)"
   fill="#ffffff"
   width="13.678"
   height="0.43099999"
   id="rect18" />
<rect
   x="25.017"
   y="31.191999"
   transform="matrix(0.7273,-0.6863,0.6863,0.7273,-12.8687,30.4256)"
   fill="#ffffff"
   width="13.678"
   height="0.43099999"
   id="rect20" />
<polyline
   fill="none"
   stroke="#919191"
   stroke-miterlimit="10"
   points="11.204,-0.024 1.256,9.363 29.631,39.432 39.577,30.046 "
   id="polyline22" />

  <g
   transform="translate(31,1)  scale(2,2)"
   id="g514">
   <rect
   x="0"
   y="0"
   rx="4"
   ry="4"
   fill="#ffffff"
   width="2"
   height="8"
   id="asterisk1" />

   <rect
   x="0"
   y="0"
   rx="4"
   ry="4"
   transform="rotate(120,1,4)"
   fill="#ffffff"
   width="2"
   height="8"
   id="asterisk2" />
   <rect
   x="0"
   y="0"
   rx="4"
   ry="4"
   transform="rotate(-120,1,4)"
   fill="#ffffff"
   width="2"
   height="8"
   id="asterisk3" />
</g>
</g>
</svg>
