<?xml version="1.0" encoding="UTF-8" standalone="no"?>
<!-- Generator: Adobe Illustrator 16.0.0, SVG Export Plug-In . SVG Version: 6.00 Build 0)  -->

<svg
   xmlns:dc="http://purl.org/dc/elements/1.1/"
   xmlns:cc="http://creativecommons.org/ns#"
   xmlns:rdf="http://www.w3.org/1999/02/22-rdf-syntax-ns#"
   xmlns:svg="http://www.w3.org/2000/svg"
   xmlns="http://www.w3.org/2000/svg"
   xmlns:sodipodi="http://sodipodi.sourceforge.net/DTD/sodipodi-0.dtd"
   xmlns:inkscape="http://www.inkscape.org/namespaces/inkscape"
   version="1.1"
   id="Layer_1"
   x="0px"
   y="0px"
   width="40px"
   height="40px"
   viewBox="0 0 40 40"
   enable-background="new 0 0 40 40"
   xml:space="preserve"
   sodipodi:docname="variable-scale.svg"
   inkscape:export-filename="E:\Broncode\jasp-desktop\JASP-Desktop\resources\icons\darkTheme\variable-scale.png"
   inkscape:export-xdpi="312.108"
   inkscape:export-ydpi="312.108"
   inkscape:version="0.92.4 (5da689c313, 2019-01-14)"><metadata
   id="metadata29"><rdf:RDF><cc:Work
       rdf:about=""><dc:format>image/svg+xml</dc:format><dc:type
         rdf:resource="http://purl.org/dc/dcmitype/StillImage" /></cc:Work></rdf:RDF></metadata><defs
   id="defs27" /><sodipodi:namedview
   pagecolor="#ffffff"
   bordercolor="#666666"
   borderopacity="1"
   objecttolerance="10"
   gridtolerance="10"
   guidetolerance="10"
   inkscape:pageopacity="0"
   inkscape:pageshadow="2"
   inkscape:window-width="1256"
   inkscape:window-height="1116"
   id="namedview25"
   showgrid="false"
   inkscape:zoom="5.9"
   inkscape:cx="20"
   inkscape:cy="20"
   inkscape:window-x="0"
   inkscape:window-y="0"
   inkscape:window-maximized="0"
   inkscape:current-layer="Layer_1" />
<rect
   x="13.579"
   y="-0.968"
   transform="matrix(-0.7273 0.6863 -0.6863 -0.7273 48.7898 20.0219)"
   fill="#FB8C00"
   width="13.676"
   height="41.343"
   id="rect2" />
<polyline
   fill="#FB7A00"
   points="10.726,1.281 37.394,29.543 29.255,37.224 "
   id="polyline4" />
<g
   id="g8">
	
		<rect
   x="18.392"
   y="0.592"
   transform="matrix(0.7257 -0.688 0.688 0.7257 -9.4997 18.7001)"
   fill="#FFFFFF"
   width="0.622"
   height="41.343"
   id="rect6" />
</g>
<rect
   x="1.017"
   y="6.192"
   transform="matrix(0.7273 -0.6863 0.6863 0.7273 -2.2556 7.1382)"
   fill="#FFFFFF"
   width="13.678"
   height="0.431"
   id="rect10" />
<rect
   x="6.017"
   y="11.192"
   transform="matrix(0.7273 -0.6863 0.6863 0.7273 -4.3237 11.9329)"
   fill="#FFFFFF"
   width="13.678"
   height="0.431"
   id="rect12" />
<rect
   x="11.017"
   y="16.192"
   transform="matrix(0.7273 -0.6863 0.6863 0.7273 -6.3918 16.7277)"
   fill="#FFFFFF"
   width="13.678"
   height="0.431"
   id="rect14" />
<rect
   x="15.017"
   y="21.192"
   transform="matrix(0.7273 -0.6863 0.6863 0.7273 -8.7325 20.8361)"
   fill="#FFFFFF"
   width="13.678"
   height="0.431"
   id="rect16" />
<rect
   x="20.017"
   y="26.192"
   transform="matrix(0.7273 -0.6863 0.6863 0.7273 -10.8006 25.6309)"
   fill="#FFFFFF"
   width="13.678"
   height="0.431"
   id="rect18" />
<rect
   x="25.017"
   y="31.192"
   transform="matrix(0.7273 -0.6863 0.6863 0.7273 -12.8687 30.4256)"
   fill="#FFFFFF"
   width="13.678"
   height="0.431"
   id="rect20" />
<polyline
   fill="none"
   stroke="#919191"
   stroke-miterlimit="10"
   points="11.204,-0.024 1.256,9.363 29.631,39.432 39.577,30.046 "
   id="polyline22" />
</svg>