<?xml version="1.0" encoding="UTF-8" standalone="no"?>
<!-- Generator: Adobe Illustrator 16.0.0, SVG Export Plug-In . SVG Version: 6.00 Build 0)  -->

<svg
   xmlns:dc="http://purl.org/dc/elements/1.1/"
   xmlns:cc="http://creativecommons.org/ns#"
   xmlns:rdf="http://www.w3.org/1999/02/22-rdf-syntax-ns#"
   xmlns:svg="http://www.w3.org/2000/svg"
   xmlns="http://www.w3.org/2000/svg"
   xmlns:sodipodi="http://sodipodi.sourceforge.net/DTD/sodipodi-0.dtd"
   xmlns:inkscape="http://www.inkscape.org/namespaces/inkscape"
   version="1.1"
   id="Layer_1"
   x="0px"
   y="0px"
   width="74px"
   height="56px"
   viewBox="0.038 0.079 74 56"
   enable-background="new 0.038 0.079 74 56"
   xml:space="preserve"
   sodipodi:docname="analysis-bayesian-regression.svg"
   inkscape:version="0.92.3 (2405546, 2018-03-11)"><metadata
   id="metadata2080"><rdf:RDF><cc:Work
       rdf:about=""><dc:format>image/svg+xml</dc:format><dc:type
         rdf:resource="http://purl.org/dc/dcmitype/StillImage" /></cc:Work></rdf:RDF></metadata><defs
   id="defs2078" /><sodipodi:namedview
   pagecolor="#ffffff"
   bordercolor="#666666"
   borderopacity="1"
   objecttolerance="10"
   gridtolerance="10"
   guidetolerance="10"
   inkscape:pageopacity="0"
   inkscape:pageshadow="2"
   inkscape:window-width="1920"
   inkscape:window-height="1001"
   id="namedview2076"
   showgrid="false"
   inkscape:zoom="9.0243326"
   inkscape:cx="37"
   inkscape:cy="28"
   inkscape:window-x="-9"
   inkscape:window-y="-9"
   inkscape:window-maximized="1"
   inkscape:current-layer="Layer_1" />
<polygon
   fill="#FB8C00"
   points="9.248,53.396 5.23,47.728 65.604,6.17 69.623,11.838 "
   id="polygon2009" />
<g
   opacity="0.6"
   id="g2013">
	
		<rect
   x="39.961"
   y="-2.311"
   transform="matrix(-0.5594 -0.8289 0.8289 -0.5594 37.6768 81.3567)"
   fill="#C65000"
   width="0.999"
   height="65.953"
   id="rect2011" />
</g>
<g
   id="g2017">
	<rect
   x="19.168"
   y="14.04"
   fill="#e3da33"
   width="4"
   height="12"
   id="rect2015"
   style="fill:#e3da33;fill-opacity:1" />
</g>
<g
   id="g2021">
	<rect
   x="15.168"
   y="18.04"
   fill="#e3da33"
   width="12"
   height="4"
   id="rect2019"
   style="fill:#e3da33;fill-opacity:1" />
</g>
<g
   id="g2025">
	<rect
   x="53.168"
   y="30.04"
   fill="#e3da33"
   width="4"
   height="12"
   id="rect2023"
   style="fill:#e3da33;fill-opacity:1" />
</g>
<g
   id="g2029">
	<rect
   x="49.168"
   y="34.04"
   fill="#e3da33"
   width="12"
   height="4"
   id="rect2027"
   style="fill:#e3da33;fill-opacity:1" />
</g>
<g
   id="g2033">
	<rect
   x="39.168"
   y="0.04"
   fill="#e3da33"
   width="4"
   height="12"
   id="rect2031"
   style="fill:#e3da33;fill-opacity:1" />
</g>
<g
   id="g2037">
	<rect
   x="35.168"
   y="4.04"
   fill="#e3da33"
   width="12"
   height="4"
   id="rect2035"
   style="fill:#e3da33;fill-opacity:1" />
</g>
<rect
   x="0.168"
   y="0.04"
   fill="#919191"
   width="8"
   height="54"
   id="rect2039" />
<rect
   x="0.168"
   y="48.04"
   fill="#919191"
   width="74"
   height="8"
   id="rect2041" />
<path
   opacity="0.6"
   fill="#4B4B4B"
   enable-background="new    "
   d="M0.453,0l0.585,13.745l0.457,13.747  c0.329,9.165,0.477,18.333,0.701,27.499L1.47,54.271c12.167,0.078,24.33,0.395,36.495,0.588l18.245,0.486  c6.081,0.198,12.162,0.389,18.242,0.655c-6.085,0.103-12.169,0.125-18.255,0.158l-18.25-0.011  c-12.166-0.14-24.333-0.154-36.497-0.408l-0.717-0.014l-0.009-0.707c-0.111-9.168-0.3-18.336-0.307-27.506L0.371,13.757L0.453,0z"
   id="path2043" />
<g
   opacity="0.5"
   id="g2047">
	<polygon
   fill="#717171"
   points="74.05,56.005 0.453,55.11 0.461,0.04 2.461,0.04 2.453,53.134 74.075,54.015  "
   id="polygon2045" />
</g>
<polygon
   fill="#717171"
   points="8.453,0 6.953,50.001 74.453,48.001 8.453,48.001 "
   id="polygon2049" />
<rect
   x="15.168"
   y="20.957"
   fill="#d4a837"
   width="4"
   height="1.083"
   id="rect2051"
   style="fill:#d4a837;fill-opacity:1" />
<rect
   x="23.168"
   y="20.957"
   fill="#d4a837"
   width="4"
   height="1.083"
   id="rect2053"
   style="fill:#d4a837;fill-opacity:1" />
<rect
   x="22.126"
   y="14.04"
   fill="#d4a837"
   width="1.084"
   height="4"
   id="rect2055"
   style="fill:#d4a837;fill-opacity:1" />
<rect
   x="22.126"
   y="20.957"
   fill="#d4a837"
   width="1.083"
   height="5.083"
   id="rect2057"
   style="fill:#d4a837;fill-opacity:1" />
<rect
   x="35.168"
   y="6.957"
   fill="#d4a837"
   width="4"
   height="1.083"
   id="rect2059"
   style="fill:#d4a837;fill-opacity:1" />
<rect
   x="43.168"
   y="6.957"
   fill="#d4a837"
   width="4"
   height="1.083"
   id="rect2061"
   style="fill:#d4a837;fill-opacity:1" />
<rect
   x="42.126"
   y="0.04"
   fill="#d4a837"
   width="1.084"
   height="4"
   id="rect2063"
   style="fill:#d4a837;fill-opacity:1" />
<rect
   x="42.126"
   y="6.957"
   fill="#d4a837"
   width="1.083"
   height="5.083"
   id="rect2065"
   style="fill:#d4a837;fill-opacity:1" />
<rect
   x="49.168"
   y="36.956"
   fill="#d4a837"
   width="4"
   height="1.084"
   id="rect2067"
   style="fill:#d4a837;fill-opacity:1" />
<rect
   x="57.168"
   y="36.956"
   fill="#d4a837"
   width="4"
   height="1.084"
   id="rect2069"
   style="fill:#d4a837;fill-opacity:1" />
<rect
   x="56.126"
   y="30.04"
   fill="#d4a837"
   width="1.084"
   height="4"
   id="rect2071"
   style="fill:#d4a837;fill-opacity:1" />
<rect
   x="56.126"
   y="36.956"
   fill="#d4a837"
   width="1.083"
   height="5.084"
   id="rect2073"
   style="fill:#d4a837;fill-opacity:1" />
</svg>