<?xml version="1.0" encoding="utf-8"?>
<!-- Generator: Adobe Illustrator 16.0.0, SVG Export Plug-In . SVG Version: 6.00 Build 0)  -->
<!DOCTYPE svg PUBLIC "-//W3C//DTD SVG 1.1//EN" "http://www.w3.org/Graphics/SVG/1.1/DTD/svg11.dtd">
<svg version="1.1" id="Layer_1" xmlns="http://www.w3.org/2000/svg" xmlns:xlink="http://www.w3.org/1999/xlink" x="0px" y="0px"
	 width="74px" height="56px" viewBox="0 0 74 56" enable-background="new 0 0 74 56" xml:space="preserve">
<rect x="2.875" y="4.5" fill="#FB8C00" stroke="#FB7A00" stroke-miterlimit="10" width="26" height="16"/>
<rect x="43.375" y="35" fill="#00BA63" width="27" height="17"/>
<rect x="32.375" y="1" fill="#919191" width="8" height="55"/>
<rect x="0.375" y="24" fill="#919191" width="73" height="8"/>
<path fill="#6B767E" d="M32.883,1.851c0,0,0.123,3.416,0.216,8.54c0.035,2.562,0.075,5.551,0.118,8.753
	c0.016,3.202,0.034,6.618,0.051,10.034c-0.017,3.416-0.035,6.832-0.051,10.034c-0.013,3.202-0.086,6.191-0.117,8.753
	c-0.093,5.124-0.217,8.54-0.217,8.54s-0.124-3.416-0.217-8.54c-0.031-2.562-0.104-5.551-0.117-8.753
	c-0.016-3.202-0.034-6.618-0.051-10.034c0.018-3.416,0.035-6.832,0.051-10.034c0.043-3.203,0.083-6.191,0.118-8.753
	C32.76,5.267,32.883,1.851,32.883,1.851z"/>
<path fill="#008837" d="M55.063,35.095l-11.534-0.242l-0.042,4.329l0.045,3.508c0.003,0.86,0.037,1.723,0.071,2.584l0.036,0.943
	c0.039,1.226,0.123,2.423,0.207,3.535l0.998-0.003c0.079-1.114,0.156-2.313,0.191-3.534l0.032-0.99
	c0.029-0.847,0.059-1.692,0.058-2.534l0.029-3.524l-0.039-2.712l10.319,0.023c3.452,0,6.904-0.025,10.357-0.065l0.012-1
	C62.225,35.286,58.645,35.177,55.063,35.095z"/>
<g>
	<path fill="#FC4A20" d="M27.755,5.66c0.111,1.171,0.21,2.342,0.258,3.513c0.05,1.171,0.127,2.342,0.131,3.513l0.055,3.513
		l-0.044,3.514l-0.005,0.374l-0.367-0.005c-3.579-0.046-7.157-0.171-10.735-0.252c-3.578-0.092-7.156-0.219-10.734-0.367
		c3.58-0.064,7.16-0.107,10.74-0.115c3.579,0.002,7.159-0.038,10.738,0l-0.372,0.369l-0.061-3.514l0.039-3.513
		c-0.001-1.171,0.071-2.343,0.115-3.514C27.555,8.003,27.649,6.832,27.755,5.66z"/>
</g>
<polygon fill="#6B767E" points="1.375,31.5 32.375,31.115 32.375,31.885 "/>
<polygon fill="#6B767E" points="40.375,31.115 72.375,31.5 40.375,31.885 "/>
</svg>
