<?xml version="1.0" encoding="utf-8"?>
<!-- Generator: Adobe Illustrator 16.0.0, SVG Export Plug-In . SVG Version: 6.00 Build 0)  -->
<!DOCTYPE svg PUBLIC "-//W3C//DTD SVG 1.1//EN" "http://www.w3.org/Graphics/SVG/1.1/DTD/svg11.dtd">
<svg version="1.1" id="Layer_1" xmlns="http://www.w3.org/2000/svg" xmlns:xlink="http://www.w3.org/1999/xlink" x="0px" y="0px"
	 width="74px" height="56px" viewBox="0 0 74 56" enable-background="new 0 0 74 56" xml:space="preserve">
<g>
	<polygon fill="#FB8C00" points="8.938,53.315 4.92,47.649 65.293,6.091 69.312,11.759 	"/>
	<g opacity="0.6">
		
			<rect x="39.65" y="-2.39" transform="matrix(-0.5597 -0.8287 0.8287 -0.5597 37.2712 80.9779)" fill="#C65000" width="0.998" height="65.953"/>
	</g>
	<g>
		<rect x="18.857" y="13.961" fill="#C65000" width="4" height="12"/>
	</g>
	<g>
		<rect x="14.857" y="17.961" fill="#C65000" width="12" height="4"/>
	</g>
	<g>
		<rect x="52.857" y="29.961" fill="#C65000" width="4" height="12"/>
	</g>
	<g>
		<rect x="48.857" y="33.961" fill="#C65000" width="12" height="4"/>
	</g>
	<g>
		<rect x="38.857" y="-0.039" fill="#C65000" width="4" height="12"/>
	</g>
	<g>
		<rect x="34.857" y="3.961" fill="#C65000" width="12" height="4"/>
	</g>
	<rect x="-0.143" y="-0.039" fill="#919191" width="8" height="54"/>
	<rect x="-0.143" y="47.961" fill="#919191" width="74" height="8"/>
	<path opacity="0.6" fill="#4B4B4B" enable-background="new    " d="M0.143-0.079l0.585,13.745l0.457,13.747
		c0.329,9.165,0.477,18.333,0.701,27.499L1.159,54.19c12.167,0.078,24.33,0.396,36.495,0.588l18.245,0.486
		c6.081,0.199,12.162,0.389,18.242,0.656c-6.085,0.102-12.169,0.125-18.255,0.158l-18.25-0.012
		c-12.165-0.139-24.332-0.153-36.496-0.407l-0.717-0.015l-0.009-0.707c-0.111-9.168-0.3-18.336-0.307-27.506L0.061,13.678
		L0.143-0.079z"/>
	<g opacity="0.5">
		<polygon fill="#717171" points="73.739,55.926 0.143,55.03 0.15,-0.039 2.15,-0.039 2.143,53.055 73.765,53.937 		"/>
	</g>
	<polygon fill="#717171" points="8.143,-0.079 6.643,49.922 74.143,47.922 8.143,47.922 	"/>
	<rect x="14.857" y="20.878" fill="#9D160C" width="4" height="1.083"/>
	<rect x="22.857" y="20.878" fill="#9D160C" width="4" height="1.083"/>
	<rect x="21.815" y="13.961" fill="#9D160C" width="1.084" height="4"/>
	<rect x="21.815" y="20.878" fill="#9D160C" width="1.083" height="5.083"/>
	<rect x="34.857" y="6.878" fill="#9D160C" width="4" height="1.083"/>
	<rect x="42.857" y="6.878" fill="#9D160C" width="4" height="1.083"/>
	<rect x="41.815" y="-0.039" fill="#9D160C" width="1.084" height="4"/>
	<rect x="41.815" y="6.878" fill="#9D160C" width="1.083" height="5.083"/>
	<rect x="48.857" y="36.877" fill="#9D160C" width="4" height="1.084"/>
	<rect x="56.857" y="36.877" fill="#9D160C" width="4" height="1.084"/>
	<rect x="55.815" y="29.961" fill="#9D160C" width="1.084" height="4"/>
	<rect x="55.815" y="36.877" fill="#9D160C" width="1.083" height="5.084"/>
</g>
</svg>
