<?xml version="1.0" encoding="utf-8"?>
<!-- Generator: Adobe Illustrator 16.0.0, SVG Export Plug-In . SVG Version: 6.00 Build 0)  -->
<!DOCTYPE svg PUBLIC "-//W3C//DTD SVG 1.1//EN" "http://www.w3.org/Graphics/SVG/1.1/DTD/svg11.dtd">
<svg version="1.1" id="Layer_1" xmlns="http://www.w3.org/2000/svg" xmlns:xlink="http://www.w3.org/1999/xlink" x="0px" y="0px"
	 width="74px" height="56px" viewBox="0 0 74 56" enable-background="new 0 0 74 56" xml:space="preserve">
<rect x="2.875" y="4.5" fill="#FB8C00" stroke="#FB7A00" stroke-miterlimit="10" width="26" height="16"/>
<rect x="43.375" y="35" fill="#C65000" width="27" height="17"/>
<rect x="32.375" y="1" fill="#919191" width="8" height="55"/>
<rect x="0.375" y="24" fill="#919191" width="73" height="8"/>
<path fill="#6B767E" d="M32.508,1.851c0,0,0.123,3.416,0.216,8.54c0.034,2.562,0.075,5.551,0.118,8.753
	c0.016,3.202,0.033,6.618,0.051,10.034c-0.018,3.416-0.035,6.832-0.051,10.034c-0.013,3.202-0.086,6.191-0.117,8.753
	c-0.093,5.124-0.217,8.54-0.217,8.54s-0.124-3.416-0.217-8.54c-0.031-2.562-0.104-5.551-0.117-8.753
	c-0.016-3.202-0.033-6.618-0.051-10.034c0.018-3.416,0.035-6.832,0.051-10.034c0.043-3.202,0.084-6.191,0.118-8.753
	C32.385,5.267,32.508,1.851,32.508,1.851z"/>
<g>
	<path fill="#9D160C" stroke="#9D160C" stroke-miterlimit="10" d="M43.971,49.714c-0.089-1.171-0.168-2.342-0.206-3.513
		c-0.04-1.171-0.103-2.343-0.106-3.514l-0.045-3.513l0.033-3.514l0.003-0.299l0.292,0.006l10.736,0.227
		c3.578,0.082,7.156,0.191,10.734,0.317c-3.58,0.042-7.159,0.067-10.739,0.065l-10.438-0.024l0,0l0.046,3.22l-0.029,3.514
		c0.002,1.171-0.056,2.342-0.09,3.514C44.128,47.371,44.054,48.543,43.971,49.714z"/>
</g>
<g>
	<path fill="#FC4A20" d="M27.38,5.66c0.111,1.171,0.21,2.342,0.258,3.513c0.05,1.171,0.128,2.343,0.132,3.513l0.055,3.514
		l-0.045,3.514l-0.004,0.373l-0.367-0.004c-3.58-0.047-7.157-0.172-10.736-0.253c-3.578-0.093-7.156-0.219-10.733-0.367
		c3.58-0.064,7.16-0.106,10.739-0.115c3.58,0.003,7.16-0.038,10.738-0.001l-0.371,0.369l-0.061-3.514l0.039-3.514
		c-0.002-1.171,0.07-2.342,0.115-3.514C27.18,8.003,27.273,6.832,27.38,5.66z"/>
</g>
<polygon fill="#6B767E" points="1.375,31.5 32.375,31.115 32.375,31.885 "/>
<polygon fill="#6B767E" points="40.375,31.115 72.375,31.5 40.375,31.885 "/>
</svg>
