<?xml version="1.0" encoding="UTF-8" standalone="no"?>
<!-- Generator: Adobe Illustrator 16.0.0, SVG Export Plug-In . SVG Version: 6.00 Build 0)  -->

<svg
   xmlns:dc="http://purl.org/dc/elements/1.1/"
   xmlns:cc="http://creativecommons.org/ns#"
   xmlns:rdf="http://www.w3.org/1999/02/22-rdf-syntax-ns#"
   xmlns:svg="http://www.w3.org/2000/svg"
   xmlns="http://www.w3.org/2000/svg"
   xmlns:sodipodi="http://sodipodi.sourceforge.net/DTD/sodipodi-0.dtd"
   xmlns:inkscape="http://www.inkscape.org/namespaces/inkscape"
   version="1.1"
   id="Layer_1"
   x="0px"
   y="0px"
   width="74px"
   height="56px"
   viewBox="0 0 74 56"
   enable-background="new 0 0 74 56"
   xml:space="preserve"
   sodipodi:docname="analysis-bayesian-ttest.svg"
   inkscape:version="0.92.3 (2405546, 2018-03-11)"><metadata
   id="metadata1391"><rdf:RDF><cc:Work
       rdf:about=""><dc:format>image/svg+xml</dc:format><dc:type
         rdf:resource="http://purl.org/dc/dcmitype/StillImage" /></cc:Work></rdf:RDF></metadata><defs
   id="defs1389" /><sodipodi:namedview
   pagecolor="#ffffff"
   bordercolor="#666666"
   borderopacity="1"
   objecttolerance="10"
   gridtolerance="10"
   guidetolerance="10"
   inkscape:pageopacity="0"
   inkscape:pageshadow="2"
   inkscape:window-width="1920"
   inkscape:window-height="1001"
   id="namedview1387"
   showgrid="false"
   inkscape:zoom="4.2142857"
   inkscape:cx="37"
   inkscape:cy="28"
   inkscape:window-x="-9"
   inkscape:window-y="-9"
   inkscape:window-maximized="1"
   inkscape:current-layer="g1384" />
<g
   id="g1384">
	<rect
   y="-0.039"
   fill="#919191"
   width="8"
   height="54"
   id="rect1308" />
	<rect
   y="47.961"
   fill="#919191"
   width="74"
   height="8"
   id="rect1310" />
	<path
   opacity="0.6"
   fill="#4B4B4B"
   enable-background="new    "
   d="M0.285-0.079l0.586,13.745l0.457,13.747   c0.328,9.165,0.477,18.333,0.699,27.499L1.303,54.19c12.166,0.078,24.33,0.396,36.494,0.588l18.246,0.486   c6.08,0.199,12.162,0.389,18.242,0.656c-6.086,0.102-12.17,0.125-18.256,0.158l-18.25-0.012   c-12.164-0.139-24.332-0.153-36.496-0.407l-0.717-0.015l-0.009-0.707c-0.111-9.168-0.3-18.336-0.308-27.506L0.203,13.678   L0.285-0.079z"
   id="path1312" />
	<g
   opacity="0.5"
   id="g1316">
		<polygon
   fill="#717171"
   points="73.883,55.926 0.285,55.03 0.293,-0.039 2.293,-0.039 2.285,53.055 73.908,53.937   "
   id="polygon1314" />
	</g>
	<polygon
   fill="#717171"
   points="8.285,-0.079 6.785,49.922 74.285,47.922 8.285,47.922  "
   id="polygon1318" />
	<g
   id="g1322">
		<rect
   x="30"
   y="1.961"
   fill="#4B4B4B"
   width="4"
   height="2"
   id="rect1320" />
	</g>
	<rect
   x="26"
   y="3.961"
   fill="#919191"
   width="4"
   height="20"
   id="rect1324" />
	<rect
   x="22"
   y="-0.039"
   fill="#919191"
   width="12"
   height="4"
   id="rect1326" />
	<g
   id="g1330">
		<polygon
   fill="#4B4B4B"
   points="30,11.961 28,11.961 28,1.961 34,1.961 34,3.961 30,3.961   "
   id="polygon1328" />
	</g>
	<g
   id="g1334">
		<rect
   x="22"
   y="1.961"
   fill="#4B4B4B"
   width="4"
   height="2"
   id="rect1332" />
	</g>
	<rect
   x="26"
   y="25.961"
   fill="#919191"
   width="4"
   height="8"
   id="rect1336" />
	<rect
   x="22"
   y="33.961"
   fill="#919191"
   width="12"
   height="4"
   id="rect1338" />
	<g
   id="g1342">
		<polygon
   fill="#4B4B4B"
   points="28,35.961 22,35.961 22,33.961 26,33.961 26,25.961 28,25.961   "
   id="polygon1340" />
	</g>
	<g
   id="g1346">
		<rect
   x="30"
   y="33.961"
   fill="#4B4B4B"
   width="4"
   height="2"
   id="rect1344" />
	</g>
	<circle
   fill="#FB8C00"
   cx="27.74"
   cy="19.795"
   r="7.5"
   id="circle1348" />
	<path
   fill="#C65000"
   d="M32.51,16.166c0.146,0.521,0.23,1.062,0.23,1.629c0,3.312-2.688,6-6,6c-1.949,0-3.674-0.935-4.77-2.371   c0.711,2.521,3.021,4.371,5.77,4.371c3.312,0,6-2.688,6-6C33.74,18.43,33.279,17.174,32.51,16.166z"
   id="path1350" />
	<g
   id="g1354">
		<rect
   x="58"
   y="7.961"
   fill="#4B4B4B"
   width="4"
   height="2"
   id="rect1352" />
	</g>
	<rect
   x="54"
   y="9.961"
   fill="#919191"
   width="4"
   height="20"
   id="rect1356" />
	<rect
   x="50"
   y="5.961"
   fill="#919191"
   width="12"
   height="4"
   id="rect1358" />
	<g
   id="g1362">
		<polygon
   fill="#4B4B4B"
   points="58,17.961 56,17.961 56,7.961 62,7.961 62,9.961 58,9.961   "
   id="polygon1360" />
	</g>
	<g
   id="g1366">
		<rect
   x="50"
   y="7.961"
   fill="#4B4B4B"
   width="4"
   height="2"
   id="rect1364" />
	</g>
	<rect
   x="54"
   y="31.961"
   fill="#919191"
   width="4"
   height="8"
   id="rect1368" />
	<rect
   x="50"
   y="39.961"
   fill="#919191"
   width="12"
   height="4"
   id="rect1370" />
	<g
   id="g1374">
		<polygon
   fill="#4B4B4B"
   points="56,41.961 50,41.961 50,39.961 54,39.961 54,31.961 56,31.961   "
   id="polygon1372" />
	</g>
	<g
   id="g1378">
		<rect
   x="58"
   y="39.961"
   fill="#4B4B4B"
   width="4"
   height="2"
   id="rect1376" />
	</g>
	<circle
   fill="#e3da33"
   cx="55.74"
   cy="25.795"
   r="7.5"
   id="circle1380"
   style="fill:#e3da33;fill-opacity:1" />
	<path
   fill="#d4a837"
   d="M60.51,22.166c0.146,0.521,0.23,1.062,0.23,1.629c0,3.312-2.688,6-6,6c-1.949,0-3.674-0.935-4.77-2.371   c0.711,2.521,3.021,4.371,5.77,4.371c3.312,0,6-2.688,6-6C61.74,24.43,61.279,23.174,60.51,22.166z"
   id="path1382"
   style="fill:#d4a837;fill-opacity:1" />
</g>
</svg>