<?xml version="1.0" encoding="utf-8"?>
<!-- Generator: Adobe Illustrator 16.0.0, SVG Export Plug-In . SVG Version: 6.00 Build 0)  -->
<!DOCTYPE svg PUBLIC "-//W3C//DTD SVG 1.1//EN" "http://www.w3.org/Graphics/SVG/1.1/DTD/svg11.dtd">
<svg version="1.1" id="Layer_1" xmlns="http://www.w3.org/2000/svg" xmlns:xlink="http://www.w3.org/1999/xlink" x="0px" y="0px"
	 width="74px" height="56px" viewBox="0 0 74 56" enable-background="new 0 0 74 56" xml:space="preserve">
<g>
	<rect y="-0.039" fill="#919191" width="8" height="54"/>
	<rect y="47.961" fill="#919191" width="74" height="8"/>
	<path opacity="0.6" fill="#4B4B4B" enable-background="new    " d="M0.285-0.079L0.87,13.666l0.457,13.747
		c0.329,9.165,0.477,18.333,0.701,27.499L1.302,54.19c12.167,0.078,24.33,0.396,36.495,0.588l18.245,0.486
		c6.081,0.199,12.162,0.389,18.242,0.656c-6.085,0.102-12.169,0.125-18.255,0.158l-18.25-0.012
		c-12.165-0.139-24.332-0.153-36.496-0.407l-0.717-0.015l-0.009-0.707c-0.111-9.168-0.3-18.336-0.307-27.506L0.203,13.678
		L0.285-0.079z"/>
	<g opacity="0.5">
		<polygon fill="#717171" points="73.882,55.926 0.285,55.03 0.293,-0.039 2.293,-0.039 2.285,53.055 73.907,53.937 		"/>
	</g>
	<polygon fill="#717171" points="8.285,-0.079 6.785,49.922 74.285,47.922 8.285,47.922 	"/>
	<rect x="41" y="3.961" fill="#919191" width="4" height="20"/>
	<rect x="37" y="-0.039" fill="#919191" width="12" height="4"/>
	<rect x="41" y="25.961" fill="#919191" width="4" height="8"/>
	<rect x="37" y="33.961" fill="#919191" width="12" height="4"/>
	<polygon fill="#4B4B4B" points="43,1.961 43,11.961 45,11.961 45,3.961 49,3.961 49,1.961 45,1.961 	"/>
	<rect x="37" y="1.961" fill="#4B4B4B" width="4" height="2"/>
	<polygon fill="#4B4B4B" points="41,33.961 37,33.961 37,35.961 43,35.961 43,25.961 41,25.961 	"/>
	<rect x="45" y="33.961" fill="#4B4B4B" width="4" height="2"/>
	<circle fill="#FB8C00" cx="42.623" cy="19.586" r="7.5"/>
	<path fill="#C65000" d="M47.393,15.957c0.146,0.521,0.23,1.062,0.23,1.629c0,3.312-2.688,6-6,6c-1.949,0-3.674-0.935-4.77-2.371
		c0.711,2.521,3.021,4.371,5.77,4.371c3.312,0,6-2.688,6-6C48.623,18.221,48.162,16.965,47.393,15.957z"/>
	<rect x="63" y="11.961" fill="#919191" width="4" height="20"/>
	<rect x="59" y="7.961" fill="#919191" width="12" height="4"/>
	<rect x="63" y="33.961" fill="#919191" width="4" height="8"/>
	<rect x="59" y="41.961" fill="#919191" width="12" height="4"/>
	<polygon fill="#4B4B4B" points="67,9.961 65,9.961 65,19.961 67,19.961 67,11.961 71,11.961 71,9.961 	"/>
	<rect x="59" y="9.961" fill="#4B4B4B" width="4" height="2"/>
	<polygon fill="#4B4B4B" points="63,41.961 59,41.961 59,43.961 65,43.961 65,33.961 63,33.961 	"/>
	<rect x="67" y="41.961" fill="#4B4B4B" width="4" height="2"/>
	<circle fill="#C65000" cx="64.623" cy="27.586" r="7.5"/>
	<path fill="#9D160C" d="M69.393,23.957c0.146,0.521,0.23,1.062,0.23,1.629c0,3.312-2.688,6-6,6c-1.949,0-3.674-0.935-4.77-2.371
		c0.711,2.521,3.021,4.371,5.77,4.371c3.312,0,6-2.688,6-6C70.623,26.221,70.162,24.965,69.393,23.957z"/>
	<rect x="19" y="11.961" fill="#919191" width="4" height="20"/>
	<rect x="15" y="7.961" fill="#919191" width="12" height="4"/>
	<rect x="19" y="33.961" fill="#919191" width="4" height="8"/>
	<rect x="15" y="41.961" fill="#919191" width="12" height="4"/>
	<polygon fill="#4B4B4B" points="21,9.961 21,19.961 23,19.961 23,11.961 27,11.961 27,9.961 23,9.961 	"/>
	<rect x="15" y="9.961" fill="#4B4B4B" width="4" height="2"/>
	<polygon fill="#4B4B4B" points="19,41.961 15,41.961 15,43.961 21,43.961 21,33.961 19,33.961 	"/>
	<rect x="23" y="41.961" fill="#4B4B4B" width="4" height="2"/>
	<circle fill="#C65000" cx="20.623" cy="27.586" r="7.5"/>
	<path fill="#9D160C" d="M25.393,23.957c0.146,0.521,0.23,1.062,0.23,1.629c0,3.312-2.688,6-6,6c-1.949,0-3.674-0.935-4.77-2.371
		c0.711,2.521,3.021,4.371,5.77,4.371c3.312,0,6-2.688,6-6C26.623,26.221,26.162,24.965,25.393,23.957z"/>
</g>
</svg>
