<?xml version="1.0" encoding="utf-8"?>
<!-- Generator: Adobe Illustrator 16.0.0, SVG Export Plug-In . SVG Version: 6.00 Build 0)  -->
<!DOCTYPE svg PUBLIC "-//W3C//DTD SVG 1.1//EN" "http://www.w3.org/Graphics/SVG/1.1/DTD/svg11.dtd">
<svg version="1.1" id="Layer_1" xmlns="http://www.w3.org/2000/svg" xmlns:xlink="http://www.w3.org/1999/xlink" x="0px" y="0px"
	 width="74px" height="56px" viewBox="5.657 4.047 74 56" enable-background="new 5.657 4.047 74 56" xml:space="preserve">
<rect x="5.578" y="3.988" fill="#919191" width="8" height="54"/>
<rect x="5.578" y="51.988" fill="#919191" width="74" height="8"/>
<path opacity="0.6" fill="#4B4B4B" enable-background="new    " d="M5.863,3.948l0.585,13.745L6.905,31.44
	c0.329,9.165,0.477,18.333,0.701,27.499L6.88,58.219c12.167,0.078,24.33,0.395,36.495,0.588l18.245,0.486
	c6.081,0.198,12.162,0.389,18.242,0.655c-6.085,0.103-12.169,0.125-18.255,0.158l-18.25-0.011
	c-12.166-0.14-24.333-0.154-36.497-0.408l-0.717-0.014l-0.009-0.707c-0.111-9.168-0.3-18.336-0.307-27.506L5.781,17.705L5.863,3.948
	z"/>
<g opacity="0.5">
	<polygon fill="#717171" points="79.46,59.953 5.863,59.059 5.871,3.988 7.871,3.988 7.863,57.082 79.485,57.963 	"/>
</g>
<polygon fill="#717171" points="13.863,3.948 12.363,53.949 79.863,51.949 13.863,51.949 "/>
<rect x="46.578" y="7.988" fill="#919191" width="4" height="20"/>
<rect x="42.578" y="3.988" fill="#919191" width="12" height="4"/>
<rect x="46.578" y="29.988" fill="#919191" width="4" height="8"/>
<rect x="42.578" y="37.988" fill="#919191" width="12" height="4"/>
<polygon fill="#4B4B4B" points="48.578,5.988 48.578,15.988 50.578,15.988 50.578,7.988 54.578,7.988 54.578,5.988 50.578,5.988 "/>
<rect x="42.578" y="5.988" fill="#4B4B4B" width="4" height="2"/>
<polygon fill="#4B4B4B" points="46.578,37.988 42.578,37.988 42.578,39.988 48.578,39.988 48.578,29.988 46.578,29.988 "/>
<rect x="50.578" y="37.988" fill="#4B4B4B" width="4" height="2"/>
<circle fill="#FB8C00" cx="48.201" cy="23.613" r="7.5"/>
<path fill="#C65000" d="M52.971,19.984c0.146,0.52,0.23,1.062,0.23,1.629c0,3.312-2.688,6-6,6c-1.949,0-3.674-0.934-4.77-2.371
	c0.711,2.52,3.021,4.371,5.77,4.371c3.312,0,6-2.688,6-6C54.201,22.248,53.74,20.992,52.971,19.984z"/>
<rect x="68.578" y="15.988" fill="#919191" width="4" height="20"/>
<rect x="64.578" y="11.988" fill="#919191" width="12" height="4"/>
<rect x="68.578" y="37.988" fill="#919191" width="4" height="8"/>
<rect x="64.578" y="45.988" fill="#919191" width="12" height="4"/>
<polygon fill="#4B4B4B" points="72.578,13.988 70.578,13.988 70.578,23.988 72.578,23.988 72.578,15.988 76.578,15.988 
	76.578,13.988 "/>
<rect x="64.578" y="13.988" fill="#4B4B4B" width="4" height="2"/>
<polygon fill="#4B4B4B" points="68.578,45.988 64.578,45.988 64.578,47.988 70.578,47.988 70.578,37.988 68.578,37.988 "/>
<rect x="72.578" y="45.988" fill="#4B4B4B" width="4" height="2"/>
<circle fill="#00BB64" cx="70.201" cy="31.613" r="7.5"/>
<path fill="#008837" d="M74.971,27.984c0.146,0.52,0.23,1.062,0.23,1.629c0,3.312-2.688,6-6,6c-1.949,0-3.674-0.934-4.77-2.371
	c0.711,2.52,3.021,4.371,5.77,4.371c3.312,0,6-2.688,6-6C76.201,30.248,75.74,28.992,74.971,27.984z"/>
<rect x="24.578" y="15.988" fill="#919191" width="4" height="20"/>
<rect x="20.578" y="11.988" fill="#919191" width="12" height="4"/>
<rect x="24.578" y="37.988" fill="#919191" width="4" height="8"/>
<rect x="20.578" y="45.988" fill="#919191" width="12" height="4"/>
<polygon fill="#4B4B4B" points="26.578,13.988 26.578,23.988 28.578,23.988 28.578,15.988 32.578,15.988 32.578,13.988 
	28.578,13.988 "/>
<rect x="20.578" y="13.988" fill="#4B4B4B" width="4" height="2"/>
<polygon fill="#4B4B4B" points="24.578,45.988 20.578,45.988 20.578,47.988 26.578,47.988 26.578,37.988 24.578,37.988 "/>
<rect x="28.578" y="45.988" fill="#4B4B4B" width="4" height="2"/>
<circle fill="#00BB64" cx="26.201" cy="31.613" r="7.5"/>
<path fill="#008837" d="M30.971,27.984c0.146,0.52,0.23,1.062,0.23,1.629c0,3.312-2.688,6-6,6c-1.949,0-3.674-0.934-4.77-2.371
	c0.711,2.52,3.021,4.371,5.77,4.371c3.312,0,6-2.688,6-6C32.201,30.248,31.74,28.992,30.971,27.984z"/>
</svg>
