<?xml version="1.0" encoding="utf-8"?>
<!-- Generator: Adobe Illustrator 16.0.0, SVG Export Plug-In . SVG Version: 6.00 Build 0)  -->
<!DOCTYPE svg PUBLIC "-//W3C//DTD SVG 1.1//EN" "http://www.w3.org/Graphics/SVG/1.1/DTD/svg11.dtd">
<svg version="1.1" id="Layer_1" xmlns="http://www.w3.org/2000/svg" xmlns:xlink="http://www.w3.org/1999/xlink" x="0px" y="0px"
	 width="74px" height="56px" viewBox="0.038 0.079 74 56" enable-background="new 0.038 0.079 74 56" xml:space="preserve">
<polygon fill="#FB8C00" points="9.248,53.396 5.23,47.728 65.604,6.17 69.623,11.838 "/>
<g opacity="0.6">
	
		<rect x="39.961" y="-2.311" transform="matrix(-0.5594 -0.8289 0.8289 -0.5594 37.6768 81.3567)" fill="#C65000" width="0.999" height="65.953"/>
</g>
<g>
	<rect x="19.168" y="14.04" fill="#00BA63" width="4" height="12"/>
</g>
<g>
	<rect x="15.168" y="18.04" fill="#00BA63" width="12" height="4"/>
</g>
<g>
	<rect x="53.168" y="30.04" fill="#00BA63" width="4" height="12"/>
</g>
<g>
	<rect x="49.168" y="34.04" fill="#00BA63" width="12" height="4"/>
</g>
<g>
	<rect x="39.168" y="0.04" fill="#00BA63" width="4" height="12"/>
</g>
<g>
	<rect x="35.168" y="4.04" fill="#00BA63" width="12" height="4"/>
</g>
<rect x="0.168" y="0.04" fill="#919191" width="8" height="54"/>
<rect x="0.168" y="48.04" fill="#919191" width="74" height="8"/>
<path opacity="0.6" fill="#4B4B4B" enable-background="new    " d="M0.453,0l0.585,13.745l0.457,13.747
	c0.329,9.165,0.477,18.333,0.701,27.499L1.47,54.271c12.167,0.078,24.33,0.395,36.495,0.588l18.245,0.486
	c6.081,0.198,12.162,0.389,18.242,0.655c-6.085,0.103-12.169,0.125-18.255,0.158l-18.25-0.011
	c-12.166-0.14-24.333-0.154-36.497-0.408l-0.717-0.014l-0.009-0.707c-0.111-9.168-0.3-18.336-0.307-27.506L0.371,13.757L0.453,0z"/>
<g opacity="0.5">
	<polygon fill="#717171" points="74.05,56.005 0.453,55.11 0.461,0.04 2.461,0.04 2.453,53.134 74.075,54.015 	"/>
</g>
<polygon fill="#717171" points="8.453,0 6.953,50.001 74.453,48.001 8.453,48.001 "/>
<rect x="15.168" y="20.957" fill="#008837" width="4" height="1.083"/>
<rect x="23.168" y="20.957" fill="#008837" width="4" height="1.083"/>
<rect x="22.126" y="14.04" fill="#008837" width="1.084" height="4"/>
<rect x="22.126" y="20.957" fill="#008837" width="1.083" height="5.083"/>
<rect x="35.168" y="6.957" fill="#008837" width="4" height="1.083"/>
<rect x="43.168" y="6.957" fill="#008837" width="4" height="1.083"/>
<rect x="42.126" y="0.04" fill="#008837" width="1.084" height="4"/>
<rect x="42.126" y="6.957" fill="#008837" width="1.083" height="5.083"/>
<rect x="49.168" y="36.956" fill="#008837" width="4" height="1.084"/>
<rect x="57.168" y="36.956" fill="#008837" width="4" height="1.084"/>
<rect x="56.126" y="30.04" fill="#008837" width="1.084" height="4"/>
<rect x="56.126" y="36.956" fill="#008837" width="1.083" height="5.084"/>
</svg>
