<?xml version="1.0" encoding="utf-8"?>
<!-- Generator: Adobe Illustrator 16.0.0, SVG Export Plug-In . SVG Version: 6.00 Build 0)  -->
<!DOCTYPE svg PUBLIC "-//W3C//DTD SVG 1.1//EN" "http://www.w3.org/Graphics/SVG/1.1/DTD/svg11.dtd">
<svg version="1.1" id="Layer_1" xmlns="http://www.w3.org/2000/svg" xmlns:xlink="http://www.w3.org/1999/xlink" x="0px" y="0px"
	 width="74px" height="56px" viewBox="0 0 74 56" enable-background="new 0 0 74 56" xml:space="preserve">
<g>
	<rect y="-0.039" fill="#919191" width="8" height="54"/>
	<rect y="47.961" fill="#919191" width="74" height="8"/>
	<path opacity="0.6" fill="#4B4B4B" enable-background="new    " d="M0.285-0.079l0.586,13.745l0.457,13.747
		c0.328,9.165,0.477,18.333,0.699,27.499L1.303,54.19c12.166,0.078,24.33,0.396,36.494,0.588l18.246,0.486
		c6.08,0.199,12.162,0.389,18.242,0.656c-6.086,0.102-12.17,0.125-18.256,0.158l-18.25-0.012
		c-12.164-0.139-24.332-0.153-36.496-0.407l-0.717-0.015l-0.009-0.707c-0.111-9.168-0.3-18.336-0.308-27.506L0.203,13.678
		L0.285-0.079z"/>
	<g opacity="0.5">
		<polygon fill="#717171" points="73.883,55.926 0.285,55.03 0.293,-0.039 2.293,-0.039 2.285,53.055 73.908,53.937 		"/>
	</g>
	<polygon fill="#717171" points="8.285,-0.079 6.785,49.922 74.285,47.922 8.285,47.922 	"/>
	<g>
		<rect x="30" y="1.961" fill="#4B4B4B" width="4" height="2"/>
	</g>
	<rect x="26" y="3.961" fill="#919191" width="4" height="20"/>
	<rect x="22" y="-0.039" fill="#919191" width="12" height="4"/>
	<g>
		<polygon fill="#4B4B4B" points="30,11.961 28,11.961 28,1.961 34,1.961 34,3.961 30,3.961 		"/>
	</g>
	<g>
		<rect x="22" y="1.961" fill="#4B4B4B" width="4" height="2"/>
	</g>
	<rect x="26" y="25.961" fill="#919191" width="4" height="8"/>
	<rect x="22" y="33.961" fill="#919191" width="12" height="4"/>
	<g>
		<polygon fill="#4B4B4B" points="28,35.961 22,35.961 22,33.961 26,33.961 26,25.961 28,25.961 		"/>
	</g>
	<g>
		<rect x="30" y="33.961" fill="#4B4B4B" width="4" height="2"/>
	</g>
	<circle fill="#FB8C00" cx="27.74" cy="19.795" r="7.5"/>
	<path fill="#C65000" d="M32.51,16.166c0.146,0.521,0.23,1.062,0.23,1.629c0,3.312-2.688,6-6,6c-1.949,0-3.674-0.935-4.77-2.371
		c0.711,2.521,3.021,4.371,5.77,4.371c3.312,0,6-2.688,6-6C33.74,18.43,33.279,17.174,32.51,16.166z"/>
	<g>
		<rect x="58" y="7.961" fill="#4B4B4B" width="4" height="2"/>
	</g>
	<rect x="54" y="9.961" fill="#919191" width="4" height="20"/>
	<rect x="50" y="5.961" fill="#919191" width="12" height="4"/>
	<g>
		<polygon fill="#4B4B4B" points="58,17.961 56,17.961 56,7.961 62,7.961 62,9.961 58,9.961 		"/>
	</g>
	<g>
		<rect x="50" y="7.961" fill="#4B4B4B" width="4" height="2"/>
	</g>
	<rect x="54" y="31.961" fill="#919191" width="4" height="8"/>
	<rect x="50" y="39.961" fill="#919191" width="12" height="4"/>
	<g>
		<polygon fill="#4B4B4B" points="56,41.961 50,41.961 50,39.961 54,39.961 54,31.961 56,31.961 		"/>
	</g>
	<g>
		<rect x="58" y="39.961" fill="#4B4B4B" width="4" height="2"/>
	</g>
	<circle fill="#00BB64" cx="55.74" cy="25.795" r="7.5"/>
	<path fill="#008837" d="M60.51,22.166c0.146,0.521,0.23,1.062,0.23,1.629c0,3.312-2.688,6-6,6c-1.949,0-3.674-0.935-4.77-2.371
		c0.711,2.521,3.021,4.371,5.77,4.371c3.312,0,6-2.688,6-6C61.74,24.43,61.279,23.174,60.51,22.166z"/>
</g>
</svg>
