<?xml version="1.0" encoding="utf-8"?>
<!-- Generator: Adobe Illustrator 16.0.0, SVG Export Plug-In . SVG Version: 6.00 Build 0)  -->
<!DOCTYPE svg PUBLIC "-//W3C//DTD SVG 1.1//EN" "http://www.w3.org/Graphics/SVG/1.1/DTD/svg11.dtd">
<svg version="1.1" id="Layer_1" xmlns="http://www.w3.org/2000/svg" xmlns:xlink="http://www.w3.org/1999/xlink" x="0px" y="0px"
	 width="74px" height="56px" viewBox="0 0 74 56" enable-background="new 0 0 74 56" xml:space="preserve">
<g>
	<rect y="-0.118" fill="#919191" width="8" height="54"/>
	<rect y="47.882" fill="#919191" width="74" height="8"/>
	<g opacity="0.5">
		<polygon fill="#717171" points="73.882,55.847 0.285,54.951 0.293,-0.118 2.293,-0.118 2.285,52.976 73.907,53.857 		"/>
	</g>
	<polygon fill="#717171" points="8.285,-0.158 6.785,49.843 74.285,47.843 8.285,47.843 	"/>
	<g>
		<rect x="30" y="1.882" fill="#4B4B4B" width="4" height="2"/>
	</g>
	<rect x="26" y="3.882" fill="#919191" width="4" height="20"/>
	<rect x="22" y="-0.118" fill="#919191" width="12" height="4"/>
	<g>
		<polygon fill="#4B4B4B" points="30,11.882 28,11.882 28,1.882 34,1.882 34,3.882 30,3.882 		"/>
	</g>
	<g>
		<rect x="22" y="1.882" fill="#4B4B4B" width="4" height="2"/>
	</g>
	<rect x="26" y="25.882" fill="#919191" width="4" height="8"/>
	<rect x="22" y="33.882" fill="#919191" width="12" height="4"/>
	<g>
		<polygon fill="#4B4B4B" points="28,35.882 22,35.882 22,33.882 26,33.882 26,25.882 28,25.882 		"/>
	</g>
	<g>
		<rect x="30" y="33.882" fill="#4B4B4B" width="4" height="2"/>
	</g>
	<circle fill="#FB8C00" cx="27.74" cy="19.716" r="7.5"/>
	<path fill="#C65000" d="M32.51,16.087c0.146,0.521,0.23,1.062,0.23,1.629c0,3.312-2.688,6-6,6c-1.949,0-3.674-0.935-4.77-2.371
		c0.711,2.521,3.021,4.371,5.77,4.371c3.312,0,6-2.688,6-6C33.74,18.351,33.279,17.095,32.51,16.087z"/>
	<g>
		<rect x="58" y="7.882" fill="#4B4B4B" width="4" height="2"/>
	</g>
	<rect x="54" y="9.882" fill="#919191" width="4" height="20"/>
	<rect x="50" y="5.882" fill="#919191" width="12" height="4"/>
	<g>
		<polygon fill="#4B4B4B" points="58,17.882 56,17.882 56,7.882 62,7.882 62,9.882 58,9.882 		"/>
	</g>
	<g>
		<rect x="50" y="7.882" fill="#4B4B4B" width="4" height="2"/>
	</g>
	<rect x="54" y="31.882" fill="#919191" width="4" height="8"/>
	<rect x="50" y="39.882" fill="#919191" width="12" height="4"/>
	<g>
		<polygon fill="#4B4B4B" points="56,41.882 50,41.882 50,39.882 54,39.882 54,31.882 56,31.882 		"/>
	</g>
	<g>
		<rect x="58" y="39.882" fill="#4B4B4B" width="4" height="2"/>
	</g>
	<circle fill="#C65000" cx="55.74" cy="25.716" r="7.5"/>
	<path fill="#9D160C" d="M60.51,22.087c0.146,0.521,0.23,1.062,0.23,1.629c0,3.312-2.688,6-6,6c-1.949,0-3.674-0.935-4.77-2.371
		c0.711,2.521,3.021,4.371,5.77,4.371c3.312,0,6-2.688,6-6C61.74,24.351,61.279,23.095,60.51,22.087z"/>
	<path opacity="0.6" fill="#4B4B4B" enable-background="new    " d="M0.285-0.158L0.87,13.587l0.457,13.747
		c0.329,9.165,0.477,18.333,0.7,27.499l-0.726-0.722c12.167,0.078,24.33,0.396,36.495,0.588l18.245,0.486
		c6.081,0.199,12.162,0.389,18.242,0.656C68.199,55.943,62.115,55.967,56.029,56l-18.25-0.012
		c-12.165-0.139-24.332-0.153-36.496-0.407l-0.717-0.015l-0.009-0.707c-0.111-9.168-0.3-18.336-0.307-27.506L0.203,13.599
		L0.285-0.158z"/>
</g>
</svg>
