<?xml version="1.0" encoding="utf-8"?>
<!-- Generator: Adobe Illustrator 16.0.4, SVG Export Plug-In . SVG Version: 6.00 Build 0)  -->
<!DOCTYPE svg PUBLIC "-//W3C//DTD SVG 1.1//EN" "http://www.w3.org/Graphics/SVG/1.1/DTD/svg11.dtd">
<svg version="1.1" id="Layer_1" xmlns="http://www.w3.org/2000/svg" xmlns:xlink="http://www.w3.org/1999/xlink" x="0px" y="0px"
	 width="74px" height="56px" viewBox="0 0 74 56" enable-background="new 0 0 74 56" xml:space="preserve">
<g>
	<g>
		<g enable-background="new    ">
			<g>
				<polygon fill="#595959" points="19.278,31.954 19.278,31.081 22.92,32.49 22.92,33.363 				"/>
			</g>
			<g>
				<polygon fill="#595959" points="17.664,31.329 17.664,30.456 19.278,31.081 19.278,31.954 				"/>
			</g>
			<g>
				<polygon fill="#575757" points="17.404,29.615 17.404,28.743 17.664,30.456 17.664,31.329 				"/>
			</g>
			<g>
				<polygon fill="#494949" points="10.563,37.025 10.563,36.152 16.818,24.877 16.818,25.75 				"/>
			</g>
			<g>
				<polygon fill="#7D7D7D" points="16.818,25.75 17.404,29.615 17.664,31.329 19.278,31.954 22.92,33.363 10.563,37.025 				"/>
			</g>
			<g>
				<polygon fill="#575757" points="16.818,25.75 16.818,24.877 17.404,28.743 17.404,29.615 				"/>
			</g>
			<g>
				<polygon fill="#494949" points="17.404,29.615 17.404,28.743 36.06,13.773 36.06,14.646 				"/>
			</g>
			<g>
				<polygon fill="#5D5D5D" points="36.06,14.646 36.06,13.773 37.941,16.113 37.941,16.985 				"/>
			</g>
			<g>
				<polygon fill="#7D7D7D" points="36.06,14.646 37.941,16.985 19.278,31.954 17.664,31.329 17.404,29.615 				"/>
			</g>
		</g>
	</g>
</g>
<g>
	<g>
		<g enable-background="new    ">
			<g>
				<polygon fill="#5B5B5B" points="35.558,27.062 35.558,26.189 37.068,27.056 37.068,27.928 				"/>
			</g>
			<g>
				<polygon fill="#494949" points="37.068,27.928 37.068,27.056 38.562,26.175 38.562,27.048 				"/>
			</g>
			<g>
				<polygon fill="#5B5B5B" points="32.172,25.121 32.172,24.248 35.558,26.189 35.558,27.062 				"/>
			</g>
			<g>
				<polygon fill="#494949" points="38.562,27.048 38.562,26.175 41.928,24.194 41.928,25.066 				"/>
			</g>
			<g>
				<polygon fill="#7D7D7D" points="41.928,25.066 37.113,37.034 32.172,25.121 35.558,27.062 37.068,27.928 38.562,27.048 				"/>
			</g>
			<g>
				<polygon fill="#525252" points="35.502,15.825 35.502,14.953 38.499,14.943 38.499,15.816 				"/>
			</g>
			<g>
				<polygon fill="#545454" points="38.499,15.816 38.499,14.943 38.562,26.175 38.562,27.048 				"/>
			</g>
			<g>
				<polygon fill="#7D7D7D" points="38.499,15.816 38.562,27.048 37.068,27.928 35.558,27.062 35.502,15.825 				"/>
			</g>
		</g>
	</g>
</g>
<g>
	<g>
		<g enable-background="new    ">
			<g>
				<polygon fill="#4B4B4B" points="51.09,33.363 51.09,32.49 54.731,31.081 54.731,31.954 				"/>
			</g>
			<g>
				<polygon fill="#4B4B4B" points="54.731,31.954 54.731,31.081 56.346,30.456 56.346,31.329 				"/>
			</g>
			<g>
				<polygon fill="#494949" points="56.346,31.329 56.346,30.456 56.607,28.738 56.607,29.61 				"/>
			</g>
			<g>
				<polygon fill="#494949" points="56.607,29.61 56.607,28.738 57.192,24.887 57.192,25.76 				"/>
			</g>
			<g>
				<polygon fill="#7D7D7D" points="57.192,25.76 63.456,37.025 51.09,33.363 54.731,31.954 56.346,31.329 56.607,29.61 				"/>
			</g>
			<g>
				<polygon fill="#5C5C5C" points="57.192,25.76 57.192,24.887 63.456,36.152 63.456,37.025 				"/>
			</g>
			<g>
				<polygon fill="#494949" points="36.06,16.985 36.06,16.113 37.941,13.773 37.941,14.646 				"/>
			</g>
			<g>
				<polygon fill="#5C5C5C" points="37.941,14.646 37.941,13.773 56.607,28.738 56.607,29.61 				"/>
			</g>
			<g>
				<polygon fill="#7D7D7D" points="37.941,14.646 56.607,29.61 56.346,31.329 54.731,31.954 36.06,16.985 				"/>
			</g>
		</g>
	</g>
</g>
<rect x="1.601" y="36.596" fill="#C65000" width="17.917" height="17.816"/>
<line fill="none" x1="0.833" y1="4.253" x2="0.292" y2="4.253"/>
<circle fill="#FB8C00" cx="37.001" cy="10.5" r="10.5"/>
<path fill="#C65000" d="M43.678,5.419C43.883,6.148,44,6.906,44,7.7c0,4.637-3.764,8.399-8.399,8.399
	c-2.729,0-5.144-1.309-6.678-3.319c0.995,3.53,4.229,6.119,8.078,6.119c4.638,0,8.399-3.763,8.399-8.399
	C45.4,8.589,44.755,6.83,43.678,5.419z"/>
<g>
	<path fill="#9D160C" stroke="#9D160C" stroke-width="1.25" stroke-linejoin="round" stroke-miterlimit="10" d="M2.625,37.631"/>
	<path fill="#9D160C" stroke="#9D160C" stroke-width="1.25" stroke-linejoin="round" stroke-miterlimit="10" d="M2.625,37.65"/>
</g>
<line fill="none" stroke="#9D160C" stroke-width="1.25" stroke-linecap="square" stroke-linejoin="round" stroke-miterlimit="10" x1="2.625" y1="37.631" x2="2.625" y2="53.631"/>
<line fill="none" stroke="#9D160C" stroke-width="1.25" stroke-linecap="square" stroke-linejoin="round" stroke-miterlimit="10" x1="2.625" y1="37.631" x2="18.625" y2="37.631"/>
<rect x="28.204" y="36.594" fill="#C65000" width="17.917" height="17.816"/>
<g>
	<path fill="#9D160C" stroke="#9D160C" stroke-width="1.25" stroke-linejoin="round" stroke-miterlimit="10" d="M29.228,37.629"/>
	<path fill="#9D160C" stroke="#9D160C" stroke-width="1.25" stroke-linejoin="round" stroke-miterlimit="10" d="M29.228,37.648"/>
</g>
<line fill="none" stroke="#9D160C" stroke-width="1.25" stroke-linecap="square" stroke-linejoin="round" stroke-miterlimit="10" x1="29.228" y1="37.629" x2="29.228" y2="53.629"/>
<line fill="none" stroke="#9D160C" stroke-width="1.25" stroke-linecap="square" stroke-linejoin="round" stroke-miterlimit="10" x1="29.228" y1="37.629" x2="45.228" y2="37.629"/>
<rect x="54.496" y="36.596" fill="#C65000" width="17.916" height="17.816"/>
<g>
	<path fill="#9D160C" stroke="#9D160C" stroke-width="1.25" stroke-linejoin="round" stroke-miterlimit="10" d="M55.52,37.631"/>
	<path fill="#9D160C" stroke="#9D160C" stroke-width="1.25" stroke-linejoin="round" stroke-miterlimit="10" d="M55.52,37.65"/>
</g>
<line fill="none" stroke="#9D160C" stroke-width="1.25" stroke-linecap="square" stroke-linejoin="round" stroke-miterlimit="10" x1="55.52" y1="37.631" x2="55.52" y2="53.631"/>
<line fill="none" stroke="#9D160C" stroke-width="1.25" stroke-linecap="square" stroke-linejoin="round" stroke-miterlimit="10" x1="55.52" y1="37.631" x2="71.52" y2="37.631"/>
<g>
	<path fill="none" stroke="#6B767E" stroke-miterlimit="10" d="M16.836,30.578"/>
	<path fill="none" stroke="#6B767E" stroke-miterlimit="10" d="M31.61,18.741"/>
	<g>
		<path fill="none" stroke="#6B767E" stroke-miterlimit="10" d="M12.75,34.049"/>
		<path fill="none" stroke="#6B767E" stroke-miterlimit="10" d="M16.895,30.25"/>
	</g>
</g>
</svg>
