<?xml version="1.0" encoding="UTF-8" standalone="no"?>
<!-- Generator: Adobe Illustrator 16.0.0, SVG Export Plug-In . SVG Version: 6.00 Build 0)  -->

<svg
   xmlns:dc="http://purl.org/dc/elements/1.1/"
   xmlns:cc="http://creativecommons.org/ns#"
   xmlns:rdf="http://www.w3.org/1999/02/22-rdf-syntax-ns#"
   xmlns:svg="http://www.w3.org/2000/svg"
   xmlns="http://www.w3.org/2000/svg"
   xmlns:sodipodi="http://sodipodi.sourceforge.net/DTD/sodipodi-0.dtd"
   xmlns:inkscape="http://www.inkscape.org/namespaces/inkscape"
   version="1.1"
   id="Layer_1"
   x="0px"
   y="0px"
   width="74px"
   height="56px"
   viewBox="0 0 74 56"
   enable-background="new 0 0 74 56"
   xml:space="preserve"
   sodipodi:docname="audit-fullaudit.svg"
   inkscape:version="0.92.3 (2405546, 2018-03-11)"><metadata
   id="metadata2713"><rdf:RDF><cc:Work
       rdf:about=""><dc:format>image/svg+xml</dc:format><dc:type
         rdf:resource="http://purl.org/dc/dcmitype/StillImage" /><dc:title /></cc:Work></rdf:RDF></metadata><defs
   id="defs2711" /><sodipodi:namedview
   pagecolor="#ffffff"
   bordercolor="#666666"
   borderopacity="1"
   objecttolerance="10"
   gridtolerance="10"
   guidetolerance="10"
   inkscape:pageopacity="0"
   inkscape:pageshadow="2"
   inkscape:window-width="1920"
   inkscape:window-height="1001"
   id="namedview2709"
   showgrid="false"
   inkscape:zoom="4.2142857"
   inkscape:cx="37"
   inkscape:cy="28"
   inkscape:window-x="-9"
   inkscape:window-y="-9"
   inkscape:window-maximized="1"
   inkscape:current-layer="Layer_1" />









<path
   d="m 60.156823,45.936416 h 6.817121 l -11.753655,9.964675 v -5.77951 a 4.9365354,4.1851636 0 0 1 4.936534,-4.185165 z M 62.037408,0.09890998 H 15.492929 A 4.9365354,4.1851636 0 0 0 10.556399,4.284073 v 8.05943 a 21.584413,18.299129 0 0 1 4.70146,-3.425856 V 4.08478 h 47.014624 v 39.858701 h 4.701461 V 4.284073 A 4.9365354,4.1851636 0 0 0 62.037408,0.09890998 Z M 15.257859,42.962957 l -4.70146,3.985871 v 4.767098 a 4.9365354,4.1851636 0 0 0 4.93653,4.185165 h 37.37663 v -3.98587 h -37.6117 z"
   id="path829"
   style="fill:#717171;fill-opacity:1;stroke-width:0.75590551;stroke-miterlimit:4;stroke-dasharray:none"
   inkscape:connector-curvature="0" /><path
   d="M 59.728764,13.35736 V 8.5918289 H 46.903785 a 25.476392,21.683167 0 0 1 2.849991,4.7655311 z m -8.521993,9.531061 h 8.521993 v -4.76553 h -8.614381 a 25.577178,21.768947 0 0 1 0.215574,2.68061 c 0,0.702916 -0.04758,1.398684 -0.123186,2.08492 z m 8.521993,9.531063 v -4.765532 h -9.717427 a 25.4176,21.633128 0 0 1 -2.66802,4.765532 z m 0,9.531061 V 37.185014 H 42.528002 a 25.476392,21.683167 0 0 1 -10.918458,4.765531 z"
   id="path831"
   style="fill:#fb8c00;fill-opacity:1;stroke-width:0.08071216"
   inkscape:connector-curvature="0" /><path
   d="M 14.486651,32.42187 1.1277509,44.525443 5.629879,48.60451 18.988774,36.500935 A 19.142747,17.343923 0 1 0 14.486651,32.42187 Z m 2.22022,-10.019098 a 13.342809,12.088998 0 1 1 13.34013,12.086571 13.358898,12.103575 0 0 1 -13.34013,-12.086571 z"
   id="path833"
   style="fill:#006df0;fill-opacity:1;stroke:none;stroke-width:0.0797606;stroke-opacity:1"
   inkscape:connector-curvature="0" /></svg>