<?xml version="1.0" encoding="UTF-8" standalone="no"?>
<!-- Generator: Adobe Illustrator 16.0.0, SVG Export Plug-In . SVG Version: 6.00 Build 0)  -->

<svg
   xmlns:dc="http://purl.org/dc/elements/1.1/"
   xmlns:cc="http://creativecommons.org/ns#"
   xmlns:rdf="http://www.w3.org/1999/02/22-rdf-syntax-ns#"
   xmlns:svg="http://www.w3.org/2000/svg"
   xmlns="http://www.w3.org/2000/svg"
   xmlns:sodipodi="http://sodipodi.sourceforge.net/DTD/sodipodi-0.dtd"
   xmlns:inkscape="http://www.inkscape.org/namespaces/inkscape"
   version="1.1"
   id="Layer_1"
   x="0px"
   y="0px"
   width="74px"
   height="56px"
   viewBox="0 0 74 56"
   enable-background="new 0 0 74 56"
   xml:space="preserve"
   sodipodi:docname="audit-workflow.svg"
   inkscape:version="0.92.3 (2405546, 2018-03-11)"
   inkscape:export-filename="C:\Users\derksk\OneDrive - Nyenrode Business Universiteit\Desktop\audit-fullaudit.png"
   inkscape:export-xdpi="377"
   inkscape:export-ydpi="377"><metadata
   id="metadata2713"><rdf:RDF><cc:Work
       rdf:about=""><dc:format>image/svg+xml</dc:format><dc:type
         rdf:resource="http://purl.org/dc/dcmitype/StillImage" /><dc:title /></cc:Work></rdf:RDF></metadata><defs
   id="defs2711" /><sodipodi:namedview
   pagecolor="#ffffff"
   bordercolor="#666666"
   borderopacity="1"
   objecttolerance="10"
   gridtolerance="10"
   guidetolerance="10"
   inkscape:pageopacity="0"
   inkscape:pageshadow="2"
   inkscape:window-width="1920"
   inkscape:window-height="1001"
   id="namedview2709"
   showgrid="false"
   inkscape:zoom="4.77"
   inkscape:cx="-11.784753"
   inkscape:cy="20.210321"
   inkscape:window-x="-9"
   inkscape:window-y="-9"
   inkscape:window-maximized="1"
   inkscape:current-layer="Layer_1" />









<path
   inkscape:connector-curvature="0"
   style="fill:#fb8c00;stroke-width:0.12046072;fill-opacity:1"
   d="m 32.997391,40.009576 v -2.812654 l -4.952754,4.687753 4.952754,4.687748 v -2.812649 h 3.962199 v 11.250599 c -0.614256,0 -1.218354,-0.01878 -1.822457,-0.06547 L 34.215749,50.17246 c -1.297681,-0.140539 -2.5557,-0.374927 -3.774055,-0.712316 l -2.783505,4.087587 C 26.50948,53.181959 25.38979,52.741569 24.310246,52.235255 l 1.089702,-4.74406 c -1.129362,-0.590545 -2.189077,-1.26578 -3.189785,-2.034409 l -4.229668,2.7655 c -0.91123,-0.749855 -1.782798,-1.574787 -2.575528,-2.437262 l 2.922316,-4.003357 c -0.812076,-0.947161 -1.525486,-1.950174 -2.149417,-3.019112 l -5.012241,1.0314 C 10.630688,38.772174 10.1654,37.712392 9.7789491,36.625144 L 14.097615,33.990575 C 13.741149,32.837409 13.493512,31.6467 13.345027,30.418458 L 8.3027961,29.546371 c -0.04933,-0.571777 -0.06916,-1.143555 -0.06916,-1.724944 H 20.120241 v -3.750203 h -2.971654 l 4.952754,-4.687748 4.95275,4.687748 h -2.971654 v 3.750203 h 5.388536 c 0,3.909507 3.358101,7.087932 7.488617,7.087932 v 5.100217 z m 0,0"
   id="path5386" /><path
   inkscape:connector-curvature="0"
   style="fill:#006df0;stroke-width:0.12046072;fill-opacity:1"
   d="m 60.574158,30.418458 c -0.14849,1.228242 -0.396126,2.418951 -0.752588,3.572117 l 4.318662,2.634569 c -0.386444,1.087248 -0.851739,2.14703 -1.38667,3.168814 l -5.012247,-1.0314 c -0.623926,1.068938 -1.337338,2.071951 -2.149413,3.019111 l 2.922316,4.003358 c -0.792731,0.862474 -1.664298,1.687407 -2.575528,2.437266 l -4.229668,-2.7655 c -1.000708,0.768629 -2.060424,1.443864 -3.189785,2.034408 l 1.089702,4.744061 c -1.079544,0.506314 -2.199234,0.946704 -3.347944,1.312476 l -2.783504,-4.087587 c -1.218359,0.337389 -2.476378,0.571777 -3.774055,0.712316 L 38.782048,54.94491 C 38.177949,54.9916 37.57385,55.01038 36.95959,55.01038 V 43.759774 h -3.962199 v 2.812649 l -4.952754,-4.687748 4.952754,-4.687753 v 2.812654 h 3.962199 v -5.100217 c 4.130518,0 7.488619,-3.178425 7.488619,-7.087932 h 5.388535 v 3.750198 h -2.97165 l 4.952753,4.687748 4.95275,-4.687748 h -2.97165 v -3.750198 h 11.886604 c 0,0.581389 -0.01984,1.153167 -0.06915,1.724944 z m 0,0"
   id="path5388" /><path
   inkscape:connector-curvature="0"
   style="fill:#fb8c00;stroke-width:0.12046072;fill-opacity:1"
   d="m 53.798947,31.571625 h 2.97165 l -4.95275,4.687748 -4.952753,-4.687748 h 2.97165 v -3.750198 h -5.388535 c 0,-3.909513 -3.358101,-7.087937 -7.488619,-7.087937 v -5.100217 h 3.962204 v 2.812653 l 4.95275,-4.687752 -4.95275,-4.6877467 V 11.883075 H 36.95959 V 0.63247614 c 0.61426,0 1.218359,0.018776 1.822458,0.065466 l 0.921388,4.77244346 c 1.297677,0.1405376 2.555696,0.3749266 3.774055,0.7123162 l 2.783504,-4.0875882 c 1.14871,0.3657717 2.2684,0.806162 3.347944,1.312477 l -1.089702,4.7440567 c 1.129361,0.590548 2.189077,1.265784 3.189785,2.0344117 L 55.93869,7.4201034 c 0.911226,0.7503139 1.782797,1.5752469 2.575528,2.4377219 l -2.922316,4.0033577 c 0.812075,0.94716 1.525487,1.950174 2.149413,3.01911 l 5.012247,-1.031395 c 0.534931,1.021779 1.000226,2.081562 1.38667,3.168809 l -4.318662,2.634569 c 0.356462,1.153166 0.604098,2.343876 0.752588,3.572118 l 5.04223,0.872086 c 0.0493,0.571778 0.06915,1.143555 0.06915,1.72495 H 53.798947 Z m 0,0"
   id="path5390" /><path
   inkscape:connector-curvature="0"
   style="fill:#006df0;stroke-width:0.12046072;fill-opacity:1"
   d="M 40.921794,18.445926 V 15.633273 H 36.95959 v 5.100217 c -4.130516,0 -7.488617,3.178424 -7.488617,7.087937 h -5.388536 v -3.750203 h 2.971651 l -4.95275,-4.687748 -4.952754,4.687748 h 2.971654 v 3.750203 H 8.2336341 c 0,-0.581395 0.01984,-1.153172 0.06916,-1.72495 l 5.0422309,-0.872086 c 0.148485,-1.228242 0.396122,-2.418951 0.752588,-3.572118 L 9.7789471,19.017704 c 0.3864509,-1.087247 0.8517389,-2.147029 1.3866759,-3.168809 l 5.012241,1.031396 c 0.62393,-1.068937 1.337341,-2.07195 2.149417,-3.019111 L 15.404965,9.8578223 c 0.79273,-0.862475 1.664297,-1.687407 2.575528,-2.4377217 l 4.229668,2.7659554 C 23.210869,9.4174283 24.270584,8.7421923 25.399946,8.1516443 L 24.310247,3.4075882 C 25.389791,2.9012732 26.509481,2.460883 27.65819,2.0951113 l 2.783505,4.0875882 C 31.66005,5.8453099 32.918068,5.6109208 34.21575,5.4703833 l 0.921384,-4.77244356 c 0.604103,-0.04669 1.208201,-0.065466 1.822457,-0.065466 V 11.883075 h 3.962204 V 9.0704273 l 4.952749,4.6877467 z m 0,0"
   id="path5392" /></svg>