<?xml version="1.0" encoding="UTF-8" standalone="no"?>
<!-- Generator: Adobe Illustrator 16.0.0, SVG Export Plug-In . SVG Version: 6.00 Build 0)  -->

<svg
   xmlns:dc="http://purl.org/dc/elements/1.1/"
   xmlns:cc="http://creativecommons.org/ns#"
   xmlns:rdf="http://www.w3.org/1999/02/22-rdf-syntax-ns#"
   xmlns:svg="http://www.w3.org/2000/svg"
   xmlns="http://www.w3.org/2000/svg"
   xmlns:sodipodi="http://sodipodi.sourceforge.net/DTD/sodipodi-0.dtd"
   xmlns:inkscape="http://www.inkscape.org/namespaces/inkscape"
   version="1.1"
   id="Layer_1"
   x="0px"
   y="0px"
   width="74px"
   height="56px"
   viewBox="0 0 74 56"
   enable-background="new 0 0 74 56"
   xml:space="preserve"
   sodipodi:docname="audit-planning-2.svg"
   inkscape:version="0.92.3 (2405546, 2018-03-11)"><metadata
   id="metadata2713"><rdf:RDF><cc:Work
       rdf:about=""><dc:format>image/svg+xml</dc:format><dc:type
         rdf:resource="http://purl.org/dc/dcmitype/StillImage" /><dc:title></dc:title></cc:Work></rdf:RDF></metadata><defs
   id="defs2711"><pattern
     y="0"
     x="0"
     height="6"
     width="6"
     patternUnits="userSpaceOnUse"
     id="EMFhbasepattern" /></defs><sodipodi:namedview
   pagecolor="#ffffff"
   bordercolor="#666666"
   borderopacity="1"
   objecttolerance="10"
   gridtolerance="10"
   guidetolerance="10"
   inkscape:pageopacity="0"
   inkscape:pageshadow="2"
   inkscape:window-width="1920"
   inkscape:window-height="1001"
   id="namedview2709"
   showgrid="false"
   inkscape:zoom="7.54"
   inkscape:cx="28.223298"
   inkscape:cy="31.35303"
   inkscape:window-x="-9"
   inkscape:window-y="-9"
   inkscape:window-maximized="1"
   inkscape:current-layer="029---Peice-of-the-puzzle" />









<g
   transform="matrix(1.088375,0,0,0.90872422,5.0422464,1.1531756)"
   style="fill:none;fill-rule:evenodd;stroke:none;stroke-width:1"
   id="Page-1"><g
     style="fill-rule:nonzero"
     id="029---Peice-of-the-puzzle"
     transform="translate(0,-1)"><path
       inkscape:connector-curvature="0"
       style="fill:#fb8c00;fill-opacity:1;stroke:none;stroke-width:1.1337775;stroke-miterlimit:4;stroke-dasharray:none;stroke-opacity:1"
       d="m 23.265058,51.578765 c -0.146467,0.512219 -0.225329,1.057378 -0.225329,1.62202 0,3.041035 2.295218,5.506662 5.127472,5.506662 2.831622,0 5.127471,-2.465627 5.127471,-5.506662 0,-3.041029 -2.295849,-5.506657 -5.127471,-5.506657 -0.524512,0 -1.030876,0.08404 -1.507822,0.241991 l 7.917163,-8.501978 -7.917163,-8.501982 c 0.147715,0.511542 0.225955,1.055353 0.225955,1.618655 0,3.04103 -2.295851,5.506659 -5.127471,5.506659 -2.832256,0 -5.127475,-2.465629 -5.127475,-5.506659 0,-3.04103 2.295219,-5.506657 5.127475,-5.506657 0.525138,0 1.032754,0.08537 1.510947,0.244007 l -0.0012,0.0016 L 15.34859,18.784363 -3.8794324,39.434334 15.34859,60.084303 Z m 0,0"
       id="path2685" /><path
       inkscape:connector-curvature="0"
       style="fill:#006df0;fill-opacity:1;stroke:none;stroke-width:1.17038798;stroke-miterlimit:4;stroke-dasharray:none;stroke-opacity:1"
       d="m 34.115835,8.892948 c 0.151801,-0.5266429 0.234184,-1.0871537 0.234184,-1.6677082 0,-3.1266992 -2.379476,-5.6617847 -5.314246,-5.6617847 -2.935425,0 -5.314254,2.5350855 -5.314254,5.6617847 0,3.1266962 2.378829,5.6617842 5.314254,5.6617842 0.542972,0 1.067781,-0.08641 1.5621,-0.248808 l -8.204915,8.741485 8.204915,8.741484 c -0.153101,-0.525954 -0.233536,-1.085084 -0.233536,-1.664255 0,-3.126696 2.378827,-5.661783 5.314252,-5.661783 2.93477,0 5.314247,2.535087 5.314247,5.661783 0,3.126697 -2.379477,5.661784 -5.314247,5.661784 -0.544919,0 -1.071024,-0.08778 -1.566645,-0.250192 l 0.0013,-0.002 8.20816,8.744946 L 62.249766,21.379748 42.321317,0.14805739 Z m 0,0"
       id="path2687" /><path
       style="stroke:none;stroke-width:0.12076093"
       inkscape:connector-curvature="0"
       d="m 28.159393,30.929533 c -0.244969,0 -0.489466,-0.09586 -0.675639,-0.286136 L 13.149747,15.99305 c -0.373749,-0.381996 -0.373749,-0.999106 0,-1.381101 L 27.483754,-0.03839444 c 0.373277,-0.381999 0.977528,-0.381999 1.350811,0 L 43.168572,14.611949 c 0.373744,0.381995 0.373744,0.999105 0,1.381101 l -5.903448,6.034205 c -0.310757,0.318092 -0.795089,0.377706 -1.170703,0.144502 -0.37655,-0.232728 -0.548259,-0.69866 -0.41761,-1.127391 0.08399,-0.273262 0.127385,-0.562264 0.127385,-0.85842 0,-1.615255 -1.286422,-2.930069 -2.866801,-2.930069 -1.580851,0 -2.866802,1.314814 -2.866802,2.930069 0,1.615258 1.285951,2.930071 2.866802,2.930071 0.287423,0 0.571121,-0.04292 0.842678,-0.128765 0.421345,-0.132101 0.873481,0.04483 1.098851,0.429687 0.2263,0.384859 0.167977,0.877017 -0.142313,1.194634 l -5.902046,6.031824 c -0.186175,0.190279 -0.430675,0.286136 -0.675172,0.286136 z M 15.176196,15.302499 28.159393,28.571742 31.73776,24.913925 c -2.055382,-0.544618 -3.578367,-2.457935 -3.578367,-4.727979 0,-2.692571 2.143099,-4.883447 4.778002,-4.883447 2.220557,0 4.092562,1.557074 4.625888,3.658771 L 41.142117,15.302499 28.159393,2.0332567 Z m 0,0"
       id="path2691" /><path
       style="stroke:none;stroke-width:0.12076093"
       inkscape:connector-curvature="0"
       d="m 13.825386,60.230222 c -0.254298,0 -0.496932,-0.102533 -0.675639,-0.286139 L -1.184261,45.29374 c -0.3737487,-0.381999 -0.3737487,-0.999105 0,-1.381101 L 13.149747,29.262296 c 0.373282,-0.381999 0.977528,-0.381999 1.350811,0 l 5.903909,6.034203 c 0.310758,0.317137 0.370018,0.811682 0.141384,1.196064 -0.227237,0.383901 -0.681242,0.560832 -1.101649,0.426827 -0.268764,-0.0868 -0.552456,-0.129719 -0.840814,-0.129719 -1.58085,0 -2.866801,1.314814 -2.866801,2.930068 0,1.615259 1.285951,2.930068 2.866801,2.930068 1.580379,0 2.866802,-1.314809 2.866802,-2.930068 0,-0.293769 -0.04247,-0.584201 -0.126451,-0.86128 -0.128782,-0.42873 0.0448,-0.892756 0.420407,-1.124527 0.375617,-0.230345 0.857148,-0.17073 1.168839,0.146884 l 5.90158,6.031823 c 0.373749,0.381996 0.373749,0.999102 0,1.381101 l -4.254011,4.348364 c 2.055381,0.544619 3.578839,2.457939 3.578839,4.727978 0,2.692574 -2.143571,4.88345 -4.778003,4.88345 -2.221024,0 -4.093033,-1.5566 -4.626359,-3.658769 l -4.254473,4.34932 c -0.178708,0.183606 -0.421341,0.286139 -0.675172,0.286139 z M 0.84218863,44.603189 13.825386,57.872433 19.05319,52.530206 c 0.311691,-0.317614 0.791359,-0.378178 1.168839,-0.146884 0.376546,0.232728 0.548254,0.695797 0.41854,1.124527 -0.08305,0.27708 -0.12598,0.567511 -0.12598,0.862233 0,1.615259 1.285951,2.930072 2.866801,2.930072 1.580379,0 2.866802,-1.314813 2.866802,-2.930072 0,-1.615254 -1.286423,-2.930067 -2.866802,-2.930067 -0.287895,0 -0.571587,0.04292 -0.843153,0.128761 -0.421336,0.130196 -0.874411,-0.04578 -1.098847,-0.429686 -0.2263,-0.384855 -0.167973,-0.877017 0.142317,-1.194155 l 5.226403,-5.341746 -3.578834,-3.657816 c -0.534259,2.102169 -2.40533,3.657816 -4.625888,3.657816 -2.634903,0 -4.778002,-2.190876 -4.778002,-4.88345 0,-2.270039 1.522986,-4.183359 3.579301,-4.727979 l -3.579301,-3.657817 z m 0,0"
       id="path2693" /><path
       style="stroke:none;stroke-width:0.12076093"
       inkscape:connector-curvature="0"
       d="m 42.493399,60.230222 c -0.244968,0 -0.489468,-0.09586 -0.675638,-0.286139 l -5.903915,-6.034206 c -0.310757,-0.317138 -0.370018,-0.811206 -0.141379,-1.196064 0.2263,-0.383902 0.67937,-0.561785 1.101644,-0.426824 0.268765,0.0868 0.552457,0.129715 0.841286,0.129715 1.580379,0 2.866801,-1.314809 2.866801,-2.930068 0,-1.615258 -1.286422,-2.930067 -2.866801,-2.930067 -1.58085,0 -2.866805,1.314809 -2.866805,2.930067 0,0.293772 0.04198,0.584201 0.125983,0.861281 0.128782,0.42873 -0.0448,0.892755 -0.420407,1.124526 -0.374683,0.229388 -0.857148,0.171684 -1.168839,-0.146884 L 27.483754,45.29374 c -0.373749,-0.381999 -0.373749,-0.999105 0,-1.381101 l 4.254006,-4.348367 c -2.055382,-0.544622 -3.578367,-2.457939 -3.578367,-4.72798 0,-2.692573 2.143099,-4.88345 4.778002,-4.88345 2.220557,0 4.092562,1.557078 4.625888,3.658775 l 4.254478,-4.349321 c 0.358344,-0.366259 0.992457,-0.366259 1.350811,0 l 14.334,14.650343 c 0.37375,0.381996 0.37375,0.999102 0,1.381101 l -14.334,14.650343 c -0.186174,0.190283 -0.430676,0.286139 -0.675173,0.286139 z m -3.579772,-6.015606 3.579772,3.657817 12.982724,-13.269244 -12.982724,-13.269246 -5.228275,5.342226 c -0.310757,0.317614 -0.790424,0.379136 -1.168835,0.146884 -0.376551,-0.232727 -0.548258,-0.695796 -0.418544,-1.124526 0.08305,-0.27708 0.126451,-0.567035 0.126451,-0.862235 0,-1.615257 -1.286422,-2.930071 -2.866801,-2.930071 -1.580851,0 -2.866802,1.314814 -2.866802,2.930071 0,1.615255 1.285951,2.930069 2.866802,2.930069 0.287423,0 0.571121,-0.04292 0.842678,-0.128762 0.421345,-0.133058 0.873481,0.04483 1.098851,0.429683 0.2263,0.384859 0.167977,0.877021 -0.142313,1.194635 l -5.226407,5.341272 3.578834,3.657814 c 0.534259,-2.102169 2.405335,-3.657814 4.626359,-3.657814 2.634432,0 4.778002,2.190873 4.778002,4.883447 0,2.27004 -1.523456,4.18336 -3.579772,4.72798 z m 0,0"
       id="path2695" /></g></g></svg>