<?xml version="1.0" encoding="UTF-8" standalone="no"?>
<!-- Generator: Adobe Illustrator 16.0.0, SVG Export Plug-In . SVG Version: 6.00 Build 0)  -->

<svg
   xmlns:dc="http://purl.org/dc/elements/1.1/"
   xmlns:cc="http://creativecommons.org/ns#"
   xmlns:rdf="http://www.w3.org/1999/02/22-rdf-syntax-ns#"
   xmlns:svg="http://www.w3.org/2000/svg"
   xmlns="http://www.w3.org/2000/svg"
   xmlns:sodipodi="http://sodipodi.sourceforge.net/DTD/sodipodi-0.dtd"
   xmlns:inkscape="http://www.inkscape.org/namespaces/inkscape"
   version="1.1"
   id="Layer_1"
   x="0px"
   y="0px"
   width="74px"
   height="56px"
   viewBox="5.657 4.047 74 56"
   enable-background="new 5.657 4.047 74 56"
   xml:space="preserve"
   sodipodi:docname="bain-module.svg"
   inkscape:version="0.92.3 (2405546, 2018-03-11)"><metadata
   id="metadata971"><rdf:RDF><cc:Work
       rdf:about=""><dc:format>image/svg+xml</dc:format><dc:type
         rdf:resource="http://purl.org/dc/dcmitype/StillImage" /></cc:Work></rdf:RDF></metadata><defs
   id="defs969"><inkscape:perspective
     id="perspective10"
     inkscape:persp3d-origin="372.04724 : 350.78739 : 1"
     inkscape:vp_z="744.09448 : 526.18109 : 1"
     inkscape:vp_y="0 : 1000 : 0"
     inkscape:vp_x="0 : 526.18109 : 1"
     sodipodi:type="inkscape:persp3d" /></defs><sodipodi:namedview
   pagecolor="#ffffff"
   bordercolor="#666666"
   borderopacity="1"
   objecttolerance="10"
   gridtolerance="10"
   guidetolerance="10"
   inkscape:pageopacity="0"
   inkscape:pageshadow="2"
   inkscape:window-width="1920"
   inkscape:window-height="1001"
   id="namedview967"
   showgrid="false"
   inkscape:zoom="7.88"
   inkscape:cx="37"
   inkscape:cy="29.48347"
   inkscape:window-x="-9"
   inkscape:window-y="-9"
   inkscape:window-maximized="1"
   inkscape:current-layer="Layer_1" />
<rect
   x="5.578"
   y="3.988"
   fill="#919191"
   width="8"
   height="54"
   id="rect894" />
<rect
   x="5.578"
   y="51.988"
   fill="#919191"
   width="74"
   height="8"
   id="rect896" />
<path
   opacity="0.6"
   fill="#4B4B4B"
   enable-background="new    "
   d="M5.863,3.948l0.585,13.745L6.905,31.44  c0.329,9.165,0.477,18.333,0.701,27.499L6.88,58.219c12.167,0.078,24.33,0.395,36.495,0.588l18.245,0.486  c6.081,0.198,12.162,0.389,18.242,0.655c-6.085,0.103-12.169,0.125-18.255,0.158l-18.25-0.011  c-12.166-0.14-24.333-0.154-36.497-0.408l-0.717-0.014l-0.009-0.707c-0.111-9.168-0.3-18.336-0.307-27.506L5.781,17.705L5.863,3.948  z"
   id="path898" />
<g
   opacity="0.5"
   id="g902">
	<polygon
   fill="#717171"
   points="79.46,59.953 5.863,59.059 5.871,3.988 7.871,3.988 7.863,57.082 79.485,57.963  "
   id="polygon900" />
</g>
<polygon
   fill="#717171"
   points="13.863,3.948 12.363,53.949 79.863,51.949 13.863,51.949 "
   id="polygon904" />










<rect
   x="68.578"
   y="15.988"
   fill="#919191"
   width="4"
   height="20"
   id="rect926" />
<rect
   x="64.578"
   y="11.988"
   fill="#919191"
   width="12"
   height="4"
   id="rect928" />
<rect
   x="68.578"
   y="37.988"
   fill="#919191"
   width="4"
   height="8"
   id="rect930" />
<rect
   x="64.578"
   y="45.988"
   fill="#919191"
   width="12"
   height="4"
   id="rect932" />
<polygon
   fill="#4B4B4B"
   points="72.578,13.988 70.578,13.988 70.578,23.988 72.578,23.988 72.578,15.988 76.578,15.988   76.578,13.988 "
   id="polygon934" />
<rect
   x="64.578"
   y="13.988"
   fill="#4B4B4B"
   width="4"
   height="2"
   id="rect936" />
<polygon
   fill="#4B4B4B"
   points="68.578,45.988 64.578,45.988 64.578,47.988 70.578,47.988 70.578,37.988 68.578,37.988 "
   id="polygon938" />
<rect
   x="72.578"
   y="45.988"
   fill="#4B4B4B"
   width="4"
   height="2"
   id="rect940" />
<circle
   fill="#e3da33"
   cx="70.201"
   cy="31.613"
   r="7.5"
   id="circle942"
   style="fill:#e3da33;fill-opacity:1" />
<path
   fill="#d4a837"
   d="M74.971,27.984c0.146,0.52,0.23,1.062,0.23,1.629c0,3.312-2.688,6-6,6c-1.949,0-3.674-0.934-4.77-2.371  c0.711,2.52,3.021,4.371,5.77,4.371c3.312,0,6-2.688,6-6C76.201,30.248,75.74,28.992,74.971,27.984z"
   id="path944"
   style="fill:#d4a837;fill-opacity:1" />
<rect
   x="24.578"
   y="15.988"
   fill="#919191"
   width="4"
   height="20"
   id="rect946" />
<rect
   x="20.578"
   y="11.988"
   fill="#919191"
   width="12"
   height="4"
   id="rect948" />
<rect
   x="24.578"
   y="37.988"
   fill="#919191"
   width="4"
   height="8"
   id="rect950" />
<rect
   x="20.578"
   y="45.988"
   fill="#919191"
   width="12"
   height="4"
   id="rect952" />
<polygon
   fill="#4B4B4B"
   points="26.578,13.988 26.578,23.988 28.578,23.988 28.578,15.988 32.578,15.988 32.578,13.988   28.578,13.988 "
   id="polygon954" />
<rect
   x="20.578"
   y="13.988"
   fill="#4B4B4B"
   width="4"
   height="2"
   id="rect956" />
<polygon
   fill="#4B4B4B"
   points="24.578,45.988 20.578,45.988 20.578,47.988 26.578,47.988 26.578,37.988 24.578,37.988 "
   id="polygon958" />
<rect
   x="28.578"
   y="45.988"
   fill="#4B4B4B"
   width="4"
   height="2"
   id="rect960" />
<circle
   fill="#FB8C00"
   cx="26.201"
   cy="31.613"
   r="7.5"
   id="circle962"
   style="fill:#FB8C00;fill-opacity:1" />
<path
   d="M30.971,27.984c0.146,0.52,0.23,1.062,0.23,1.629c0,3.312-2.688,6-6,6c-1.949,0-3.674-0.934-4.77-2.371  c0.711,2.52,3.021,4.371,5.77,4.371c3.312,0,6-2.688,6-6C32.201,30.248,31.74,28.992,30.971,27.984z"
   id="path964"
   style="fill:#C65000;fill-opacity:1"
   fill="#C65000" />
<g
   id="g1072"
   transform="matrix(0.36791622,0,0,0.3563447,40.24078,21.96845)"
   style="fill:#010000;fill-opacity:1"><path
     id="path1014"
     d="M 37.059,8 H 26 16 4.941 C 2.224,8 0,10.282 0,13 c 0,2.718 2.224,5 4.941,5 H 16 26 37.059 C 39.776,18 42,15.718 42,13 42,10.282 39.776,8 37.059,8 Z"
     style="fill:#010000;fill-opacity:1"
     inkscape:connector-curvature="0" /><path
     id="path1016"
     d="M 37.059,24 H 26 16 4.941 C 2.224,24 0,26.282 0,29 c 0,2.718 2.224,5 4.941,5 H 16 26 37.059 C 39.776,34 42,31.718 42,29 42,26.282 39.776,24 37.059,24 Z"
     style="fill:#010000;fill-opacity:1"
     inkscape:connector-curvature="0" /><g
     id="g1018"
     style="fill:#010000;fill-opacity:1">
</g><g
     id="g1020"
     style="fill:#010000;fill-opacity:1">
</g><g
     id="g1022"
     style="fill:#010000;fill-opacity:1">
</g><g
     id="g1024"
     style="fill:#010000;fill-opacity:1">
</g><g
     id="g1026"
     style="fill:#010000;fill-opacity:1">
</g><g
     id="g1028"
     style="fill:#010000;fill-opacity:1">
</g><g
     id="g1030"
     style="fill:#010000;fill-opacity:1">
</g><g
     id="g1032"
     style="fill:#010000;fill-opacity:1">
</g><g
     id="g1034"
     style="fill:#010000;fill-opacity:1">
</g><g
     id="g1036"
     style="fill:#010000;fill-opacity:1">
</g><g
     id="g1038"
     style="fill:#010000;fill-opacity:1">
</g><g
     id="g1040"
     style="fill:#010000;fill-opacity:1">
</g><g
     id="g1042"
     style="fill:#010000;fill-opacity:1">
</g><g
     id="g1044"
     style="fill:#010000;fill-opacity:1">
</g><g
     id="g1046"
     style="fill:#010000;fill-opacity:1">
</g></g><g
   id="layer1"
   inkscape:label="Layer 1"
   transform="matrix(0.02602943,0,0,0.02210667,38.294,28.138519)"><path
     id="text7927"
     d="m 521,394.36218 c 1.99948,-0.66601 5.33281,-0.99934 10,-1 l 17,3 c 1.33278,0.66732 2.66612,1.33399 4,2 3.99944,2.00065 7.99944,5.00065 12,9 3.99943,4.00064 6.99943,8.00064 9,12 3.33276,6.6673 4.99942,14.00062 5,22 -5.8e-4,16.0006 -6.3339,28.66725 -19,38 -2.66722,2.00057 -60.66716,36.33387 -174,103 -112.66694,66.00041 -169.33355,99.33371 -170,100 -2.1e-4,3.7e-4 56.6664,33.33367 170,100 113.33284,66.66687 171.33278,101.00017 174,103 12.6661,9.33349 18.99942,22.00015 19,38 l -3,18 -2,4 c -2.00057,4.00011 -5.00057,8.0001 -9,12 -4.00056,4.00009 -8.00056,7.00009 -12,9 -7.33388,3.33342 -15.00054,5.00008 -23,5 -7.33386,8e-5 -14.33385,-1.66658 -21,-5 l -380,-224 c -6.00012,-3.99968 -11.00012,-8.99968 -15,-15 -2.66678,-4.66633 -4.66678,-9.99966 -6,-16 v -57 c 1.33322,-5.99959 3.33322,-11.33292 6,-16 3.99988,-6.66624 8.99988,-11.99957 15,-16 l 380,-223 c 3.99949,-2.66601 8.33282,-4.33267 13,-5"
     style="font-style:normal;font-variant:normal;font-weight:normal;font-stretch:normal;font-size:1000px;font-family:OCRA;-inkscape-font-specification:OCRA;fill:#000000;fill-opacity:1;stroke:none;stroke-width:1px;stroke-linecap:butt;stroke-linejoin:miter;stroke-opacity:1"
     inkscape:connector-curvature="0" /></g><g
   id="layer1-7"
   inkscape:label="Layer 1"
   transform="matrix(-0.02602877,1.8600729e-4,-1.579751e-4,-0.02210611,56.938531,29.763094)"
   style="fill:#010001;fill-opacity:1"><path
     id="text7927-8"
     d="m 521,394.36218 c 1.99948,-0.66601 5.33281,-0.99934 10,-1 l 17,3 c 1.33278,0.66732 2.66612,1.33399 4,2 3.99944,2.00065 7.99944,5.00065 12,9 3.99943,4.00064 6.99943,8.00064 9,12 3.33276,6.6673 4.99942,14.00062 5,22 -5.8e-4,16.0006 -6.3339,28.66725 -19,38 -2.66722,2.00057 -60.66716,36.33387 -174,103 -112.66694,66.00041 -169.33355,99.33371 -170,100 -2.1e-4,3.7e-4 56.6664,33.33367 170,100 113.33284,66.66687 171.33278,101.00017 174,103 12.6661,9.33349 18.99942,22.00015 19,38 l -3,18 -2,4 c -2.00057,4.00011 -5.00057,8.0001 -9,12 -4.00056,4.00009 -8.00056,7.00009 -12,9 -7.33388,3.33342 -15.00054,5.00008 -23,5 -7.33386,8e-5 -14.33385,-1.66658 -21,-5 l -380,-224 c -6.00012,-3.99968 -11.00012,-8.99968 -15,-15 -2.66678,-4.66633 -4.66678,-9.99966 -6,-16 v -57 c 1.33322,-5.99959 3.33322,-11.33292 6,-16 3.99988,-6.66624 8.99988,-11.99957 15,-16 l 380,-223 c 3.99949,-2.66601 8.33282,-4.33267 13,-5"
     style="font-style:normal;font-variant:normal;font-weight:normal;font-stretch:normal;font-size:1000px;font-family:OCRA;-inkscape-font-specification:OCRA;fill:#010001;fill-opacity:1;stroke:none;stroke-width:1px;stroke-linecap:butt;stroke-linejoin:miter;stroke-opacity:1"
     inkscape:connector-curvature="0" /></g></svg>