<?xml version="1.0" encoding="utf-8"?>
<!-- Generator: Adobe Illustrator 22.1.0, SVG Export Plug-In . SVG Version: 6.00 Build 0)  -->
<svg version="1.1" id="Layer_1" xmlns="http://www.w3.org/2000/svg" xmlns:xlink="http://www.w3.org/1999/xlink" x="0px" y="0px"
	 viewBox="0 0 563.6 578.6" style="enable-background:new 0 0 563.6 578.6;" xml:space="preserve">
<style type="text/css">
	.st0{fill:#DADADA;}
	.st1{fill:#333333;}
	.st2{fill:none;stroke:#333333;stroke-width:3;stroke-linejoin:round;stroke-miterlimit:10;}
	.st3{clip-path:url(#SVGID_2_);}
	.st4{fill:#FFFFFF;}
	.st5{fill:none;stroke:#231F20;stroke-width:0.8429;stroke-miterlimit:10;}
	.st6{fill:#8CC63E;}
</style>
<path class="st0" d="M0,62.8h125.6v439.7H5c-2.8,0-5-2.2-5-5V62.8z"/>
<g>
	<path class="st1" d="M497.5,3c1.1,0,2,0.9,2,2v492.5c0,1.1-0.9,2-2,2H5c-1.1,0-2-0.9-2-2V5c0-1.1,0.9-2,2-2H497.5 M497.5,0H5
		C2.3,0,0,2.2,0,5v492.5c0,2.8,2.3,5,5,5h492.5c2.8,0,5-2.3,5-5V5C502.5,2.2,500.3,0,497.5,0L497.5,0z"/>
</g>
<line class="st2" x1="125.6" y1="0" x2="125.6" y2="502.5"/>
<line class="st2" x1="251.3" y1="0" x2="251.3" y2="502.5"/>
<line class="st2" x1="376.9" y1="0" x2="376.9" y2="502.5"/>
<line class="st2" x1="502.5" y1="62.8" x2="0" y2="62.8"/>
<path class="st1" d="M5,0h492.5c2.8,0,5,2.2,5,5v57.8H0V5C0,2.2,2.2,0,5,0z"/>
<line class="st2" x1="502.5" y1="125.6" x2="0" y2="125.6"/>
<line class="st2" x1="502.5" y1="188.4" x2="0" y2="188.4"/>
<line class="st2" x1="502.5" y1="251.3" x2="0" y2="251.3"/>
<line class="st2" x1="502.5" y1="314.1" x2="0" y2="314.1"/>
<line class="st2" x1="502.5" y1="376.9" x2="0" y2="376.9"/>
<line class="st2" x1="502.5" y1="439.7" x2="0" y2="439.7"/>
<g id="g10" transform="matrix(1.3333333,0,0,-1.3333333,0,443.444)">
	<g id="g12">
		<g>
			<defs>
				<rect id="SVGID_1_" x="96.6" y="-148.1" width="373.8" height="373.8"/>
			</defs>
			<clipPath id="SVGID_2_">
				<use xlink:href="#SVGID_1_"  style="overflow:visible;"/>
			</clipPath>
			<g id="g14" class="st3">
				<g id="g20" transform="translate(314.7841,166.2916)">
					<path id="path22" class="st4" d="M93.9-127.5c0-69.1-56-125.2-125.2-125.2c-69.1,0-125.2,56-125.2,125.2S-100.4-2.3-31.3-2.3
						C37.8-2.3,93.9-58.4,93.9-127.5"/>
				</g>
				<g id="g24" transform="translate(314.7841,166.2916)">
					<path id="path26" class="st5" d="M93.9-127.5c0-69.1-56-125.2-125.2-125.2c-69.1,0-125.2,56-125.2,125.2S-100.4-2.3-31.3-2.3
						C37.8-2.3,93.9-58.4,93.9-127.5z"/>
				</g>
				<g id="g28" transform="translate(196.1152,89.587)">
					<path id="path30" class="st6" d="M112.5-115.5c-1.4-0.3-2.5-1.3-2.8-2.7l-0.1-0.2c-0.1-0.4-0.1-0.7,0-1.1
						c0.1-0.6,0.3-1.2,0.6-1.7c0.1-0.2,0.2-0.3,0.4-0.5l0.1-0.1c0.6-0.5,1.2-0.9,1.9-1c0.2,0,0.4-0.1,0.6-0.1c1.8,0,3.3,1.3,3.6,3
						c0.2,1,0,1.9-0.6,2.7c-0.1,0.1-0.2,0.2-0.2,0.3c-0.5,0.6-1.3,1.1-2.1,1.2C113.5-115.4,113.1-115.3,112.5-115.5"/>
				</g>
				<g id="g32" transform="translate(242.4042,268.9478)">
					<path id="path34" class="st6" d="M105.3-143.6c-0.7-4-3.7-7.1-7.5-8L73.3-290.4c0.8-0.6,1.5-1.3,2-2.2c1.6-2.2,2.1-4.9,1.7-7.6
						c-0.9-4.8-5-8.4-10-8.4c-0.6,0-1.2,0.1-1.8,0.2c-2.2,0.4-4.2,1.5-5.7,3.2l-31.4-11.4c0-0.3-0.1-0.7-0.1-1
						c-1-5.5-5.7-9.5-11.3-9.5c-0.7,0-1.3,0.1-2,0.2c-3,0.5-5.6,2.2-7.4,4.7c-1.5,2.1-2.2,4.6-2,7.2L-28.1-297c-2-1.4-4.6-2-6.9-1.6
						c-2.4,0.4-4.5,1.8-6,3.8c-1.4,2-2,4.5-1.5,6.9c0.7,3.8,3.6,6.8,7.4,7.4l4.5,25.4c-3.3,1.9-5.1,5.8-4.4,9.5
						c0.8,4.4,4.6,7.6,9.1,7.6c0.6,0,1.1,0,1.6-0.1c2.4-0.4,4.5-1.8,5.9-3.8c0.1-0.1,0.2-0.2,0.2-0.3l14.1,4.6c0,0,0,0.1,0,0.1
						l0,0.3c0,0.1,0,0.3,0,0.4C-4-236.4-4-236-4-236c0.6,3.7,3.7,6.3,7.4,6.3c4.1,0,7.5-3.4,7.5-7.5c0-3.8-2.9-7-6.6-7.4l-2.7-14.9
						l17.7-9.9l-1.2-6.7l-38.6,21.6c-1.1-0.8-2.4-1.4-3.7-1.6l-4.5-25.5c1.1-0.7,2.1-1.6,2.9-2.6c1.4-2,2-4.4,1.5-6.9
						c0-0.2-0.1-0.4-0.1-0.5l32-17.3c2,2.8,5.2,4.5,8.6,4.7L39.9-169c-4,2.4-6.2,7.1-5.4,11.8c1,5.5,5.7,9.5,11.3,9.5
						c0.7,0,1.3-0.1,2-0.2c2.8-0.5,5.3-2,7-4.3l30.4,11c0,0.4,0.1,0.7,0.1,1.1c0.9,4.8,5,8.4,10,8.4c0.6,0,1.2-0.1,1.8-0.2l0,0
						C102.5-132.9,106.2-138.1,105.3-143.6 M170.2-175.7c-7.4,17.3-17.4,32.2-29.9,44.8c-12.6,12.5-27.5,22.5-44.8,29.9
						C78.2-93.7,60.1-90,41.1-90c-19,0-37.1-3.7-54.5-11.1c-17.3-7.4-32.2-17.4-44.8-29.9s-22.5-27.4-29.9-44.8
						c-7.4-17.3-11.1-35.5-11.1-54.5c0-19,3.7-37.1,11.1-54.5c7.4-17.3,17.4-32.2,29.9-44.8c12.5-12.5,27.4-22.5,44.8-29.9
						c17.3-7.4,35.5-11.1,54.5-11.1c19,0,37.1,3.7,54.4,11.1c17.3,7.4,32.2,17.4,44.8,29.9c12.6,12.5,22.5,27.4,29.9,44.8
						c7.4,17.3,11.1,35.5,11.1,54.5C181.3-211.2,177.6-193,170.2-175.7"/>
				</g>
				<g id="g36" transform="translate(79.7939,98.6568)">
					<path id="path38" class="st6" d="M130.8-116.9c-0.3,0.2-0.7,0.4-1.1,0.5c-0.2,0-0.3,0-0.5,0c-0.1,0-0.3,0-0.5-0.1
						c-1.2-0.3-2-1.1-2.2-2.2c-0.1-0.7,0-1.5,0.5-2.1c0.4-0.6,1.1-1,1.8-1.1c0.5-0.1,1-0.1,1.6,0.2c0.7,0.3,1.3,1,1.5,1.8
						c0,0.1,0.1,0.2,0.1,0.4c0.1,0.7-0.1,1.4-0.5,2C131.3-117.3,131.1-117.1,130.8-116.9"/>
				</g>
				<g id="g40" transform="translate(142.1728,68.4288)">
					<path id="path42" class="st6" d="M121-112.1l-0.2,0.3c-0.8,0.9-1.8,1.5-2.9,1.7c-0.3,0.1-0.6,0.1-0.9,0.1c-1.8,0-3.5-1-4.4-2.6
						c-0.3-0.5-0.5-1-0.6-1.6c-0.1-0.3-0.1-0.7-0.1-1.2c0-0.9,0.4-1.8,0.9-2.6c0.8-1.1,1.9-1.8,3.2-2.1c2.7-0.5,5.3,1.3,5.8,4v0.4
						l0.1,0.1c0.1,0.8,0,1.6-0.4,2.4C121.5-112.9,121.3-112.5,121-112.1"/>
				</g>
				<g id="g44" transform="translate(168.5888,245.4664)">
					<path id="path46" class="st6" d="M116.8-139.9c0.6-0.4,1.2-0.7,1.9-0.8c0.6-0.1,1.2-0.1,2.1,0.1c1.9,0.5,3.4,2,3.7,3.9l0,0.2
						c0.2,1.4-0.2,2.7-1,3.8c-0.8,1-1.9,1.6-3,1.8c-0.3,0.1-0.6,0.1-0.9,0.1c-2.4,0-4.5-1.7-4.9-4.1
						C114.3-136.9,115.2-138.8,116.8-139.9"/>
				</g>
				<g id="g48" transform="translate(121.561,155.588)">
					<path id="path50" class="st6" d="M124.2-125.8c1.1,0,2,0.9,2,2c0,1.1-0.9,2-2,2c-1.1,0-2-0.9-2-2
						C122.2-124.9,123.1-125.8,124.2-125.8"/>
				</g>
				<g id="g52" transform="translate(116.9965,150.3834)">
					<path id="path54" class="st6" d="M125-125c-0.3,0.2-0.6,0.4-0.9,0.6c-0.4,0.3-0.7,0.6-0.9,0.9l-14.5-4.7c0-0.6,0-1.3-0.1-1.9
						c0-0.1-0.1-0.3-0.1-0.4l14.1-7.9L125-125z"/>
				</g>
				<g id="g60" transform="translate(84.9672,143.5499)">
					<path id="path62" class="st6" d="M130-123.9c0.3-0.2,0.7-0.4,1.1-0.4c0.3,0,0.6-0.1,1.1,0.1l0.6,0.3c0.7,0.4,1.2,1,1.4,1.8
						l0.1,0.3c0.1,0.7-0.1,1.4-0.5,2c-0.4,0.6-1.1,1-1.8,1.1c-0.1,0-0.3,0-0.5,0c-1.3,0-2.5-1-2.7-2.3l0,0
						C128.6-122.2,129.1-123.3,130-123.9"/>
				</g>
				<g id="g64" transform="translate(185.4364,249.4444)">
					<path id="path66" class="st6" d="M114.2-140.6c0-0.4-0.1-0.8-0.1-1.2c-0.8-4.7-4.5-8.3-9.1-9.2l-24-136.3
						c0.7-0.6,1.3-1.2,1.9-2l31.1,11.3c0,0.3,0.1,0.5,0.1,0.8c0.8,4.3,4.1,7.5,8.3,8.2l24.4,138.2c-0.6,0.4-1.1,0.9-1.6,1.4
						L114.2-140.6z"/>
				</g>
				<g id="g68" transform="translate(231.3515,275.3365)">
					<path id="path70" class="st6" d="M107-144.6c-0.2,0-0.4,0.1-0.6,0.1c-1.8,0-3.3-1.3-3.6-3l0-0.3c-0.2-1.9,1.1-3.7,3-4
						c0.7-0.1,1.3-0.1,1.9,0.2c1.2,0.4,2.1,1.5,2.3,2.8c0.2,1.3-0.2,2.6-1.2,3.4C108.2-145,107.6-144.7,107-144.6"/>
				</g>
				<g id="g72" transform="translate(200.7294,82.0118)">
					<path id="path74" class="st6" d="M111.8-114.3L111.8-114.3L111.8-114.3L111.8-114.3z"/>
				</g>
				<g id="g76" transform="translate(200.6044,87.8331)">
					<path id="path78" class="st6" d="M111.8-115.2c0.6-0.8,0.8-1.8,0.6-2.7c-0.3-1.8-1.8-3-3.6-3c-0.2,0-0.4,0-0.6,0.1
						c-0.7,0.1-1.3,0.4-1.9,1l-0.1,0.1c-0.2,0.2-0.3,0.3-0.4,0.5c-0.3,0.5-0.6,1.1-0.6,1.7c0,0.5,0,0.8,0,1.1l0.1,0.2
						c0.3,1.4,1.4,2.4,2.8,2.7c0.6,0.1,1,0.1,1.4,0c0.8-0.2,1.6-0.6,2.1-1.2C111.6-115,111.7-115.1,111.8-115.2 M108.9-113.6
						c-2.1,0-3.8-1.7-3.8-3.8c0-2.1,1.7-3.8,3.8-3.8c2.1,0,3.8,1.7,3.8,3.8C112.6-115.2,110.9-113.6,108.9-113.6"/>
				</g>
			</g>
		</g>
	</g>
</g>
</svg>
