<?xml version="1.0" encoding="UTF-8" standalone="no"?>
<!-- Created with Inkscape (http://www.inkscape.org/) -->

<svg
   xmlns:dc="http://purl.org/dc/elements/1.1/"
   xmlns:cc="http://creativecommons.org/ns#"
   xmlns:rdf="http://www.w3.org/1999/02/22-rdf-syntax-ns#"
   xmlns:svg="http://www.w3.org/2000/svg"
   xmlns="http://www.w3.org/2000/svg"
   xmlns:xlink="http://www.w3.org/1999/xlink"
   version="1.1"
   width="100%"
   height="100%"
   viewBox="0 0 48 48"
   id="svg13684">
  <defs
     id="defs3">
    <radialGradient
       cx="605.71002"
       cy="486.64999"
       r="117.14"
       id="radialGradient6719"
       xlink:href="#linearGradient5060"
       gradientUnits="userSpaceOnUse"
       gradientTransform="matrix(-2.7744,0,0,1.9697,112.76,-872.89)" />
    <linearGradient
       id="linearGradient5060">
      <stop
         id="stop5062"
         style="stop-color:#000000;stop-opacity:1"
         offset="0" />
      <stop
         id="stop5064"
         style="stop-color:#000000;stop-opacity:0"
         offset="1" />
    </linearGradient>
    <radialGradient
       cx="605.71002"
       cy="486.64999"
       r="117.14"
       id="radialGradient6717"
       xlink:href="#linearGradient5060"
       gradientUnits="userSpaceOnUse"
       gradientTransform="matrix(2.7744,0,0,1.9697,-1891.6,-872.89)" />
    <linearGradient
       x1="302.85999"
       y1="366.64999"
       x2="302.85999"
       y2="609.51001"
       id="linearGradient6715"
       gradientUnits="userSpaceOnUse"
       gradientTransform="matrix(2.7744,0,0,1.9697,-1892.2,-872.89)">
      <stop
         id="stop5050"
         style="stop-color:#000000;stop-opacity:0"
         offset="0" />
      <stop
         id="stop5056"
         style="stop-color:#000000;stop-opacity:1"
         offset="0.5" />
      <stop
         id="stop5052"
         style="stop-color:#000000;stop-opacity:0"
         offset="1" />
    </linearGradient>
    <linearGradient
       x1="-20.75"
       y1="29"
       x2="-19.5"
       y2="18.75"
       id="linearGradient6746"
       xlink:href="#linearGradient6687"
       gradientUnits="userSpaceOnUse" />
    <linearGradient
       id="linearGradient6687">
      <stop
         id="stop6689"
         style="stop-color:#ffffff;stop-opacity:1"
         offset="0" />
      <stop
         id="stop6691"
         style="stop-color:#ffffff;stop-opacity:0"
         offset="1" />
    </linearGradient>
    <linearGradient
       x1="-17.863001"
       y1="30.827999"
       x2="-20.822001"
       y2="25.014999"
       id="linearGradient6742"
       gradientUnits="userSpaceOnUse">
      <stop
         id="stop6721"
         style="stop-color:#73d216;stop-opacity:1"
         offset="0" />
      <stop
         id="stop6723"
         style="stop-color:#d5f7b3;stop-opacity:1"
         offset="1" />
    </linearGradient>
    <linearGradient
       x1="-16.386999"
       y1="24.454"
       x2="-9.7353001"
       y2="28.195999"
       id="linearGradient6740"
       gradientUnits="userSpaceOnUse">
      <stop
         id="stop6713"
         style="stop-color:#5b8ccb;stop-opacity:1"
         offset="0" />
      <stop
         id="stop6715"
         style="stop-color:#3465a4;stop-opacity:1"
         offset="1" />
    </linearGradient>
    <linearGradient
       x1="-22.976"
       y1="18.516001"
       x2="-14.36"
       y2="33.015999"
       id="linearGradient6738"
       gradientUnits="userSpaceOnUse">
      <stop
         id="stop6701"
         style="stop-color:#ff7171;stop-opacity:1"
         offset="0" />
      <stop
         id="stop6703"
         style="stop-color:#cc0000;stop-opacity:1"
         offset="1" />
    </linearGradient>
    <radialGradient
       cx="8.8243999"
       cy="3.7560999"
       r="37.751999"
       id="radialGradient15656"
       gradientUnits="userSpaceOnUse"
       gradientTransform="matrix(0.97165,0,0,1.0347,3.2404,0.49568)">
      <stop
         id="stop270"
         style="stop-color:#a3a3a3;stop-opacity:1"
         offset="0" />
      <stop
         id="stop271"
         style="stop-color:#4c4c4c;stop-opacity:1"
         offset="1" />
    </radialGradient>
    <radialGradient
       cx="33.966999"
       cy="35.737"
       r="86.708"
       id="radialGradient15658"
       gradientUnits="userSpaceOnUse"
       gradientTransform="matrix(0.96384,0,0,1.0431,-0.12482,-0.15197)">
      <stop
         id="stop260"
         style="stop-color:#fafafa;stop-opacity:1"
         offset="0" />
      <stop
         id="stop261"
         style="stop-color:#bbbbbb;stop-opacity:1"
         offset="1" />
    </radialGradient>
    <radialGradient
       cx="8.1436005"
       cy="7.2679"
       r="38.159"
       id="radialGradient15668"
       gradientUnits="userSpaceOnUse"
       gradientTransform="matrix(0.97478,0,0,1.0341,3.1619,0.55927)">
      <stop
         id="stop15664"
         style="stop-color:#ffffff;stop-opacity:1"
         offset="0" />
      <stop
         id="stop15666"
         style="stop-color:#f8f8f8;stop-opacity:1"
         offset="1" />
    </radialGradient>
    <radialGradient
       cx="28.284"
       cy="47.401001"
       r="13.804"
       id="radialGradient2462"
       gradientUnits="userSpaceOnUse"
       gradientTransform="scale(1.1642,0.85894)">
      <stop
         id="stop2458"
         style="stop-color:#000000;stop-opacity:1"
         offset="0" />
      <stop
         id="stop2460"
         style="stop-color:#000000;stop-opacity:0"
         offset="1" />
    </radialGradient>
  </defs>
  <g
     id="layer1">
    <g
       transform="matrix(0.021449,0,0,0.020868,43.328,41.154)"
       id="g6707">
      <rect
         width="1339.6"
         height="478.35999"
         x="-1559.3"
         y="-150.7"
         id="rect6709"
         style="opacity:0.40206;color:#000000;fill:url(#linearGradient6715)" />
      <path
         d="m -219.62,-150.68 v 478.33 c 142.88,0.9 345.4,-107.17 345.4,-239.2 0,-132.02 -159.44,-239.13 -345.4,-239.13 z"
         id="path6711"
         style="opacity:0.40206;color:#000000;fill:url(#radialGradient6717)" />
      <path
         d="m -1559.3,-150.68 v 478.33 c -142.8,0.9 -345.4,-107.17 -345.4,-239.2 0,-132.02 159.5,-239.13 345.4,-239.13 z"
         id="path6713"
         style="opacity:0.40206;color:#000000;fill:url(#radialGradient6719)" />
    </g>
    <rect
       width="34.997002"
       height="40.997002"
       rx="1.149"
       ry="1.149"
       x="6.5016999"
       y="3.5013001"
       id="rect15391"
       style="color:#000000;fill:url(#radialGradient15658);stroke:url(#radialGradient15656);stroke-linecap:round;stroke-linejoin:round;display:block" />
    <rect
       width="32.995998"
       height="38.995998"
       rx="0.14905"
       ry="0.14905"
       x="7.5033998"
       y="4.5018001"
       id="rect15660"
       style="color:#000000;fill:none;stroke:url(#radialGradient15668);stroke-linecap:round;stroke-linejoin:round;display:block" />
    <path
       d="M 10,6.0022 V 10.966 41.002 L 20,41 V 11 H 38 V 6.0022 H 10 z"
       id="rect13655"
       style="color:#000000;fill:#000000;fill-opacity:0.21053;fill-rule:evenodd" />
    <path
       d="m 37.5,10.502 h -27"
       id="path13660"
       style="fill:#000000;fill-opacity:0.15788999;fill-rule:evenodd;stroke:#000000;stroke-width:1px;stroke-linecap:square;stroke-opacity:0.19298" />
    <path
       d="M 37.501,16.5 H 10.499"
       id="path13662"
       style="fill:#000000;fill-opacity:0.15788999;fill-rule:evenodd;stroke:#000000;stroke-width:1px;stroke-linecap:square;stroke-opacity:0.19298" />
    <path
       d="M 37.501,22.5 H 10.499"
       id="path13664"
       style="fill:#000000;fill-opacity:0.15788999;fill-rule:evenodd;stroke:#000000;stroke-width:1px;stroke-linecap:square;stroke-opacity:0.19298" />
    <path
       d="M 37.501,28.5 H 10.499"
       id="path13666"
       style="fill:#000000;fill-opacity:0.15788999;fill-rule:evenodd;stroke:#000000;stroke-width:1px;stroke-linecap:square;stroke-opacity:0.19298" />
    <path
       d="M 37.501,34.5 H 10.5"
       id="path13668"
       style="fill:#000000;fill-opacity:0.15788999;fill-rule:evenodd;stroke:#000000;stroke-width:1px;stroke-linecap:square;stroke-opacity:0.19298" />
    <path
       d="M 37.501,40.5 H 10.499"
       id="path13682"
       style="fill:#000000;fill-opacity:0.15788999;fill-rule:evenodd;stroke:#000000;stroke-width:1px;stroke-linecap:square;stroke-opacity:0.19298" />
    <path
       d="M 37.512,13.5 H 10.5"
       id="path2464"
       style="fill:#000000;fill-opacity:0.15788999;fill-rule:evenodd;stroke:#000000;stroke-width:1px;stroke-linecap:square;stroke-opacity:0.19298" />
    <path
       d="M 37.501,19.5 H 10.499"
       id="path2466"
       style="fill:none;stroke:#000000;stroke-width:1px;stroke-linecap:square;stroke-opacity:0.19298" />
    <path
       d="M 37.501,25.5 H 10.499"
       id="path2468"
       style="fill:#000000;fill-opacity:0.15788999;fill-rule:evenodd;stroke:#000000;stroke-width:1px;stroke-linecap:square;stroke-opacity:0.19298" />
    <path
       d="M 37.501,31.5 H 10.499"
       id="path2470"
       style="fill:#000000;fill-opacity:0.15788999;fill-rule:evenodd;stroke:#000000;stroke-width:1px;stroke-linecap:square;stroke-opacity:0.19298" />
    <path
       d="M 37.501,37.5 H 10.499"
       id="path2472"
       style="fill:#000000;fill-opacity:0.15788999;fill-rule:evenodd;stroke:#000000;stroke-width:1px;stroke-linecap:square;stroke-opacity:0.19298" />
    <path
       d="m 37.5,6.4997 v 34"
       id="path2485"
       style="fill:none;stroke:#000000;stroke-width:1px;stroke-linecap:square;stroke-opacity:0.15788999" />
    <path
       d="m 31.5,6.4997 v 34"
       id="path2487"
       style="fill:none;stroke:#000000;stroke-width:1px;stroke-linecap:square;stroke-opacity:0.15788999" />
    <path
       d="m 25.5,6.4997 v 34"
       id="path2489"
       style="fill:none;stroke:#000000;stroke-width:1px;stroke-linecap:square;stroke-opacity:0.15788999" />
    <path
       d="m 19.5,6.4997 v 34"
       id="path2491"
       style="fill:none;stroke:#000000;stroke-width:1px;stroke-linecap:square;stroke-opacity:0.15788999" />
    <path
       d="m 10.5,6.4997 v 34"
       id="path2493"
       style="fill:none;stroke:#000000;stroke-width:1px;stroke-linecap:square;stroke-opacity:0.15788999" />
    <path
       d="M 37.5,6.5022 H 10.499"
       id="path2495"
       style="fill:#000000;fill-opacity:0.15788999;fill-rule:evenodd;stroke:#000000;stroke-width:1px;stroke-linecap:square;stroke-opacity:0.19298" />
  </g>
  <g
     id="layer2" />
  <metadata
     id="metadata76">
    <rdf:RDF>
      <cc:Work>
        <dc:format>image/svg+xml</dc:format>
        <dc:type
           rdf:resource="http://purl.org/dc/dcmitype/StillImage" />
        <cc:license
           rdf:resource="http://creativecommons.org/licenses/publicdomain/" />
        <dc:publisher>
          <cc:Agent
             rdf:about="http://openclipart.org/">
            <dc:title>Openclipart</dc:title>
          </cc:Agent>
        </dc:publisher>
        <dc:title></dc:title>
        <dc:date>2010-04-03T11:51:11</dc:date>
        <dc:description>An icon from Tango Project. Since version 0.8.90 Tango Project icons are Public Domain.</dc:description>
        <dc:source>https://openclipart.org/detail/36517/tango-x-office-spreadsheet-by-warszawianka</dc:source>
        <dc:creator>
          <cc:Agent>
            <dc:title>warszawianka</dc:title>
          </cc:Agent>
        </dc:creator>
        <dc:subject>
          <rdf:Bag>
            <rdf:li>externalsource</rdf:li>
            <rdf:li>icon</rdf:li>
            <rdf:li>tango</rdf:li>
          </rdf:Bag>
        </dc:subject>
      </cc:Work>
      <cc:License
         rdf:about="http://creativecommons.org/licenses/publicdomain/">
        <cc:permits
           rdf:resource="http://creativecommons.org/ns#Reproduction" />
        <cc:permits
           rdf:resource="http://creativecommons.org/ns#Distribution" />
        <cc:permits
           rdf:resource="http://creativecommons.org/ns#DerivativeWorks" />
      </cc:License>
    </rdf:RDF>
  </metadata>
  <g
     transform="matrix(0.0394689,0,0,0.0394689,21.582014,17.477861)"
     id="g3585">
    <polygon
       points="185.28,458.838 186.011,458.6 185.449,458.282 189.678,450.796 177.21,454.854 248.083,655.981 274.397,508.619 268.597,505.337 246.086,631.396 "
       id="polygon3531"
       style="fill:#ffffff;stroke:#1ca8e1;stroke-width:10;stroke-miterlimit:10" />
    <polygon
       points="247.085,643.689 181.245,456.846 286.57,422.567 "
       id="polygon3533"
       style="fill:#1ca8e1" />
    <polygon
       points="512.908,647.016 180.612,460.454 153.493,614.559 333.904,712.194 "
       id="polygon3535"
       style="fill:#1ca8e1" />
    <polygon
       points="204.762,445.887 212.18,450.084 282.553,427.181 268.38,504.148 274.181,507.431 290.587,417.954 "
       id="polygon3537"
       style="fill:#ffffff;stroke:#ffffff;stroke-width:4;stroke-miterlimit:10" />
    <path
       d="m 140.966,620.614 31.286,-177.784 192.992,107.927 -0.066,0.374 174.694,98.079 -206.876,75.327 -192.03,-103.923 z m 193.846,79.238 151.132,-55.028 -136.048,-76.384 0.062,-0.356 -160.988,-90.006 -22.952,130.425 168.794,91.349 z"
       id="path3539"
       style="fill:#ffffff" />
    <path
       d="m 175.957,450.63 183.747,102.757 -0.065,0.368 -1.891,-1.062 -2.249,12.76 -170.232,-95.175 -24.797,140.908 173.94,94.135 163.479,-59.525 -142.453,-79.979 0.064,-0.362 1.891,1.057 2.249,-12.755 L 527.929,648.24 333.4,719.07 146.515,617.932 175.957,450.63 m -7.409,-15.601 -2.44,13.867 -29.441,167.302 -1.249,7.098 6.338,3.431 186.883,101.139 3.955,2.141 4.227,-1.539 194.529,-70.831 20.468,-7.452 -18.993,-10.664 -162.105,-91.012 0.067,-0.381 -6.2,-3.467 -183.75,-102.759 -12.289,-6.873 0,0 z m 3.02,170.792 21.108,-119.944 151.743,84.837 -0.062,0.352 6.184,3.472 L 474,643.85 335.214,694.384 171.568,605.821 l 0,0 z"
       id="path3541"
       style="fill:#1ca8e1" />
    <polygon
       points="519.219,641.698 340.214,706.865 439.436,143.689 618.524,78.549 "
       id="polygon3543"
       style="fill:#1ca8e1" />
    <path
       d="M 426.67,132.977 637.076,56.446 531.983,652.408 321.665,728.974 426.67,132.977 z m -67.907,551.778 147.691,-53.768 93.519,-530.335 -147.771,53.75 -93.439,530.353 z"
       id="path3545"
       style="fill:#ffffff" />
    <path
       d="M 630.648,64.104 527.561,648.697 328.092,721.314 431.093,136.688 630.648,64.104 M 606.4,92.994 447.778,150.69 352.336,692.416 510.877,634.698 606.4,92.994 m 37.104,-44.207 -16.272,5.919 -199.557,72.584 -5.428,1.975 -1.003,5.688 -103,584.626 -3.005,17.057 16.273,-5.925 199.47,-72.617 5.425,-1.975 1.002,-5.687 103.087,-584.592 3.008,-17.053 0,0 z m -186.879,109.327 136.92,-49.803 -91.514,518.965 -136.842,49.817 91.436,-518.979 0,0 z"
       id="path3547"
       style="fill:#1ca8e1" />
    <path
       d="m 202.252,461.984 c -2.077,11.761 -13.3,19.628 -25.059,17.551 -11.77,-2.079 -19.629,-13.299 -17.561,-25.068 2.08,-11.771 13.3,-19.621 25.071,-17.543 11.77,2.068 19.62,13.291 17.549,25.06 z"
       id="path3549"
       style="fill:#ffffff" />
    <path
       d="m 180.973,486.155 c -1.624,0 -3.264,-0.146 -4.874,-0.43 -15.159,-2.678 -25.324,-17.188 -22.66,-32.348 2.362,-13.374 13.916,-23.076 27.473,-23.076 1.627,0 3.271,0.146 4.884,0.431 7.342,1.29 13.744,5.366 18.022,11.479 4.275,6.107 5.918,13.518 4.626,20.862 -2.361,13.376 -13.914,23.082 -27.471,23.082 z m -0.06,-43.277 c -7.445,0 -13.791,5.334 -15.089,12.683 -1.464,8.33 4.126,16.312 12.463,17.783 0.89,0.157 1.793,0.236 2.686,0.236 7.444,0 13.79,-5.336 15.088,-12.689 0.71,-4.035 -0.193,-8.11 -2.544,-11.469 -2.35,-3.356 -5.866,-5.597 -9.902,-6.306 -0.898,-0.158 -1.805,-0.238 -2.702,-0.238 z"
       id="path3551"
       style="fill:#1ca8e1" />
    <path
       d="m 175.256,615.088 c -2.067,11.769 -13.291,19.628 -25.061,17.56 -11.76,-2.068 -19.629,-13.3 -17.551,-25.061 2.069,-11.77 13.301,-19.631 25.07,-17.55 11.761,2.068 19.621,13.29 17.542,25.051 z"
       id="path3553"
       style="fill:#ffffff" />
    <path
       d="m 153.969,639.265 c -1.62,0 -3.256,-0.144 -4.862,-0.426 -7.343,-1.292 -13.745,-5.369 -18.025,-11.479 -4.282,-6.113 -5.926,-13.523 -4.628,-20.866 2.351,-13.369 13.904,-23.076 27.471,-23.076 1.628,0 3.271,0.146 4.885,0.43 7.337,1.291 13.737,5.366 18.016,11.477 4.279,6.108 5.92,13.519 4.623,20.86 -2.35,13.37 -13.907,23.08 -27.48,23.08 z m -0.045,-43.275 c -7.45,0 -13.794,5.335 -15.087,12.686 -0.714,4.038 0.19,8.108 2.543,11.469 2.353,3.359 5.871,5.602 9.904,6.311 0.889,0.156 1.792,0.234 2.684,0.234 7.455,0 13.803,-5.337 15.095,-12.688 0.714,-4.039 -0.188,-8.109 -2.539,-11.466 -2.351,-3.357 -5.866,-5.597 -9.899,-6.306 -0.898,-0.16 -1.805,-0.24 -2.701,-0.24 z"
       id="path3555"
       style="fill:#1ca8e1" />
    <path
       d="m 552.463,648.012 c -2.388,13.557 -15.312,22.605 -28.854,20.207 -13.557,-2.382 -22.606,-15.303 -20.217,-28.858 2.393,-13.545 15.312,-22.585 28.867,-20.204 13.547,2.386 22.595,15.3 20.204,28.855 z"
       id="path3557"
       style="fill:#ffffff" />
    <path
       d="m 527.974,674.892 c -1.819,0 -3.657,-0.161 -5.463,-0.48 -8.202,-1.441 -15.357,-5.996 -20.141,-12.823 -4.784,-6.827 -6.618,-15.107 -5.17,-23.318 2.638,-14.938 15.554,-25.78 30.712,-25.78 1.811,0 3.639,0.16 5.435,0.476 8.21,1.447 15.361,6.002 20.142,12.826 4.779,6.826 6.614,15.106 5.167,23.315 -2.635,14.938 -15.537,25.784 -30.682,25.784 z m -0.062,-49.83 c -9.046,0 -16.754,6.473 -18.329,15.39 -0.864,4.901 0.231,9.846 3.086,13.92 2.854,4.075 7.125,6.793 12.026,7.654 1.091,0.192 2.19,0.29 3.277,0.29 9.031,0 16.727,-6.476 18.297,-15.396 0.865,-4.902 -0.229,-9.845 -3.082,-13.918 -2.853,-4.073 -7.121,-6.792 -12.021,-7.656 -1.074,-0.188 -2.171,-0.284 -3.254,-0.284 z"
       id="path3559"
       style="fill:#1ca8e1" />
    <path
       d="m 645.185,76.427 c -2.39,13.555 -15.312,22.599 -28.857,20.209 -13.558,-2.39 -22.604,-15.307 -20.214,-28.863 2.39,-13.545 15.312,-22.589 28.868,-20.205 13.542,2.391 22.592,15.308 20.203,28.859 z"
       id="path3561"
       style="fill:#ffffff" />
    <path
       d="m 620.682,103.307 c -1.814,0 -3.647,-0.161 -5.446,-0.479 -16.945,-2.988 -28.302,-19.203 -25.313,-36.146 2.635,-14.94 15.55,-25.782 30.708,-25.782 1.812,0 3.645,0.16 5.44,0.476 16.942,2.99 28.294,19.203 25.307,36.143 -2.636,14.942 -15.545,25.788 -30.696,25.788 z m -0.053,-49.832 c -9.045,0 -16.752,6.473 -18.325,15.392 -1.781,10.114 4.997,19.795 15.114,21.579 1.081,0.191 2.179,0.288 3.264,0.288 9.037,0 16.738,-6.476 18.312,-15.397 1.783,-10.112 -4.993,-19.791 -15.105,-21.575 -1.077,-0.191 -2.175,-0.287 -3.26,-0.287 z"
       id="path3563"
       style="fill:#1ca8e1" />
    <path
       d="m 364.312,711.118 c -2.854,16.168 -18.271,26.967 -34.442,24.114 -16.171,-2.844 -26.979,-18.277 -24.125,-34.441 2.854,-16.162 18.277,-26.969 34.45,-24.114 16.163,2.852 26.959,18.268 24.117,34.441 z"
       id="path3565"
       style="fill:#ffffff" />
    <path
       d="m 335.069,741.977 c -2.097,0 -4.213,-0.186 -6.292,-0.553 -9.473,-1.665 -17.731,-6.925 -23.254,-14.81 -5.522,-7.886 -7.642,-17.443 -5.97,-26.916 3.045,-17.248 17.95,-29.767 35.441,-29.767 2.097,0 4.214,0.187 6.293,0.554 19.546,3.448 32.653,22.166 29.217,41.721 -3.044,17.252 -17.946,29.771 -35.435,29.771 z m -0.074,-59.47 c -11.378,0 -21.076,8.149 -23.06,19.377 -1.088,6.164 0.292,12.386 3.888,17.518 3.595,5.133 8.97,8.556 15.135,9.64 1.363,0.24 2.745,0.362 4.111,0.362 11.375,0 21.069,-8.149 23.052,-19.377 2.236,-12.728 -6.295,-24.911 -19.02,-27.157 -1.358,-0.241 -2.74,-0.363 -4.106,-0.363 z"
       id="path3567"
       style="fill:#1ca8e1" />
    <path
       d="m 469.145,146.486 c -2.854,16.167 -18.277,26.963 -34.449,24.111 -16.161,-2.848 -26.96,-18.269 -24.115,-34.436 2.852,-16.172 18.268,-26.969 34.438,-24.121 16.171,2.853 26.976,18.274 24.126,34.446 z"
       id="path3569"
       style="fill:#ffffff" />
    <path
       d="m 439.895,177.341 c -2.097,0 -4.214,-0.186 -6.291,-0.552 -19.552,-3.446 -32.657,-22.16 -29.217,-41.717 3.042,-17.253 17.946,-29.774 35.438,-29.774 2.094,0 4.208,0.186 6.284,0.551 19.563,3.451 32.675,22.171 29.227,41.729 -3.045,17.246 -17.95,29.763 -35.441,29.763 z m -0.07,-59.469 c -11.378,0 -21.074,8.151 -23.056,19.381 -2.238,12.729 6.291,24.91 19.016,27.152 1.361,0.24 2.743,0.362 4.109,0.362 11.379,0 21.075,-8.148 23.059,-19.374 2.243,-12.729 -6.292,-24.914 -19.027,-27.161 -1.356,-0.239 -2.737,-0.36 -4.101,-0.36 z"
       id="path3571"
       style="fill:#1ca8e1" />
    <g
       id="g3573">
      <path
         d="m 283.158,443.443 c -1.015,0 -2.04,-0.09 -3.046,-0.268 -4.584,-0.806 -8.585,-3.352 -11.26,-7.166 -2.676,-3.816 -3.705,-8.444 -2.896,-13.03 1.471,-8.354 8.691,-14.417 17.167,-14.417 1.016,0 2.04,0.09 3.046,0.267 4.575,0.802 8.569,3.342 11.24,7.152 2.677,3.818 3.706,8.453 2.895,13.05 -1.473,8.352 -8.684,14.412 -17.146,14.412 z"
         id="path3575"
         style="fill:#ffffff" />
      <path
         d="m 283.124,414.562 c 0.661,0 1.331,0.057 2.004,0.176 6.225,1.091 10.364,7.032 9.268,13.251 -0.979,5.551 -5.793,9.454 -11.238,9.454 -0.661,0 -1.33,-0.057 -2.003,-0.176 -6.225,-1.095 -10.386,-7.03 -9.29,-13.246 0.979,-5.558 5.81,-9.459 11.259,-9.459 m 0,-12 0,0 c -11.395,0 -21.1,8.149 -23.077,19.378 -1.087,6.163 0.295,12.384 3.892,17.514 3.595,5.127 8.971,8.548 15.137,9.632 1.342,0.237 2.717,0.357 4.082,0.357 11.379,0 21.075,-8.146 23.056,-19.369 1.089,-6.178 -0.293,-12.405 -3.891,-17.537 -3.591,-5.123 -8.962,-8.539 -15.123,-9.619 -1.337,-0.235 -2.712,-0.356 -4.076,-0.356 l 0,0 z"
         id="path3577"
         style="fill:#1ca8e1" />
    </g>
  </g>
</svg>
