<?xml version="1.0" encoding="utf-8"?>
<!-- Generator: Adobe Illustrator 23.0.2, SVG Export Plug-In . SVG Version: 6.00 Build 0)  -->
<svg version="1.1" id="Layer_1" xmlns="http://www.w3.org/2000/svg" xmlns:xlink="http://www.w3.org/1999/xlink" x="0px" y="0px"
	 viewBox="0 0 64 64" style="enable-background:new 0 0 64 64;" xml:space="preserve">
<style type="text/css">
	.st0{fill:none;stroke:#333333;stroke-width:1.4247;stroke-linejoin:round;stroke-miterlimit:10;}
	.st1{fill:none;stroke:#333333;stroke-width:1.5013;stroke-miterlimit:10;}
	.st2{fill:#333333;stroke:#333333;stroke-width:1.5013;stroke-miterlimit:10;}
	.st3{fill:#FFFFFF;}
	.st4{fill:none;stroke:#231F20;stroke-width:0.0752;stroke-miterlimit:10;}
	.st5{fill:#8CC63E;}
</style>
<g>
	<g>
		<g>
			<g>
				<line class="st0" x1="24.45" y1="6.38" x2="24.45" y2="57.67"/>
				<line class="st0" x1="53.19" y1="35.69" x2="11.17" y2="35.69"/>
				<line class="st0" x1="53.19" y1="13.7" x2="11.17" y2="13.7"/>
				<line class="st0" x1="53.19" y1="24.7" x2="11.17" y2="24.7"/>
				<line class="st0" x1="53.19" y1="46.68" x2="11.17" y2="46.68"/>
			</g>
			<path class="st1" d="M52.19,57.67H12.17c-0.55,0-1-0.45-1-1V13.7h42.02v42.96C53.19,57.22,52.74,57.67,52.19,57.67z"/>
			<path class="st2" d="M53.19,13.7H11.17V7.38c0-0.55,0.45-1,1-1h40.01c0.55,0,1,0.45,1,1V13.7z"/>
		</g>
	</g>
	<g id="g10_2_" transform="matrix(1.3333333,0,0,-1.3333333,0,443.444)">
		<g>
			<g id="g14_2_">
				<g id="g20_2_" transform="translate(314.7841,166.2916)">
					<path id="path22_2_" class="st3" d="M-270.37,132.9c0-6.16-4.99-11.17-11.17-11.17c-6.16,0-11.17,4.99-11.17,11.17
						c0,6.17,5,11.17,11.17,11.17C-275.38,144.07-270.37,139.06-270.37,132.9"/>
				</g>
				<g id="g24_2_" transform="translate(314.7841,166.2916)">
					<path id="path26_2_" class="st4" d="M-270.37,132.9c0-6.16-4.99-11.17-11.17-11.17c-6.16,0-11.17,4.99-11.17,11.17
						c0,6.17,5,11.17,11.17,11.17C-275.38,144.07-270.37,139.06-270.37,132.9z"/>
				</g>
				<g id="g28_2_" transform="translate(196.1152,89.587)">
					<path id="path30_2_" class="st5" d="M-160.63,203.83c-0.12-0.03-0.22-0.12-0.25-0.24l-0.01-0.02c-0.01-0.04-0.01-0.06,0-0.1
						c0.01-0.05,0.03-0.11,0.05-0.15c0.01-0.02,0.02-0.03,0.04-0.04l0.01-0.01c0.05-0.04,0.11-0.08,0.17-0.09
						c0.02,0,0.04-0.01,0.05-0.01c0.16,0,0.29,0.12,0.32,0.27c0.02,0.09,0,0.17-0.05,0.24c-0.01,0.01-0.02,0.02-0.02,0.03
						c-0.04,0.05-0.12,0.1-0.19,0.11C-160.54,203.84-160.58,203.85-160.63,203.83"/>
				</g>
				<g id="g32_2_" transform="translate(242.4042,268.9478)">
					<path id="path34_2_" class="st5" d="M-203.43,37.96c-0.06-0.36-0.33-0.63-0.67-0.71l-2.18-12.38c0.07-0.05,0.13-0.12,0.18-0.2
						c0.14-0.2,0.19-0.44,0.15-0.68c-0.08-0.43-0.45-0.75-0.89-0.75c-0.05,0-0.11,0.01-0.16,0.02c-0.2,0.04-0.37,0.13-0.51,0.29
						l-2.8-1.02c0-0.03-0.01-0.06-0.01-0.09c-0.09-0.49-0.51-0.85-1.01-0.85c-0.06,0-0.12,0.01-0.18,0.02
						c-0.27,0.04-0.5,0.2-0.66,0.42c-0.13,0.19-0.2,0.41-0.18,0.64l-2.98,1.61c-0.18-0.12-0.41-0.18-0.62-0.14
						c-0.21,0.04-0.4,0.16-0.54,0.34c-0.12,0.18-0.18,0.4-0.13,0.62c0.06,0.34,0.32,0.61,0.66,0.66l0.4,2.27
						c-0.29,0.17-0.45,0.52-0.39,0.85c0.07,0.39,0.41,0.68,0.81,0.68c0.05,0,0.1,0,0.14-0.01c0.21-0.04,0.4-0.16,0.53-0.34
						c0.01-0.01,0.02-0.02,0.02-0.03l1.26,0.41v0.01v0.03c0,0.01,0,0.03,0,0.04c0.01,0.04,0.01,0.07,0.01,0.07
						c0.05,0.33,0.33,0.56,0.66,0.56c0.37,0,0.67-0.3,0.67-0.67c0-0.34-0.26-0.62-0.59-0.66l-0.24-1.33l1.58-0.88l-0.11-0.6
						l-3.44,1.93c-0.1-0.07-0.21-0.12-0.33-0.14l-0.4-2.27c0.1-0.06,0.19-0.14,0.26-0.23c0.12-0.18,0.18-0.39,0.13-0.62
						c0-0.02-0.01-0.04-0.01-0.04l2.85-1.54c0.18,0.25,0.46,0.4,0.77,0.42l2.11,12.06c-0.36,0.21-0.55,0.63-0.48,1.05
						c0.09,0.49,0.51,0.85,1.01,0.85c0.06,0,0.12-0.01,0.18-0.02c0.25-0.04,0.47-0.18,0.62-0.38l2.71,0.98
						c0,0.04,0.01,0.06,0.01,0.1c0.08,0.43,0.45,0.75,0.89,0.75c0.05,0,0.11-0.01,0.16-0.02l0,0
						C-203.68,38.92-203.35,38.45-203.43,37.96 M-197.64,35.1c-0.66,1.54-1.55,2.87-2.67,4c-1.12,1.11-2.45,2.01-4,2.67
						c-1.54,0.65-3.16,0.98-4.85,0.98s-3.31-0.33-4.86-0.99c-1.54-0.66-2.87-1.55-4-2.67c-1.12-1.11-2.01-2.44-2.67-4
						c-0.66-1.54-0.99-3.17-0.99-4.86s0.33-3.31,0.99-4.86c0.66-1.54,1.55-2.87,2.67-4c1.11-1.11,2.44-2.01,4-2.67
						c1.54-0.66,3.17-0.99,4.86-0.99s3.31,0.33,4.85,0.99c1.54,0.66,2.87,1.55,4,2.67c1.12,1.11,2.01,2.44,2.67,4
						c0.66,1.54,0.99,3.17,0.99,4.86C-196.65,31.93-196.98,33.56-197.64,35.1"/>
				</g>
				<g id="g36_2_" transform="translate(79.7939,98.6568)">
					<path id="path38_2_" class="st5" d="M-53.05,195.45c-0.03,0.02-0.06,0.04-0.1,0.04c-0.02,0-0.03,0-0.04,0
						c-0.01,0-0.03,0-0.04-0.01c-0.11-0.03-0.18-0.1-0.2-0.2c-0.01-0.06,0-0.13,0.04-0.19c0.04-0.05,0.1-0.09,0.16-0.1
						c0.04-0.01,0.09-0.01,0.14,0.02c0.06,0.03,0.12,0.09,0.13,0.16c0,0.01,0.01,0.02,0.01,0.04c0.01,0.06-0.01,0.12-0.04,0.18
						C-53,195.41-53.02,195.43-53.05,195.45"/>
				</g>
				<g id="g40_2_" transform="translate(142.1728,68.4288)">
					<path id="path42_2_" class="st5" d="M-110.74,223.41l-0.02,0.03c-0.07,0.08-0.16,0.13-0.26,0.15
						c-0.03,0.01-0.05,0.01-0.08,0.01c-0.16,0-0.31-0.09-0.39-0.23c-0.03-0.04-0.04-0.09-0.05-0.14c-0.01-0.03-0.01-0.06-0.01-0.11
						c0-0.08,0.04-0.16,0.08-0.23c0.07-0.1,0.17-0.16,0.29-0.19c0.24-0.04,0.47,0.12,0.52,0.36v0.04l0.01,0.01
						c0.01,0.07,0,0.14-0.04,0.21C-110.69,223.34-110.71,223.37-110.74,223.41"/>
				</g>
				<g id="g44_2_" transform="translate(168.5888,245.4664)">
					<path id="path46_2_" class="st5" d="M-135.17,59.68c0.05-0.04,0.11-0.06,0.17-0.07c0.05-0.01,0.11-0.01,0.19,0.01
						c0.17,0.04,0.3,0.18,0.33,0.35v0.02c0.02,0.12-0.02,0.24-0.09,0.34c-0.07,0.09-0.17,0.14-0.27,0.16
						c-0.03,0.01-0.05,0.01-0.08,0.01c-0.21,0-0.4-0.15-0.44-0.37C-135.4,59.95-135.32,59.78-135.17,59.68"/>
				</g>
				<g id="g48_2_" transform="translate(121.561,155.588)">
					<path id="path50_2_" class="st5" d="M-91.68,142.8c0.1,0,0.18,0.08,0.18,0.18s-0.08,0.18-0.18,0.18s-0.18-0.08-0.18-0.18
						S-91.78,142.8-91.68,142.8"/>
				</g>
				<g id="g52_2_" transform="translate(116.9965,150.3834)">
					<path id="path54_2_" class="st5" d="M-87.45,147.61c-0.03,0.02-0.05,0.04-0.08,0.05c-0.04,0.03-0.06,0.05-0.08,0.08l-1.29-0.42
						c0-0.05,0-0.12-0.01-0.17c0-0.01-0.01-0.03-0.01-0.04l1.26-0.7L-87.45,147.61z"/>
				</g>
				<g id="g60_2_" transform="translate(84.9672,143.5499)">
					<path id="path62_2_" class="st5" d="M-57.83,153.93c0.03-0.02,0.06-0.04,0.1-0.04c0.03,0,0.05-0.01,0.1,0.01l0.05,0.03
						c0.06,0.04,0.11,0.09,0.12,0.16l0.01,0.03c0.01,0.06-0.01,0.12-0.04,0.18c-0.04,0.05-0.1,0.09-0.16,0.1c-0.01,0-0.03,0-0.04,0
						c-0.12,0-0.22-0.09-0.24-0.21l0,0C-57.96,154.09-57.91,153.99-57.83,153.93"/>
				</g>
				<g id="g64_2_" transform="translate(185.4364,249.4444)">
					<path id="path66_2_" class="st5" d="M-150.75,55.99c0-0.04-0.01-0.07-0.01-0.11c-0.07-0.42-0.4-0.74-0.81-0.82l-2.14-12.16
						c0.06-0.05,0.12-0.11,0.17-0.18l2.77,1.01c0,0.03,0.01,0.04,0.01,0.07c0.07,0.38,0.37,0.67,0.74,0.73l2.18,12.32
						c-0.05,0.04-0.1,0.08-0.14,0.12L-150.75,55.99z"/>
				</g>
				<g id="g68_2_" transform="translate(231.3515,275.3365)">
					<path id="path70_2_" class="st5" d="M-193.21,32.05c-0.02,0-0.04,0.01-0.05,0.01c-0.16,0-0.29-0.12-0.32-0.27v-0.03
						c-0.02-0.17,0.1-0.33,0.27-0.36c0.06-0.01,0.12-0.01,0.17,0.02c0.11,0.04,0.19,0.13,0.21,0.25s-0.02,0.23-0.11,0.3
						C-193.11,32.02-193.16,32.05-193.21,32.05"/>
				</g>
				<g id="g76_2_" transform="translate(200.6044,87.8331)">
					<path id="path78_2_" class="st5" d="M-164.78,205.46c0.05-0.07,0.07-0.16,0.05-0.24c-0.03-0.16-0.16-0.27-0.32-0.27
						c-0.02,0-0.04,0-0.05,0.01c-0.06,0.01-0.12,0.04-0.17,0.09l-0.01,0.01c-0.02,0.02-0.03,0.03-0.04,0.04
						c-0.03,0.04-0.05,0.1-0.05,0.15c0,0.04,0,0.07,0,0.1l0.01,0.02c0.03,0.12,0.12,0.21,0.25,0.24c0.05,0.01,0.09,0.01,0.12,0
						c0.07-0.02,0.14-0.05,0.19-0.11C-164.8,205.48-164.79,205.47-164.78,205.46 M-165.04,205.6c-0.19,0-0.34-0.15-0.34-0.34
						s0.15-0.34,0.34-0.34s0.34,0.15,0.34,0.34C-164.71,205.46-164.86,205.6-165.04,205.6"/>
				</g>
			</g>
		</g>
	</g>
</g>
</svg>
