<svg id="Layer_1" data-name="Layer 1" xmlns="http://www.w3.org/2000/svg" viewBox="0 0 639.52 463.24"><defs><style>.cls-1,.cls-2{fill:#d5b941;stroke-miterlimit:10;}.cls-1{stroke:#939598;}.cls-2{stroke:#808285;}.cls-3{fill:#f89528;}.cls-4{fill:#c93527;}</style></defs><title>FlexplotLogo</title><rect class="cls-1" x="105.96" y="154.43" width="112.04" height="241.36"/><rect class="cls-1" x="387.11" y="0.5" width="112.57" height="395.29"/><rect class="cls-2" x="245.75" y="82.18" width="113.61" height="313.61"/><path class="cls-3" d="M643.47,72.6a9.07,9.07,0,0,1,6.06,3,2.15,2.15,0,0,1,.64,1.63,43.79,43.79,0,0,1-2,4.58,40.18,40.18,0,0,1-2.67,5.28c-1.95,2.92-4.08,5.72-6.23,8.5q-6.39,8.24-12.86,16.4c-5.32,6.72-10.53,13.52-16,20.09a335.76,335.76,0,0,1-27,28.65c-6,5.72-12.25,11.29-18.66,16.59-8.55,7.06-17.3,13.89-26.09,20.65-5.35,4.1-11,7.88-16.43,11.81-3.65,2.62-7.24,5.34-10.94,7.88-5.33,3.66-10.74,7.19-16.12,10.77s-10.91,7.34-16.45,10.87c-6.37,4.05-12.82,8-19.25,11.89-5.74,3.51-11.47,7-17.29,10.41-4.82,2.79-9.77,5.34-14.64,8.05-4.16,2.31-8.25,4.76-12.44,7-5.14,2.77-10.37,5.38-15.53,8.13-4.59,2.43-9.12,5-13.7,7.43-6.95,3.73-13.92,7.41-20.87,11.13-6.33,3.37-12.63,6.78-19,10.15-5.32,2.83-10.69,5.58-16,8.43-6,3.23-12,6.58-18,9.79-4.65,2.49-9.41,4.78-14.05,7.3-4.81,2.62-9.52,5.42-14.3,8.11-5.16,2.91-10.37,5.74-15.49,8.71-3.34,1.93-6.54,4.09-9.84,6.09-3.13,1.91-6.33,3.72-9.47,5.6q-7.32,4.37-14.59,8.78c-3.91,2.39-7.83,4.75-11.66,7.25-6.47,4.22-12.92,8.46-19.29,12.83-5.26,3.6-10.42,7.37-15.58,11.12-6.57,4.77-13.18,9.49-19.61,14.44-4.29,3.31-8.38,6.89-12.41,10.53-6.78,6.11-13.6,12.21-20.11,18.61a128.07,128.07,0,0,0-16.2,20,146.66,146.66,0,0,0-11.14,19.38c-1.46,3.13-2.55,6.45-3.78,9.69-1.36,3.59-2.72,7.17-4,10.77a14.7,14.7,0,0,0-.3,2.41c-.54,2.93-1.1,5.86-1.7,8.77a1.26,1.26,0,0,1-.66.81c-2.49.83-4.84,2.58-7.69,1.18a3.81,3.81,0,0,0-2.1-.42c-2.31.34-4-1.09-5.66-2.14a3.78,3.78,0,0,1-1.42-3c.48-4.54-.35-9.23,1.64-13.62.61-1.35.41-3,.81-4.5.84-3.1,1.72-6.2,2.8-9.23S88.64,485,90,482c1.63-3.57,3.35-7.11,5.16-10.59a86.14,86.14,0,0,1,4.79-8.42c2.86-4.26,5.83-8.46,9-12.5a149.74,149.74,0,0,1,10-11.78c7.39-7.69,14.84-15.35,22.58-22.7,7-6.65,14.41-12.89,21.68-19.25,3.67-3.21,7.33-6.44,11.19-9.39,6.06-4.64,12.29-9.08,18.46-13.57,4.35-3.16,8.67-6.35,13.09-9.39q7.58-5.21,15.31-10.18c5.74-3.69,11.56-7.27,17.36-10.86,4.57-2.83,9.15-5.65,13.78-8.37,4.11-2.41,8.27-4.71,12.44-7,7.22-4,14.42-8,21.7-11.78,5.59-2.93,11.3-5.61,17-8.4,3.55-1.75,7.07-3.56,10.65-5.23,6.26-2.91,12.55-5.73,18.83-8.59,3.77-1.72,7.52-3.47,11.31-5.13,4.36-1.91,8.78-3.69,13.15-5.6,4.93-2.17,9.82-4.42,14.73-6.64,3-1.36,6-2.74,9-4.09,3.86-1.72,7.73-3.41,11.58-5.13,3.19-1.42,6.39-2.81,9.53-4.34s6.41-3.3,9.6-5c5.42-2.84,10.84-5.67,16.24-8.55,4.5-2.4,9-4.86,13.45-7.32,4.26-2.33,8.56-4.59,12.74-7.06,4.63-2.74,9.13-5.7,13.73-8.51,3.83-2.34,7.77-4.52,11.57-6.91,4-2.48,7.83-5.1,11.71-7.7,5.23-3.5,10.48-7,15.62-10.58q8.82-6.21,17.47-12.67c6-4.47,12-9,17.85-13.65,7.74-6.22,15.36-12.6,23-19,6-5,11.92-10,17.73-15.13,4.45-4,8.68-8.16,13-12.3,2.21-2.12,4.44-4.24,6.49-6.52,3.32-3.69,6.51-7.5,9.72-11.3,1.81-2.13,3.63-4.27,5.29-6.53,3.21-4.35,6.38-8.74,9.43-13.21,1.55-2.28,2.65-4.86,4.2-7.14s3.34-4.26,5-6.37a12.25,12.25,0,0,0,.9-1c.55-.85.83-2.15,1.59-2.54A26.66,26.66,0,0,1,643.47,72.6Z" transform="translate(-80.98 -63.35)"/><path class="cls-4" d="M128.67,526.59c-2-.4-4.64-.61-6.95-2.43-2.75-2.16-2.88-4.77-2.32-7.76.33-1.77.52-3.57,1-5.31.88-3.44,1.95-6.83,2.85-10.27.72-2.76,1.27-5.57,2-8.34q1-3.78,2.09-7.52c.74-2.48,1.52-4.95,2.37-7.39s1.79-4.66,2.66-7c.71-1.92,1.35-3.86,2-5.79,1.73-4.79,3.45-9.6,5.21-14.38.82-2.23,1.66-4.47,2.62-6.64q2.44-5.5,5-10.93c1.85-3.85,3.72-7.69,5.68-11.48,1.77-3.42,3.64-6.8,5.52-10.16,1.52-2.73,3.08-5.44,4.72-8.11,2.15-3.52,4.3-7,6.59-10.46,3.7-5.53,7.37-11.09,11.3-16.45s8.12-10.55,12.32-15.72c8.44-10.37,18.22-19.49,27.82-28.74,6.6-6.36,13.72-12.19,20.75-18.09,3.17-2.66,6.63-5,10-7.35,3.82-2.69,7.67-5.34,11.58-7.9,4.8-3.14,9.69-6.14,14.52-9.23,2.89-1.84,5.71-3.81,8.64-5.58,3.51-2.13,7.09-4.15,10.67-6.16,4.76-2.66,9.48-5.43,14.36-7.87,5.69-2.84,11.54-5.35,17.3-8,3.89-1.83,7.67-3.88,11.6-5.6,4.18-1.84,8.47-3.39,12.7-5.1,4.39-1.78,8.72-3.72,13.14-5.4,3.85-1.46,7.81-2.65,11.71-4,1.44-.49,2.85-1.08,4.3-1.55,4.25-1.37,8.5-2.77,12.78-4s8.46-2.35,12.68-3.57c2.41-.7,4.77-1.54,7.17-2.25,2.65-.79,5.33-1.46,8-2.26,2.47-.74,4.91-1.61,7.37-2.39,1.95-.63,3.9-1.28,5.89-1.79,2.59-.68,5.24-1.16,7.82-1.88,2.4-.67,4.72-1.59,7.09-2.33,2.65-.83,5.33-1.57,8-2.36,4.46-1.33,8.91-2.7,13.38-4,2.66-.77,5.37-1.38,8.05-2.12s5.31-1.52,7.95-2.32c2.06-.61,4.07-1.37,6.14-1.92,4.58-1.21,9.21-2.25,13.78-3.52,2.57-.72,5-1.78,7.58-2.64,1.69-.56,3.41-1,5.11-1.55,5.66-1.69,11.37-3.24,17-5.1,5.08-1.69,10-3.82,15.07-5.57,3.88-1.35,7.86-2.4,11.78-3.62,1.8-.56,3.56-1.24,5.34-1.85,4.14-1.4,8.29-2.76,12.41-4.22,2.44-.86,4.8-1.92,7.23-2.82,3.09-1.15,6.26-2.11,9.31-3.36,4.62-1.88,9.16-4,13.75-5.92,3.78-1.61,7.61-3.1,11.34-4.81,3.09-1.41,6.05-3.12,9.11-4.6,3.45-1.67,7-3.11,10.43-4.88,4-2.07,7.82-4.37,11.7-6.62,6.86-3.95,13.56-8.14,20-12.73,6.65-4.74,13.57-9.12,20.43-13.55,3.93-2.54,8.11-4.82,12.84-5.1,4.1-.25,8.06.77,10.74,4.37,1.19,1.6,1.09,2.39-.35,3.74A69.08,69.08,0,0,1,708,131.36c-3.61,2.17-6.81,5-10.31,7.38-4.69,3.19-9.41,6.34-14.24,9.29-5.34,3.25-10.8,6.32-16.26,9.36s-11,6.06-16.56,8.92c-4.37,2.23-8.85,4.27-13.32,6.29-5.53,2.5-11.06,5-16.66,7.31-3.4,1.4-6.95,2.42-10.41,3.68-2.09.77-4.11,1.72-6.18,2.54-1.58.62-3.19,1.16-4.79,1.72-4.57,1.59-9.13,3.2-13.7,4.75s-9.13,3.08-13.72,4.54c-3.73,1.18-7.52,2.18-11.25,3.38-2.29.74-4.48,1.76-6.76,2.54s-4.76,1.48-7.14,2.21l-5.39,1.63c-4.38,1.36-8.74,2.78-13.14,4.06-2.65.78-5.39,1.28-8.06,2-2.4.66-4.76,1.49-7.14,2.25-1.87.59-3.73,1.23-5.62,1.73-2.66.72-5.36,1.3-8,2-2.43.63-4.86,1.32-7.27,2-.94.27-1.84.7-2.78,1-4.77,1.48-9.53,3-14.33,4.37-2.58.75-5.23,1.25-7.83,1.92-2,.52-4,1.07-5.93,1.69-4.16,1.34-8.28,2.8-12.47,4.06-2.57.78-5.23,1.23-7.83,1.92a46.77,46.77,0,0,0-5.35,1.68,136.37,136.37,0,0,1-15.65,4.78c-3.45.92-6.9,1.86-10.33,2.85-2.05.59-4.08,1.3-6.11,2-2.47.8-5,1.55-7.41,2.43-3.86,1.38-7.69,2.82-11.52,4.28-4.18,1.6-8.37,3.17-12.49,4.88-4.39,1.82-8.71,3.78-13,5.7-2.54,1.13-5.06,2.31-7.6,3.44-3.92,1.76-7.86,3.47-11.77,5.26-3.1,1.42-6.19,2.85-9.21,4.41-3.83,2-7.61,4.05-11.38,6.14-4.23,2.36-8.49,4.68-12.62,7.2-5.21,3.16-10.33,6.46-15.45,9.77-6.14,4-12.28,7.93-18.34,12a258.68,258.68,0,0,0-21,16.15c-9.12,7.62-17.62,15.9-26,24.34-4.45,4.51-9.09,8.87-13.15,13.71-5.56,6.62-10.75,13.56-15.9,20.52-3.63,4.92-7,10-10.34,15.16-2.9,4.53-5.57,9.22-8.21,13.91C175,422,171.9,427.42,169.1,433c-2.35,4.69-4.32,9.57-6.45,14.37-1.48,3.33-3,6.63-4.39,10-1.3,3.22-2.39,6.53-3.61,9.78-.78,2.07-1.72,4.08-2.46,6.15s-1.36,4.24-2.05,6.35c-.57,1.76-1.12,3.53-1.75,5.27-1.33,3.69-2.76,7.34-4,11.05-1.75,5.07-3.33,10.2-5.11,15.26-1.58,4.49-3.28,8.93-5,13.36C133.59,526.17,132.28,526.59,128.67,526.59Z" transform="translate(-80.98 -63.35)"/></svg>