<?xml version="1.0" encoding="utf-8"?>
<!-- Generator: Adobe Illustrator 22.1.0, SVG Export Plug-In . SVG Version: 6.00 Build 0)  -->
<svg version="1.1" id="Layer_1" xmlns="http://www.w3.org/2000/svg" xmlns:xlink="http://www.w3.org/1999/xlink" x="0px" y="0px"
	 viewBox="0 0 332.6 332.6" style="enable-background:new 0 0 332.6 332.6;" xml:space="preserve">
<style type="text/css">
	.st0{fill:#FFFFFF;stroke:#231F20;stroke-miterlimit:10;}
	.st1{fill:#555658;}
</style>
<g>
	<circle class="st0" cx="166.3" cy="166.3" r="148.5"/>
	<g>
		<path class="st1" d="M196.1,243c-1.6,0.3-2.9,1.6-3.3,3.2l-0.1,0.2c-0.1,0.4-0.1,0.8,0,1.4c0.1,0.7,0.3,1.4,0.7,2
			c0.1,0.2,0.3,0.4,0.5,0.6l0.1,0.1c0.7,0.6,1.5,1,2.3,1.2c0.2,0,0.5,0.1,0.8,0.1c2.1,0,3.9-1.5,4.3-3.6c0.2-1.1-0.1-2.3-0.7-3.3
			c-0.1-0.2-0.2-0.2-0.3-0.3c-0.7-0.8-1.5-1.3-2.5-1.5C197.3,242.9,196.8,242.9,196.1,243z"/>
		<path class="st1" d="M319.4,101.7c-8.8-20.6-20.6-38.3-35.5-53.1c-14.9-14.8-32.6-26.6-53.1-35.4S188.8,0,166.3,0
			c-22.5,0-44.1,4.4-64.6,13.2S63.4,33.7,48.6,48.6c-14.8,14.8-26.6,32.5-35.4,53.1S0,143.8,0,166.3s4.4,44.1,13.2,64.6
			c8.8,20.6,20.6,38.3,35.4,53.1c14.8,14.8,32.5,26.6,53.1,35.4c20.6,8.8,42.1,13.2,64.6,13.2s44-4.4,64.5-13.2
			c20.5-8.8,38.2-20.6,53.1-35.4c14.9-14.8,26.7-32.5,35.5-53.1c8.8-20.6,13.2-42.1,13.2-64.6S328.2,122.2,319.4,101.7z M242.4,63.6
			c-0.8,4.7-4.3,8.4-8.9,9.5l-29,164.6c0.9,0.7,1.7,1.6,2.4,2.6c1.8,2.6,2.5,5.8,2,9c-1,5.7-6,9.9-11.8,9.9c-0.7,0-1.4-0.1-2.1-0.2
			c-2.6-0.5-5-1.8-6.8-3.7L151,268.9c0,0.4-0.1,0.8-0.1,1.2c-1.1,6.5-6.8,11.2-13.4,11.2c-0.8,0-1.6-0.1-2.4-0.2
			c-3.6-0.6-6.7-2.6-8.8-5.6c-1.7-2.5-2.6-5.5-2.4-8.5l-39.6-21.4c-2.4,1.7-5.4,2.4-8.2,1.9c-2.9-0.5-5.4-2.1-7.1-4.5
			c-1.7-2.4-2.3-5.3-1.8-8.2c0.8-4.6,4.3-8,8.8-8.8l5.3-30.2c-3.9-2.3-6-6.8-5.2-11.3c0.9-5.2,5.4-9,10.7-9c0.7,0,1.3,0.1,1.9,0.2
			c2.9,0.5,5.4,2.1,7,4.5c0.1,0.1,0.2,0.3,0.3,0.4l16.7-5.4c0,0,0-0.1,0-0.1l0-0.3c0-0.2,0-0.3,0-0.4c0-0.4,0.1-1,0.1-1
			c0.7-4.4,4.4-7.5,8.8-7.5c4.9,0,8.9,4,8.9,8.9c0,4.5-3.4,8.3-7.8,8.8l-3.1,17.6l21,11.7l-1.4,8l-45.8-25.7c-1.3,1-2.8,1.6-4.4,1.9
			l-5.3,30.2c1.3,0.8,2.5,1.8,3.4,3.1c1.7,2.4,2.3,5.3,1.8,8.2c0,0.2-0.1,0.4-0.1,0.7l37.9,20.5c2.4-3.3,6.1-5.3,10.2-5.5
			l28.3-160.4c-4.8-2.9-7.4-8.4-6.4-14c1.1-6.5,6.8-11.2,13.4-11.2c0.8,0,1.6,0.1,2.4,0.2c3.3,0.6,6.3,2.4,8.3,5.1l36.1-13.1
			c0-0.4,0.1-0.9,0.2-1.3c1-5.7,6-9.9,11.8-9.9c0.7,0,1.4,0.1,2.1,0.2l0,0C239.2,50.9,243.6,57.1,242.4,63.6z"/>
		<path class="st1" d="M79.8,233.9c-0.4-0.3-0.8-0.5-1.3-0.5c-0.2,0-0.4-0.1-0.6-0.1c-0.2,0-0.4,0.1-0.6,0.1
			c-1.5,0.4-2.4,1.3-2.6,2.6c-0.2,0.9,0,1.7,0.5,2.5c0.5,0.7,1.3,1.2,2.1,1.4c0.5,0.1,1.2,0.1,1.9-0.3c0.9-0.4,1.5-1.1,1.8-2.1
			c0-0.1,0.1-0.3,0.2-0.4c0.1-0.8-0.1-1.7-0.6-2.3C80.4,234.4,80.1,234.2,79.8,233.9z"/>
		<path class="st1" d="M142.2,264.2l-0.3-0.3c-0.9-1.1-2.1-1.7-3.4-2c-0.3-0.1-0.7-0.1-1-0.1c-2.2,0-4.1,1.2-5.2,3.1
			c-0.3,0.6-0.6,1.2-0.7,1.9c-0.1,0.4-0.1,0.8-0.1,1.4c0.1,1.1,0.4,2.2,1,3c0.9,1.3,2.3,2.2,3.8,2.5c3.2,0.6,6.2-1.6,6.9-4.7v-0.5
			l0.1-0.1c0.1-0.9-0.1-1.9-0.4-2.8C142.7,265,142.5,264.6,142.2,264.2z"/>
		<path class="st1" d="M168.6,87.1c0.7,0.5,1.5,0.8,2.3,0.9c0.7,0.1,1.5,0.1,2.4-0.1c2.3-0.5,4-2.3,4.4-4.6l0-0.3
			c0.2-1.6-0.2-3.2-1.2-4.6c-0.9-1.2-2.2-1.9-3.6-2.2c-0.3-0.1-0.7-0.1-1-0.1c-2.9,0-5.3,2.1-5.8,4.9
			C165.6,83.5,166.6,85.8,168.6,87.1z"/>
		<path class="st1" d="M121.6,177c1.3,0,2.4-1.1,2.4-2.4c0-1.3-1.1-2.4-2.4-2.4c-1.3,0-2.4,1.1-2.4,2.4
			C119.2,175.9,120.2,177,121.6,177z"/>
		<path class="st1" d="M117,182.2c-0.3-0.2-0.7-0.5-1-0.7c-0.4-0.4-0.8-0.7-1.1-1L97.7,186c0,0.8,0,1.5-0.1,2.2
			c0,0.2-0.1,0.3-0.1,0.5l16.7,9.4L117,182.2z"/>
		<polygon class="st1" points="115.7,178.7 115.7,178.7 115.7,178.7 		"/>
		<path class="st1" d="M85,189c0.4,0.3,0.8,0.4,1.3,0.5c0.3,0.1,0.7,0.1,1.3-0.1l0.8-0.3c0.8-0.4,1.4-1.2,1.6-2.1l0.1-0.3
			c0.1-0.8-0.1-1.6-0.6-2.3c-0.5-0.7-1.2-1.2-2.1-1.4c-0.2,0-0.4,0-0.6,0c-1.6,0-3,1.1-3.2,2.7l0,0C83.3,187,83.9,188.3,85,189z"/>
		<path class="st1" d="M185.4,83.1c0,0.5-0.1,0.9-0.2,1.4c-1,5.5-5.3,9.9-10.8,10.9L146,257.2c0.8,0.7,1.6,1.5,2.3,2.4l36.8-13.4
			c0-0.3,0.1-0.6,0.1-0.9c0.9-5.1,4.8-8.9,9.8-9.7l28.9-164c-0.7-0.5-1.4-1-2-1.6L185.4,83.1z"/>
		<path class="st1" d="M231.4,57.2c-0.3,0-0.5-0.1-0.8-0.1c-2.1,0-3.9,1.5-4.3,3.6l-0.1,0.3c-0.2,2.3,1.3,4.4,3.6,4.8
			c0.8,0.1,1.6,0.1,2.3-0.2c1.4-0.5,2.5-1.8,2.8-3.3c0.3-1.5-0.3-3-1.5-4.1C232.7,57.7,232.1,57.4,231.4,57.2z"/>
		<polygon class="st1" points="200.7,250.6 200.8,250.5 200.7,250.5 		"/>
		<path class="st1" d="M197.1,242.8c-2.5,0-4.5,2-4.5,4.5c0,2.5,2,4.5,4.5,4.5c2.5,0,4.5-2,4.5-4.5
			C201.5,244.8,199.5,242.8,197.1,242.8z M200.6,244.7c0.7,1,0.9,2.1,0.7,3.3c-0.4,2.1-2.2,3.6-4.3,3.6c-0.3,0-0.5,0-0.8-0.1
			c-0.8-0.1-1.6-0.5-2.3-1.2l-0.1-0.1c-0.2-0.2-0.3-0.4-0.5-0.6c-0.4-0.6-0.7-1.3-0.7-2c-0.1-0.5,0-0.9,0-1.4l0.1-0.2
			c0.4-1.6,1.7-2.9,3.3-3.2c0.7-0.1,1.2-0.1,1.7,0c1,0.2,1.9,0.7,2.5,1.5C200.4,244.5,200.5,244.6,200.6,244.7z"/>
	</g>
</g>
</svg>
