<?xml version="1.0" encoding="UTF-8" standalone="no"?>
<!DOCTYPE svg PUBLIC "-//W3C//DTD SVG 1.0//EN" "http://www.w3.org/TR/2001/REC-SVG-20010904/DTD/svg10.dtd">
<svg height="80.000000" id="svg3512" version="1.0" width="80.000000" x="0.0000000" xmlns="http://www.w3.org/2000/svg" xmlns:xlink="http://www.w3.org/1999/xlink" y="0.0000000">
  <defs id="defs3"/>
  <g id="layer1">
    <g id="g3535" transform="matrix(0.968751,0.000000,0.000000,0.987510,1.250108,-0.250791)">
      <path d="M 54.962334,37.280594 L 72.099779,27.019014 L 79.778255,41.853688 C 81.632958,49.958845 71.469188,52.933218 63.308493,52.449886 L 54.962334,37.280594 z " id="path2742" style="fill:#000000;fill-opacity:1.0000000;fill-rule:evenodd;stroke:none;stroke-width:0.25000000pt;stroke-linecap:butt;stroke-linejoin:miter;stroke-opacity:1.0000000"/>
      <path d="M 51.067463,47.876791 L 42.053608,63.826855 L 51.067463,80.000001 L 51.290020,73.530745 L 59.524901,73.530745 C 62.529519,73.790994 66.424390,71.820476 67.871060,68.957650 L 78.442863,49.549882 C 74.956026,53.007587 70.472444,53.899894 65.311568,53.899894 L 51.401311,53.899894 L 51.067463,47.876791 z " id="path2743" style="fill:#000000;fill-opacity:1.0000000;fill-rule:evenodd;stroke:none;stroke-width:0.25000000pt;stroke-linecap:butt;stroke-linejoin:miter;stroke-opacity:1.0000000"/>
      <path d="M 30.928372,28.211849 L 13.659051,18.174838 L 22.872119,4.2455192 C 29.041895,-1.3139163 36.569755,6.1490507 40.109239,13.535010 L 30.928372,28.211849 z " id="path2751" style="fill:#000000;fill-opacity:1.0000000;fill-rule:evenodd;stroke:none;stroke-width:0.25000000pt;stroke-linecap:butt;stroke-linejoin:miter;stroke-opacity:1.0000000"/>
      <path d="M 42.061814,26.481749 L 60.350049,26.638810 L 70.082475,10.889601 L 64.331400,13.834655 L 60.334303,6.6182881 C 59.102915,3.8589686 55.493541,1.4022881 52.294142,1.5241211 L 30.233590,1.6801230 C 34.942164,3.0573777 37.896780,6.5533043 40.401797,11.075868 L 47.153644,23.265664 L 42.061814,26.481749 z " id="path2752" style="fill:#000000;fill-opacity:1.0000000;fill-rule:evenodd;stroke:none;stroke-width:0.25000000pt;stroke-linecap:butt;stroke-linejoin:miter;stroke-opacity:1.0000000"/>
      <path d="M 0.44400982,27.380869 L 5.7948147,31.482111 L 0.75876087,40.946493 C -1.7592722,45.310624 2.5665138,49.562043 5.3226757,51.041841 C 8.0359564,52.498618 12.247261,52.671816 16.181673,52.619240 L 23.263621,41.261970 L 28.614426,44.101291 L 19.329208,27.223130 L 0.44400982,27.380869 z " id="path2753" style="fill:#000000;fill-opacity:1.0000000;fill-rule:evenodd;stroke:none;stroke-width:0.25000000pt;stroke-linecap:butt;stroke-linejoin:miter;stroke-opacity:1.0000000"/>
      <path d="M 1.2308874,49.306704 L 12.719387,70.128368 C 15.027578,73.020264 19.381675,73.703806 23.893136,73.598643 L 36.011137,73.598643 L 36.011137,53.881162 L 13.034138,53.723423 C 9.4669308,53.933737 4.7980948,53.197619 1.2308874,49.306704 z " id="path2754" style="fill:#000000;fill-opacity:1.0000000;fill-rule:evenodd;stroke:none;stroke-width:0.25000000pt;stroke-linecap:butt;stroke-linejoin:miter;stroke-opacity:1.0000000"/>
    </g>
  </g>
</svg>