<?xml version="1.0" standalone="no"?><!DOCTYPE svg PUBLIC "-//W3C//DTD SVG 1.1//EN" "http://www.w3.org/Graphics/SVG/1.1/DTD/svg11.dtd"><svg class="icon" height="512" viewBox="0 0 1024 1024" version="1.1" xmlns="http://www.w3.org/2000/svg"><path d="M256 768l102.4 0L204.8 972.8 51.2 768l102.4 0L153.6 51.2 256 51.2 256 768zM515.5 512 409.6 512 634.9 0l112.6 0 225.3 512L865.4 512l-58.6-155.1L579 356.9 515.5 512zM614.4 256 768 256c0 0-72.4-136.4-79.4-153.6C682.8 122.7 614.4 256 614.4 256zM460.8 665.6l313.8 0-313.8 256L460.8 1024l460.8 0L921.6 921.6 607.8 921.6l313.8-256L921.6 563.2 460.8 563.2 460.8 665.6z" /></svg>