<?xml version="1.0" encoding="utf-8"?>
<!-- Generator: Adobe Illustrator 22.1.0, SVG Export Plug-In . SVG Version: 6.00 Build 0)  -->
<svg version="1.1" id="Layer_1" xmlns="http://www.w3.org/2000/svg" xmlns:xlink="http://www.w3.org/1999/xlink" x="0px" y="0px"
	 viewBox="0 0 502.5 502.5" style="enable-background:new 0 0 502.5 502.5;" xml:space="preserve">
<style type="text/css">
	.st0{fill:#DADADA;}
	.st1{fill:#333333;}
	.st2{fill:none;stroke:#333333;stroke-width:3;stroke-linejoin:round;stroke-miterlimit:10;}
</style>
<path class="st0" d="M0,62.8h125.6v439.7H5c-2.8,0-5-2.2-5-5V62.8z"/>
<g>
	<path class="st1" d="M497.5,3c1.1,0,2,0.9,2,2v492.5c0,1.1-0.9,2-2,2H5c-1.1,0-2-0.9-2-2V5c0-1.1,0.9-2,2-2H497.5 M497.5,0H5
		C2.3,0,0,2.2,0,5v492.5c0,2.8,2.3,5,5,5h492.5c2.8,0,5-2.3,5-5V5C502.5,2.2,500.3,0,497.5,0L497.5,0z"/>
</g>
<line class="st2" x1="125.6" y1="0" x2="125.6" y2="502.5"/>
<line class="st2" x1="251.3" y1="0" x2="251.3" y2="502.5"/>
<line class="st2" x1="376.9" y1="0" x2="376.9" y2="502.5"/>
<line class="st2" x1="502.5" y1="62.8" x2="0" y2="62.8"/>
<path class="st1" d="M5,0h492.5c2.8,0,5,2.2,5,5v57.8H0V5C0,2.2,2.2,0,5,0z"/>
<line class="st2" x1="502.5" y1="125.6" x2="0" y2="125.6"/>
<line class="st2" x1="502.5" y1="188.4" x2="0" y2="188.4"/>
<line class="st2" x1="502.5" y1="251.3" x2="0" y2="251.3"/>
<line class="st2" x1="502.5" y1="314.1" x2="0" y2="314.1"/>
<line class="st2" x1="502.5" y1="376.9" x2="0" y2="376.9"/>
<line class="st2" x1="502.5" y1="439.7" x2="0" y2="439.7"/>
</svg>
