<?xml version="1.0" encoding="utf-8"?>
<!-- Generator: Adobe Illustrator 19.2.0, SVG Export Plug-In . SVG Version: 6.00 Build 0)  -->
<svg version="1.1" id="Layer_1" xmlns="http://www.w3.org/2000/svg" xmlns:xlink="http://www.w3.org/1999/xlink" x="0px" y="0px"
	 viewBox="0 0 238 212" style="enable-background:new 0 0 238 212;" xml:space="preserve">
<style type="text/css">
	.st0{fill:#333333;}
	.st1{fill:#1B1B1B;}
</style>
<g>
	<g>
		<path class="st0" d="M157.6,121.8c-23.1,0-46.3,0-69.4,0c-1.2,0-2.3,0.1-3.5,0c-3.4-0.4-5.2-2-5.4-5.4c-0.2-6.2-0.2-12.3,0-18.5
			c0.1-3.7,2-5.2,5.7-5.6c1-0.1,2,0,3,0c46.5,0,92.9,0,139.4,0c8.3,0,8.8,0.6,8.8,8.7c0,4.8,0,9.7,0,14.5c-0.1,4.9-1.3,6.2-6.2,6.3
			c-8,0.1-16,0-24,0C189.9,121.8,173.8,121.8,157.6,121.8C157.6,121.8,157.6,121.8,157.6,121.8z"/>
		<path class="st0" d="M233,16.2c2.3,0.5,3.3,2.1,3.3,4.3c0,6.7,0.1,13.3,0,20c-0.1,2.8-1.6,4.2-4.4,4.5c-1,0.1-2,0-3,0
			c-47.3,0-94.6,0-142,0c-0.7,0-1.3,0-2,0c-3.3-0.2-5.3-1.5-5.4-4.7c-0.3-6.6-0.2-13.3,0.1-20c0.1-2,1.2-3.8,3.6-4.2
			c1.6,0.3,3.1,0.8,4.7,0.8c19.4,0.1,38.9,0,58.3,0c27.2,0,54.5,0,81.7,0C229.5,17,231.2,16.4,233,16.2z"/>
		<path class="st0" d="M83,197.9c-2.9-0.6-3.7-2.9-3.7-5.2c-0.2-6-0.2-12,0-18c0.2-4.3,2.1-5.6,7.1-5.6c21.3,0,42.7,0,64,0
			c25.8,0,51.7,0,77.5,0c1.2,0,2.3-0.1,3.5,0c3.4,0.2,4.8,1.5,4.9,5c0.1,4.8,0,9.7,0,14.5c0,1.7,0,3.3,0,5c-0.1,2.2-1,3.8-3.3,4.4
			c-1.5-1.6-3.4-0.8-5.2-0.8c-22.6-0.1-45.2,0-67.8,0c-23.9,0-47.9,0-71.8,0C86.5,197,84.5,196.2,83,197.9z"/>
		<path class="st0" d="M31,3.1c6.7,0,13.3,0,20,0c5.4,0,7,1.5,7,6.7c0,13.8,0,27.7,0,41.5c0,4.6-1.7,6.5-6.3,6.5
			c-14,0.1-28,0.1-42,0c-4.6,0-5.9-1.5-5.9-6.1c0-14.2,0-28.3,0-42.5C3.8,4.3,5,3.1,10,3.1C17,3,24,3.1,31,3.1z"/>
		<path class="st0" d="M3.7,183.4c0-7,0-14,0-21c0-4.8,1.4-6.2,6.3-6.3c13.7-0.1,27.3-0.1,41,0c5.3,0,6.9,1.7,7,6.8
			c0,13.7,0,27.3,0,41c0,5.3-1.6,6.9-6.8,6.9c-13.7,0-27.3,0-41,0c-5.4,0-6.4-1.1-6.4-6.5C3.7,197.4,3.7,190.4,3.7,183.4z"/>
		<path class="st0" d="M58,107c0,6.5,0,13,0,19.5c0,0.8,0,1.7,0,2.5c-0.3,3.6-1.7,5.1-5.3,5.1c-5.2,0.1-10.3,0-15.5,0
			c-9.2,0-18.3,0-27.5,0c-4.7,0-5.9-1.1-5.9-5.9c-0.1-14.1,0-28.3,0-42.4c0-4.7,1.2-5.9,5.9-5.9c14,0,28,0,41.9,0
			c5,0,6.3,1.4,6.3,6.6C58,93.3,58,100.2,58,107z"/>
		<path class="st1" d="M233,16.2c-1.7,0.3-3.4,0.8-5.2,0.8c-27.2,0.1-54.5,0-81.7,0c-19.4,0-38.9,0-58.3,0c-1.6,0-3.1-0.5-4.7-0.8
			c1.5-0.1,3-0.2,4.5-0.2c47,0,94,0,140.9,0C230,15.9,231.5,16.1,233,16.2z"/>
		<path class="st1" d="M83,197.9c1.5-1.6,3.4-0.8,5.2-0.8c23.9-0.1,47.9,0,71.8,0c22.6,0,45.2,0,67.8,0c1.7,0,3.7-0.8,5.2,0.8
			c-1.3,0.1-2.7,0.2-4,0.2c-47.1,0-94.3,0-141.4,0C86,198,84.5,197.9,83,197.9z"/>
	</g>
</g>
</svg>
