<?xml version="1.0" encoding="utf-8"?>
<!-- Generator: Adobe Illustrator 16.0.0, SVG Export Plug-In . SVG Version: 6.00 Build 0)  -->
<!DOCTYPE svg PUBLIC "-//W3C//DTD SVG 1.1//EN" "http://www.w3.org/Graphics/SVG/1.1/DTD/svg11.dtd">
<svg version="1.1" id="Layer_1" xmlns="http://www.w3.org/2000/svg" xmlns:xlink="http://www.w3.org/1999/xlink" x="0px" y="0px"
	 width="40px" height="40px" viewBox="0 0 40 40" enable-background="new 0 0 40 40" xml:space="preserve">
<rect x="13.579" y="-0.968" transform="matrix(-0.7273 0.6863 -0.6863 -0.7273 48.7898 20.0219)" fill="#FB8C00" width="13.676" height="41.343"/>
<polyline fill="#FB7A00" points="10.726,1.281 37.394,29.543 29.255,37.224 "/>
<g>
	
		<rect x="18.392" y="0.592" transform="matrix(0.7257 -0.688 0.688 0.7257 -9.4997 18.7001)" fill="#FFFFFF" width="0.622" height="41.343"/>
</g>
<rect x="1.017" y="6.192" transform="matrix(0.7273 -0.6863 0.6863 0.7273 -2.2556 7.1382)" fill="#FFFFFF" width="13.678" height="0.431"/>
<rect x="6.017" y="11.192" transform="matrix(0.7273 -0.6863 0.6863 0.7273 -4.3237 11.9329)" fill="#FFFFFF" width="13.678" height="0.431"/>
<rect x="11.017" y="16.192" transform="matrix(0.7273 -0.6863 0.6863 0.7273 -6.3918 16.7277)" fill="#FFFFFF" width="13.678" height="0.431"/>
<rect x="15.017" y="21.192" transform="matrix(0.7273 -0.6863 0.6863 0.7273 -8.7325 20.8361)" fill="#FFFFFF" width="13.678" height="0.431"/>
<rect x="20.017" y="26.192" transform="matrix(0.7273 -0.6863 0.6863 0.7273 -10.8006 25.6309)" fill="#FFFFFF" width="13.678" height="0.431"/>
<rect x="25.017" y="31.192" transform="matrix(0.7273 -0.6863 0.6863 0.7273 -12.8687 30.4256)" fill="#FFFFFF" width="13.678" height="0.431"/>
<polyline fill="none" stroke="#919191" stroke-miterlimit="10" points="11.204,-0.024 1.256,9.363 29.631,39.432 39.577,30.046 "/>
</svg>
