<?xml version="1.0" encoding="utf-8"?>
<!-- Generator: Adobe Illustrator 16.0.0, SVG Export Plug-In . SVG Version: 6.00 Build 0)  -->
<!DOCTYPE svg PUBLIC "-//W3C//DTD SVG 1.1//EN" "http://www.w3.org/Graphics/SVG/1.1/DTD/svg11.dtd">
<svg version="1.1" id="Layer_1" xmlns="http://www.w3.org/2000/svg" xmlns:xlink="http://www.w3.org/1999/xlink" x="0px" y="0px"
	 width="40px" height="40px" viewBox="0 0 40 40" enable-background="new 0 0 40 40" xml:space="preserve">
<rect x="13.451" y="-0.965" transform="matrix(-0.7273 0.6863 -0.6863 -0.7273 48.5706 20.1129)" fill="#FFD5A1" width="13.676" height="41.341"/>
<polyline fill="#FDCD9F" points="10.598,1.281 37.266,29.543 29.127,37.225 "/>
<g>
	
		<rect x="18.265" y="0.592" transform="matrix(0.7249 -0.6888 0.6888 0.7249 -9.5366 18.6446)" fill="#FFFFFF" width="0.622" height="41.341"/>
</g>
<rect x="0.893" y="6.194" transform="matrix(0.7273 -0.6863 0.6863 0.7273 -2.2903 7.0545)" fill="#FFFFFF" width="13.678" height="0.431"/>
<rect x="5.893" y="11.194" transform="matrix(0.7273 -0.6863 0.6863 0.7273 -4.3585 11.8491)" fill="#FFFFFF" width="13.678" height="0.431"/>
<rect x="10.893" y="16.193" transform="matrix(0.7273 -0.6863 0.6863 0.7273 -6.426 16.6441)" fill="#FFFFFF" width="13.678" height="0.431"/>
<rect x="14.893" y="21.191" transform="matrix(0.7273 -0.6863 0.6863 0.7273 -8.7656 20.7532)" fill="#FFFFFF" width="13.678" height="0.432"/>
<rect x="19.893" y="26.191" transform="matrix(0.7273 -0.6864 0.6864 0.7273 -10.8337 25.5496)" fill="#FFFFFF" width="13.678" height="0.432"/>
<rect x="24.893" y="31.191" transform="matrix(0.7273 -0.6863 0.6863 0.7273 -12.9018 30.3429)" fill="#FFFFFF" width="13.678" height="0.432"/>
<polyline fill="none" stroke="#BDC2C6" stroke-miterlimit="10" points="11.076,-0.024 1.128,9.363 29.503,39.432 39.449,30.046 "/>
</svg>
