<?xml version="1.0" encoding="utf-8"?>
<!-- Generator: Adobe Illustrator 21.0.2, SVG Export Plug-In . SVG Version: 6.00 Build 0)  -->
<svg version="1.1" id="Layer_1" xmlns="http://www.w3.org/2000/svg" xmlns:xlink="http://www.w3.org/1999/xlink" x="0px" y="0px"
	 viewBox="0 0 74 56" style="enable-background:new 0 0 74 56;" xml:space="preserve">
<style type="text/css">
	.st0{enable-background:new    ;}
	.st1{fill:#595959;}
	.st2{fill:#575757;}
	.st3{fill:#494949;}
	.st4{fill:#7D7D7D;}
	.st5{fill:#5D5D5D;}
	.st6{fill:#5B5B5B;}
	.st7{fill:#525252;}
	.st8{fill:#545454;}
	.st9{fill:#4B4B4B;}
	.st10{fill:#5C5C5C;}
	.st11{fill:#C65000;}
	.st12{fill:none;}
	.st13{fill:#FB8C00;}
	.st14{fill:#9D160C;stroke:#9D160C;stroke-width:1.25;stroke-linejoin:round;stroke-miterlimit:10;}
	.st15{fill:none;stroke:#9D160C;stroke-width:1.25;stroke-linecap:square;stroke-linejoin:round;stroke-miterlimit:10;}
	.st16{fill:none;stroke:#6B767E;stroke-miterlimit:10;}
</style>
<g>
	<g>
		<g class="st0">
			<g>
				<polygon class="st1" points="19.3,32 19.3,31.1 22.9,32.5 22.9,33.4 				"/>
			</g>
			<g>
				<polygon class="st1" points="17.7,31.3 17.7,30.5 19.3,31.1 19.3,32 				"/>
			</g>
			<g>
				<polygon class="st2" points="17.4,29.6 17.4,28.7 17.7,30.5 17.7,31.3 				"/>
			</g>
			<g>
				<polygon class="st3" points="10.6,37 10.6,36.2 16.8,24.9 16.8,25.8 				"/>
			</g>
			<g>
				<polygon class="st4" points="16.8,25.8 17.4,29.6 17.7,31.3 19.3,32 22.9,33.4 10.6,37 				"/>
			</g>
			<g>
				<polygon class="st2" points="16.8,25.8 16.8,24.9 17.4,28.7 17.4,29.6 				"/>
			</g>
			<g>
				<polygon class="st3" points="17.4,29.6 17.4,28.7 36.1,13.8 36.1,14.6 				"/>
			</g>
			<g>
				<polygon class="st5" points="36.1,14.6 36.1,13.8 37.9,16.1 37.9,17 				"/>
			</g>
			<g>
				<polygon class="st4" points="36.1,14.6 37.9,17 19.3,32 17.7,31.3 17.4,29.6 				"/>
			</g>
		</g>
	</g>
</g>
<g>
	<g>
		<g class="st0">
			<g>
				<polygon class="st6" points="35.6,27.1 35.6,26.2 37.1,27.1 37.1,27.9 				"/>
			</g>
			<g>
				<polygon class="st3" points="37.1,27.9 37.1,27.1 38.6,26.2 38.6,27 				"/>
			</g>
			<g>
				<polygon class="st6" points="32.2,25.1 32.2,24.2 35.6,26.2 35.6,27.1 				"/>
			</g>
			<g>
				<polygon class="st3" points="38.6,27 38.6,26.2 41.9,24.2 41.9,25.1 				"/>
			</g>
			<g>
				<polygon class="st4" points="41.9,25.1 37.1,37 32.2,25.1 35.6,27.1 37.1,27.9 38.6,27 				"/>
			</g>
			<g>
				<polygon class="st7" points="35.5,15.8 35.5,15 38.5,14.9 38.5,15.8 				"/>
			</g>
			<g>
				<polygon class="st8" points="38.5,15.8 38.5,14.9 38.6,26.2 38.6,27 				"/>
			</g>
			<g>
				<polygon class="st4" points="38.5,15.8 38.6,27 37.1,27.9 35.6,27.1 35.5,15.8 				"/>
			</g>
		</g>
	</g>
</g>
<g>
	<g>
		<g class="st0">
			<g>
				<polygon class="st9" points="51.1,33.4 51.1,32.5 54.7,31.1 54.7,32 				"/>
			</g>
			<g>
				<polygon class="st9" points="54.7,32 54.7,31.1 56.3,30.5 56.3,31.3 				"/>
			</g>
			<g>
				<polygon class="st3" points="56.3,31.3 56.3,30.5 56.6,28.7 56.6,29.6 				"/>
			</g>
			<g>
				<polygon class="st3" points="56.6,29.6 56.6,28.7 57.2,24.9 57.2,25.8 				"/>
			</g>
			<g>
				<polygon class="st4" points="57.2,25.8 63.5,37 51.1,33.4 54.7,32 56.3,31.3 56.6,29.6 				"/>
			</g>
			<g>
				<polygon class="st10" points="57.2,25.8 57.2,24.9 63.5,36.2 63.5,37 				"/>
			</g>
			<g>
				<polygon class="st3" points="36.1,17 36.1,16.1 37.9,13.8 37.9,14.6 				"/>
			</g>
			<g>
				<polygon class="st10" points="37.9,14.6 37.9,13.8 56.6,28.7 56.6,29.6 				"/>
			</g>
			<g>
				<polygon class="st4" points="37.9,14.6 56.6,29.6 56.3,31.3 54.7,32 36.1,17 				"/>
			</g>
		</g>
	</g>
</g>
<rect x="1.6" y="36.6" class="st11" width="17.9" height="17.8"/>
<line class="st12" x1="0.8" y1="4.3" x2="0.3" y2="4.3"/>
<circle class="st13" cx="37" cy="10.5" r="10.5"/>
<path class="st11" d="M43.7,5.4C43.9,6.1,44,6.9,44,7.7c0,4.6-3.8,8.4-8.4,8.4c-2.7,0-5.1-1.3-6.7-3.3c1,3.5,4.2,6.1,8.1,6.1
	c4.6,0,8.4-3.8,8.4-8.4C45.4,8.6,44.8,6.8,43.7,5.4z"/>
<g>
	<path class="st14" d="M2.6,37.6"/>
	<path class="st14" d="M2.6,37.7"/>
</g>
<line class="st15" x1="2.6" y1="37.6" x2="2.6" y2="53.6"/>
<line class="st15" x1="2.6" y1="37.6" x2="18.6" y2="37.6"/>
<rect x="28.2" y="36.6" class="st11" width="17.9" height="17.8"/>
<g>
	<path class="st14" d="M29.2,37.6"/>
	<path class="st14" d="M29.2,37.6"/>
</g>
<line class="st15" x1="29.2" y1="37.6" x2="29.2" y2="53.6"/>
<line class="st15" x1="29.2" y1="37.6" x2="45.2" y2="37.6"/>
<rect x="54.5" y="36.6" class="st11" width="17.9" height="17.8"/>
<g>
	<path class="st14" d="M55.5,37.6"/>
	<path class="st14" d="M55.5,37.7"/>
</g>
<line class="st15" x1="55.5" y1="37.6" x2="55.5" y2="53.6"/>
<line class="st15" x1="55.5" y1="37.6" x2="71.5" y2="37.6"/>
<g>
	<path class="st16" d="M16.8,30.6"/>
	<path class="st16" d="M31.6,18.7"/>
	<g>
		<path class="st16" d="M12.8,34"/>
		<path class="st16" d="M16.9,30.3"/>
	</g>
</g>
</svg>
