<?xml version="1.0" encoding="utf-8"?>
<!-- Generator: Adobe Illustrator 21.0.2, SVG Export Plug-In . SVG Version: 6.00 Build 0)  -->
<svg version="1.1" id="Layer_1" xmlns="http://www.w3.org/2000/svg" xmlns:xlink="http://www.w3.org/1999/xlink" x="0px" y="0px"
	 viewBox="0 0 74 56" style="enable-background:new 0 0 74 56;" xml:space="preserve">
<style type="text/css">
	.st0{fill:#494949;}
	.st1{fill:#C65000;}
	.st2{fill:none;}
	.st3{fill:#FB8C00;}
	.st4{fill:#9D160C;stroke:#9D160C;stroke-width:1.25;stroke-linejoin:round;stroke-miterlimit:10;}
	.st5{fill:none;stroke:#9D160C;stroke-width:1.25;stroke-linecap:square;stroke-linejoin:round;stroke-miterlimit:10;}
	.st6{fill:none;stroke:#6B767E;stroke-miterlimit:10;}
	.st7{fill:#7D7D7D;}
</style>
<polygon class="st0" points="37.6,28.9 38.2,29.6 38.3,29.3 "/>
<polygon class="st0" points="54.9,26.1 55.4,26.8 54.1,26.7 "/>
<polygon class="st0" points="33,29.5 33.5,30.2 32.9,30.2 "/>
<polygon class="st0" points="19.7,25.8 20.2,26.5 20.5,25.6 "/>
<polygon class="st0" points="33,23.1 33.5,23.8 32.6,24.3 "/>
<polygon class="st0" points="19.7,32.2 20.2,32.9 20.6,32 "/>
<rect x="1.6" y="38.2" class="st1" width="17.9" height="17.8"/>
<line class="st2" x1="11.7" y1="-17.3" x2="11.4" y2="-17.3"/>
<circle class="st3" cx="37" cy="10.5" r="10.5"/>
<path class="st1" d="M43.7,5.4C43.9,6.1,44,6.9,44,7.7c0,4.6-3.8,8.4-8.4,8.4c-2.7,0-5.1-1.3-6.7-3.3c1,3.5,4.2,6.1,8.1,6.1
	c4.6,0,8.4-3.8,8.4-8.4C45.4,8.6,44.8,6.8,43.7,5.4z"/>
<g>
	<path class="st4" d="M2.6,39.2"/>
	<path class="st4" d="M2.6,39.2"/>
</g>
<line class="st5" x1="2.6" y1="39.2" x2="2.6" y2="55.2"/>
<line class="st5" x1="2.6" y1="39.2" x2="18.6" y2="39.2"/>
<rect x="28.2" y="38.2" class="st1" width="17.9" height="17.8"/>
<g>
	<path class="st4" d="M29.2,39.2"/>
	<path class="st4" d="M29.2,39.2"/>
</g>
<line class="st5" x1="29.2" y1="39.2" x2="29.2" y2="55.2"/>
<line class="st5" x1="29.2" y1="39.2" x2="45.2" y2="39.2"/>
<rect x="54.5" y="38.2" class="st1" width="17.9" height="17.8"/>
<g>
	<path class="st4" d="M55.5,39.2"/>
	<path class="st4" d="M55.5,39.2"/>
</g>
<line class="st5" x1="55.5" y1="39.2" x2="55.5" y2="55.2"/>
<line class="st5" x1="55.5" y1="39.2" x2="71.5" y2="39.2"/>
<g>
	<path class="st6" d="M16.8,30.6"/>
	<path class="st6" d="M31.6,18.7"/>
	<g>
		<path class="st6" d="M12.8,34"/>
		<path class="st6" d="M16.9,30.3"/>
	</g>
</g>
<g>
	<path class="st0" d="M12,3.4c-2.8,0-4.1,0.8-3.9,2.5l0.6,6.4c0,0.2,0,0.5,0,0.8c0,1.1-0.3,2-0.8,2.6c-0.6,0.6-1.4,1-2.5,1.2
		c1.1,0.2,2,0.6,2.6,1.1c0.6,0.6,0.8,1.4,0.8,2.6c0,0.4,0,0.6,0,0.8l-0.6,6.4c-0.2,1.7,1.1,2.5,3.9,2.5v2.4c-4.6,0-6.8-1.5-6.8-4.5
		c0-0.3,0-0.5,0-0.7l0.6-5.9c0-0.1,0-0.3,0-0.6c0-1-0.4-1.7-1.1-2.1c-0.7-0.5-2-0.7-3.8-0.7v-2.5c1.8,0,3.1-0.2,3.8-0.7
		c0.7-0.4,1.1-1.2,1.1-2.1c0-0.2,0-0.4,0-0.6l-0.6-6c0-0.2,0-0.4,0-0.7C5.1,2.5,7.4,1,12,1V3.4z"/>
	<path class="st7" d="M11,2.4c-2.8,0-4.1,0.8-3.9,2.5l0.6,6.4c0,0.2,0,0.5,0,0.8c0,1.1-0.3,2-0.8,2.6c-0.6,0.6-1.4,1-2.5,1.2
		c1.1,0.2,2,0.6,2.6,1.1c0.6,0.6,0.8,1.4,0.8,2.6c0,0.4,0,0.6,0,0.8l-0.6,6.4c-0.2,1.7,1.1,2.5,3.9,2.5v2.4c-4.6,0-6.8-1.5-6.8-4.5
		c0-0.3,0-0.5,0-0.7l0.6-5.9c0-0.1,0-0.3,0-0.6c0-1-0.4-1.7-1.1-2.1c-0.7-0.5-2-0.7-3.8-0.7v-2.5c1.8,0,3.1-0.2,3.8-0.7
		c0.7-0.4,1.1-1.2,1.1-2.1c0-0.2,0-0.4,0-0.6l-0.6-6c0-0.2,0-0.4,0-0.7C4.2,1.5,6.5,0,11,0V2.4z"/>
	<polygon class="st0" points="12,1 11,0 11,2.4 	"/>
	<polygon class="st0" points="1,18.1 0,17.1 1,17.1 	"/>
	<polygon class="st0" points="11,29.2 12,30.3 11,30.3 	"/>
</g>
<g>
	<polygon class="st0" points="73,14.5 74,15.6 72.7,15.8 	"/>
	<g>
		<polygon class="st0" points="62,2.4 63,3.4 63.5,2.2 		"/>
		<path class="st0" d="M69.8,5.6c0,0.3,0,0.5,0,0.7l-0.6,6c0,0.1,0,0.3,0,0.5c0,1,0.4,1.7,1.2,2.2c0.8,0.5,2,0.7,3.8,0.7v2.5
			c-1.7,0-3,0.2-3.8,0.7c-0.8,0.5-1.2,1.2-1.2,2.2c0,0.2,0,0.4,0,0.5l0.6,5.9c0,0.2,0,0.4,0,0.7c0,3-2.3,4.5-6.8,4.5v-2.4
			c1.3,0,2.3-0.2,3-0.6c0.7-0.4,1-1,0.9-1.9l-0.6-6.4c0-0.2,0-0.5,0-0.8c0-1.1,0.3-2,0.9-2.6c0.6-0.6,1.5-0.9,2.8-1.1
			c-1.3-0.2-2.2-0.6-2.8-1.2c-0.6-0.6-0.9-1.5-0.9-2.6c0-0.3,0-0.6,0-0.8l0.6-6.4c0.2-1.7-1.1-2.5-3.9-2.5V1
			C67.5,1,69.8,2.5,69.8,5.6z"/>
		<path class="st7" d="M68.9,4.5c0,0.3,0,0.5,0,0.7l-0.6,6c0,0.1,0,0.3,0,0.5c0,1,0.4,1.7,1.2,2.2c0.8,0.5,2,0.7,3.8,0.7v2.5
			c-1.7,0-3,0.2-3.8,0.7c-0.8,0.5-1.2,1.2-1.2,2.2c0,0.2,0,0.4,0,0.5l0.6,5.9c0,0.2,0,0.4,0,0.7c0,3-2.3,4.5-6.8,4.5v-2.4
			c1.3,0,2.3-0.2,3-0.6c0.7-0.4,1-1,0.9-1.9l-0.6-6.4c0-0.2,0-0.5,0-0.8c0-1.1,0.3-2,0.9-2.6c0.6-0.6,1.5-0.9,2.8-1.1
			c-1.3-0.2-2.2-0.6-2.8-1.2c-0.6-0.6-0.9-1.5-0.9-2.6c0-0.3,0-0.6,0-0.8l0.6-6.4c0.2-1.7-1.1-2.5-3.9-2.5V0
			C66.6,0,68.9,1.5,68.9,4.5z"/>
		<polygon class="st0" points="62,31.6 63,31.6 63,32.6 		"/>
	</g>
</g>
<g>
	<path class="st0" d="M33.5,23.8v2.7H20.2v-2.7H33.5z M33.5,30.2v2.7H20.2v-2.7H33.5z"/>
	<path class="st0" d="M45.7,25.7c0.6,0.3,1.2,0.8,1.9,1.4c0.5,0.5,0.9,0.8,1.3,1c0.3,0.2,0.7,0.3,1.1,0.3c1.2,0,2.3-0.9,3.3-2.8
		l2.1,1.1c-0.7,1.3-1.4,2.4-2.3,3.2c-0.8,0.8-1.9,1.2-3.2,1.2c-0.8,0-1.4-0.2-2-0.5c-0.6-0.3-1.2-0.8-1.9-1.4
		c-0.5-0.5-1-0.8-1.3-1.1c-0.4-0.2-0.8-0.3-1.2-0.3c-0.7,0-1.3,0.2-1.8,0.7c-0.5,0.5-1,1.2-1.5,2.1l-2.1-1.1
		c0.7-1.3,1.4-2.4,2.2-3.2c0.8-0.8,1.9-1.2,3.2-1.2C44.5,25.2,45.2,25.4,45.7,25.7z"/>
</g>
<g>
	<path class="st7" d="M33,23.1v2.7H19.7v-2.7H33z M33,29.5v2.7H19.7v-2.7H33z"/>
	<path class="st7" d="M45.2,25c0.6,0.3,1.2,0.8,1.9,1.4c0.5,0.5,0.9,0.8,1.3,1c0.3,0.2,0.7,0.3,1.1,0.3c1.2,0,2.3-0.9,3.3-2.8
		l2.1,1.1c-0.7,1.3-1.4,2.4-2.3,3.2c-0.8,0.8-1.9,1.2-3.2,1.2c-0.8,0-1.4-0.2-2-0.5c-0.6-0.3-1.2-0.8-1.9-1.4
		c-0.5-0.5-1-0.8-1.3-1.1c-0.4-0.2-0.8-0.3-1.2-0.3c-0.7,0-1.3,0.2-1.8,0.7c-0.5,0.5-1,1.2-1.5,2.1l-2.1-1.1
		c0.7-1.3,1.4-2.4,2.2-3.2c0.8-0.8,1.9-1.2,3.2-1.2C43.9,24.5,44.6,24.7,45.2,25z"/>
</g>
</svg>
